M48
; DRILL file {KiCad 5.1.10} date Wed Oct 20 12:50:47 2021
; FORMAT={-:-/ absolute / metric / decimal}
; #@! TF.CreationDate,2021-10-20T12:50:47+02:00
; #@! TF.GenerationSoftware,Kicad,Pcbnew,5.1.10
; #@! TF.FileFunction,Plated,1,2,PTH
FMAT,2
METRIC
T1C0.254
T2C0.500
T3C0.700
T4C0.800
T5C1.000
T6C1.100
T7C1.500
T8C3.200
%
G90
G05
T1
X40.29Y-125.07
X40.67Y-132.75
X40.86Y-132.14
X40.93Y-144.44
X41.63Y-143.65
X41.79Y-131.64
X41.92Y-128.4
X41.93Y-129.42
X42.05Y-126.83
X42.65Y-146.15
X43.31Y-131.88
X43.49Y-127.96
X43.81Y-129.12
X44.55Y-123.84
X44.58Y-126.8
X44.7Y-146.87
X44.92Y-127.98
X44.94Y-131.47
X44.95Y-129.49
X45.36Y-127.58
X45.55Y-144.31
X45.77Y-122.28
X45.82Y-125.1
X47.01Y-131.65
X47.42Y-123.83
X47.52Y-129.02
X47.58Y-125.69
X47.71Y-146.46
X47.74Y-144.82
X48.48Y-132.44
X49.14Y-129.28
X49.53Y-126.92
X49.66Y-131.98
X49.69Y-133.7
X49.74Y-129.53
X49.84Y-122.57
X50.15Y-144.66
X50.17Y-128.25
X50.35Y-146.45
X50.51Y-126.91
X50.54Y-123.28
X51.02Y-131.6
X51.48Y-127.55
X51.52Y-121.29
X51.53Y-133.05
X51.67Y-123.74
X51.88Y-135.14
X52.45Y-127.57
X52.48Y-133.73
X52.53Y-131.84
X52.53Y-133.04
X52.64Y-124.46
X53.42Y-127.58
X53.51Y-140.74
X53.59Y-131.75
X53.75Y-125.22
X54.39Y-126.26
X54.4Y-133.05
X55.05Y-135.8
X55.3Y-126.76
X55.33Y-142.34
X57.11Y-131.77
X57.85Y-142.51
X58.36Y-126.87
X58.66Y-128.42
X59.55Y-132.27
X59.56Y-127.49
X60.46Y-130.77
X60.8Y-132.28
X61.25Y-133.31
X61.32Y-146.93
X62.18Y-128.62
X62.68Y-128.25
X63.01Y-145.34
X63.94Y-134.02
X64.08Y-129.08
X65.46Y-145.23
X65.49Y-131.5
X68.09Y-131.09
X68.1Y-145.29
X75.48Y-135.81
X75.48Y-136.99
X78.3Y-140.65
X79.19Y-135.81
X79.19Y-136.98
X83.54Y-136.98
X83.55Y-135.8
X84.06Y-135.1
X84.09Y-137.28
X85.2Y-147.5
X85.44Y-135.79
X85.46Y-137.01
X88.34Y-131.6
X88.67Y-145.84
X88.79Y-136.98
X89.32Y-135.79
X89.82Y-137.0
X90.23Y-147.36
X90.25Y-144.3
X90.81Y-135.8
X91.52Y-145.86
X91.55Y-133.54
X92.32Y-134.37
X92.38Y-132.66
X92.55Y-130.0
X92.73Y-147.41
X92.8Y-144.37
X93.28Y-133.55
X94.06Y-145.85
X95.21Y-131.49
X96.63Y-131.03
X96.75Y-121.29
X97.45Y-130.26
X97.9Y-133.26
X97.97Y-129.72
X98.32Y-134.06
X98.69Y-128.98
X99.17Y-130.94
X99.44Y-128.23
X99.89Y-130.19
X100.3Y-127.42
X100.66Y-129.44
X101.52Y-128.58
X102.54Y-131.75
X103.31Y-130.58
X104.49Y-131.17
X106.23Y-134.21
X106.55Y-130.67
X107.57Y-139.89
X107.79Y-131.0
X108.84Y-141.41
X108.88Y-138.47
X110.46Y-139.9
X110.66Y-131.61
X110.83Y-138.59
X112.98Y-136.5
X113.07Y-138.5
X113.88Y-136.31
X114.72Y-135.45
X114.82Y-136.87
X115.93Y-135.69
X116.57Y-133.59
X117.31Y-134.36
X117.44Y-132.74
X118.2Y-133.47
X120.26Y-131.39
X121.78Y-131.17
X122.08Y-134.12
X123.31Y-131.08
X124.98Y-131.87
X126.39Y-133.93
X127.42Y-131.68
X128.29Y-131.04
X129.44Y-131.2
X131.1Y-134.06
X131.46Y-130.63
X132.51Y-131.78
X132.59Y-139.88
X133.87Y-141.32
X133.88Y-138.45
X135.12Y-131.94
X135.33Y-139.92
X135.37Y-137.05
X135.86Y-138.62
X138.09Y-136.43
X138.14Y-138.52
X139.39Y-136.66
X140.12Y-135.67
X140.4Y-136.93
X141.46Y-135.74
X142.19Y-133.61
X142.89Y-134.32
X143.03Y-132.78
X143.74Y-133.46
X144.95Y-131.24
X148.04Y-131.9
X151.02Y-131.26
X151.15Y-121.29
X152.45Y-131.16
X152.48Y-145.83
X153.74Y-144.44
X153.74Y-147.25
X154.89Y-148.12
X154.94Y-147.28
X155.02Y-145.84
X155.4Y-131.14
X156.28Y-147.27
X156.3Y-144.43
X157.25Y-144.45
X157.61Y-143.56
X157.62Y-145.85
X157.99Y-142.44
X158.19Y-139.86
X158.41Y-141.37
X159.03Y-145.01
X159.04Y-147.02
X159.45Y-138.44
X159.45Y-141.43
X160.43Y-137.25
X160.92Y-139.88
X161.05Y-147.0
X161.09Y-145.13
X161.49Y-138.57
X162.61Y-133.2
X163.12Y-129.15
X163.35Y-131.69
X163.36Y-130.03
X163.61Y-138.55
X164.25Y-139.09
X164.36Y-141.11
X164.36Y-142.402
X164.36Y-143.694
X164.36Y-144.986
X164.36Y-146.278
X164.36Y-147.57
X164.69Y-133.0
X164.71Y-131.35
X165.2Y-140.07
X165.25Y-138.05
X165.64Y-131.05
X165.75Y-137.15
X165.81Y-135.5
X167.0Y-144.17
X167.73Y-133.13
X167.8Y-131.18
X168.09Y-139.24
X168.27Y-144.16
X168.52Y-138.0
X168.54Y-136.4
X169.62Y-143.64
X170.93Y-144.29
X170.97Y-147.2
X171.81Y-146.41
X171.83Y-143.42
X171.95Y-134.09
X172.11Y-132.28
X173.11Y-135.24
X173.32Y-134.0
X173.4Y-130.93
X173.77Y-141.17
X174.16Y-134.86
X174.68Y-132.27
X174.72Y-140.37
X175.39Y-138.61
X177.21Y-132.27
X177.28Y-143.92
X177.77Y-142.06
X178.22Y-138.61
X178.49Y-130.92
X178.5Y-133.71
X178.86Y-142.12
X179.93Y-132.27
X180.11Y-146.33
X180.41Y-126.94
X180.46Y-139.92
X180.72Y-144.11
X180.96Y-147.2
X181.36Y-126.32
X181.53Y-139.92
X181.85Y-144.17
X182.23Y-128.71
X182.25Y-137.61
X182.36Y-129.93
X182.38Y-142.54
X182.67Y-125.64
X182.74Y-121.29
X183.41Y-129.92
X183.42Y-128.74
X184.12Y-130.61
X184.17Y-139.91
X184.26Y-128.74
X184.8Y-137.71
X184.9Y-129.92
X185.05Y-125.02
X185.84Y-141.69
X185.88Y-128.75
X185.94Y-129.97
X186.12Y-124.32
X186.26Y-126.16
X186.98Y-140.36
X187.21Y-135.76
X187.26Y-128.76
X187.27Y-129.92
X187.39Y-134.5
X187.56Y-132.63
X187.99Y-146.69
X189.42Y-144.47
X189.71Y-139.9
X189.992Y-133.096
X190.27Y-142.45
X190.36Y-140.23
X191.46Y-138.1
X191.47Y-137.26
X192.66Y-143.82
X193.16Y-137.55
X193.95Y-142.25
X194.23Y-146.4
X194.84Y-144.67
X194.93Y-133.77
X194.98Y-132.48
X195.24Y-143.83
X195.87Y-137.57
X195.97Y-134.68
X196.17Y-144.75
X196.18Y-146.98
X196.26Y-132.65
X196.49Y-142.28
X196.7Y-146.42
X197.33Y-143.53
X197.38Y-144.68
X197.45Y-136.1
X198.13Y-137.35
X198.76Y-144.77
X198.85Y-136.06
X198.97Y-142.82
X199.24Y-146.43
X199.8Y-137.07
X199.87Y-143.58
X200.84Y-144.55
X201.38Y-136.88
X201.4Y-134.79
X201.57Y-142.81
X201.83Y-145.39
X201.87Y-146.54
X202.06Y-143.37
X202.63Y-144.51
X203.46Y-143.48
X203.55Y-136.82
X203.61Y-134.87
X204.11Y-142.7
X204.37Y-146.62
X204.44Y-145.53
X204.63Y-143.38
X206.06Y-143.53
X207.35Y-143.54
X208.25Y-140.93
X208.64Y-143.47
X208.72Y-134.72
X208.75Y-139.7
X208.76Y-136.9
X208.86Y-145.44
X208.91Y-146.71
X209.21Y-141.82
X209.73Y-144.66
X209.89Y-143.51
X210.16Y-140.92
X210.35Y-125.66
X211.03Y-136.97
X211.03Y-139.72
X211.05Y-134.79
X211.14Y-143.46
X211.35Y-123.63
X211.38Y-145.42
X211.4Y-146.73
X211.49Y-126.26
X211.95Y-140.87
X212.11Y-122.96
X212.22Y-121.3
X212.31Y-144.6
X213.07Y-122.28
X213.41Y-143.54
X213.42Y-141.09
X213.89Y-146.7
X214.26Y-135.24
X214.32Y-142.7
X214.37Y-127.34
X214.376Y-138.43
X214.44Y-124.18
X214.51Y-144.73
X214.6Y-141.41
X214.884Y-131.572
X215.21Y-128.31
X215.64Y-143.93
X215.73Y-139.68
X215.79Y-144.69
X216.04Y-143.54
X216.44Y-146.54
X216.46Y-124.52
X216.61Y-135.2
X216.7Y-125.68
X216.81Y-142.29
X217.1Y-144.69
X217.424Y-138.684
X218.07Y-143.8
X218.31Y-146.96
X218.36Y-144.72
X218.4Y-130.21
X218.59Y-124.53
X218.59Y-125.67
X218.6Y-139.58
X218.98Y-127.38
X219.35Y-142.28
X219.59Y-135.12
X219.71Y-132.334
X219.89Y-140.08
X220.63Y-143.78
X220.87Y-135.0
X220.98Y-130.556
X221.8Y-123.71
X222.12Y-131.67
X222.22Y-133.63
X222.23Y-142.29
X222.34Y-140.05
X222.49Y-135.51
X222.57Y-141.77
X223.19Y-125.09
X223.27Y-122.5
X223.52Y-132.08
X223.54Y-140.39
X223.63Y-130.14
X223.65Y-137.68
X224.03Y-141.79
X224.34Y-121.53
X224.42Y-133.54
X224.59Y-137.67
X224.65Y-135.23
X225.298Y-139.954
X225.32Y-136.06
X225.58Y-138.65
X225.84Y-131.99
X225.89Y-141.8
X225.9Y-130.16
X225.98Y-140.38
X226.57Y-137.79
X226.92Y-135.23
X227.17Y-130.16
X227.27Y-140.68
X227.44Y-139.99
X227.73Y-141.8
X227.82Y-138.37
X227.86Y-136.72
X228.27Y-137.41
X228.35Y-140.67
X228.42Y-133.71
X228.47Y-135.36
X228.52Y-130.12
X228.76Y-138.01
X228.81Y-140.18
X229.06Y-141.62
X229.64Y-127.64
X229.76Y-135.22
X229.78Y-140.86
X229.81Y-134.05
X229.84Y-130.22
X230.01Y-140.08
X230.07Y-137.9
X230.45Y-136.5
T2
X225.903Y-124.016
X226.606Y-122.319
X226.606Y-125.713
X228.303Y-121.616
X228.303Y-126.416
X230.0Y-122.319
X230.0Y-125.713
X230.703Y-124.016
T3
X75.484Y-132.327
X75.484Y-139.947
X79.175Y-132.327
X79.175Y-139.947
X82.865Y-132.327
X82.865Y-139.947
X160.02Y-143.1
X160.02Y-146.05
X167.64Y-143.1
X167.64Y-146.05
X170.66Y-143.1
X170.66Y-146.05
X178.28Y-143.1
X178.28Y-146.05
X181.3Y-143.1
X181.3Y-146.05
X188.92Y-143.1
X188.92Y-146.05
X202.18Y-139.0
X209.8Y-139.0
X212.6Y-139.0
X215.6Y-123.8
X215.6Y-126.34
X220.22Y-139.0
X223.22Y-123.8
X223.22Y-126.34
X224.2Y-139.0
X224.2Y-146.62
X226.8Y-139.0
X226.8Y-146.62
X229.4Y-139.0
X229.4Y-146.62
T4
X91.083Y-132.279
X91.083Y-139.899
X93.623Y-132.279
X93.623Y-139.899
X96.163Y-132.279
X96.163Y-139.899
X98.703Y-132.279
X98.703Y-139.899
X101.243Y-132.279
X101.243Y-139.899
X103.783Y-132.279
X103.783Y-139.899
X106.323Y-132.279
X106.323Y-139.899
X108.863Y-132.279
X108.863Y-139.899
X111.919Y-135.017
X111.919Y-137.517
X116.086Y-132.279
X116.086Y-139.899
X118.626Y-132.279
X118.626Y-139.899
X121.166Y-132.279
X121.166Y-139.899
X123.706Y-132.279
X123.706Y-139.899
X126.246Y-132.279
X126.246Y-139.899
X128.786Y-132.279
X128.786Y-139.899
X131.326Y-132.279
X131.326Y-139.899
X133.866Y-132.279
X133.866Y-139.899
X136.922Y-135.017
X136.922Y-137.517
X141.684Y-132.279
X141.684Y-139.899
X144.224Y-132.279
X144.224Y-139.899
X146.764Y-132.279
X146.764Y-139.899
X149.304Y-132.279
X149.304Y-139.899
X151.844Y-132.279
X151.844Y-139.899
X154.384Y-132.279
X154.384Y-139.899
X156.924Y-132.279
X156.924Y-139.899
X159.464Y-132.279
X159.464Y-139.899
X162.52Y-135.017
X162.52Y-137.517
X166.688Y-132.159
X166.688Y-134.659
X166.688Y-137.994
X166.688Y-140.494
X170.855Y-132.279
X170.855Y-139.899
X173.395Y-132.279
X173.395Y-139.899
X175.935Y-132.279
X175.935Y-139.899
X178.475Y-132.279
X178.475Y-139.899
X182.88Y-131.318
X182.88Y-138.938
X185.42Y-131.318
X185.42Y-138.938
X187.96Y-131.318
X187.96Y-138.938
X190.5Y-131.318
X190.5Y-138.938
X192.881Y-145.852
X193.04Y-131.318
X193.04Y-138.938
X195.421Y-145.852
X195.58Y-131.318
X195.58Y-138.938
X197.961Y-145.852
X198.12Y-131.318
X198.12Y-138.938
X200.501Y-145.852
X202.46Y-133.34
X202.46Y-135.84
X203.041Y-145.852
X209.89Y-133.36
X209.89Y-135.86
X210.106Y-145.852
X212.646Y-145.852
X213.868Y-128.88
X213.868Y-136.5
X215.186Y-145.852
X216.408Y-128.88
X216.408Y-136.5
X217.726Y-145.852
X218.948Y-128.88
X218.948Y-136.5
X220.266Y-145.852
X221.488Y-128.88
X221.488Y-136.5
X224.028Y-128.88
X224.028Y-136.5
X226.568Y-128.88
X226.568Y-136.5
X229.108Y-128.88
X229.108Y-136.5
T5
X40.733Y-123.825
X40.733Y-126.365
X43.273Y-123.825
X43.273Y-126.365
X45.813Y-123.825
X45.813Y-126.365
X55.02Y-134.366
X57.62Y-134.366
X60.22Y-134.366
X75.893Y-144.761
X75.893Y-147.301
X78.433Y-144.761
X78.433Y-147.301
X80.973Y-144.761
X80.973Y-147.301
X83.513Y-147.301
X90.249Y-145.852
X92.789Y-145.852
X95.329Y-145.852
X97.869Y-145.852
X100.409Y-145.852
X102.949Y-145.852
X105.489Y-145.852
X108.029Y-145.852
X110.569Y-145.852
X113.109Y-145.852
X115.649Y-145.852
X118.189Y-145.852
X120.729Y-145.852
X123.269Y-145.852
X125.809Y-145.852
X128.349Y-145.852
X130.889Y-145.852
X133.429Y-145.852
X135.969Y-145.852
X138.509Y-145.852
X141.049Y-145.852
X143.589Y-145.852
X146.129Y-145.852
X148.669Y-145.852
X151.209Y-145.852
X153.749Y-145.852
X156.289Y-145.852
X192.683Y-142.28
X195.223Y-142.28
X197.763Y-142.28
X200.303Y-142.28
X202.843Y-142.28
X205.383Y-142.28
X207.923Y-142.28
X210.463Y-142.28
X213.003Y-142.28
X215.543Y-142.28
X218.083Y-142.28
X220.623Y-142.28
T6
X41.368Y-130.493
X41.368Y-145.733
X43.908Y-130.493
X43.908Y-145.733
X46.448Y-130.493
X46.448Y-145.733
X48.988Y-130.493
X48.988Y-145.733
X51.528Y-130.493
X51.528Y-145.733
X54.068Y-130.493
X54.068Y-145.733
X56.608Y-130.493
X56.608Y-145.733
X59.148Y-130.493
X59.148Y-145.733
X61.688Y-130.493
X61.688Y-145.733
X64.228Y-130.493
X64.228Y-145.733
X66.768Y-130.493
X66.768Y-145.733
X69.308Y-130.493
X69.308Y-145.733
T7
X206.18Y-134.89
T8
X228.303Y-124.016
T0
M30
