G04 #@! TF.GenerationSoftware,KiCad,Pcbnew,5.1.10*
G04 #@! TF.CreationDate,2021-10-20T12:50:39+02:00*
G04 #@! TF.ProjectId,TH-XWhatsIt,54482d58-5768-4617-9473-49742e6b6963,0.1.3*
G04 #@! TF.SameCoordinates,Original*
G04 #@! TF.FileFunction,Legend,Bot*
G04 #@! TF.FilePolarity,Positive*
%FSLAX46Y46*%
G04 Gerber Fmt 4.6, Leading zero omitted, Abs format (unit mm)*
G04 Created by KiCad (PCBNEW 5.1.10) date 2021-10-20 12:50:39*
%MOMM*%
%LPD*%
G01*
G04 APERTURE LIST*
%ADD10C,0.120000*%
%ADD11C,0.150000*%
%ADD12C,0.100000*%
%ADD13O,1.801600X1.801600*%
%ADD14O,1.501600X1.501600*%
%ADD15C,1.501600*%
%ADD16C,3.101600*%
%ADD17C,0.901600*%
%ADD18C,6.501600*%
%ADD19C,1.701600*%
%ADD20O,1.701600X1.701600*%
G04 APERTURE END LIST*
D10*
X47950000Y-130800000D02*
X47950000Y-129500000D01*
X48050000Y-131000000D02*
X47950000Y-130800000D01*
X47450000Y-130800000D02*
X47450000Y-129500000D01*
X47360000Y-131000000D02*
X47450000Y-130800000D01*
X75729312Y-143665523D02*
G75*
G02*
X76670000Y-143960000I170687J-1104476D01*
G01*
X77689788Y-143939769D02*
G75*
G02*
X78280001Y-143660001I750212J-820231D01*
G01*
X75730000Y-142210000D02*
X75730000Y-143680000D01*
X74220000Y-142210000D02*
X75730000Y-142210000D01*
X74220000Y-144300000D02*
X74220000Y-142210000D01*
X74890000Y-144300000D02*
X74220000Y-144300000D01*
X76667528Y-145577399D02*
G75*
G02*
X74890000Y-144300000I-767529J807400D01*
G01*
X79740000Y-143620000D02*
X79740000Y-140850000D01*
X79299850Y-144055546D02*
X79740000Y-143620000D01*
X79289415Y-144064088D02*
G75*
G02*
X77770000Y-145630000I-849415J-695912D01*
G01*
X78280000Y-140860000D02*
X78280001Y-143660001D01*
X79740000Y-140850000D02*
X78280000Y-140850000D01*
D11*
X78550000Y-141638095D02*
X78502380Y-141542857D01*
X78502380Y-141400000D01*
X78550000Y-141257142D01*
X78645238Y-141161904D01*
X78740476Y-141114285D01*
X78930952Y-141066666D01*
X79073809Y-141066666D01*
X79264285Y-141114285D01*
X79359523Y-141161904D01*
X79454761Y-141257142D01*
X79502380Y-141400000D01*
X79502380Y-141495238D01*
X79454761Y-141638095D01*
X79407142Y-141685714D01*
X79073809Y-141685714D01*
X79073809Y-141495238D01*
X79502380Y-142114285D02*
X78502380Y-142114285D01*
X79502380Y-142685714D01*
X78502380Y-142685714D01*
X79502380Y-143161904D02*
X78502380Y-143161904D01*
X78502380Y-143400000D01*
X78550000Y-143542857D01*
X78645238Y-143638095D01*
X78740476Y-143685714D01*
X78930952Y-143733333D01*
X79073809Y-143733333D01*
X79264285Y-143685714D01*
X79359523Y-143638095D01*
X79454761Y-143542857D01*
X79502380Y-143400000D01*
X79502380Y-143161904D01*
X74462380Y-143029523D02*
X74462380Y-142553333D01*
X74938571Y-142505714D01*
X74890952Y-142553333D01*
X74843333Y-142648571D01*
X74843333Y-142886666D01*
X74890952Y-142981904D01*
X74938571Y-143029523D01*
X75033809Y-143077142D01*
X75271904Y-143077142D01*
X75367142Y-143029523D01*
X75414761Y-142981904D01*
X75462380Y-142886666D01*
X75462380Y-142648571D01*
X75414761Y-142553333D01*
X75367142Y-142505714D01*
X74462380Y-143362857D02*
X75462380Y-143696190D01*
X74462380Y-144029523D01*
D10*
X85550000Y-148050000D02*
X84600000Y-148050000D01*
X85950000Y-147650000D02*
X85550000Y-148050000D01*
X85950000Y-146750000D02*
X85950000Y-147650000D01*
X82450000Y-148400000D02*
X82450000Y-146200000D01*
X84600000Y-148400000D02*
X82450000Y-148400000D01*
X84600000Y-146200000D02*
X82450000Y-146200000D01*
X84600000Y-146200000D02*
X84600000Y-148400000D01*
X77170000Y-145820000D02*
X77350000Y-146200000D01*
X77350000Y-148400000D02*
X77350000Y-146200000D01*
X79500000Y-148400000D02*
X77350000Y-148400000D01*
X79500000Y-146200000D02*
X77350000Y-146200000D01*
X79500000Y-146200000D02*
X79500000Y-148400000D01*
X77170000Y-143750000D02*
X77170000Y-145820000D01*
X79810000Y-146070000D02*
X79900000Y-146200000D01*
X79810000Y-144360000D02*
X79810000Y-146070000D01*
X82050000Y-148400000D02*
X79900000Y-148400000D01*
X82050000Y-146200000D02*
X82050000Y-148400000D01*
X79900000Y-148400000D02*
X79900000Y-146200000D01*
X82050000Y-146200000D02*
X79900000Y-146200000D01*
X80200000Y-143500000D02*
X79810000Y-144360000D01*
X86550000Y-138200000D02*
X86400000Y-138200000D01*
X86550000Y-146750000D02*
X86550000Y-138200000D01*
X86500000Y-146750000D02*
X86550000Y-146750000D01*
X85100000Y-146750000D02*
X86500000Y-146750000D01*
X85100000Y-138200000D02*
X85100000Y-146750000D01*
X86400000Y-138200000D02*
X85100000Y-138200000D01*
X77950000Y-143750000D02*
X77950000Y-135250000D01*
X76450000Y-143750000D02*
X77950000Y-143750000D01*
X76450000Y-135250000D02*
X76450000Y-143750000D01*
X77950000Y-135250000D02*
X76450000Y-135250000D01*
X80200000Y-143500000D02*
X81950000Y-143500000D01*
X80200000Y-135250000D02*
X80200000Y-143500000D01*
X80250000Y-135250000D02*
X80200000Y-135250000D01*
X81950000Y-135250000D02*
X80250000Y-135250000D01*
X81950000Y-143450000D02*
X81950000Y-135250000D01*
D11*
X77607142Y-136095238D02*
X77654761Y-136047619D01*
X77702380Y-135904761D01*
X77702380Y-135809523D01*
X77654761Y-135666666D01*
X77559523Y-135571428D01*
X77464285Y-135523809D01*
X77273809Y-135476190D01*
X77130952Y-135476190D01*
X76940476Y-135523809D01*
X76845238Y-135571428D01*
X76750000Y-135666666D01*
X76702380Y-135809523D01*
X76702380Y-135904761D01*
X76750000Y-136047619D01*
X76797619Y-136095238D01*
X77416666Y-136476190D02*
X77416666Y-136952380D01*
X77702380Y-136380952D02*
X76702380Y-136714285D01*
X77702380Y-137047619D01*
X77702380Y-137380952D02*
X76702380Y-137380952D01*
X76702380Y-137761904D01*
X76750000Y-137857142D01*
X76797619Y-137904761D01*
X76892857Y-137952380D01*
X77035714Y-137952380D01*
X77130952Y-137904761D01*
X77178571Y-137857142D01*
X77226190Y-137761904D01*
X77226190Y-137380952D01*
X77654761Y-138333333D02*
X77702380Y-138476190D01*
X77702380Y-138714285D01*
X77654761Y-138809523D01*
X77607142Y-138857142D01*
X77511904Y-138904761D01*
X77416666Y-138904761D01*
X77321428Y-138857142D01*
X77273809Y-138809523D01*
X77226190Y-138714285D01*
X77178571Y-138523809D01*
X77130952Y-138428571D01*
X77083333Y-138380952D01*
X76988095Y-138333333D01*
X76892857Y-138333333D01*
X76797619Y-138380952D01*
X76750000Y-138428571D01*
X76702380Y-138523809D01*
X76702380Y-138761904D01*
X76750000Y-138904761D01*
X77702380Y-140571428D02*
X77702380Y-140095238D01*
X76702380Y-140095238D01*
X76702380Y-141095238D02*
X76702380Y-141285714D01*
X76750000Y-141380952D01*
X76845238Y-141476190D01*
X77035714Y-141523809D01*
X77369047Y-141523809D01*
X77559523Y-141476190D01*
X77654761Y-141380952D01*
X77702380Y-141285714D01*
X77702380Y-141095238D01*
X77654761Y-141000000D01*
X77559523Y-140904761D01*
X77369047Y-140857142D01*
X77035714Y-140857142D01*
X76845238Y-140904761D01*
X76750000Y-141000000D01*
X76702380Y-141095238D01*
X77607142Y-142523809D02*
X77654761Y-142476190D01*
X77702380Y-142333333D01*
X77702380Y-142238095D01*
X77654761Y-142095238D01*
X77559523Y-142000000D01*
X77464285Y-141952380D01*
X77273809Y-141904761D01*
X77130952Y-141904761D01*
X76940476Y-141952380D01*
X76845238Y-142000000D01*
X76750000Y-142095238D01*
X76702380Y-142238095D01*
X76702380Y-142333333D01*
X76750000Y-142476190D01*
X76797619Y-142523809D01*
X77702380Y-142952380D02*
X76702380Y-142952380D01*
X77702380Y-143523809D02*
X77130952Y-143095238D01*
X76702380Y-143523809D02*
X77273809Y-142952380D01*
X81552380Y-135609523D02*
X80552380Y-135609523D01*
X81552380Y-136180952D01*
X80552380Y-136180952D01*
X80552380Y-136657142D02*
X81361904Y-136657142D01*
X81457142Y-136704761D01*
X81504761Y-136752380D01*
X81552380Y-136847619D01*
X81552380Y-137038095D01*
X81504761Y-137133333D01*
X81457142Y-137180952D01*
X81361904Y-137228571D01*
X80552380Y-137228571D01*
X81552380Y-137704761D02*
X80552380Y-137704761D01*
X81266666Y-138038095D01*
X80552380Y-138371428D01*
X81552380Y-138371428D01*
X81552380Y-140085714D02*
X81552380Y-139609523D01*
X80552380Y-139609523D01*
X80552380Y-140609523D02*
X80552380Y-140800000D01*
X80600000Y-140895238D01*
X80695238Y-140990476D01*
X80885714Y-141038095D01*
X81219047Y-141038095D01*
X81409523Y-140990476D01*
X81504761Y-140895238D01*
X81552380Y-140800000D01*
X81552380Y-140609523D01*
X81504761Y-140514285D01*
X81409523Y-140419047D01*
X81219047Y-140371428D01*
X80885714Y-140371428D01*
X80695238Y-140419047D01*
X80600000Y-140514285D01*
X80552380Y-140609523D01*
X81457142Y-142038095D02*
X81504761Y-141990476D01*
X81552380Y-141847619D01*
X81552380Y-141752380D01*
X81504761Y-141609523D01*
X81409523Y-141514285D01*
X81314285Y-141466666D01*
X81123809Y-141419047D01*
X80980952Y-141419047D01*
X80790476Y-141466666D01*
X80695238Y-141514285D01*
X80600000Y-141609523D01*
X80552380Y-141752380D01*
X80552380Y-141847619D01*
X80600000Y-141990476D01*
X80647619Y-142038095D01*
X81552380Y-142466666D02*
X80552380Y-142466666D01*
X81552380Y-143038095D02*
X80980952Y-142609523D01*
X80552380Y-143038095D02*
X81123809Y-142466666D01*
X86207142Y-139045238D02*
X86254761Y-138997619D01*
X86302380Y-138854761D01*
X86302380Y-138759523D01*
X86254761Y-138616666D01*
X86159523Y-138521428D01*
X86064285Y-138473809D01*
X85873809Y-138426190D01*
X85730952Y-138426190D01*
X85540476Y-138473809D01*
X85445238Y-138521428D01*
X85350000Y-138616666D01*
X85302380Y-138759523D01*
X85302380Y-138854761D01*
X85350000Y-138997619D01*
X85397619Y-139045238D01*
X86016666Y-139426190D02*
X86016666Y-139902380D01*
X86302380Y-139330952D02*
X85302380Y-139664285D01*
X86302380Y-139997619D01*
X86302380Y-140330952D02*
X85302380Y-140330952D01*
X85302380Y-140711904D01*
X85350000Y-140807142D01*
X85397619Y-140854761D01*
X85492857Y-140902380D01*
X85635714Y-140902380D01*
X85730952Y-140854761D01*
X85778571Y-140807142D01*
X85826190Y-140711904D01*
X85826190Y-140330952D01*
X86254761Y-141283333D02*
X86302380Y-141426190D01*
X86302380Y-141664285D01*
X86254761Y-141759523D01*
X86207142Y-141807142D01*
X86111904Y-141854761D01*
X86016666Y-141854761D01*
X85921428Y-141807142D01*
X85873809Y-141759523D01*
X85826190Y-141664285D01*
X85778571Y-141473809D01*
X85730952Y-141378571D01*
X85683333Y-141330952D01*
X85588095Y-141283333D01*
X85492857Y-141283333D01*
X85397619Y-141330952D01*
X85350000Y-141378571D01*
X85302380Y-141473809D01*
X85302380Y-141711904D01*
X85350000Y-141854761D01*
X86302380Y-143521428D02*
X86302380Y-143045238D01*
X85302380Y-143045238D01*
X85302380Y-144045238D02*
X85302380Y-144235714D01*
X85350000Y-144330952D01*
X85445238Y-144426190D01*
X85635714Y-144473809D01*
X85969047Y-144473809D01*
X86159523Y-144426190D01*
X86254761Y-144330952D01*
X86302380Y-144235714D01*
X86302380Y-144045238D01*
X86254761Y-143950000D01*
X86159523Y-143854761D01*
X85969047Y-143807142D01*
X85635714Y-143807142D01*
X85445238Y-143854761D01*
X85350000Y-143950000D01*
X85302380Y-144045238D01*
X86207142Y-145473809D02*
X86254761Y-145426190D01*
X86302380Y-145283333D01*
X86302380Y-145188095D01*
X86254761Y-145045238D01*
X86159523Y-144950000D01*
X86064285Y-144902380D01*
X85873809Y-144854761D01*
X85730952Y-144854761D01*
X85540476Y-144902380D01*
X85445238Y-144950000D01*
X85350000Y-145045238D01*
X85302380Y-145188095D01*
X85302380Y-145283333D01*
X85350000Y-145426190D01*
X85397619Y-145473809D01*
X86302380Y-145902380D02*
X85302380Y-145902380D01*
X86302380Y-146473809D02*
X85730952Y-146045238D01*
X85302380Y-146473809D02*
X85873809Y-145902380D01*
D10*
X41000000Y-122600000D02*
X41000000Y-121400000D01*
X41800000Y-123200000D02*
X41000000Y-122600000D01*
X41800000Y-124900000D02*
X41800000Y-123200000D01*
X41800000Y-124900000D02*
X40450000Y-124900000D01*
X39650000Y-124500000D02*
X40450000Y-124900000D01*
X39650000Y-122950000D02*
X39650000Y-124500000D01*
X38900000Y-122950000D02*
X39650000Y-122950000D01*
X38900000Y-121400000D02*
X38900000Y-122950000D01*
X41000000Y-121400000D02*
X38900000Y-121400000D01*
X42200000Y-122900000D02*
X41950000Y-122700000D01*
X42200000Y-124900000D02*
X42200000Y-122900000D01*
X44950000Y-121400000D02*
X41950000Y-121400000D01*
X41950000Y-122700000D02*
X41950000Y-121400000D01*
X44350000Y-124900000D02*
X42200000Y-124900000D01*
X44350000Y-123000000D02*
X44350000Y-124900000D01*
X44550000Y-123000000D02*
X44350000Y-123000000D01*
X44950000Y-121400000D02*
X44550000Y-123000000D01*
X48300000Y-122950000D02*
X48300000Y-121400000D01*
X47000000Y-122950000D02*
X48300000Y-122950000D01*
X47000000Y-123200000D02*
X47000000Y-122950000D01*
X47000000Y-124900000D02*
X47000000Y-123200000D01*
X44750000Y-124900000D02*
X47000000Y-124900000D01*
X44750000Y-123600000D02*
X44750000Y-124900000D01*
X45300000Y-121400000D02*
X44750000Y-123600000D01*
X48300000Y-121400000D02*
X45300000Y-121400000D01*
D11*
X38790476Y-125752380D02*
X39266666Y-125752380D01*
X39314285Y-126228571D01*
X39266666Y-126180952D01*
X39171428Y-126133333D01*
X38933333Y-126133333D01*
X38838095Y-126180952D01*
X38790476Y-126228571D01*
X38742857Y-126323809D01*
X38742857Y-126561904D01*
X38790476Y-126657142D01*
X38838095Y-126704761D01*
X38933333Y-126752380D01*
X39171428Y-126752380D01*
X39266666Y-126704761D01*
X39314285Y-126657142D01*
X38457142Y-125752380D02*
X38123809Y-126752380D01*
X37790476Y-125752380D01*
X47561904Y-121700000D02*
X47657142Y-121652380D01*
X47800000Y-121652380D01*
X47942857Y-121700000D01*
X48038095Y-121795238D01*
X48085714Y-121890476D01*
X48133333Y-122080952D01*
X48133333Y-122223809D01*
X48085714Y-122414285D01*
X48038095Y-122509523D01*
X47942857Y-122604761D01*
X47800000Y-122652380D01*
X47704761Y-122652380D01*
X47561904Y-122604761D01*
X47514285Y-122557142D01*
X47514285Y-122223809D01*
X47704761Y-122223809D01*
X47085714Y-122652380D02*
X47085714Y-121652380D01*
X46514285Y-122652380D01*
X46514285Y-121652380D01*
X46038095Y-122652380D02*
X46038095Y-121652380D01*
X45800000Y-121652380D01*
X45657142Y-121700000D01*
X45561904Y-121795238D01*
X45514285Y-121890476D01*
X45466666Y-122080952D01*
X45466666Y-122223809D01*
X45514285Y-122414285D01*
X45561904Y-122509523D01*
X45657142Y-122604761D01*
X45800000Y-122652380D01*
X46038095Y-122652380D01*
X44685714Y-121652380D02*
X44114285Y-121652380D01*
X44400000Y-122652380D02*
X44400000Y-121652380D01*
X43209523Y-122652380D02*
X43542857Y-122176190D01*
X43780952Y-122652380D02*
X43780952Y-121652380D01*
X43400000Y-121652380D01*
X43304761Y-121700000D01*
X43257142Y-121747619D01*
X43209523Y-121842857D01*
X43209523Y-121985714D01*
X43257142Y-122080952D01*
X43304761Y-122128571D01*
X43400000Y-122176190D01*
X43780952Y-122176190D01*
X42257142Y-121700000D02*
X42352380Y-121652380D01*
X42495238Y-121652380D01*
X42638095Y-121700000D01*
X42733333Y-121795238D01*
X42780952Y-121890476D01*
X42828571Y-122080952D01*
X42828571Y-122223809D01*
X42780952Y-122414285D01*
X42733333Y-122509523D01*
X42638095Y-122604761D01*
X42495238Y-122652380D01*
X42400000Y-122652380D01*
X42257142Y-122604761D01*
X42209523Y-122557142D01*
X42209523Y-122223809D01*
X42400000Y-122223809D01*
X40638095Y-122128571D02*
X40304761Y-122128571D01*
X40161904Y-122652380D02*
X40638095Y-122652380D01*
X40638095Y-121652380D01*
X40161904Y-121652380D01*
X39733333Y-122652380D02*
X39733333Y-121652380D01*
X39161904Y-122652380D01*
X39161904Y-121652380D01*
D10*
X41850000Y-127420000D02*
X41850000Y-125270000D01*
X39660000Y-127420000D02*
X41850000Y-127420000D01*
X39660000Y-125270000D02*
X39660000Y-127420000D01*
X41850000Y-125270000D02*
X39660000Y-125270000D01*
X39404382Y-127480000D02*
G75*
G03*
X39404382Y-127480000I-424382J0D01*
G01*
X94020000Y-144710000D02*
X94020000Y-147030000D01*
X152460000Y-144710000D02*
X152460000Y-147040000D01*
X157380000Y-147040000D02*
X157380000Y-144710000D01*
X88930000Y-147040000D02*
X157380000Y-147040000D01*
X88930000Y-144710000D02*
X88930000Y-147040000D01*
X157380000Y-144710000D02*
X88930000Y-144710000D01*
X196470000Y-141150000D02*
X196470000Y-143350000D01*
X216850000Y-141170000D02*
X216850000Y-143350000D01*
X221900000Y-143360000D02*
X221900000Y-141160000D01*
X191470000Y-143360000D02*
X221900000Y-143360000D01*
X191470000Y-141160000D02*
X191470000Y-143360000D01*
X221900000Y-141160000D02*
X191470000Y-141160000D01*
X42900000Y-129500000D02*
X44900000Y-129500000D01*
X42900000Y-131200000D02*
X42900000Y-129500000D01*
X43210000Y-131590000D02*
X42900000Y-131200000D01*
X43210000Y-135010000D02*
X43210000Y-131590000D01*
X41740000Y-135010000D02*
X43210000Y-135010000D01*
X41740000Y-138320000D02*
X41740000Y-135010000D01*
X44970000Y-138320000D02*
X41740000Y-138320000D01*
X44970000Y-134940000D02*
X44970000Y-138320000D01*
X44560000Y-134940000D02*
X44970000Y-134940000D01*
X44560000Y-134800000D02*
X44560000Y-134940000D01*
X44560000Y-131630000D02*
X44560000Y-134800000D01*
X44900000Y-131270000D02*
X44560000Y-131630000D01*
X44900000Y-129500000D02*
X44900000Y-131270000D01*
X45450000Y-129500000D02*
X47450000Y-129500000D01*
X45450000Y-131080000D02*
X45450000Y-129500000D01*
X45750000Y-131460000D02*
X45450000Y-131080000D01*
X45750000Y-134950000D02*
X45750000Y-131460000D01*
X45250000Y-134950000D02*
X45750000Y-134950000D01*
X45250000Y-138300000D02*
X45250000Y-134950000D01*
X48570000Y-138300000D02*
X45250000Y-138300000D01*
X48570000Y-134920000D02*
X48570000Y-138300000D01*
X47360000Y-134920000D02*
X48570000Y-134920000D01*
X47360000Y-131000000D02*
X47360000Y-134920000D01*
X50000000Y-131290000D02*
X49520000Y-131600000D01*
X50000000Y-129500000D02*
X50000000Y-131290000D01*
X47950000Y-129500000D02*
X50000000Y-129500000D01*
X48060000Y-133790000D02*
X48060000Y-131000000D01*
X49520000Y-133420000D02*
X48060000Y-133790000D01*
X49520000Y-131600000D02*
X49520000Y-133420000D01*
X60750000Y-131230000D02*
X61280000Y-131570000D01*
X60750000Y-129500000D02*
X60750000Y-131230000D01*
X62770000Y-129500000D02*
X60750000Y-129500000D01*
X62770000Y-136470000D02*
X62770000Y-129500000D01*
X61280000Y-136470000D02*
X62770000Y-136470000D01*
X61280000Y-131570000D02*
X61280000Y-136470000D01*
X67780000Y-131110000D02*
X67560000Y-131530000D01*
X67780000Y-129500000D02*
X67780000Y-131110000D01*
X65730000Y-129500000D02*
X67780000Y-129500000D01*
X65730000Y-129630000D02*
X65730000Y-129500000D01*
X65730000Y-131060000D02*
X65730000Y-129630000D01*
X65910000Y-131450000D02*
X65730000Y-131060000D01*
X65910000Y-135200000D02*
X65910000Y-131450000D01*
X67560000Y-135200000D02*
X65910000Y-135200000D01*
X67560000Y-131530000D02*
X67560000Y-135200000D01*
X68300000Y-134150000D02*
X70230000Y-133790000D01*
X68300000Y-129500000D02*
X68300000Y-134150000D01*
X70230000Y-129500000D02*
X68300000Y-129500000D01*
X70230000Y-133790000D02*
X70230000Y-129500000D01*
X58870000Y-129000000D02*
X58870000Y-122220000D01*
X60350000Y-129160000D02*
X60180000Y-129510000D01*
X60350000Y-122220000D02*
X60350000Y-129160000D01*
X58870000Y-122220000D02*
X60350000Y-122220000D01*
X58200000Y-129540000D02*
X58870000Y-129000000D01*
X58200000Y-131440000D02*
X58200000Y-129540000D01*
X60180000Y-131440000D02*
X58200000Y-131440000D01*
X60180000Y-129510000D02*
X60180000Y-131440000D01*
X55610000Y-131540000D02*
X57610000Y-131540000D01*
X55610000Y-123140000D02*
X55610000Y-131540000D01*
X57610000Y-123140000D02*
X55610000Y-123140000D01*
X57610000Y-131540000D02*
X57610000Y-123140000D01*
D11*
X60102380Y-123078571D02*
X60102380Y-122602380D01*
X59102380Y-122602380D01*
X59102380Y-123602380D02*
X59102380Y-123792857D01*
X59150000Y-123888095D01*
X59245238Y-123983333D01*
X59435714Y-124030952D01*
X59769047Y-124030952D01*
X59959523Y-123983333D01*
X60054761Y-123888095D01*
X60102380Y-123792857D01*
X60102380Y-123602380D01*
X60054761Y-123507142D01*
X59959523Y-123411904D01*
X59769047Y-123364285D01*
X59435714Y-123364285D01*
X59245238Y-123411904D01*
X59150000Y-123507142D01*
X59102380Y-123602380D01*
X59816666Y-124411904D02*
X59816666Y-124888095D01*
X60102380Y-124316666D02*
X59102380Y-124650000D01*
X60102380Y-124983333D01*
X60102380Y-125316666D02*
X59102380Y-125316666D01*
X59102380Y-125554761D01*
X59150000Y-125697619D01*
X59245238Y-125792857D01*
X59340476Y-125840476D01*
X59530952Y-125888095D01*
X59673809Y-125888095D01*
X59864285Y-125840476D01*
X59959523Y-125792857D01*
X60054761Y-125697619D01*
X60102380Y-125554761D01*
X60102380Y-125316666D01*
X60007142Y-126888095D02*
X60054761Y-126840476D01*
X60102380Y-126697619D01*
X60102380Y-126602380D01*
X60054761Y-126459523D01*
X59959523Y-126364285D01*
X59864285Y-126316666D01*
X59673809Y-126269047D01*
X59530952Y-126269047D01*
X59340476Y-126316666D01*
X59245238Y-126364285D01*
X59150000Y-126459523D01*
X59102380Y-126602380D01*
X59102380Y-126697619D01*
X59150000Y-126840476D01*
X59197619Y-126888095D01*
X59102380Y-127507142D02*
X59102380Y-127697619D01*
X59150000Y-127792857D01*
X59245238Y-127888095D01*
X59435714Y-127935714D01*
X59769047Y-127935714D01*
X59959523Y-127888095D01*
X60054761Y-127792857D01*
X60102380Y-127697619D01*
X60102380Y-127507142D01*
X60054761Y-127411904D01*
X59959523Y-127316666D01*
X59769047Y-127269047D01*
X59435714Y-127269047D01*
X59245238Y-127316666D01*
X59150000Y-127411904D01*
X59102380Y-127507142D01*
X60102380Y-128840476D02*
X60102380Y-128364285D01*
X59102380Y-128364285D01*
X55925000Y-123448095D02*
X55925000Y-124400476D01*
X57244761Y-123638571D02*
X57292380Y-123781428D01*
X57292380Y-124019523D01*
X57244761Y-124114761D01*
X57197142Y-124162380D01*
X57101904Y-124210000D01*
X57006666Y-124210000D01*
X56911428Y-124162380D01*
X56863809Y-124114761D01*
X56816190Y-124019523D01*
X56768571Y-123829047D01*
X56720952Y-123733809D01*
X56673333Y-123686190D01*
X56578095Y-123638571D01*
X56482857Y-123638571D01*
X56387619Y-123686190D01*
X56340000Y-123733809D01*
X56292380Y-123829047D01*
X56292380Y-124067142D01*
X56340000Y-124210000D01*
X55925000Y-124400476D02*
X55925000Y-125305238D01*
X56768571Y-124638571D02*
X56768571Y-124971904D01*
X57292380Y-125114761D02*
X57292380Y-124638571D01*
X56292380Y-124638571D01*
X56292380Y-125114761D01*
X55925000Y-125305238D02*
X55925000Y-126114761D01*
X57292380Y-126019523D02*
X57292380Y-125543333D01*
X56292380Y-125543333D01*
X55925000Y-126114761D02*
X55925000Y-127114761D01*
X57292380Y-126352857D02*
X56292380Y-126352857D01*
X56292380Y-126590952D01*
X56340000Y-126733809D01*
X56435238Y-126829047D01*
X56530476Y-126876666D01*
X56720952Y-126924285D01*
X56863809Y-126924285D01*
X57054285Y-126876666D01*
X57149523Y-126829047D01*
X57244761Y-126733809D01*
X57292380Y-126590952D01*
X57292380Y-126352857D01*
X55925000Y-127114761D02*
X55925000Y-127971904D01*
X57006666Y-127305238D02*
X57006666Y-127781428D01*
X57292380Y-127210000D02*
X56292380Y-127543333D01*
X57292380Y-127876666D01*
X55925000Y-127971904D02*
X55925000Y-128971904D01*
X57197142Y-128781428D02*
X57244761Y-128733809D01*
X57292380Y-128590952D01*
X57292380Y-128495714D01*
X57244761Y-128352857D01*
X57149523Y-128257619D01*
X57054285Y-128210000D01*
X56863809Y-128162380D01*
X56720952Y-128162380D01*
X56530476Y-128210000D01*
X56435238Y-128257619D01*
X56340000Y-128352857D01*
X56292380Y-128495714D01*
X56292380Y-128590952D01*
X56340000Y-128733809D01*
X56387619Y-128781428D01*
X68585000Y-131583809D02*
X68585000Y-132631428D01*
X68952380Y-132012380D02*
X68952380Y-132202857D01*
X69000000Y-132298095D01*
X69095238Y-132393333D01*
X69285714Y-132440952D01*
X69619047Y-132440952D01*
X69809523Y-132393333D01*
X69904761Y-132298095D01*
X69952380Y-132202857D01*
X69952380Y-132012380D01*
X69904761Y-131917142D01*
X69809523Y-131821904D01*
X69619047Y-131774285D01*
X69285714Y-131774285D01*
X69095238Y-131821904D01*
X69000000Y-131917142D01*
X68952380Y-132012380D01*
X68585000Y-132631428D02*
X68585000Y-133536190D01*
X69428571Y-132869523D02*
X69428571Y-133202857D01*
X69952380Y-133345714D02*
X69952380Y-132869523D01*
X68952380Y-132869523D01*
X68952380Y-133345714D01*
X67272380Y-131768571D02*
X66272380Y-131768571D01*
X66986666Y-132101904D01*
X66272380Y-132435238D01*
X67272380Y-132435238D01*
X66272380Y-133101904D02*
X66272380Y-133292380D01*
X66320000Y-133387619D01*
X66415238Y-133482857D01*
X66605714Y-133530476D01*
X66939047Y-133530476D01*
X67129523Y-133482857D01*
X67224761Y-133387619D01*
X67272380Y-133292380D01*
X67272380Y-133101904D01*
X67224761Y-133006666D01*
X67129523Y-132911428D01*
X66939047Y-132863809D01*
X66605714Y-132863809D01*
X66415238Y-132911428D01*
X66320000Y-133006666D01*
X66272380Y-133101904D01*
X67224761Y-133911428D02*
X67272380Y-134054285D01*
X67272380Y-134292380D01*
X67224761Y-134387619D01*
X67177142Y-134435238D01*
X67081904Y-134482857D01*
X66986666Y-134482857D01*
X66891428Y-134435238D01*
X66843809Y-134387619D01*
X66796190Y-134292380D01*
X66748571Y-134101904D01*
X66700952Y-134006666D01*
X66653333Y-133959047D01*
X66558095Y-133911428D01*
X66462857Y-133911428D01*
X66367619Y-133959047D01*
X66320000Y-134006666D01*
X66272380Y-134101904D01*
X66272380Y-134340000D01*
X66320000Y-134482857D01*
X67272380Y-134911428D02*
X66272380Y-134911428D01*
X62387142Y-132320952D02*
X62434761Y-132273333D01*
X62482380Y-132130476D01*
X62482380Y-132035238D01*
X62434761Y-131892380D01*
X62339523Y-131797142D01*
X62244285Y-131749523D01*
X62053809Y-131701904D01*
X61910952Y-131701904D01*
X61720476Y-131749523D01*
X61625238Y-131797142D01*
X61530000Y-131892380D01*
X61482380Y-132035238D01*
X61482380Y-132130476D01*
X61530000Y-132273333D01*
X61577619Y-132320952D01*
X62482380Y-133225714D02*
X62482380Y-132749523D01*
X61482380Y-132749523D01*
X61482380Y-133749523D02*
X61482380Y-133940000D01*
X61530000Y-134035238D01*
X61625238Y-134130476D01*
X61815714Y-134178095D01*
X62149047Y-134178095D01*
X62339523Y-134130476D01*
X62434761Y-134035238D01*
X62482380Y-133940000D01*
X62482380Y-133749523D01*
X62434761Y-133654285D01*
X62339523Y-133559047D01*
X62149047Y-133511428D01*
X61815714Y-133511428D01*
X61625238Y-133559047D01*
X61530000Y-133654285D01*
X61482380Y-133749523D01*
X62387142Y-135178095D02*
X62434761Y-135130476D01*
X62482380Y-134987619D01*
X62482380Y-134892380D01*
X62434761Y-134749523D01*
X62339523Y-134654285D01*
X62244285Y-134606666D01*
X62053809Y-134559047D01*
X61910952Y-134559047D01*
X61720476Y-134606666D01*
X61625238Y-134654285D01*
X61530000Y-134749523D01*
X61482380Y-134892380D01*
X61482380Y-134987619D01*
X61530000Y-135130476D01*
X61577619Y-135178095D01*
X62482380Y-135606666D02*
X61482380Y-135606666D01*
X62482380Y-136178095D02*
X61910952Y-135749523D01*
X61482380Y-136178095D02*
X62053809Y-135606666D01*
X48302380Y-132289523D02*
X48302380Y-131813333D01*
X48778571Y-131765714D01*
X48730952Y-131813333D01*
X48683333Y-131908571D01*
X48683333Y-132146666D01*
X48730952Y-132241904D01*
X48778571Y-132289523D01*
X48873809Y-132337142D01*
X49111904Y-132337142D01*
X49207142Y-132289523D01*
X49254761Y-132241904D01*
X49302380Y-132146666D01*
X49302380Y-131908571D01*
X49254761Y-131813333D01*
X49207142Y-131765714D01*
X48302380Y-132622857D02*
X49302380Y-132956190D01*
X48302380Y-133289523D01*
D10*
X173720000Y-143340000D02*
X172210000Y-143810000D01*
X173720000Y-142270000D02*
X173720000Y-143340000D01*
X175830000Y-142270000D02*
X173720000Y-142270000D01*
X175830000Y-148140000D02*
X175830000Y-142270000D01*
X172180000Y-148140000D02*
X175830000Y-148140000D01*
X172180000Y-146950000D02*
X172180000Y-148140000D01*
X169690000Y-146950000D02*
X172180000Y-146950000D01*
X169690000Y-145110000D02*
X169690000Y-146950000D01*
X172210000Y-145110000D02*
X169690000Y-145110000D01*
X172210000Y-143810000D02*
X172210000Y-145110000D01*
D11*
X173499761Y-143889642D02*
X173547380Y-144032500D01*
X173547380Y-144270595D01*
X173499761Y-144365833D01*
X173452142Y-144413452D01*
X173356904Y-144461071D01*
X173261666Y-144461071D01*
X173166428Y-144413452D01*
X173118809Y-144365833D01*
X173071190Y-144270595D01*
X173023571Y-144080119D01*
X172975952Y-143984880D01*
X172928333Y-143937261D01*
X172833095Y-143889642D01*
X172737857Y-143889642D01*
X172642619Y-143937261D01*
X172595000Y-143984880D01*
X172547380Y-144080119D01*
X172547380Y-144318214D01*
X172595000Y-144461071D01*
X173499761Y-145270595D02*
X173547380Y-145175357D01*
X173547380Y-144984880D01*
X173499761Y-144889642D01*
X173404523Y-144842023D01*
X173023571Y-144842023D01*
X172928333Y-144889642D01*
X172880714Y-144984880D01*
X172880714Y-145175357D01*
X172928333Y-145270595D01*
X173023571Y-145318214D01*
X173118809Y-145318214D01*
X173214047Y-144842023D01*
X172880714Y-145603928D02*
X172880714Y-145984880D01*
X172547380Y-145746785D02*
X173404523Y-145746785D01*
X173499761Y-145794404D01*
X173547380Y-145889642D01*
X173547380Y-145984880D01*
X172880714Y-146175357D02*
X172880714Y-146556309D01*
X172547380Y-146318214D02*
X173404523Y-146318214D01*
X173499761Y-146365833D01*
X173547380Y-146461071D01*
X173547380Y-146556309D01*
X173547380Y-147032500D02*
X173499761Y-146937261D01*
X173404523Y-146889642D01*
X172547380Y-146889642D01*
X173499761Y-147794404D02*
X173547380Y-147699166D01*
X173547380Y-147508690D01*
X173499761Y-147413452D01*
X173404523Y-147365833D01*
X173023571Y-147365833D01*
X172928333Y-147413452D01*
X172880714Y-147508690D01*
X172880714Y-147699166D01*
X172928333Y-147794404D01*
X173023571Y-147842023D01*
X173118809Y-147842023D01*
X173214047Y-147365833D01*
X174197380Y-142603928D02*
X175197380Y-142937261D01*
X174197380Y-143270595D01*
X175197380Y-143746785D02*
X175149761Y-143651547D01*
X175102142Y-143603928D01*
X175006904Y-143556309D01*
X174721190Y-143556309D01*
X174625952Y-143603928D01*
X174578333Y-143651547D01*
X174530714Y-143746785D01*
X174530714Y-143889642D01*
X174578333Y-143984880D01*
X174625952Y-144032500D01*
X174721190Y-144080119D01*
X175006904Y-144080119D01*
X175102142Y-144032500D01*
X175149761Y-143984880D01*
X175197380Y-143889642D01*
X175197380Y-143746785D01*
X175197380Y-144651547D02*
X175149761Y-144556309D01*
X175054523Y-144508690D01*
X174197380Y-144508690D01*
X174530714Y-144889642D02*
X174530714Y-145270595D01*
X174197380Y-145032500D02*
X175054523Y-145032500D01*
X175149761Y-145080119D01*
X175197380Y-145175357D01*
X175197380Y-145270595D01*
X175197380Y-146032500D02*
X174673571Y-146032500D01*
X174578333Y-145984880D01*
X174530714Y-145889642D01*
X174530714Y-145699166D01*
X174578333Y-145603928D01*
X175149761Y-146032500D02*
X175197380Y-145937261D01*
X175197380Y-145699166D01*
X175149761Y-145603928D01*
X175054523Y-145556309D01*
X174959285Y-145556309D01*
X174864047Y-145603928D01*
X174816428Y-145699166D01*
X174816428Y-145937261D01*
X174768809Y-146032500D01*
X174530714Y-146937261D02*
X175340238Y-146937261D01*
X175435476Y-146889642D01*
X175483095Y-146842023D01*
X175530714Y-146746785D01*
X175530714Y-146603928D01*
X175483095Y-146508690D01*
X175149761Y-146937261D02*
X175197380Y-146842023D01*
X175197380Y-146651547D01*
X175149761Y-146556309D01*
X175102142Y-146508690D01*
X175006904Y-146461071D01*
X174721190Y-146461071D01*
X174625952Y-146508690D01*
X174578333Y-146556309D01*
X174530714Y-146651547D01*
X174530714Y-146842023D01*
X174578333Y-146937261D01*
X175149761Y-147794404D02*
X175197380Y-147699166D01*
X175197380Y-147508690D01*
X175149761Y-147413452D01*
X175054523Y-147365833D01*
X174673571Y-147365833D01*
X174578333Y-147413452D01*
X174530714Y-147508690D01*
X174530714Y-147699166D01*
X174578333Y-147794404D01*
X174673571Y-147842023D01*
X174768809Y-147842023D01*
X174864047Y-147365833D01*
D10*
X171630000Y-142200000D02*
X171630000Y-144090000D01*
X166070000Y-142200000D02*
X171630000Y-142200000D01*
X164640000Y-141790000D02*
X166070000Y-142200000D01*
X164640000Y-140620000D02*
X164640000Y-141790000D01*
X162720000Y-140400000D02*
X164640000Y-140620000D01*
X162720000Y-148010000D02*
X162720000Y-140400000D01*
X165820000Y-148010000D02*
X162720000Y-148010000D01*
X166200000Y-147040000D02*
X165820000Y-148010000D01*
X168600000Y-147040000D02*
X166200000Y-147040000D01*
X168600000Y-144090000D02*
X168600000Y-147040000D01*
X171630000Y-144090000D02*
X168600000Y-144090000D01*
D11*
X163057380Y-140587261D02*
X163057380Y-141158690D01*
X164057380Y-140872976D02*
X163057380Y-140872976D01*
X164057380Y-141492023D02*
X163057380Y-141492023D01*
X164057380Y-141920595D02*
X163533571Y-141920595D01*
X163438333Y-141872976D01*
X163390714Y-141777738D01*
X163390714Y-141634880D01*
X163438333Y-141539642D01*
X163485952Y-141492023D01*
X164057380Y-142396785D02*
X163390714Y-142396785D01*
X163581190Y-142396785D02*
X163485952Y-142444404D01*
X163438333Y-142492023D01*
X163390714Y-142587261D01*
X163390714Y-142682500D01*
X164009761Y-143396785D02*
X164057380Y-143301547D01*
X164057380Y-143111071D01*
X164009761Y-143015833D01*
X163914523Y-142968214D01*
X163533571Y-142968214D01*
X163438333Y-143015833D01*
X163390714Y-143111071D01*
X163390714Y-143301547D01*
X163438333Y-143396785D01*
X163533571Y-143444404D01*
X163628809Y-143444404D01*
X163724047Y-142968214D01*
X164009761Y-143825357D02*
X164057380Y-143920595D01*
X164057380Y-144111071D01*
X164009761Y-144206309D01*
X163914523Y-144253928D01*
X163866904Y-144253928D01*
X163771666Y-144206309D01*
X163724047Y-144111071D01*
X163724047Y-143968214D01*
X163676428Y-143872976D01*
X163581190Y-143825357D01*
X163533571Y-143825357D01*
X163438333Y-143872976D01*
X163390714Y-143968214D01*
X163390714Y-144111071D01*
X163438333Y-144206309D01*
X164057380Y-144682500D02*
X163057380Y-144682500D01*
X164057380Y-145111071D02*
X163533571Y-145111071D01*
X163438333Y-145063452D01*
X163390714Y-144968214D01*
X163390714Y-144825357D01*
X163438333Y-144730119D01*
X163485952Y-144682500D01*
X164057380Y-145730119D02*
X164009761Y-145634880D01*
X163962142Y-145587261D01*
X163866904Y-145539642D01*
X163581190Y-145539642D01*
X163485952Y-145587261D01*
X163438333Y-145634880D01*
X163390714Y-145730119D01*
X163390714Y-145872976D01*
X163438333Y-145968214D01*
X163485952Y-146015833D01*
X163581190Y-146063452D01*
X163866904Y-146063452D01*
X163962142Y-146015833D01*
X164009761Y-145968214D01*
X164057380Y-145872976D01*
X164057380Y-145730119D01*
X164057380Y-146634880D02*
X164009761Y-146539642D01*
X163914523Y-146492023D01*
X163057380Y-146492023D01*
X164057380Y-147444404D02*
X163057380Y-147444404D01*
X164009761Y-147444404D02*
X164057380Y-147349166D01*
X164057380Y-147158690D01*
X164009761Y-147063452D01*
X163962142Y-147015833D01*
X163866904Y-146968214D01*
X163581190Y-146968214D01*
X163485952Y-147015833D01*
X163438333Y-147063452D01*
X163390714Y-147158690D01*
X163390714Y-147349166D01*
X163438333Y-147444404D01*
X164707380Y-142253928D02*
X165707380Y-142587261D01*
X164707380Y-142920595D01*
X165707380Y-143396785D02*
X165659761Y-143301547D01*
X165612142Y-143253928D01*
X165516904Y-143206309D01*
X165231190Y-143206309D01*
X165135952Y-143253928D01*
X165088333Y-143301547D01*
X165040714Y-143396785D01*
X165040714Y-143539642D01*
X165088333Y-143634880D01*
X165135952Y-143682500D01*
X165231190Y-143730119D01*
X165516904Y-143730119D01*
X165612142Y-143682500D01*
X165659761Y-143634880D01*
X165707380Y-143539642D01*
X165707380Y-143396785D01*
X165707380Y-144301547D02*
X165659761Y-144206309D01*
X165564523Y-144158690D01*
X164707380Y-144158690D01*
X165040714Y-144539642D02*
X165040714Y-144920595D01*
X164707380Y-144682500D02*
X165564523Y-144682500D01*
X165659761Y-144730119D01*
X165707380Y-144825357D01*
X165707380Y-144920595D01*
X165707380Y-145682500D02*
X165183571Y-145682500D01*
X165088333Y-145634880D01*
X165040714Y-145539642D01*
X165040714Y-145349166D01*
X165088333Y-145253928D01*
X165659761Y-145682500D02*
X165707380Y-145587261D01*
X165707380Y-145349166D01*
X165659761Y-145253928D01*
X165564523Y-145206309D01*
X165469285Y-145206309D01*
X165374047Y-145253928D01*
X165326428Y-145349166D01*
X165326428Y-145587261D01*
X165278809Y-145682500D01*
X165040714Y-146587261D02*
X165850238Y-146587261D01*
X165945476Y-146539642D01*
X165993095Y-146492023D01*
X166040714Y-146396785D01*
X166040714Y-146253928D01*
X165993095Y-146158690D01*
X165659761Y-146587261D02*
X165707380Y-146492023D01*
X165707380Y-146301547D01*
X165659761Y-146206309D01*
X165612142Y-146158690D01*
X165516904Y-146111071D01*
X165231190Y-146111071D01*
X165135952Y-146158690D01*
X165088333Y-146206309D01*
X165040714Y-146301547D01*
X165040714Y-146492023D01*
X165088333Y-146587261D01*
X165659761Y-147444404D02*
X165707380Y-147349166D01*
X165707380Y-147158690D01*
X165659761Y-147063452D01*
X165564523Y-147015833D01*
X165183571Y-147015833D01*
X165088333Y-147063452D01*
X165040714Y-147158690D01*
X165040714Y-147349166D01*
X165088333Y-147444404D01*
X165183571Y-147492023D01*
X165278809Y-147492023D01*
X165374047Y-147015833D01*
D10*
X174320000Y-127540000D02*
X172460000Y-127540000D01*
X172460000Y-133320000D02*
X172460000Y-127540000D01*
X174320000Y-127540000D02*
X174320000Y-133320000D01*
X174320000Y-133320000D02*
X172460000Y-133320000D01*
X171800000Y-123400000D02*
X171800000Y-133300000D01*
X169940000Y-123400000D02*
X171800000Y-123400000D01*
X169940000Y-133320000D02*
X169940000Y-123400000D01*
X171800000Y-133320000D02*
X169940000Y-133320000D01*
D11*
X172960000Y-128486785D02*
X172912380Y-128391547D01*
X172912380Y-128248690D01*
X172960000Y-128105833D01*
X173055238Y-128010595D01*
X173150476Y-127962976D01*
X173340952Y-127915357D01*
X173483809Y-127915357D01*
X173674285Y-127962976D01*
X173769523Y-128010595D01*
X173864761Y-128105833D01*
X173912380Y-128248690D01*
X173912380Y-128343928D01*
X173864761Y-128486785D01*
X173817142Y-128534404D01*
X173483809Y-128534404D01*
X173483809Y-128343928D01*
X173912380Y-128962976D02*
X172912380Y-128962976D01*
X173912380Y-129534404D01*
X172912380Y-129534404D01*
X173912380Y-130010595D02*
X172912380Y-130010595D01*
X172912380Y-130248690D01*
X172960000Y-130391547D01*
X173055238Y-130486785D01*
X173150476Y-130534404D01*
X173340952Y-130582023D01*
X173483809Y-130582023D01*
X173674285Y-130534404D01*
X173769523Y-130486785D01*
X173864761Y-130391547D01*
X173912380Y-130248690D01*
X173912380Y-130010595D01*
X171462380Y-123817261D02*
X170462380Y-123817261D01*
X170462380Y-124055357D01*
X170510000Y-124198214D01*
X170605238Y-124293452D01*
X170700476Y-124341071D01*
X170890952Y-124388690D01*
X171033809Y-124388690D01*
X171224285Y-124341071D01*
X171319523Y-124293452D01*
X171414761Y-124198214D01*
X171462380Y-124055357D01*
X171462380Y-123817261D01*
X171176666Y-124769642D02*
X171176666Y-125245833D01*
X171462380Y-124674404D02*
X170462380Y-125007738D01*
X171462380Y-125341071D01*
X171367142Y-126245833D02*
X171414761Y-126198214D01*
X171462380Y-126055357D01*
X171462380Y-125960119D01*
X171414761Y-125817261D01*
X171319523Y-125722023D01*
X171224285Y-125674404D01*
X171033809Y-125626785D01*
X170890952Y-125626785D01*
X170700476Y-125674404D01*
X170605238Y-125722023D01*
X170510000Y-125817261D01*
X170462380Y-125960119D01*
X170462380Y-126055357D01*
X170510000Y-126198214D01*
X170557619Y-126245833D01*
X170462380Y-127293452D02*
X171462380Y-127626785D01*
X170462380Y-127960119D01*
X170462380Y-128483928D02*
X170462380Y-128674404D01*
X170510000Y-128769642D01*
X170605238Y-128864880D01*
X170795714Y-128912500D01*
X171129047Y-128912500D01*
X171319523Y-128864880D01*
X171414761Y-128769642D01*
X171462380Y-128674404D01*
X171462380Y-128483928D01*
X171414761Y-128388690D01*
X171319523Y-128293452D01*
X171129047Y-128245833D01*
X170795714Y-128245833D01*
X170605238Y-128293452D01*
X170510000Y-128388690D01*
X170462380Y-128483928D01*
X170462380Y-129341071D02*
X171271904Y-129341071D01*
X171367142Y-129388690D01*
X171414761Y-129436309D01*
X171462380Y-129531547D01*
X171462380Y-129722023D01*
X171414761Y-129817261D01*
X171367142Y-129864880D01*
X171271904Y-129912500D01*
X170462380Y-129912500D01*
X170462380Y-130245833D02*
X170462380Y-130817261D01*
X171462380Y-130531547D02*
X170462380Y-130531547D01*
X205890000Y-130748095D02*
X205842380Y-130652857D01*
X205842380Y-130510000D01*
X205890000Y-130367142D01*
X205985238Y-130271904D01*
X206080476Y-130224285D01*
X206270952Y-130176666D01*
X206413809Y-130176666D01*
X206604285Y-130224285D01*
X206699523Y-130271904D01*
X206794761Y-130367142D01*
X206842380Y-130510000D01*
X206842380Y-130605238D01*
X206794761Y-130748095D01*
X206747142Y-130795714D01*
X206413809Y-130795714D01*
X206413809Y-130605238D01*
X206842380Y-131224285D02*
X205842380Y-131224285D01*
X206842380Y-131795714D01*
X205842380Y-131795714D01*
X206842380Y-132271904D02*
X205842380Y-132271904D01*
X205842380Y-132510000D01*
X205890000Y-132652857D01*
X205985238Y-132748095D01*
X206080476Y-132795714D01*
X206270952Y-132843333D01*
X206413809Y-132843333D01*
X206604285Y-132795714D01*
X206699523Y-132748095D01*
X206794761Y-132652857D01*
X206842380Y-132510000D01*
X206842380Y-132271904D01*
X47002380Y-132577380D02*
X46526190Y-132244047D01*
X47002380Y-132005952D02*
X46002380Y-132005952D01*
X46002380Y-132386904D01*
X46050000Y-132482142D01*
X46097619Y-132529761D01*
X46192857Y-132577380D01*
X46335714Y-132577380D01*
X46430952Y-132529761D01*
X46478571Y-132482142D01*
X46526190Y-132386904D01*
X46526190Y-132005952D01*
X46954761Y-132958333D02*
X47002380Y-133101190D01*
X47002380Y-133339285D01*
X46954761Y-133434523D01*
X46907142Y-133482142D01*
X46811904Y-133529761D01*
X46716666Y-133529761D01*
X46621428Y-133482142D01*
X46573809Y-133434523D01*
X46526190Y-133339285D01*
X46478571Y-133148809D01*
X46430952Y-133053571D01*
X46383333Y-133005952D01*
X46288095Y-132958333D01*
X46192857Y-132958333D01*
X46097619Y-133005952D01*
X46050000Y-133053571D01*
X46002380Y-133148809D01*
X46002380Y-133386904D01*
X46050000Y-133529761D01*
X46002380Y-133815476D02*
X46002380Y-134386904D01*
X47002380Y-134101190D02*
X46002380Y-134101190D01*
X43425000Y-132438095D02*
X43377380Y-132342857D01*
X43377380Y-132200000D01*
X43425000Y-132057142D01*
X43520238Y-131961904D01*
X43615476Y-131914285D01*
X43805952Y-131866666D01*
X43948809Y-131866666D01*
X44139285Y-131914285D01*
X44234523Y-131961904D01*
X44329761Y-132057142D01*
X44377380Y-132200000D01*
X44377380Y-132295238D01*
X44329761Y-132438095D01*
X44282142Y-132485714D01*
X43948809Y-132485714D01*
X43948809Y-132295238D01*
X44377380Y-132914285D02*
X43377380Y-132914285D01*
X44377380Y-133485714D01*
X43377380Y-133485714D01*
X44377380Y-133961904D02*
X43377380Y-133961904D01*
X43377380Y-134200000D01*
X43425000Y-134342857D01*
X43520238Y-134438095D01*
X43615476Y-134485714D01*
X43805952Y-134533333D01*
X43948809Y-134533333D01*
X44139285Y-134485714D01*
X44234523Y-134438095D01*
X44329761Y-134342857D01*
X44377380Y-134200000D01*
X44377380Y-133961904D01*
D12*
G36*
X82623840Y-145650420D02*
G01*
X82623840Y-143872420D01*
X84401840Y-143872420D01*
X84401840Y-145650420D01*
X82623840Y-145650420D01*
G37*
X82623840Y-145650420D02*
X82623840Y-143872420D01*
X84401840Y-143872420D01*
X84401840Y-145650420D01*
X82623840Y-145650420D01*
D11*
X70577560Y-129222616D02*
X70577560Y-147002616D01*
X70577560Y-147002616D02*
X40097560Y-147002616D01*
X40097560Y-147002616D02*
X40097560Y-141922616D01*
X40097560Y-141922616D02*
X37557560Y-141922616D01*
X37557560Y-141922616D02*
X37557560Y-134302616D01*
X37557560Y-134302616D02*
X40097560Y-134302616D01*
X40097560Y-134302616D02*
X40097560Y-129222616D01*
X40097560Y-129222616D02*
X70577560Y-129222616D01*
%LPC*%
D13*
X83512840Y-147301420D03*
X80972840Y-144761420D03*
X80972840Y-147301420D03*
X78432840Y-144761420D03*
X78432840Y-147301420D03*
X75892840Y-144761420D03*
X75892840Y-147301420D03*
D14*
X75483900Y-139947100D03*
D15*
X75483900Y-132327100D03*
D14*
X79174520Y-139947100D03*
D15*
X79174520Y-132327100D03*
D14*
X82865140Y-139947100D03*
D15*
X82865140Y-132327100D03*
D16*
X206180000Y-134890000D03*
D17*
X230000371Y-122318674D03*
X228303315Y-121615730D03*
X226606259Y-122318674D03*
X225903315Y-124015730D03*
X226606259Y-125712786D03*
X228303315Y-126415730D03*
X230000371Y-125712786D03*
X230703315Y-124015730D03*
D18*
X228303315Y-124015730D03*
G36*
G01*
X45341200Y-138152000D02*
X45341200Y-135152000D01*
G75*
G02*
X45392000Y-135101200I50800J0D01*
G01*
X48392000Y-135101200D01*
G75*
G02*
X48442800Y-135152000I0J-50800D01*
G01*
X48442800Y-138152000D01*
G75*
G02*
X48392000Y-138202800I-50800J0D01*
G01*
X45392000Y-138202800D01*
G75*
G02*
X45341200Y-138152000I0J50800D01*
G01*
G37*
G36*
G01*
X41841200Y-138152000D02*
X41841200Y-135152000D01*
G75*
G02*
X41892000Y-135101200I50800J0D01*
G01*
X44892000Y-135101200D01*
G75*
G02*
X44942800Y-135152000I0J-50800D01*
G01*
X44942800Y-138152000D01*
G75*
G02*
X44892000Y-138202800I-50800J0D01*
G01*
X41892000Y-138202800D01*
G75*
G02*
X41841200Y-138152000I0J50800D01*
G01*
G37*
D19*
X41367560Y-130492616D03*
X43907560Y-130492616D03*
X46447560Y-130492616D03*
X48987560Y-130492616D03*
X51527560Y-130492616D03*
X54067560Y-130492616D03*
X56607560Y-130492616D03*
X59147560Y-130492616D03*
X61687560Y-130492616D03*
X64227560Y-130492616D03*
X66767560Y-130492616D03*
X69307560Y-130492616D03*
X69307560Y-145732616D03*
X66767560Y-145732616D03*
X64227560Y-145732616D03*
X61687560Y-145732616D03*
X59147560Y-145732616D03*
X56607560Y-145732616D03*
X54067560Y-145732616D03*
X51527560Y-145732616D03*
X48987560Y-145732616D03*
X46447560Y-145732616D03*
X43907560Y-145732616D03*
G36*
G01*
X40516760Y-146532616D02*
X40516760Y-144932616D01*
G75*
G02*
X40567560Y-144881816I50800J0D01*
G01*
X42167560Y-144881816D01*
G75*
G02*
X42218360Y-144932616I0J-50800D01*
G01*
X42218360Y-146532616D01*
G75*
G02*
X42167560Y-146583416I-50800J0D01*
G01*
X40567560Y-146583416D01*
G75*
G02*
X40516760Y-146532616I0J50800D01*
G01*
G37*
D20*
X213868000Y-128880000D03*
X229108000Y-136500000D03*
X216408000Y-128880000D03*
X226568000Y-136500000D03*
X218948000Y-128880000D03*
X224028000Y-136500000D03*
X221488000Y-128880000D03*
X221488000Y-136500000D03*
X224028000Y-128880000D03*
X218948000Y-136500000D03*
X226568000Y-128880000D03*
X216408000Y-136500000D03*
X229108000Y-128880000D03*
G36*
G01*
X214668000Y-137350800D02*
X213068000Y-137350800D01*
G75*
G02*
X213017200Y-137300000I0J50800D01*
G01*
X213017200Y-135700000D01*
G75*
G02*
X213068000Y-135649200I50800J0D01*
G01*
X214668000Y-135649200D01*
G75*
G02*
X214718800Y-135700000I0J-50800D01*
G01*
X214718800Y-137300000D01*
G75*
G02*
X214668000Y-137350800I-50800J0D01*
G01*
G37*
D14*
X223220000Y-123800000D03*
D15*
X215600000Y-123800000D03*
D14*
X215600000Y-126340000D03*
D15*
X223220000Y-126340000D03*
D14*
X188920000Y-143100000D03*
D15*
X181300000Y-143100000D03*
D14*
X226800000Y-139000000D03*
D15*
X226800000Y-146620000D03*
D14*
X188920000Y-146050000D03*
D15*
X181300000Y-146050000D03*
D14*
X178280000Y-146050000D03*
D15*
X170660000Y-146050000D03*
D14*
X202180000Y-139000000D03*
D15*
X209800000Y-139000000D03*
D14*
X224200000Y-139000000D03*
D15*
X224200000Y-146620000D03*
D14*
X220220000Y-139000000D03*
D15*
X212600000Y-139000000D03*
D14*
X229400000Y-139000000D03*
D15*
X229400000Y-146620000D03*
D14*
X167640000Y-146050000D03*
D15*
X160020000Y-146050000D03*
D14*
X178280000Y-143100000D03*
D15*
X170660000Y-143100000D03*
D14*
X160020000Y-143100000D03*
D15*
X167640000Y-143100000D03*
D19*
X202460000Y-133340000D03*
X202460000Y-135840000D03*
D13*
X192682985Y-142279807D03*
X195222985Y-142279807D03*
X197762985Y-142279807D03*
X200302985Y-142279807D03*
X202842985Y-142279807D03*
X205382985Y-142279807D03*
X207922985Y-142279807D03*
X210462985Y-142279807D03*
X213002985Y-142279807D03*
X215542985Y-142279807D03*
X218082985Y-142279807D03*
G36*
G01*
X219772985Y-141379007D02*
X221472985Y-141379007D01*
G75*
G02*
X221523785Y-141429807I0J-50800D01*
G01*
X221523785Y-143129807D01*
G75*
G02*
X221472985Y-143180607I-50800J0D01*
G01*
X219772985Y-143180607D01*
G75*
G02*
X219722185Y-143129807I0J50800D01*
G01*
X219722185Y-141429807D01*
G75*
G02*
X219772985Y-141379007I50800J0D01*
G01*
G37*
X156289470Y-145851685D03*
X153749470Y-145851685D03*
X151209470Y-145851685D03*
X148669470Y-145851685D03*
X146129470Y-145851685D03*
X143589470Y-145851685D03*
X141049470Y-145851685D03*
X138509470Y-145851685D03*
X135969470Y-145851685D03*
X133429470Y-145851685D03*
X130889470Y-145851685D03*
X128349470Y-145851685D03*
X125809470Y-145851685D03*
X123269470Y-145851685D03*
X120729470Y-145851685D03*
X118189470Y-145851685D03*
X115649470Y-145851685D03*
X113109470Y-145851685D03*
X110569470Y-145851685D03*
X108029470Y-145851685D03*
X105489470Y-145851685D03*
X102949470Y-145851685D03*
X100409470Y-145851685D03*
X97869470Y-145851685D03*
X95329470Y-145851685D03*
X92789470Y-145851685D03*
G36*
G01*
X91099470Y-146752485D02*
X89399470Y-146752485D01*
G75*
G02*
X89348670Y-146701685I0J50800D01*
G01*
X89348670Y-145001685D01*
G75*
G02*
X89399470Y-144950885I50800J0D01*
G01*
X91099470Y-144950885D01*
G75*
G02*
X91150270Y-145001685I0J-50800D01*
G01*
X91150270Y-146701685D01*
G75*
G02*
X91099470Y-146752485I-50800J0D01*
G01*
G37*
D20*
X203041412Y-145851685D03*
X200501412Y-145851685D03*
X197961412Y-145851685D03*
X195421412Y-145851685D03*
G36*
G01*
X192030612Y-146651685D02*
X192030612Y-145051685D01*
G75*
G02*
X192081412Y-145000885I50800J0D01*
G01*
X193681412Y-145000885D01*
G75*
G02*
X193732212Y-145051685I0J-50800D01*
G01*
X193732212Y-146651685D01*
G75*
G02*
X193681412Y-146702485I-50800J0D01*
G01*
X192081412Y-146702485D01*
G75*
G02*
X192030612Y-146651685I0J50800D01*
G01*
G37*
D13*
X45812552Y-123825104D03*
X45812552Y-126365104D03*
X43272552Y-123825104D03*
X43272552Y-126365104D03*
X40732552Y-123825104D03*
G36*
G01*
X41582552Y-127265904D02*
X39882552Y-127265904D01*
G75*
G02*
X39831752Y-127215104I0J50800D01*
G01*
X39831752Y-125515104D01*
G75*
G02*
X39882552Y-125464304I50800J0D01*
G01*
X41582552Y-125464304D01*
G75*
G02*
X41633352Y-125515104I0J-50800D01*
G01*
X41633352Y-127215104D01*
G75*
G02*
X41582552Y-127265904I-50800J0D01*
G01*
G37*
D20*
X182880000Y-131318000D03*
X198120000Y-138938000D03*
X185420000Y-131318000D03*
X195580000Y-138938000D03*
X187960000Y-131318000D03*
X193040000Y-138938000D03*
X190500000Y-131318000D03*
X190500000Y-138938000D03*
X193040000Y-131318000D03*
X187960000Y-138938000D03*
X195580000Y-131318000D03*
X185420000Y-138938000D03*
X198120000Y-131318000D03*
G36*
G01*
X183680000Y-139788800D02*
X182080000Y-139788800D01*
G75*
G02*
X182029200Y-139738000I0J50800D01*
G01*
X182029200Y-138138000D01*
G75*
G02*
X182080000Y-138087200I50800J0D01*
G01*
X183680000Y-138087200D01*
G75*
G02*
X183730800Y-138138000I0J-50800D01*
G01*
X183730800Y-139738000D01*
G75*
G02*
X183680000Y-139788800I-50800J0D01*
G01*
G37*
D19*
X166687640Y-140493868D03*
X166687640Y-137993868D03*
X166687640Y-134659486D03*
X166687640Y-132159486D03*
D20*
X170854831Y-132278555D03*
X178474831Y-139898555D03*
X173394831Y-132278555D03*
X175934831Y-139898555D03*
X175934831Y-132278555D03*
X173394831Y-139898555D03*
X178474831Y-132278555D03*
G36*
G01*
X171654831Y-140749355D02*
X170054831Y-140749355D01*
G75*
G02*
X170004031Y-140698555I0J50800D01*
G01*
X170004031Y-139098555D01*
G75*
G02*
X170054831Y-139047755I50800J0D01*
G01*
X171654831Y-139047755D01*
G75*
G02*
X171705631Y-139098555I0J-50800D01*
G01*
X171705631Y-140698555D01*
G75*
G02*
X171654831Y-140749355I-50800J0D01*
G01*
G37*
X141684494Y-132278555D03*
X159464494Y-139898555D03*
X144224494Y-132278555D03*
X156924494Y-139898555D03*
X146764494Y-132278555D03*
X154384494Y-139898555D03*
X149304494Y-132278555D03*
X151844494Y-139898555D03*
X151844494Y-132278555D03*
X149304494Y-139898555D03*
X154384494Y-132278555D03*
X146764494Y-139898555D03*
X156924494Y-132278555D03*
X144224494Y-139898555D03*
X159464494Y-132278555D03*
G36*
G01*
X142484494Y-140749355D02*
X140884494Y-140749355D01*
G75*
G02*
X140833694Y-140698555I0J50800D01*
G01*
X140833694Y-139098555D01*
G75*
G02*
X140884494Y-139047755I50800J0D01*
G01*
X142484494Y-139047755D01*
G75*
G02*
X142535294Y-139098555I0J-50800D01*
G01*
X142535294Y-140698555D01*
G75*
G02*
X142484494Y-140749355I-50800J0D01*
G01*
G37*
X116086035Y-132278555D03*
X133866035Y-139898555D03*
X118626035Y-132278555D03*
X131326035Y-139898555D03*
X121166035Y-132278555D03*
X128786035Y-139898555D03*
X123706035Y-132278555D03*
X126246035Y-139898555D03*
X126246035Y-132278555D03*
X123706035Y-139898555D03*
X128786035Y-132278555D03*
X121166035Y-139898555D03*
X131326035Y-132278555D03*
X118626035Y-139898555D03*
X133866035Y-132278555D03*
G36*
G01*
X116886035Y-140749355D02*
X115286035Y-140749355D01*
G75*
G02*
X115235235Y-140698555I0J50800D01*
G01*
X115235235Y-139098555D01*
G75*
G02*
X115286035Y-139047755I50800J0D01*
G01*
X116886035Y-139047755D01*
G75*
G02*
X116936835Y-139098555I0J-50800D01*
G01*
X116936835Y-140698555D01*
G75*
G02*
X116886035Y-140749355I-50800J0D01*
G01*
G37*
D19*
X111918844Y-135017303D03*
X111918844Y-137517303D03*
X136921990Y-135017303D03*
X136921990Y-137517303D03*
X162520449Y-135017303D03*
X162520449Y-137517303D03*
X209890000Y-133360000D03*
X209890000Y-135860000D03*
D20*
X210105810Y-145851685D03*
X212645810Y-145851685D03*
X215185810Y-145851685D03*
X217725810Y-145851685D03*
G36*
G01*
X221116610Y-145051685D02*
X221116610Y-146651685D01*
G75*
G02*
X221065810Y-146702485I-50800J0D01*
G01*
X219465810Y-146702485D01*
G75*
G02*
X219415010Y-146651685I0J50800D01*
G01*
X219415010Y-145051685D01*
G75*
G02*
X219465810Y-145000885I50800J0D01*
G01*
X221065810Y-145000885D01*
G75*
G02*
X221116610Y-145051685I0J-50800D01*
G01*
G37*
X91082889Y-132278555D03*
X108862889Y-139898555D03*
X93622889Y-132278555D03*
X106322889Y-139898555D03*
X96162889Y-132278555D03*
X103782889Y-139898555D03*
X98702889Y-132278555D03*
X101242889Y-139898555D03*
X101242889Y-132278555D03*
X98702889Y-139898555D03*
X103782889Y-132278555D03*
X96162889Y-139898555D03*
X106322889Y-132278555D03*
X93622889Y-139898555D03*
X108862889Y-132278555D03*
G36*
G01*
X91882889Y-140749355D02*
X90282889Y-140749355D01*
G75*
G02*
X90232089Y-140698555I0J50800D01*
G01*
X90232089Y-139098555D01*
G75*
G02*
X90282889Y-139047755I50800J0D01*
G01*
X91882889Y-139047755D01*
G75*
G02*
X91933689Y-139098555I0J-50800D01*
G01*
X91933689Y-140698555D01*
G75*
G02*
X91882889Y-140749355I-50800J0D01*
G01*
G37*
M02*
