G04 #@! TF.GenerationSoftware,KiCad,Pcbnew,5.1.10*
G04 #@! TF.CreationDate,2021-10-20T12:50:39+02:00*
G04 #@! TF.ProjectId,TH-XWhatsIt,54482d58-5768-4617-9473-49742e6b6963,0.1.3*
G04 #@! TF.SameCoordinates,Original*
G04 #@! TF.FileFunction,Legend,Top*
G04 #@! TF.FilePolarity,Positive*
%FSLAX46Y46*%
G04 Gerber Fmt 4.6, Leading zero omitted, Abs format (unit mm)*
G04 Created by KiCad (PCBNEW 5.1.10) date 2021-10-20 12:50:39*
%MOMM*%
%LPD*%
G01*
G04 APERTURE LIST*
%ADD10C,0.150000*%
%ADD11C,0.120000*%
%ADD12C,0.240000*%
%ADD13C,0.175000*%
%ADD14C,0.300000*%
%ADD15C,0.100000*%
%ADD16O,1.801600X1.801600*%
%ADD17O,1.501600X1.501600*%
%ADD18C,1.501600*%
%ADD19C,3.101600*%
%ADD20C,0.901600*%
%ADD21C,6.501600*%
%ADD22C,1.701600*%
%ADD23O,1.701600X1.701600*%
G04 APERTURE END LIST*
D10*
X50150952Y-137922380D02*
X50150952Y-138636666D01*
X50103333Y-138779523D01*
X50008095Y-138874761D01*
X49865238Y-138922380D01*
X49770000Y-138922380D01*
X51103333Y-138922380D02*
X50627142Y-138922380D01*
X50627142Y-137922380D01*
X52008095Y-138827142D02*
X51960476Y-138874761D01*
X51817619Y-138922380D01*
X51722380Y-138922380D01*
X51579523Y-138874761D01*
X51484285Y-138779523D01*
X51436666Y-138684285D01*
X51389047Y-138493809D01*
X51389047Y-138350952D01*
X51436666Y-138160476D01*
X51484285Y-138065238D01*
X51579523Y-137970000D01*
X51722380Y-137922380D01*
X51817619Y-137922380D01*
X51960476Y-137970000D01*
X52008095Y-138017619D01*
X52722380Y-137922380D02*
X52722380Y-138636666D01*
X52674761Y-138779523D01*
X52579523Y-138874761D01*
X52436666Y-138922380D01*
X52341428Y-138922380D01*
X53674761Y-138922380D02*
X53198571Y-138922380D01*
X53198571Y-137922380D01*
X54579523Y-138827142D02*
X54531904Y-138874761D01*
X54389047Y-138922380D01*
X54293809Y-138922380D01*
X54150952Y-138874761D01*
X54055714Y-138779523D01*
X54008095Y-138684285D01*
X53960476Y-138493809D01*
X53960476Y-138350952D01*
X54008095Y-138160476D01*
X54055714Y-138065238D01*
X54150952Y-137970000D01*
X54293809Y-137922380D01*
X54389047Y-137922380D01*
X54531904Y-137970000D01*
X54579523Y-138017619D01*
X55293809Y-137922380D02*
X55293809Y-138636666D01*
X55246190Y-138779523D01*
X55150952Y-138874761D01*
X55008095Y-138922380D01*
X54912857Y-138922380D01*
X56246190Y-138922380D02*
X55770000Y-138922380D01*
X55770000Y-137922380D01*
X57150952Y-138827142D02*
X57103333Y-138874761D01*
X56960476Y-138922380D01*
X56865238Y-138922380D01*
X56722380Y-138874761D01*
X56627142Y-138779523D01*
X56579523Y-138684285D01*
X56531904Y-138493809D01*
X56531904Y-138350952D01*
X56579523Y-138160476D01*
X56627142Y-138065238D01*
X56722380Y-137970000D01*
X56865238Y-137922380D01*
X56960476Y-137922380D01*
X57103333Y-137970000D01*
X57150952Y-138017619D01*
X57865238Y-137922380D02*
X57865238Y-138636666D01*
X57817619Y-138779523D01*
X57722380Y-138874761D01*
X57579523Y-138922380D01*
X57484285Y-138922380D01*
X58817619Y-138922380D02*
X58341428Y-138922380D01*
X58341428Y-137922380D01*
X59722380Y-138827142D02*
X59674761Y-138874761D01*
X59531904Y-138922380D01*
X59436666Y-138922380D01*
X59293809Y-138874761D01*
X59198571Y-138779523D01*
X59150952Y-138684285D01*
X59103333Y-138493809D01*
X59103333Y-138350952D01*
X59150952Y-138160476D01*
X59198571Y-138065238D01*
X59293809Y-137970000D01*
X59436666Y-137922380D01*
X59531904Y-137922380D01*
X59674761Y-137970000D01*
X59722380Y-138017619D01*
D11*
X206040000Y-137740000D02*
X206040000Y-138050000D01*
X209850000Y-137740000D02*
X206040000Y-137740000D01*
X216310000Y-137760000D02*
X216310000Y-138100000D01*
X212530000Y-137760000D02*
X216310000Y-137760000D01*
X91530000Y-144520000D02*
X88920000Y-144520000D01*
X88920000Y-147180000D02*
X88920000Y-144520000D01*
X91690000Y-147180000D02*
X88920000Y-147180000D01*
X155050000Y-144530000D02*
X155050000Y-147180000D01*
D12*
X152480000Y-142420000D02*
X152480000Y-148210000D01*
X94070000Y-142420000D02*
X94070000Y-148210000D01*
D11*
X193940000Y-140960000D02*
X193940000Y-143600000D01*
D10*
X215819523Y-140942380D02*
X215486190Y-140466190D01*
X215248095Y-140942380D02*
X215248095Y-139942380D01*
X215629047Y-139942380D01*
X215724285Y-139990000D01*
X215771904Y-140037619D01*
X215819523Y-140132857D01*
X215819523Y-140275714D01*
X215771904Y-140370952D01*
X215724285Y-140418571D01*
X215629047Y-140466190D01*
X215248095Y-140466190D01*
D11*
X221952985Y-140949807D02*
X221952985Y-143610000D01*
X218970000Y-143610000D02*
X221952985Y-143610000D01*
X219340000Y-140950000D02*
X221952985Y-140949807D01*
X39031461Y-127500000D02*
G75*
G03*
X39031461Y-127500000I-411461J0D01*
G01*
D10*
X184455714Y-134746904D02*
X184608095Y-134746904D01*
X184684285Y-134785000D01*
X184760476Y-134861190D01*
X184798571Y-135013571D01*
X184798571Y-135280238D01*
X184760476Y-135432619D01*
X184684285Y-135508809D01*
X184608095Y-135546904D01*
X184455714Y-135546904D01*
X184379523Y-135508809D01*
X184303333Y-135432619D01*
X184265238Y-135280238D01*
X184265238Y-135013571D01*
X184303333Y-134861190D01*
X184379523Y-134785000D01*
X184455714Y-134746904D01*
X185141428Y-135013571D02*
X185141428Y-135813571D01*
X185141428Y-135051666D02*
X185217619Y-135013571D01*
X185370000Y-135013571D01*
X185446190Y-135051666D01*
X185484285Y-135089761D01*
X185522380Y-135165952D01*
X185522380Y-135394523D01*
X185484285Y-135470714D01*
X185446190Y-135508809D01*
X185370000Y-135546904D01*
X185217619Y-135546904D01*
X185141428Y-135508809D01*
X185750952Y-135013571D02*
X186055714Y-135013571D01*
X185865238Y-134746904D02*
X185865238Y-135432619D01*
X185903333Y-135508809D01*
X185979523Y-135546904D01*
X186055714Y-135546904D01*
X186322380Y-135546904D02*
X186322380Y-135013571D01*
X186322380Y-134746904D02*
X186284285Y-134785000D01*
X186322380Y-134823095D01*
X186360476Y-134785000D01*
X186322380Y-134746904D01*
X186322380Y-134823095D01*
X186817619Y-135546904D02*
X186741428Y-135508809D01*
X186703333Y-135470714D01*
X186665238Y-135394523D01*
X186665238Y-135165952D01*
X186703333Y-135089761D01*
X186741428Y-135051666D01*
X186817619Y-135013571D01*
X186931904Y-135013571D01*
X187008095Y-135051666D01*
X187046190Y-135089761D01*
X187084285Y-135165952D01*
X187084285Y-135394523D01*
X187046190Y-135470714D01*
X187008095Y-135508809D01*
X186931904Y-135546904D01*
X186817619Y-135546904D01*
X187427142Y-135013571D02*
X187427142Y-135546904D01*
X187427142Y-135089761D02*
X187465238Y-135051666D01*
X187541428Y-135013571D01*
X187655714Y-135013571D01*
X187731904Y-135051666D01*
X187770000Y-135127857D01*
X187770000Y-135546904D01*
X188493809Y-135546904D02*
X188493809Y-135127857D01*
X188455714Y-135051666D01*
X188379523Y-135013571D01*
X188227142Y-135013571D01*
X188150952Y-135051666D01*
X188493809Y-135508809D02*
X188417619Y-135546904D01*
X188227142Y-135546904D01*
X188150952Y-135508809D01*
X188112857Y-135432619D01*
X188112857Y-135356428D01*
X188150952Y-135280238D01*
X188227142Y-135242142D01*
X188417619Y-135242142D01*
X188493809Y-135204047D01*
X188989047Y-135546904D02*
X188912857Y-135508809D01*
X188874761Y-135432619D01*
X188874761Y-134746904D01*
X189903333Y-135546904D02*
X189903333Y-135013571D01*
X189903333Y-134746904D02*
X189865238Y-134785000D01*
X189903333Y-134823095D01*
X189941428Y-134785000D01*
X189903333Y-134746904D01*
X189903333Y-134823095D01*
X190170000Y-135013571D02*
X190474761Y-135013571D01*
X190284285Y-135546904D02*
X190284285Y-134861190D01*
X190322380Y-134785000D01*
X190398571Y-134746904D01*
X190474761Y-134746904D01*
X191465238Y-135546904D02*
X191389047Y-135508809D01*
X191350952Y-135470714D01*
X191312857Y-135394523D01*
X191312857Y-135165952D01*
X191350952Y-135089761D01*
X191389047Y-135051666D01*
X191465238Y-135013571D01*
X191579523Y-135013571D01*
X191655714Y-135051666D01*
X191693809Y-135089761D01*
X191731904Y-135165952D01*
X191731904Y-135394523D01*
X191693809Y-135470714D01*
X191655714Y-135508809D01*
X191579523Y-135546904D01*
X191465238Y-135546904D01*
X192074761Y-135013571D02*
X192074761Y-135546904D01*
X192074761Y-135089761D02*
X192112857Y-135051666D01*
X192189047Y-135013571D01*
X192303333Y-135013571D01*
X192379523Y-135051666D01*
X192417619Y-135127857D01*
X192417619Y-135546904D01*
X192912857Y-135546904D02*
X192836666Y-135508809D01*
X192798571Y-135432619D01*
X192798571Y-134746904D01*
X193141428Y-135013571D02*
X193331904Y-135546904D01*
X193522380Y-135013571D02*
X193331904Y-135546904D01*
X193255714Y-135737380D01*
X193217619Y-135775476D01*
X193141428Y-135813571D01*
X194779523Y-135013571D02*
X194779523Y-135546904D01*
X194436666Y-135013571D02*
X194436666Y-135432619D01*
X194474761Y-135508809D01*
X194550952Y-135546904D01*
X194665238Y-135546904D01*
X194741428Y-135508809D01*
X194779523Y-135470714D01*
X195122380Y-135508809D02*
X195198571Y-135546904D01*
X195350952Y-135546904D01*
X195427142Y-135508809D01*
X195465238Y-135432619D01*
X195465238Y-135394523D01*
X195427142Y-135318333D01*
X195350952Y-135280238D01*
X195236666Y-135280238D01*
X195160476Y-135242142D01*
X195122380Y-135165952D01*
X195122380Y-135127857D01*
X195160476Y-135051666D01*
X195236666Y-135013571D01*
X195350952Y-135013571D01*
X195427142Y-135051666D01*
X196112857Y-135508809D02*
X196036666Y-135546904D01*
X195884285Y-135546904D01*
X195808095Y-135508809D01*
X195770000Y-135432619D01*
X195770000Y-135127857D01*
X195808095Y-135051666D01*
X195884285Y-135013571D01*
X196036666Y-135013571D01*
X196112857Y-135051666D01*
X196150952Y-135127857D01*
X196150952Y-135204047D01*
X195770000Y-135280238D01*
X196836666Y-135546904D02*
X196836666Y-134746904D01*
X196836666Y-135508809D02*
X196760476Y-135546904D01*
X196608095Y-135546904D01*
X196531904Y-135508809D01*
X196493809Y-135470714D01*
X196455714Y-135394523D01*
X196455714Y-135165952D01*
X196493809Y-135089761D01*
X196531904Y-135051666D01*
X196608095Y-135013571D01*
X196760476Y-135013571D01*
X196836666Y-135051666D01*
X183846190Y-136363571D02*
X184150952Y-136363571D01*
X183960476Y-136896904D02*
X183960476Y-136211190D01*
X183998571Y-136135000D01*
X184074761Y-136096904D01*
X184150952Y-136096904D01*
X184531904Y-136896904D02*
X184455714Y-136858809D01*
X184417619Y-136820714D01*
X184379523Y-136744523D01*
X184379523Y-136515952D01*
X184417619Y-136439761D01*
X184455714Y-136401666D01*
X184531904Y-136363571D01*
X184646190Y-136363571D01*
X184722380Y-136401666D01*
X184760476Y-136439761D01*
X184798571Y-136515952D01*
X184798571Y-136744523D01*
X184760476Y-136820714D01*
X184722380Y-136858809D01*
X184646190Y-136896904D01*
X184531904Y-136896904D01*
X185141428Y-136896904D02*
X185141428Y-136363571D01*
X185141428Y-136515952D02*
X185179523Y-136439761D01*
X185217619Y-136401666D01*
X185293809Y-136363571D01*
X185370000Y-136363571D01*
X186589047Y-136363571D02*
X186589047Y-136896904D01*
X186398571Y-136058809D02*
X186208095Y-136630238D01*
X186703333Y-136630238D01*
X187008095Y-136592142D02*
X187617619Y-136592142D01*
X187998571Y-136896904D02*
X187998571Y-136363571D01*
X187998571Y-136515952D02*
X188036666Y-136439761D01*
X188074761Y-136401666D01*
X188150952Y-136363571D01*
X188227142Y-136363571D01*
X188608095Y-136896904D02*
X188531904Y-136858809D01*
X188493809Y-136820714D01*
X188455714Y-136744523D01*
X188455714Y-136515952D01*
X188493809Y-136439761D01*
X188531904Y-136401666D01*
X188608095Y-136363571D01*
X188722380Y-136363571D01*
X188798571Y-136401666D01*
X188836666Y-136439761D01*
X188874761Y-136515952D01*
X188874761Y-136744523D01*
X188836666Y-136820714D01*
X188798571Y-136858809D01*
X188722380Y-136896904D01*
X188608095Y-136896904D01*
X189141428Y-136363571D02*
X189293809Y-136896904D01*
X189446190Y-136515952D01*
X189598571Y-136896904D01*
X189750952Y-136363571D01*
X190665238Y-136896904D02*
X190665238Y-136096904D01*
X190665238Y-136401666D02*
X190741428Y-136363571D01*
X190893809Y-136363571D01*
X190970000Y-136401666D01*
X191008095Y-136439761D01*
X191046190Y-136515952D01*
X191046190Y-136744523D01*
X191008095Y-136820714D01*
X190970000Y-136858809D01*
X190893809Y-136896904D01*
X190741428Y-136896904D01*
X190665238Y-136858809D01*
X191693809Y-136858809D02*
X191617619Y-136896904D01*
X191465238Y-136896904D01*
X191389047Y-136858809D01*
X191350952Y-136782619D01*
X191350952Y-136477857D01*
X191389047Y-136401666D01*
X191465238Y-136363571D01*
X191617619Y-136363571D01*
X191693809Y-136401666D01*
X191731904Y-136477857D01*
X191731904Y-136554047D01*
X191350952Y-136630238D01*
X192417619Y-136896904D02*
X192417619Y-136477857D01*
X192379523Y-136401666D01*
X192303333Y-136363571D01*
X192150952Y-136363571D01*
X192074761Y-136401666D01*
X192417619Y-136858809D02*
X192341428Y-136896904D01*
X192150952Y-136896904D01*
X192074761Y-136858809D01*
X192036666Y-136782619D01*
X192036666Y-136706428D01*
X192074761Y-136630238D01*
X192150952Y-136592142D01*
X192341428Y-136592142D01*
X192417619Y-136554047D01*
X192798571Y-136896904D02*
X192798571Y-136363571D01*
X192798571Y-136439761D02*
X192836666Y-136401666D01*
X192912857Y-136363571D01*
X193027142Y-136363571D01*
X193103333Y-136401666D01*
X193141428Y-136477857D01*
X193141428Y-136896904D01*
X193141428Y-136477857D02*
X193179523Y-136401666D01*
X193255714Y-136363571D01*
X193370000Y-136363571D01*
X193446190Y-136401666D01*
X193484285Y-136477857D01*
X193484285Y-136896904D01*
X193827142Y-136858809D02*
X193903333Y-136896904D01*
X194055714Y-136896904D01*
X194131904Y-136858809D01*
X194170000Y-136782619D01*
X194170000Y-136744523D01*
X194131904Y-136668333D01*
X194055714Y-136630238D01*
X193941428Y-136630238D01*
X193865238Y-136592142D01*
X193827142Y-136515952D01*
X193827142Y-136477857D01*
X193865238Y-136401666D01*
X193941428Y-136363571D01*
X194055714Y-136363571D01*
X194131904Y-136401666D01*
X194512857Y-136363571D02*
X194512857Y-137163571D01*
X194512857Y-136401666D02*
X194589047Y-136363571D01*
X194741428Y-136363571D01*
X194817619Y-136401666D01*
X194855714Y-136439761D01*
X194893809Y-136515952D01*
X194893809Y-136744523D01*
X194855714Y-136820714D01*
X194817619Y-136858809D01*
X194741428Y-136896904D01*
X194589047Y-136896904D01*
X194512857Y-136858809D01*
X195236666Y-136896904D02*
X195236666Y-136363571D01*
X195236666Y-136515952D02*
X195274761Y-136439761D01*
X195312857Y-136401666D01*
X195389047Y-136363571D01*
X195465238Y-136363571D01*
X195731904Y-136896904D02*
X195731904Y-136363571D01*
X195731904Y-136096904D02*
X195693809Y-136135000D01*
X195731904Y-136173095D01*
X195770000Y-136135000D01*
X195731904Y-136096904D01*
X195731904Y-136173095D01*
X196112857Y-136363571D02*
X196112857Y-136896904D01*
X196112857Y-136439761D02*
X196150952Y-136401666D01*
X196227142Y-136363571D01*
X196341428Y-136363571D01*
X196417619Y-136401666D01*
X196455714Y-136477857D01*
X196455714Y-136896904D01*
X197179523Y-136363571D02*
X197179523Y-137011190D01*
X197141428Y-137087380D01*
X197103333Y-137125476D01*
X197027142Y-137163571D01*
X196912857Y-137163571D01*
X196836666Y-137125476D01*
X197179523Y-136858809D02*
X197103333Y-136896904D01*
X196950952Y-136896904D01*
X196874761Y-136858809D01*
X196836666Y-136820714D01*
X196798571Y-136744523D01*
X196798571Y-136515952D01*
X196836666Y-136439761D01*
X196874761Y-136401666D01*
X196950952Y-136363571D01*
X197103333Y-136363571D01*
X197179523Y-136401666D01*
D11*
X193099258Y-147950000D02*
G75*
G03*
X193099258Y-147950000I-269258J0D01*
G01*
X220989258Y-147950000D02*
G75*
G03*
X220989258Y-147950000I-269258J0D01*
G01*
D12*
X216810000Y-140250000D02*
X216810000Y-144100000D01*
X196480000Y-140200000D02*
X196480000Y-144190000D01*
D10*
X208569523Y-140962380D02*
X208236190Y-140486190D01*
X207998095Y-140962380D02*
X207998095Y-139962380D01*
X208379047Y-139962380D01*
X208474285Y-140010000D01*
X208521904Y-140057619D01*
X208569523Y-140152857D01*
X208569523Y-140295714D01*
X208521904Y-140390952D01*
X208474285Y-140438571D01*
X208379047Y-140486190D01*
X207998095Y-140486190D01*
X210529523Y-140992380D02*
X210196190Y-140516190D01*
X209958095Y-140992380D02*
X209958095Y-139992380D01*
X210339047Y-139992380D01*
X210434285Y-140040000D01*
X210481904Y-140087619D01*
X210529523Y-140182857D01*
X210529523Y-140325714D01*
X210481904Y-140420952D01*
X210434285Y-140468571D01*
X210339047Y-140516190D01*
X209958095Y-140516190D01*
X213109523Y-140952380D02*
X212776190Y-140476190D01*
X212538095Y-140952380D02*
X212538095Y-139952380D01*
X212919047Y-139952380D01*
X213014285Y-140000000D01*
X213061904Y-140047619D01*
X213109523Y-140142857D01*
X213109523Y-140285714D01*
X213061904Y-140380952D01*
X213014285Y-140428571D01*
X212919047Y-140476190D01*
X212538095Y-140476190D01*
X205739523Y-140952380D02*
X205406190Y-140476190D01*
X205168095Y-140952380D02*
X205168095Y-139952380D01*
X205549047Y-139952380D01*
X205644285Y-140000000D01*
X205691904Y-140047619D01*
X205739523Y-140142857D01*
X205739523Y-140285714D01*
X205691904Y-140380952D01*
X205644285Y-140428571D01*
X205549047Y-140476190D01*
X205168095Y-140476190D01*
X203149523Y-140962380D02*
X202816190Y-140486190D01*
X202578095Y-140962380D02*
X202578095Y-139962380D01*
X202959047Y-139962380D01*
X203054285Y-140010000D01*
X203101904Y-140057619D01*
X203149523Y-140152857D01*
X203149523Y-140295714D01*
X203101904Y-140390952D01*
X203054285Y-140438571D01*
X202959047Y-140486190D01*
X202578095Y-140486190D01*
X200539523Y-140962380D02*
X200206190Y-140486190D01*
X199968095Y-140962380D02*
X199968095Y-139962380D01*
X200349047Y-139962380D01*
X200444285Y-140010000D01*
X200491904Y-140057619D01*
X200539523Y-140152857D01*
X200539523Y-140295714D01*
X200491904Y-140390952D01*
X200444285Y-140438571D01*
X200349047Y-140486190D01*
X199968095Y-140486190D01*
X198029523Y-140992380D02*
X197696190Y-140516190D01*
X197458095Y-140992380D02*
X197458095Y-139992380D01*
X197839047Y-139992380D01*
X197934285Y-140040000D01*
X197981904Y-140087619D01*
X198029523Y-140182857D01*
X198029523Y-140325714D01*
X197981904Y-140420952D01*
X197934285Y-140468571D01*
X197839047Y-140516190D01*
X197458095Y-140516190D01*
X218561904Y-139950000D02*
X218466666Y-139902380D01*
X218323809Y-139902380D01*
X218180952Y-139950000D01*
X218085714Y-140045238D01*
X218038095Y-140140476D01*
X217990476Y-140330952D01*
X217990476Y-140473809D01*
X218038095Y-140664285D01*
X218085714Y-140759523D01*
X218180952Y-140854761D01*
X218323809Y-140902380D01*
X218419047Y-140902380D01*
X218561904Y-140854761D01*
X218609523Y-140807142D01*
X218609523Y-140473809D01*
X218419047Y-140473809D01*
X221001904Y-139900000D02*
X220906666Y-139852380D01*
X220763809Y-139852380D01*
X220620952Y-139900000D01*
X220525714Y-139995238D01*
X220478095Y-140090476D01*
X220430476Y-140280952D01*
X220430476Y-140423809D01*
X220478095Y-140614285D01*
X220525714Y-140709523D01*
X220620952Y-140804761D01*
X220763809Y-140852380D01*
X220859047Y-140852380D01*
X221001904Y-140804761D01*
X221049523Y-140757142D01*
X221049523Y-140423809D01*
X220859047Y-140423809D01*
X195431904Y-140040000D02*
X195336666Y-139992380D01*
X195193809Y-139992380D01*
X195050952Y-140040000D01*
X194955714Y-140135238D01*
X194908095Y-140230476D01*
X194860476Y-140420952D01*
X194860476Y-140563809D01*
X194908095Y-140754285D01*
X194955714Y-140849523D01*
X195050952Y-140944761D01*
X195193809Y-140992380D01*
X195289047Y-140992380D01*
X195431904Y-140944761D01*
X195479523Y-140897142D01*
X195479523Y-140563809D01*
X195289047Y-140563809D01*
X192891904Y-140070000D02*
X192796666Y-140022380D01*
X192653809Y-140022380D01*
X192510952Y-140070000D01*
X192415714Y-140165238D01*
X192368095Y-140260476D01*
X192320476Y-140450952D01*
X192320476Y-140593809D01*
X192368095Y-140784285D01*
X192415714Y-140879523D01*
X192510952Y-140974761D01*
X192653809Y-141022380D01*
X192749047Y-141022380D01*
X192891904Y-140974761D01*
X192939523Y-140927142D01*
X192939523Y-140593809D01*
X192749047Y-140593809D01*
X205378095Y-131560000D02*
X205282857Y-131512380D01*
X205140000Y-131512380D01*
X204997142Y-131560000D01*
X204901904Y-131655238D01*
X204854285Y-131750476D01*
X204806666Y-131940952D01*
X204806666Y-132083809D01*
X204854285Y-132274285D01*
X204901904Y-132369523D01*
X204997142Y-132464761D01*
X205140000Y-132512380D01*
X205235238Y-132512380D01*
X205378095Y-132464761D01*
X205425714Y-132417142D01*
X205425714Y-132083809D01*
X205235238Y-132083809D01*
X205854285Y-132512380D02*
X205854285Y-131512380D01*
X206425714Y-132512380D01*
X206425714Y-131512380D01*
X206901904Y-132512380D02*
X206901904Y-131512380D01*
X207140000Y-131512380D01*
X207282857Y-131560000D01*
X207378095Y-131655238D01*
X207425714Y-131750476D01*
X207473333Y-131940952D01*
X207473333Y-132083809D01*
X207425714Y-132274285D01*
X207378095Y-132369523D01*
X207282857Y-132464761D01*
X207140000Y-132512380D01*
X206901904Y-132512380D01*
X155860000Y-143411904D02*
X155812380Y-143507142D01*
X155812380Y-143650000D01*
X155860000Y-143792857D01*
X155955238Y-143888095D01*
X156050476Y-143935714D01*
X156240952Y-143983333D01*
X156383809Y-143983333D01*
X156574285Y-143935714D01*
X156669523Y-143888095D01*
X156764761Y-143792857D01*
X156812380Y-143650000D01*
X156812380Y-143554761D01*
X156764761Y-143411904D01*
X156717142Y-143364285D01*
X156383809Y-143364285D01*
X156383809Y-143554761D01*
X156812380Y-142935714D02*
X155812380Y-142935714D01*
X156812380Y-142364285D01*
X155812380Y-142364285D01*
X156812380Y-141888095D02*
X155812380Y-141888095D01*
X155812380Y-141650000D01*
X155860000Y-141507142D01*
X155955238Y-141411904D01*
X156050476Y-141364285D01*
X156240952Y-141316666D01*
X156383809Y-141316666D01*
X156574285Y-141364285D01*
X156669523Y-141411904D01*
X156764761Y-141507142D01*
X156812380Y-141650000D01*
X156812380Y-141888095D01*
X89790000Y-143411904D02*
X89742380Y-143507142D01*
X89742380Y-143650000D01*
X89790000Y-143792857D01*
X89885238Y-143888095D01*
X89980476Y-143935714D01*
X90170952Y-143983333D01*
X90313809Y-143983333D01*
X90504285Y-143935714D01*
X90599523Y-143888095D01*
X90694761Y-143792857D01*
X90742380Y-143650000D01*
X90742380Y-143554761D01*
X90694761Y-143411904D01*
X90647142Y-143364285D01*
X90313809Y-143364285D01*
X90313809Y-143554761D01*
X90742380Y-142935714D02*
X89742380Y-142935714D01*
X90742380Y-142364285D01*
X89742380Y-142364285D01*
X90742380Y-141888095D02*
X89742380Y-141888095D01*
X89742380Y-141650000D01*
X89790000Y-141507142D01*
X89885238Y-141411904D01*
X89980476Y-141364285D01*
X90170952Y-141316666D01*
X90313809Y-141316666D01*
X90504285Y-141364285D01*
X90599523Y-141411904D01*
X90694761Y-141507142D01*
X90742380Y-141650000D01*
X90742380Y-141888095D01*
X94997500Y-143201428D02*
X95759404Y-143201428D01*
X96235595Y-143201428D02*
X96997500Y-143201428D01*
X97473690Y-143201428D02*
X98235595Y-143201428D01*
X98711785Y-143201428D02*
X99473690Y-143201428D01*
X99949880Y-143201428D02*
X100711785Y-143201428D01*
X101187976Y-143201428D02*
X101949880Y-143201428D01*
X102426071Y-143201428D02*
X103187976Y-143201428D01*
X103664166Y-143201428D02*
X104426071Y-143201428D01*
X104902261Y-143201428D02*
X105664166Y-143201428D01*
X106140357Y-143201428D02*
X106902261Y-143201428D01*
X107378452Y-143201428D02*
X108140357Y-143201428D01*
X108616547Y-143201428D02*
X109378452Y-143201428D01*
X109854642Y-143201428D02*
X110616547Y-143201428D01*
X111092738Y-143201428D02*
X111854642Y-143201428D01*
X112330833Y-143201428D02*
X113092738Y-143201428D01*
X113568928Y-143201428D02*
X114330833Y-143201428D01*
X114807023Y-143201428D02*
X115568928Y-143201428D01*
X116045119Y-143201428D02*
X116807023Y-143201428D01*
X117283214Y-143201428D02*
X118045119Y-143201428D01*
X118521309Y-143201428D02*
X119283214Y-143201428D01*
X121092738Y-143487142D02*
X121045119Y-143534761D01*
X120902261Y-143582380D01*
X120807023Y-143582380D01*
X120664166Y-143534761D01*
X120568928Y-143439523D01*
X120521309Y-143344285D01*
X120473690Y-143153809D01*
X120473690Y-143010952D01*
X120521309Y-142820476D01*
X120568928Y-142725238D01*
X120664166Y-142630000D01*
X120807023Y-142582380D01*
X120902261Y-142582380D01*
X121045119Y-142630000D01*
X121092738Y-142677619D01*
X121711785Y-142582380D02*
X121902261Y-142582380D01*
X121997500Y-142630000D01*
X122092738Y-142725238D01*
X122140357Y-142915714D01*
X122140357Y-143249047D01*
X122092738Y-143439523D01*
X121997500Y-143534761D01*
X121902261Y-143582380D01*
X121711785Y-143582380D01*
X121616547Y-143534761D01*
X121521309Y-143439523D01*
X121473690Y-143249047D01*
X121473690Y-142915714D01*
X121521309Y-142725238D01*
X121616547Y-142630000D01*
X121711785Y-142582380D01*
X123045119Y-143582380D02*
X122568928Y-143582380D01*
X122568928Y-142582380D01*
X123378452Y-142582380D02*
X123378452Y-143391904D01*
X123426071Y-143487142D01*
X123473690Y-143534761D01*
X123568928Y-143582380D01*
X123759404Y-143582380D01*
X123854642Y-143534761D01*
X123902261Y-143487142D01*
X123949880Y-143391904D01*
X123949880Y-142582380D01*
X124426071Y-143582380D02*
X124426071Y-142582380D01*
X124759404Y-143296666D01*
X125092738Y-142582380D01*
X125092738Y-143582380D01*
X125568928Y-143582380D02*
X125568928Y-142582380D01*
X126140357Y-143582380D01*
X126140357Y-142582380D01*
X126568928Y-143534761D02*
X126711785Y-143582380D01*
X126949880Y-143582380D01*
X127045119Y-143534761D01*
X127092738Y-143487142D01*
X127140357Y-143391904D01*
X127140357Y-143296666D01*
X127092738Y-143201428D01*
X127045119Y-143153809D01*
X126949880Y-143106190D01*
X126759404Y-143058571D01*
X126664166Y-143010952D01*
X126616547Y-142963333D01*
X126568928Y-142868095D01*
X126568928Y-142772857D01*
X126616547Y-142677619D01*
X126664166Y-142630000D01*
X126759404Y-142582380D01*
X126997500Y-142582380D01*
X127140357Y-142630000D01*
X128330833Y-143201428D02*
X129092738Y-143201428D01*
X129568928Y-143201428D02*
X130330833Y-143201428D01*
X130807023Y-143201428D02*
X131568928Y-143201428D01*
X132045119Y-143201428D02*
X132807023Y-143201428D01*
X133283214Y-143201428D02*
X134045119Y-143201428D01*
X134521309Y-143201428D02*
X135283214Y-143201428D01*
X135759404Y-143201428D02*
X136521309Y-143201428D01*
X136997500Y-143201428D02*
X137759404Y-143201428D01*
X138235595Y-143201428D02*
X138997500Y-143201428D01*
X139473690Y-143201428D02*
X140235595Y-143201428D01*
X140711785Y-143201428D02*
X141473690Y-143201428D01*
X141949880Y-143201428D02*
X142711785Y-143201428D01*
X143187976Y-143201428D02*
X143949880Y-143201428D01*
X144426071Y-143201428D02*
X145187976Y-143201428D01*
X145664166Y-143201428D02*
X146426071Y-143201428D01*
X146902261Y-143201428D02*
X147664166Y-143201428D01*
X148140357Y-143201428D02*
X148902261Y-143201428D01*
X149378452Y-143201428D02*
X150140357Y-143201428D01*
X150616547Y-143201428D02*
X151378452Y-143201428D01*
X153140000Y-143411904D02*
X153092380Y-143507142D01*
X153092380Y-143650000D01*
X153140000Y-143792857D01*
X153235238Y-143888095D01*
X153330476Y-143935714D01*
X153520952Y-143983333D01*
X153663809Y-143983333D01*
X153854285Y-143935714D01*
X153949523Y-143888095D01*
X154044761Y-143792857D01*
X154092380Y-143650000D01*
X154092380Y-143554761D01*
X154044761Y-143411904D01*
X153997142Y-143364285D01*
X153663809Y-143364285D01*
X153663809Y-143554761D01*
X154092380Y-142935714D02*
X153092380Y-142935714D01*
X154092380Y-142364285D01*
X153092380Y-142364285D01*
X154092380Y-141888095D02*
X153092380Y-141888095D01*
X153092380Y-141650000D01*
X153140000Y-141507142D01*
X153235238Y-141411904D01*
X153330476Y-141364285D01*
X153520952Y-141316666D01*
X153663809Y-141316666D01*
X153854285Y-141364285D01*
X153949523Y-141411904D01*
X154044761Y-141507142D01*
X154092380Y-141650000D01*
X154092380Y-141888095D01*
X92390000Y-143411904D02*
X92342380Y-143507142D01*
X92342380Y-143650000D01*
X92390000Y-143792857D01*
X92485238Y-143888095D01*
X92580476Y-143935714D01*
X92770952Y-143983333D01*
X92913809Y-143983333D01*
X93104285Y-143935714D01*
X93199523Y-143888095D01*
X93294761Y-143792857D01*
X93342380Y-143650000D01*
X93342380Y-143554761D01*
X93294761Y-143411904D01*
X93247142Y-143364285D01*
X92913809Y-143364285D01*
X92913809Y-143554761D01*
X93342380Y-142935714D02*
X92342380Y-142935714D01*
X93342380Y-142364285D01*
X92342380Y-142364285D01*
X93342380Y-141888095D02*
X92342380Y-141888095D01*
X92342380Y-141650000D01*
X92390000Y-141507142D01*
X92485238Y-141411904D01*
X92580476Y-141364285D01*
X92770952Y-141316666D01*
X92913809Y-141316666D01*
X93104285Y-141364285D01*
X93199523Y-141411904D01*
X93294761Y-141507142D01*
X93342380Y-141650000D01*
X93342380Y-141888095D01*
D13*
X229516666Y-143416666D02*
X229516666Y-143083333D01*
X229716666Y-143483333D02*
X229016666Y-143250000D01*
X229716666Y-143016666D01*
X229716666Y-142450000D02*
X229716666Y-142783333D01*
X229016666Y-142783333D01*
X229016666Y-142316666D02*
X229016666Y-141916666D01*
X229716666Y-142116666D02*
X229016666Y-142116666D01*
X227016666Y-143416666D02*
X227016666Y-143083333D01*
X227216666Y-143483333D02*
X226516666Y-143250000D01*
X227216666Y-143016666D01*
X227216666Y-142450000D02*
X227216666Y-142783333D01*
X226516666Y-142783333D01*
X226516666Y-142316666D02*
X226516666Y-141916666D01*
X227216666Y-142116666D02*
X226516666Y-142116666D01*
X224416666Y-143516666D02*
X224416666Y-143183333D01*
X224616666Y-143583333D02*
X223916666Y-143350000D01*
X224616666Y-143116666D01*
X224616666Y-142550000D02*
X224616666Y-142883333D01*
X223916666Y-142883333D01*
X223916666Y-142416666D02*
X223916666Y-142016666D01*
X224616666Y-142216666D02*
X223916666Y-142216666D01*
X215683333Y-139116666D02*
X216016666Y-139116666D01*
X215616666Y-139316666D02*
X215850000Y-138616666D01*
X216083333Y-139316666D01*
X216650000Y-139316666D02*
X216316666Y-139316666D01*
X216316666Y-138616666D01*
X216783333Y-138616666D02*
X217183333Y-138616666D01*
X216983333Y-139316666D02*
X216983333Y-138616666D01*
X173783333Y-146216666D02*
X174116666Y-146216666D01*
X173716666Y-146416666D02*
X173950000Y-145716666D01*
X174183333Y-146416666D01*
X174750000Y-146416666D02*
X174416666Y-146416666D01*
X174416666Y-145716666D01*
X174883333Y-145716666D02*
X175283333Y-145716666D01*
X175083333Y-146416666D02*
X175083333Y-145716666D01*
X184383333Y-146216666D02*
X184716666Y-146216666D01*
X184316666Y-146416666D02*
X184550000Y-145716666D01*
X184783333Y-146416666D01*
X185350000Y-146416666D02*
X185016666Y-146416666D01*
X185016666Y-145716666D01*
X185483333Y-145716666D02*
X185883333Y-145716666D01*
X185683333Y-146416666D02*
X185683333Y-145716666D01*
X184383333Y-143316666D02*
X184716666Y-143316666D01*
X184316666Y-143516666D02*
X184550000Y-142816666D01*
X184783333Y-143516666D01*
X185350000Y-143516666D02*
X185016666Y-143516666D01*
X185016666Y-142816666D01*
X185483333Y-142816666D02*
X185883333Y-142816666D01*
X185683333Y-143516666D02*
X185683333Y-142816666D01*
X205283333Y-139116666D02*
X205616666Y-139116666D01*
X205216666Y-139316666D02*
X205450000Y-138616666D01*
X205683333Y-139316666D01*
X206250000Y-139316666D02*
X205916666Y-139316666D01*
X205916666Y-138616666D01*
X206383333Y-138616666D02*
X206783333Y-138616666D01*
X206583333Y-139316666D02*
X206583333Y-138616666D01*
D14*
X103067857Y-123278571D02*
X103925000Y-123278571D01*
X103496428Y-124778571D02*
X103496428Y-123278571D01*
X104425000Y-124778571D02*
X104425000Y-123278571D01*
X104425000Y-123992857D02*
X105282142Y-123992857D01*
X105282142Y-124778571D02*
X105282142Y-123278571D01*
X105996428Y-124207142D02*
X107139285Y-124207142D01*
X107710714Y-123278571D02*
X108710714Y-124778571D01*
X108710714Y-123278571D02*
X107710714Y-124778571D01*
X109139285Y-123278571D02*
X109496428Y-124778571D01*
X109782142Y-123707142D01*
X110067857Y-124778571D01*
X110425000Y-123278571D01*
X110996428Y-124778571D02*
X110996428Y-123278571D01*
X111639285Y-124778571D02*
X111639285Y-123992857D01*
X111567857Y-123850000D01*
X111425000Y-123778571D01*
X111210714Y-123778571D01*
X111067857Y-123850000D01*
X110996428Y-123921428D01*
X112996428Y-124778571D02*
X112996428Y-123992857D01*
X112925000Y-123850000D01*
X112782142Y-123778571D01*
X112496428Y-123778571D01*
X112353571Y-123850000D01*
X112996428Y-124707142D02*
X112853571Y-124778571D01*
X112496428Y-124778571D01*
X112353571Y-124707142D01*
X112282142Y-124564285D01*
X112282142Y-124421428D01*
X112353571Y-124278571D01*
X112496428Y-124207142D01*
X112853571Y-124207142D01*
X112996428Y-124135714D01*
X113496428Y-123778571D02*
X114067857Y-123778571D01*
X113710714Y-123278571D02*
X113710714Y-124564285D01*
X113782142Y-124707142D01*
X113925000Y-124778571D01*
X114067857Y-124778571D01*
X114496428Y-124707142D02*
X114639285Y-124778571D01*
X114925000Y-124778571D01*
X115067857Y-124707142D01*
X115139285Y-124564285D01*
X115139285Y-124492857D01*
X115067857Y-124350000D01*
X114925000Y-124278571D01*
X114710714Y-124278571D01*
X114567857Y-124207142D01*
X114496428Y-124064285D01*
X114496428Y-123992857D01*
X114567857Y-123850000D01*
X114710714Y-123778571D01*
X114925000Y-123778571D01*
X115067857Y-123850000D01*
X115782142Y-124778571D02*
X115782142Y-123778571D01*
X115782142Y-123278571D02*
X115710714Y-123350000D01*
X115782142Y-123421428D01*
X115853571Y-123350000D01*
X115782142Y-123278571D01*
X115782142Y-123421428D01*
X116282142Y-123778571D02*
X116853571Y-123778571D01*
X116496428Y-123278571D02*
X116496428Y-124564285D01*
X116567857Y-124707142D01*
X116710714Y-124778571D01*
X116853571Y-124778571D01*
X119353571Y-124778571D02*
X118853571Y-124064285D01*
X118496428Y-124778571D02*
X118496428Y-123278571D01*
X119067857Y-123278571D01*
X119210714Y-123350000D01*
X119282142Y-123421428D01*
X119353571Y-123564285D01*
X119353571Y-123778571D01*
X119282142Y-123921428D01*
X119210714Y-123992857D01*
X119067857Y-124064285D01*
X118496428Y-124064285D01*
X120567857Y-124707142D02*
X120425000Y-124778571D01*
X120139285Y-124778571D01*
X119996428Y-124707142D01*
X119925000Y-124564285D01*
X119925000Y-123992857D01*
X119996428Y-123850000D01*
X120139285Y-123778571D01*
X120425000Y-123778571D01*
X120567857Y-123850000D01*
X120639285Y-123992857D01*
X120639285Y-124135714D01*
X119925000Y-124278571D01*
X121139285Y-123778571D02*
X121496428Y-124778571D01*
X121853571Y-123778571D01*
X123853571Y-123278571D02*
X123996428Y-123278571D01*
X124139285Y-123350000D01*
X124210714Y-123421428D01*
X124282142Y-123564285D01*
X124353571Y-123850000D01*
X124353571Y-124207142D01*
X124282142Y-124492857D01*
X124210714Y-124635714D01*
X124139285Y-124707142D01*
X123996428Y-124778571D01*
X123853571Y-124778571D01*
X123710714Y-124707142D01*
X123639285Y-124635714D01*
X123567857Y-124492857D01*
X123496428Y-124207142D01*
X123496428Y-123850000D01*
X123567857Y-123564285D01*
X123639285Y-123421428D01*
X123710714Y-123350000D01*
X123853571Y-123278571D01*
X124996428Y-124635714D02*
X125067857Y-124707142D01*
X124996428Y-124778571D01*
X124925000Y-124707142D01*
X124996428Y-124635714D01*
X124996428Y-124778571D01*
X126496428Y-124778571D02*
X125639285Y-124778571D01*
X126067857Y-124778571D02*
X126067857Y-123278571D01*
X125925000Y-123492857D01*
X125782142Y-123635714D01*
X125639285Y-123707142D01*
X127139285Y-124635714D02*
X127210714Y-124707142D01*
X127139285Y-124778571D01*
X127067857Y-124707142D01*
X127139285Y-124635714D01*
X127139285Y-124778571D01*
X127710714Y-123278571D02*
X128639285Y-123278571D01*
X128139285Y-123850000D01*
X128353571Y-123850000D01*
X128496428Y-123921428D01*
X128567857Y-123992857D01*
X128639285Y-124135714D01*
X128639285Y-124492857D01*
X128567857Y-124635714D01*
X128496428Y-124707142D01*
X128353571Y-124778571D01*
X127925000Y-124778571D01*
X127782142Y-124707142D01*
X127710714Y-124635714D01*
D11*
X74562840Y-143431420D02*
X74562840Y-148631420D01*
X82242840Y-143431420D02*
X74562840Y-143431420D01*
X84842840Y-148631420D02*
X74562840Y-148631420D01*
X82242840Y-143431420D02*
X82242840Y-146031420D01*
X82242840Y-146031420D02*
X84842840Y-146031420D01*
X84842840Y-146031420D02*
X84842840Y-148631420D01*
X83512840Y-143431420D02*
X84842840Y-143431420D01*
X84842840Y-143431420D02*
X84842840Y-144761420D01*
D15*
G36*
X82623840Y-145650420D02*
G01*
X82623840Y-143872420D01*
X84401840Y-143872420D01*
X84401840Y-145650420D01*
X82623840Y-145650420D01*
G37*
X82623840Y-145650420D02*
X82623840Y-143872420D01*
X84401840Y-143872420D01*
X84401840Y-145650420D01*
X82623840Y-145650420D01*
D11*
X75483900Y-139007100D02*
X75483900Y-138057100D01*
X75483900Y-133267100D02*
X75483900Y-134217100D01*
X76403900Y-138057100D02*
X76403900Y-134217100D01*
X74563900Y-138057100D02*
X76403900Y-138057100D01*
X74563900Y-134217100D02*
X74563900Y-138057100D01*
X76403900Y-134217100D02*
X74563900Y-134217100D01*
X79174520Y-139007100D02*
X79174520Y-138057100D01*
X79174520Y-133267100D02*
X79174520Y-134217100D01*
X80094520Y-138057100D02*
X80094520Y-134217100D01*
X78254520Y-138057100D02*
X80094520Y-138057100D01*
X78254520Y-134217100D02*
X78254520Y-138057100D01*
X80094520Y-134217100D02*
X78254520Y-134217100D01*
X82865140Y-139007100D02*
X82865140Y-138057100D01*
X82865140Y-133267100D02*
X82865140Y-134217100D01*
X83785140Y-138057100D02*
X83785140Y-134217100D01*
X81945140Y-138057100D02*
X83785140Y-138057100D01*
X81945140Y-134217100D02*
X81945140Y-138057100D01*
X83785140Y-134217100D02*
X81945140Y-134217100D01*
D14*
X208180000Y-134890000D02*
G75*
G03*
X208180000Y-134890000I-2000000J0D01*
G01*
D10*
X40097560Y-147002616D02*
X70577560Y-147002616D01*
X40097560Y-147002616D02*
X40097560Y-141922616D01*
X40097560Y-141922616D02*
X37557560Y-141922616D01*
X37557560Y-141922616D02*
X37557560Y-134302616D01*
X37557560Y-134302616D02*
X40097560Y-134302616D01*
X40097560Y-134302616D02*
X40097560Y-129222616D01*
X40097560Y-129222616D02*
X70577560Y-129222616D01*
X70577560Y-129222616D02*
X70577560Y-147002616D01*
D11*
X212538000Y-130040000D02*
X212538000Y-131690000D01*
X230438000Y-130040000D02*
X212538000Y-130040000D01*
X230438000Y-135340000D02*
X230438000Y-130040000D01*
X212538000Y-135340000D02*
X230438000Y-135340000D01*
X212538000Y-133690000D02*
X212538000Y-135340000D01*
X212538000Y-131690000D02*
G75*
G02*
X212538000Y-133690000I0J-1000000D01*
G01*
X222280000Y-123800000D02*
X221330000Y-123800000D01*
X216540000Y-123800000D02*
X217490000Y-123800000D01*
X221330000Y-122880000D02*
X217490000Y-122880000D01*
X221330000Y-124720000D02*
X221330000Y-122880000D01*
X217490000Y-124720000D02*
X221330000Y-124720000D01*
X217490000Y-122880000D02*
X217490000Y-124720000D01*
X216540000Y-126340000D02*
X217490000Y-126340000D01*
X222280000Y-126340000D02*
X221330000Y-126340000D01*
X217490000Y-127260000D02*
X221330000Y-127260000D01*
X217490000Y-125420000D02*
X217490000Y-127260000D01*
X221330000Y-125420000D02*
X217490000Y-125420000D01*
X221330000Y-127260000D02*
X221330000Y-125420000D01*
X187980000Y-143100000D02*
X187030000Y-143100000D01*
X182240000Y-143100000D02*
X183190000Y-143100000D01*
X187030000Y-142180000D02*
X183190000Y-142180000D01*
X187030000Y-144020000D02*
X187030000Y-142180000D01*
X183190000Y-144020000D02*
X187030000Y-144020000D01*
X183190000Y-142180000D02*
X183190000Y-144020000D01*
X226800000Y-139940000D02*
X226800000Y-140890000D01*
X226800000Y-145680000D02*
X226800000Y-144730000D01*
X225880000Y-140890000D02*
X225880000Y-144730000D01*
X227720000Y-140890000D02*
X225880000Y-140890000D01*
X227720000Y-144730000D02*
X227720000Y-140890000D01*
X225880000Y-144730000D02*
X227720000Y-144730000D01*
X187980000Y-146050000D02*
X187030000Y-146050000D01*
X182240000Y-146050000D02*
X183190000Y-146050000D01*
X187030000Y-145130000D02*
X183190000Y-145130000D01*
X187030000Y-146970000D02*
X187030000Y-145130000D01*
X183190000Y-146970000D02*
X187030000Y-146970000D01*
X183190000Y-145130000D02*
X183190000Y-146970000D01*
X177340000Y-146050000D02*
X176390000Y-146050000D01*
X171600000Y-146050000D02*
X172550000Y-146050000D01*
X176390000Y-145130000D02*
X172550000Y-145130000D01*
X176390000Y-146970000D02*
X176390000Y-145130000D01*
X172550000Y-146970000D02*
X176390000Y-146970000D01*
X172550000Y-145130000D02*
X172550000Y-146970000D01*
X203120000Y-139000000D02*
X204070000Y-139000000D01*
X208860000Y-139000000D02*
X207910000Y-139000000D01*
X204070000Y-139920000D02*
X207910000Y-139920000D01*
X204070000Y-138080000D02*
X204070000Y-139920000D01*
X207910000Y-138080000D02*
X204070000Y-138080000D01*
X207910000Y-139920000D02*
X207910000Y-138080000D01*
X224200000Y-139940000D02*
X224200000Y-140890000D01*
X224200000Y-145680000D02*
X224200000Y-144730000D01*
X223280000Y-140890000D02*
X223280000Y-144730000D01*
X225120000Y-140890000D02*
X223280000Y-140890000D01*
X225120000Y-144730000D02*
X225120000Y-140890000D01*
X223280000Y-144730000D02*
X225120000Y-144730000D01*
X219280000Y-139000000D02*
X218330000Y-139000000D01*
X213540000Y-139000000D02*
X214490000Y-139000000D01*
X218330000Y-138080000D02*
X214490000Y-138080000D01*
X218330000Y-139920000D02*
X218330000Y-138080000D01*
X214490000Y-139920000D02*
X218330000Y-139920000D01*
X214490000Y-138080000D02*
X214490000Y-139920000D01*
X229400000Y-139940000D02*
X229400000Y-140890000D01*
X229400000Y-145680000D02*
X229400000Y-144730000D01*
X228480000Y-140890000D02*
X228480000Y-144730000D01*
X230320000Y-140890000D02*
X228480000Y-140890000D01*
X230320000Y-144730000D02*
X230320000Y-140890000D01*
X228480000Y-144730000D02*
X230320000Y-144730000D01*
X166700000Y-146050000D02*
X165750000Y-146050000D01*
X160960000Y-146050000D02*
X161910000Y-146050000D01*
X165750000Y-145130000D02*
X161910000Y-145130000D01*
X165750000Y-146970000D02*
X165750000Y-145130000D01*
X161910000Y-146970000D02*
X165750000Y-146970000D01*
X161910000Y-145130000D02*
X161910000Y-146970000D01*
X177340000Y-143100000D02*
X176390000Y-143100000D01*
X171600000Y-143100000D02*
X172550000Y-143100000D01*
X176390000Y-142180000D02*
X172550000Y-142180000D01*
X176390000Y-144020000D02*
X176390000Y-142180000D01*
X172550000Y-144020000D02*
X176390000Y-144020000D01*
X172550000Y-142180000D02*
X172550000Y-144020000D01*
X160960000Y-143100000D02*
X161910000Y-143100000D01*
X166700000Y-143100000D02*
X165750000Y-143100000D01*
X161910000Y-144020000D02*
X165750000Y-144020000D01*
X161910000Y-142180000D02*
X161910000Y-144020000D01*
X165750000Y-142180000D02*
X161910000Y-142180000D01*
X165750000Y-144020000D02*
X165750000Y-142180000D01*
X203380000Y-135219000D02*
X203380000Y-133961000D01*
X201540000Y-135219000D02*
X201540000Y-133961000D01*
X221952985Y-140949807D02*
X221952985Y-142279807D01*
X220622985Y-140949807D02*
X221952985Y-140949807D01*
X219352985Y-140949807D02*
X219352985Y-143609807D01*
X219352985Y-143609807D02*
X191352985Y-143609807D01*
X219352985Y-140949807D02*
X191352985Y-140949807D01*
X191352985Y-140949807D02*
X191352985Y-143609807D01*
X88919470Y-147181685D02*
X88919470Y-145851685D01*
X90249470Y-147181685D02*
X88919470Y-147181685D01*
X91519470Y-147181685D02*
X91519470Y-144521685D01*
X91519470Y-144521685D02*
X157619470Y-144521685D01*
X91519470Y-147181685D02*
X157619470Y-147181685D01*
X157619470Y-147181685D02*
X157619470Y-144521685D01*
X194151412Y-144451685D02*
X194151412Y-147251685D01*
X204481412Y-144451685D02*
X191441412Y-144451685D01*
X204481412Y-147251685D02*
X204481412Y-144451685D01*
X191441412Y-147251685D02*
X204481412Y-147251685D01*
X191441412Y-144451685D02*
X191441412Y-147251685D01*
X39402552Y-127695104D02*
X39402552Y-126365104D01*
X40732552Y-127695104D02*
X39402552Y-127695104D01*
X39402552Y-125095104D02*
X39402552Y-122495104D01*
X42002552Y-125095104D02*
X39402552Y-125095104D01*
X42002552Y-127695104D02*
X42002552Y-125095104D01*
X39402552Y-122495104D02*
X47142552Y-122495104D01*
X42002552Y-127695104D02*
X47142552Y-127695104D01*
X47142552Y-127695104D02*
X47142552Y-122495104D01*
X181550000Y-132478000D02*
X181550000Y-134128000D01*
X199450000Y-132478000D02*
X181550000Y-132478000D01*
X199450000Y-137778000D02*
X199450000Y-132478000D01*
X181550000Y-137778000D02*
X199450000Y-137778000D01*
X181550000Y-136128000D02*
X181550000Y-137778000D01*
X181550000Y-134128000D02*
G75*
G02*
X181550000Y-136128000I0J-1000000D01*
G01*
X165767640Y-138614868D02*
X165767640Y-139872868D01*
X167607640Y-138614868D02*
X167607640Y-139872868D01*
X165767640Y-132780486D02*
X165767640Y-134038486D01*
X167607640Y-132780486D02*
X167607640Y-134038486D01*
X169524831Y-133438555D02*
X169524831Y-135088555D01*
X179804831Y-133438555D02*
X169524831Y-133438555D01*
X179804831Y-138738555D02*
X179804831Y-133438555D01*
X169524831Y-138738555D02*
X179804831Y-138738555D01*
X169524831Y-137088555D02*
X169524831Y-138738555D01*
X169524831Y-135088555D02*
G75*
G02*
X169524831Y-137088555I0J-1000000D01*
G01*
X140354494Y-133438555D02*
X140354494Y-135088555D01*
X160794494Y-133438555D02*
X140354494Y-133438555D01*
X160794494Y-138738555D02*
X160794494Y-133438555D01*
X140354494Y-138738555D02*
X160794494Y-138738555D01*
X140354494Y-137088555D02*
X140354494Y-138738555D01*
X140354494Y-135088555D02*
G75*
G02*
X140354494Y-137088555I0J-1000000D01*
G01*
X114756035Y-133438555D02*
X114756035Y-135088555D01*
X135196035Y-133438555D02*
X114756035Y-133438555D01*
X135196035Y-138738555D02*
X135196035Y-133438555D01*
X114756035Y-138738555D02*
X135196035Y-138738555D01*
X114756035Y-137088555D02*
X114756035Y-138738555D01*
X114756035Y-135088555D02*
G75*
G02*
X114756035Y-137088555I0J-1000000D01*
G01*
X112838844Y-136896303D02*
X112838844Y-135638303D01*
X110998844Y-136896303D02*
X110998844Y-135638303D01*
X137841990Y-136896303D02*
X137841990Y-135638303D01*
X136001990Y-136896303D02*
X136001990Y-135638303D01*
X163440449Y-136896303D02*
X163440449Y-135638303D01*
X161600449Y-136896303D02*
X161600449Y-135638303D01*
X210810000Y-135239000D02*
X210810000Y-133981000D01*
X208970000Y-135239000D02*
X208970000Y-133981000D01*
X218995810Y-147251685D02*
X218995810Y-144451685D01*
X208665810Y-147251685D02*
X221705810Y-147251685D01*
X208665810Y-144451685D02*
X208665810Y-147251685D01*
X221705810Y-144451685D02*
X208665810Y-144451685D01*
X221705810Y-147251685D02*
X221705810Y-144451685D01*
X89752889Y-133438555D02*
X89752889Y-135088555D01*
X110192889Y-133438555D02*
X89752889Y-133438555D01*
X110192889Y-138738555D02*
X110192889Y-133438555D01*
X89752889Y-138738555D02*
X110192889Y-138738555D01*
X89752889Y-137088555D02*
X89752889Y-138738555D01*
X89752889Y-135088555D02*
G75*
G02*
X89752889Y-137088555I0J-1000000D01*
G01*
%LPC*%
D16*
X83512840Y-147301420D03*
X80972840Y-144761420D03*
X80972840Y-147301420D03*
X78432840Y-144761420D03*
X78432840Y-147301420D03*
X75892840Y-144761420D03*
X75892840Y-147301420D03*
D17*
X75483900Y-139947100D03*
D18*
X75483900Y-132327100D03*
D17*
X79174520Y-139947100D03*
D18*
X79174520Y-132327100D03*
D17*
X82865140Y-139947100D03*
D18*
X82865140Y-132327100D03*
D19*
X206180000Y-134890000D03*
D20*
X230000371Y-122318674D03*
X228303315Y-121615730D03*
X226606259Y-122318674D03*
X225903315Y-124015730D03*
X226606259Y-125712786D03*
X228303315Y-126415730D03*
X230000371Y-125712786D03*
X230703315Y-124015730D03*
D21*
X228303315Y-124015730D03*
D22*
X41367560Y-130492616D03*
X43907560Y-130492616D03*
X46447560Y-130492616D03*
X48987560Y-130492616D03*
X51527560Y-130492616D03*
X54067560Y-130492616D03*
X56607560Y-130492616D03*
X59147560Y-130492616D03*
X61687560Y-130492616D03*
X64227560Y-130492616D03*
X66767560Y-130492616D03*
X69307560Y-130492616D03*
X69307560Y-145732616D03*
X66767560Y-145732616D03*
X64227560Y-145732616D03*
X61687560Y-145732616D03*
X59147560Y-145732616D03*
X56607560Y-145732616D03*
X54067560Y-145732616D03*
X51527560Y-145732616D03*
X48987560Y-145732616D03*
X46447560Y-145732616D03*
X43907560Y-145732616D03*
G36*
G01*
X40516760Y-146532616D02*
X40516760Y-144932616D01*
G75*
G02*
X40567560Y-144881816I50800J0D01*
G01*
X42167560Y-144881816D01*
G75*
G02*
X42218360Y-144932616I0J-50800D01*
G01*
X42218360Y-146532616D01*
G75*
G02*
X42167560Y-146583416I-50800J0D01*
G01*
X40567560Y-146583416D01*
G75*
G02*
X40516760Y-146532616I0J50800D01*
G01*
G37*
D23*
X213868000Y-128880000D03*
X229108000Y-136500000D03*
X216408000Y-128880000D03*
X226568000Y-136500000D03*
X218948000Y-128880000D03*
X224028000Y-136500000D03*
X221488000Y-128880000D03*
X221488000Y-136500000D03*
X224028000Y-128880000D03*
X218948000Y-136500000D03*
X226568000Y-128880000D03*
X216408000Y-136500000D03*
X229108000Y-128880000D03*
G36*
G01*
X214668000Y-137350800D02*
X213068000Y-137350800D01*
G75*
G02*
X213017200Y-137300000I0J50800D01*
G01*
X213017200Y-135700000D01*
G75*
G02*
X213068000Y-135649200I50800J0D01*
G01*
X214668000Y-135649200D01*
G75*
G02*
X214718800Y-135700000I0J-50800D01*
G01*
X214718800Y-137300000D01*
G75*
G02*
X214668000Y-137350800I-50800J0D01*
G01*
G37*
D17*
X223220000Y-123800000D03*
D18*
X215600000Y-123800000D03*
D17*
X215600000Y-126340000D03*
D18*
X223220000Y-126340000D03*
D17*
X188920000Y-143100000D03*
D18*
X181300000Y-143100000D03*
D17*
X226800000Y-139000000D03*
D18*
X226800000Y-146620000D03*
D17*
X188920000Y-146050000D03*
D18*
X181300000Y-146050000D03*
D17*
X178280000Y-146050000D03*
D18*
X170660000Y-146050000D03*
D17*
X202180000Y-139000000D03*
D18*
X209800000Y-139000000D03*
D17*
X224200000Y-139000000D03*
D18*
X224200000Y-146620000D03*
D17*
X220220000Y-139000000D03*
D18*
X212600000Y-139000000D03*
D17*
X229400000Y-139000000D03*
D18*
X229400000Y-146620000D03*
D17*
X167640000Y-146050000D03*
D18*
X160020000Y-146050000D03*
D17*
X178280000Y-143100000D03*
D18*
X170660000Y-143100000D03*
D17*
X160020000Y-143100000D03*
D18*
X167640000Y-143100000D03*
D22*
X202460000Y-133340000D03*
X202460000Y-135840000D03*
D16*
X192682985Y-142279807D03*
X195222985Y-142279807D03*
X197762985Y-142279807D03*
X200302985Y-142279807D03*
X202842985Y-142279807D03*
X205382985Y-142279807D03*
X207922985Y-142279807D03*
X210462985Y-142279807D03*
X213002985Y-142279807D03*
X215542985Y-142279807D03*
X218082985Y-142279807D03*
G36*
G01*
X219772985Y-141379007D02*
X221472985Y-141379007D01*
G75*
G02*
X221523785Y-141429807I0J-50800D01*
G01*
X221523785Y-143129807D01*
G75*
G02*
X221472985Y-143180607I-50800J0D01*
G01*
X219772985Y-143180607D01*
G75*
G02*
X219722185Y-143129807I0J50800D01*
G01*
X219722185Y-141429807D01*
G75*
G02*
X219772985Y-141379007I50800J0D01*
G01*
G37*
X156289470Y-145851685D03*
X153749470Y-145851685D03*
X151209470Y-145851685D03*
X148669470Y-145851685D03*
X146129470Y-145851685D03*
X143589470Y-145851685D03*
X141049470Y-145851685D03*
X138509470Y-145851685D03*
X135969470Y-145851685D03*
X133429470Y-145851685D03*
X130889470Y-145851685D03*
X128349470Y-145851685D03*
X125809470Y-145851685D03*
X123269470Y-145851685D03*
X120729470Y-145851685D03*
X118189470Y-145851685D03*
X115649470Y-145851685D03*
X113109470Y-145851685D03*
X110569470Y-145851685D03*
X108029470Y-145851685D03*
X105489470Y-145851685D03*
X102949470Y-145851685D03*
X100409470Y-145851685D03*
X97869470Y-145851685D03*
X95329470Y-145851685D03*
X92789470Y-145851685D03*
G36*
G01*
X91099470Y-146752485D02*
X89399470Y-146752485D01*
G75*
G02*
X89348670Y-146701685I0J50800D01*
G01*
X89348670Y-145001685D01*
G75*
G02*
X89399470Y-144950885I50800J0D01*
G01*
X91099470Y-144950885D01*
G75*
G02*
X91150270Y-145001685I0J-50800D01*
G01*
X91150270Y-146701685D01*
G75*
G02*
X91099470Y-146752485I-50800J0D01*
G01*
G37*
D23*
X203041412Y-145851685D03*
X200501412Y-145851685D03*
X197961412Y-145851685D03*
X195421412Y-145851685D03*
G36*
G01*
X192030612Y-146651685D02*
X192030612Y-145051685D01*
G75*
G02*
X192081412Y-145000885I50800J0D01*
G01*
X193681412Y-145000885D01*
G75*
G02*
X193732212Y-145051685I0J-50800D01*
G01*
X193732212Y-146651685D01*
G75*
G02*
X193681412Y-146702485I-50800J0D01*
G01*
X192081412Y-146702485D01*
G75*
G02*
X192030612Y-146651685I0J50800D01*
G01*
G37*
D16*
X45812552Y-123825104D03*
X45812552Y-126365104D03*
X43272552Y-123825104D03*
X43272552Y-126365104D03*
X40732552Y-123825104D03*
G36*
G01*
X41582552Y-127265904D02*
X39882552Y-127265904D01*
G75*
G02*
X39831752Y-127215104I0J50800D01*
G01*
X39831752Y-125515104D01*
G75*
G02*
X39882552Y-125464304I50800J0D01*
G01*
X41582552Y-125464304D01*
G75*
G02*
X41633352Y-125515104I0J-50800D01*
G01*
X41633352Y-127215104D01*
G75*
G02*
X41582552Y-127265904I-50800J0D01*
G01*
G37*
D23*
X182880000Y-131318000D03*
X198120000Y-138938000D03*
X185420000Y-131318000D03*
X195580000Y-138938000D03*
X187960000Y-131318000D03*
X193040000Y-138938000D03*
X190500000Y-131318000D03*
X190500000Y-138938000D03*
X193040000Y-131318000D03*
X187960000Y-138938000D03*
X195580000Y-131318000D03*
X185420000Y-138938000D03*
X198120000Y-131318000D03*
G36*
G01*
X183680000Y-139788800D02*
X182080000Y-139788800D01*
G75*
G02*
X182029200Y-139738000I0J50800D01*
G01*
X182029200Y-138138000D01*
G75*
G02*
X182080000Y-138087200I50800J0D01*
G01*
X183680000Y-138087200D01*
G75*
G02*
X183730800Y-138138000I0J-50800D01*
G01*
X183730800Y-139738000D01*
G75*
G02*
X183680000Y-139788800I-50800J0D01*
G01*
G37*
D22*
X166687640Y-140493868D03*
X166687640Y-137993868D03*
X166687640Y-134659486D03*
X166687640Y-132159486D03*
D23*
X170854831Y-132278555D03*
X178474831Y-139898555D03*
X173394831Y-132278555D03*
X175934831Y-139898555D03*
X175934831Y-132278555D03*
X173394831Y-139898555D03*
X178474831Y-132278555D03*
G36*
G01*
X171654831Y-140749355D02*
X170054831Y-140749355D01*
G75*
G02*
X170004031Y-140698555I0J50800D01*
G01*
X170004031Y-139098555D01*
G75*
G02*
X170054831Y-139047755I50800J0D01*
G01*
X171654831Y-139047755D01*
G75*
G02*
X171705631Y-139098555I0J-50800D01*
G01*
X171705631Y-140698555D01*
G75*
G02*
X171654831Y-140749355I-50800J0D01*
G01*
G37*
X141684494Y-132278555D03*
X159464494Y-139898555D03*
X144224494Y-132278555D03*
X156924494Y-139898555D03*
X146764494Y-132278555D03*
X154384494Y-139898555D03*
X149304494Y-132278555D03*
X151844494Y-139898555D03*
X151844494Y-132278555D03*
X149304494Y-139898555D03*
X154384494Y-132278555D03*
X146764494Y-139898555D03*
X156924494Y-132278555D03*
X144224494Y-139898555D03*
X159464494Y-132278555D03*
G36*
G01*
X142484494Y-140749355D02*
X140884494Y-140749355D01*
G75*
G02*
X140833694Y-140698555I0J50800D01*
G01*
X140833694Y-139098555D01*
G75*
G02*
X140884494Y-139047755I50800J0D01*
G01*
X142484494Y-139047755D01*
G75*
G02*
X142535294Y-139098555I0J-50800D01*
G01*
X142535294Y-140698555D01*
G75*
G02*
X142484494Y-140749355I-50800J0D01*
G01*
G37*
X116086035Y-132278555D03*
X133866035Y-139898555D03*
X118626035Y-132278555D03*
X131326035Y-139898555D03*
X121166035Y-132278555D03*
X128786035Y-139898555D03*
X123706035Y-132278555D03*
X126246035Y-139898555D03*
X126246035Y-132278555D03*
X123706035Y-139898555D03*
X128786035Y-132278555D03*
X121166035Y-139898555D03*
X131326035Y-132278555D03*
X118626035Y-139898555D03*
X133866035Y-132278555D03*
G36*
G01*
X116886035Y-140749355D02*
X115286035Y-140749355D01*
G75*
G02*
X115235235Y-140698555I0J50800D01*
G01*
X115235235Y-139098555D01*
G75*
G02*
X115286035Y-139047755I50800J0D01*
G01*
X116886035Y-139047755D01*
G75*
G02*
X116936835Y-139098555I0J-50800D01*
G01*
X116936835Y-140698555D01*
G75*
G02*
X116886035Y-140749355I-50800J0D01*
G01*
G37*
D22*
X111918844Y-135017303D03*
X111918844Y-137517303D03*
X136921990Y-135017303D03*
X136921990Y-137517303D03*
X162520449Y-135017303D03*
X162520449Y-137517303D03*
X209890000Y-133360000D03*
X209890000Y-135860000D03*
D23*
X210105810Y-145851685D03*
X212645810Y-145851685D03*
X215185810Y-145851685D03*
X217725810Y-145851685D03*
G36*
G01*
X221116610Y-145051685D02*
X221116610Y-146651685D01*
G75*
G02*
X221065810Y-146702485I-50800J0D01*
G01*
X219465810Y-146702485D01*
G75*
G02*
X219415010Y-146651685I0J50800D01*
G01*
X219415010Y-145051685D01*
G75*
G02*
X219465810Y-145000885I50800J0D01*
G01*
X221065810Y-145000885D01*
G75*
G02*
X221116610Y-145051685I0J-50800D01*
G01*
G37*
X91082889Y-132278555D03*
X108862889Y-139898555D03*
X93622889Y-132278555D03*
X106322889Y-139898555D03*
X96162889Y-132278555D03*
X103782889Y-139898555D03*
X98702889Y-132278555D03*
X101242889Y-139898555D03*
X101242889Y-132278555D03*
X98702889Y-139898555D03*
X103782889Y-132278555D03*
X96162889Y-139898555D03*
X106322889Y-132278555D03*
X93622889Y-139898555D03*
X108862889Y-132278555D03*
G36*
G01*
X91882889Y-140749355D02*
X90282889Y-140749355D01*
G75*
G02*
X90232089Y-140698555I0J50800D01*
G01*
X90232089Y-139098555D01*
G75*
G02*
X90282889Y-139047755I50800J0D01*
G01*
X91882889Y-139047755D01*
G75*
G02*
X91933689Y-139098555I0J-50800D01*
G01*
X91933689Y-140698555D01*
G75*
G02*
X91882889Y-140749355I-50800J0D01*
G01*
G37*
M02*
