%FSLAX45Y45*%
G04 Gerber Fmt 4.5, Leading zero omitted, Abs format (unit mm)*
G04 Created by KiCad (PCBNEW 5.1.10) date 2021-10-20 12:50:48*
%MOMM*%
%LPD*%
G01*
G04 APERTURE LIST*
%TA.AperFunction,Profile*%
%ADD10C,0.050000*%
%TD*%
%ADD11C,0.200000*%
%ADD12C,0.300000*%
G04 APERTURE END LIST*
D10*
X3807348Y-12084854D02*
X6167348Y-12084854D01*
X23098144Y-12084854D02*
X6167348Y-12084854D01*
X3747817Y-12144385D02*
X3747817Y-14823294D01*
X23157676Y-14823294D02*
X23157676Y-12144385D01*
X3807348Y-14882825D02*
X23098144Y-14882825D01*
X23098144Y-12084854D02*
G75*
G02*
X23157676Y-12144385I0J-59531D01*
G01*
X23157676Y-14823294D02*
G75*
G02*
X23098144Y-14882825I-59531J0D01*
G01*
X3747817Y-12144385D02*
G75*
G02*
X3807348Y-12084854I59531J0D01*
G01*
X3807348Y-14882825D02*
G75*
G02*
X3747817Y-14823294I0J59531D01*
G01*
D11*
D12*
X4031745Y-15351039D02*
X4031745Y-15051039D01*
X4103174Y-15051039D01*
X4146031Y-15065325D01*
X4174603Y-15093896D01*
X4188888Y-15122468D01*
X4203174Y-15179611D01*
X4203174Y-15222468D01*
X4188888Y-15279611D01*
X4174603Y-15308182D01*
X4146031Y-15336754D01*
X4103174Y-15351039D01*
X4031745Y-15351039D01*
X4331745Y-15351039D02*
X4331745Y-15151039D01*
X4331745Y-15208182D02*
X4346031Y-15179611D01*
X4360317Y-15165325D01*
X4388888Y-15151039D01*
X4417460Y-15151039D01*
X4517460Y-15351039D02*
X4517460Y-15151039D01*
X4517460Y-15051039D02*
X4503174Y-15065325D01*
X4517460Y-15079611D01*
X4531745Y-15065325D01*
X4517460Y-15051039D01*
X4517460Y-15079611D01*
X4703174Y-15351039D02*
X4674603Y-15336754D01*
X4660317Y-15308182D01*
X4660317Y-15051039D01*
X4860317Y-15351039D02*
X4831745Y-15336754D01*
X4817460Y-15308182D01*
X4817460Y-15051039D01*
X5203174Y-15351039D02*
X5203174Y-15051039D01*
X5303174Y-15265325D01*
X5403174Y-15051039D01*
X5403174Y-15351039D01*
X5674603Y-15351039D02*
X5674603Y-15193896D01*
X5660317Y-15165325D01*
X5631745Y-15151039D01*
X5574603Y-15151039D01*
X5546031Y-15165325D01*
X5674603Y-15336754D02*
X5646031Y-15351039D01*
X5574603Y-15351039D01*
X5546031Y-15336754D01*
X5531745Y-15308182D01*
X5531745Y-15279611D01*
X5546031Y-15251039D01*
X5574603Y-15236754D01*
X5646031Y-15236754D01*
X5674603Y-15222468D01*
X5817460Y-15151039D02*
X5817460Y-15451039D01*
X5817460Y-15165325D02*
X5846031Y-15151039D01*
X5903174Y-15151039D01*
X5931745Y-15165325D01*
X5946031Y-15179611D01*
X5960317Y-15208182D01*
X5960317Y-15293896D01*
X5946031Y-15322468D01*
X5931745Y-15336754D01*
X5903174Y-15351039D01*
X5846031Y-15351039D01*
X5817460Y-15336754D01*
X6088888Y-15322468D02*
X6103174Y-15336754D01*
X6088888Y-15351039D01*
X6074603Y-15336754D01*
X6088888Y-15322468D01*
X6088888Y-15351039D01*
X6088888Y-15165325D02*
X6103174Y-15179611D01*
X6088888Y-15193896D01*
X6074603Y-15179611D01*
X6088888Y-15165325D01*
X6088888Y-15193896D01*
M02*
