%FSLAX45Y45*%
G04 Gerber Fmt 4.5, Leading zero omitted, Abs format (unit mm)*
G04 Created by KiCad (PCBNEW 5.1.10) date 2021-10-20 12:50:48*
%MOMM*%
%LPD*%
G01*
G04 APERTURE LIST*
%TA.AperFunction,Profile*%
%ADD10C,0.050000*%
%TD*%
%ADD11C,0.200000*%
%ADD12C,0.300000*%
G04 APERTURE END LIST*
D10*
X3807348Y-12084854D02*
X6167348Y-12084854D01*
X23098144Y-12084854D02*
X6167348Y-12084854D01*
X3747817Y-12144385D02*
X3747817Y-14823294D01*
X23157676Y-14823294D02*
X23157676Y-12144385D01*
X3807348Y-14882825D02*
X23098144Y-14882825D01*
X23098144Y-12084854D02*
G75*
G02*
X23157676Y-12144385I0J-59531D01*
G01*
X23157676Y-14823294D02*
G75*
G02*
X23098144Y-14882825I-59531J0D01*
G01*
X3747817Y-12144385D02*
G75*
G02*
X3807348Y-12084854I59531J0D01*
G01*
X3807348Y-14882825D02*
G75*
G02*
X3747817Y-14823294I0J59531D01*
G01*
D11*
X4016300Y-12494300D02*
X4041700Y-12519700D01*
X4041700Y-12494300D02*
X4016300Y-12519700D01*
X4054300Y-13262300D02*
X4079700Y-13287700D01*
X4079700Y-13262300D02*
X4054300Y-13287700D01*
X4073300Y-13201300D02*
X4098700Y-13226700D01*
X4098700Y-13201300D02*
X4073300Y-13226700D01*
X4080300Y-14431300D02*
X4105700Y-14456700D01*
X4105700Y-14431300D02*
X4080300Y-14456700D01*
X4150300Y-14352300D02*
X4175700Y-14377700D01*
X4175700Y-14352300D02*
X4150300Y-14377700D01*
X4166300Y-13151300D02*
X4191700Y-13176700D01*
X4191700Y-13151300D02*
X4166300Y-13176700D01*
X4179300Y-12827300D02*
X4204700Y-12852700D01*
X4204700Y-12827300D02*
X4179300Y-12852700D01*
X4180300Y-12929300D02*
X4205700Y-12954700D01*
X4205700Y-12929300D02*
X4180300Y-12954700D01*
X4192300Y-12670300D02*
X4217700Y-12695700D01*
X4217700Y-12670300D02*
X4192300Y-12695700D01*
X4252300Y-14602300D02*
X4277700Y-14627700D01*
X4277700Y-14602300D02*
X4252300Y-14627700D01*
X4318300Y-13175300D02*
X4343700Y-13200700D01*
X4343700Y-13175300D02*
X4318300Y-13200700D01*
X4336300Y-12783300D02*
X4361700Y-12808700D01*
X4361700Y-12783300D02*
X4336300Y-12808700D01*
X4368300Y-12899300D02*
X4393700Y-12924700D01*
X4393700Y-12899300D02*
X4368300Y-12924700D01*
X4442300Y-12371300D02*
X4467700Y-12396700D01*
X4467700Y-12371300D02*
X4442300Y-12396700D01*
X4445300Y-12667300D02*
X4470700Y-12692700D01*
X4470700Y-12667300D02*
X4445300Y-12692700D01*
X4457300Y-14674300D02*
X4482700Y-14699700D01*
X4482700Y-14674300D02*
X4457300Y-14699700D01*
X4479300Y-12785300D02*
X4504700Y-12810700D01*
X4504700Y-12785300D02*
X4479300Y-12810700D01*
X4481300Y-13134300D02*
X4506700Y-13159700D01*
X4506700Y-13134300D02*
X4481300Y-13159700D01*
X4482300Y-12936300D02*
X4507700Y-12961700D01*
X4507700Y-12936300D02*
X4482300Y-12961700D01*
X4523300Y-12745300D02*
X4548700Y-12770700D01*
X4548700Y-12745300D02*
X4523300Y-12770700D01*
X4542300Y-14418300D02*
X4567700Y-14443700D01*
X4567700Y-14418300D02*
X4542300Y-14443700D01*
X4564300Y-12215300D02*
X4589700Y-12240700D01*
X4589700Y-12215300D02*
X4564300Y-12240700D01*
X4569300Y-12497300D02*
X4594700Y-12522700D01*
X4594700Y-12497300D02*
X4569300Y-12522700D01*
X4688300Y-13152300D02*
X4713700Y-13177700D01*
X4713700Y-13152300D02*
X4688300Y-13177700D01*
X4729300Y-12370300D02*
X4754700Y-12395700D01*
X4754700Y-12370300D02*
X4729300Y-12395700D01*
X4739300Y-12889300D02*
X4764700Y-12914700D01*
X4764700Y-12889300D02*
X4739300Y-12914700D01*
X4745300Y-12556300D02*
X4770700Y-12581700D01*
X4770700Y-12556300D02*
X4745300Y-12581700D01*
X4758300Y-14633300D02*
X4783700Y-14658700D01*
X4783700Y-14633300D02*
X4758300Y-14658700D01*
X4761300Y-14469300D02*
X4786700Y-14494700D01*
X4786700Y-14469300D02*
X4761300Y-14494700D01*
X4835300Y-13231300D02*
X4860700Y-13256700D01*
X4860700Y-13231300D02*
X4835300Y-13256700D01*
X4901300Y-12915300D02*
X4926700Y-12940700D01*
X4926700Y-12915300D02*
X4901300Y-12940700D01*
X4940300Y-12679300D02*
X4965700Y-12704700D01*
X4965700Y-12679300D02*
X4940300Y-12704700D01*
X4953300Y-13185300D02*
X4978700Y-13210700D01*
X4978700Y-13185300D02*
X4953300Y-13210700D01*
X4956300Y-13357300D02*
X4981700Y-13382700D01*
X4981700Y-13357300D02*
X4956300Y-13382700D01*
X4961300Y-12940300D02*
X4986700Y-12965700D01*
X4986700Y-12940300D02*
X4961300Y-12965700D01*
X4971300Y-12244300D02*
X4996700Y-12269700D01*
X4996700Y-12244300D02*
X4971300Y-12269700D01*
X5002300Y-14453300D02*
X5027700Y-14478700D01*
X5027700Y-14453300D02*
X5002300Y-14478700D01*
X5004300Y-12812300D02*
X5029700Y-12837700D01*
X5029700Y-12812300D02*
X5004300Y-12837700D01*
X5022300Y-14632300D02*
X5047700Y-14657700D01*
X5047700Y-14632300D02*
X5022300Y-14657700D01*
X5038300Y-12678300D02*
X5063700Y-12703700D01*
X5063700Y-12678300D02*
X5038300Y-12703700D01*
X5041300Y-12315300D02*
X5066700Y-12340700D01*
X5066700Y-12315300D02*
X5041300Y-12340700D01*
X5089300Y-13147300D02*
X5114700Y-13172700D01*
X5114700Y-13147300D02*
X5089300Y-13172700D01*
X5135300Y-12742300D02*
X5160700Y-12767700D01*
X5160700Y-12742300D02*
X5135300Y-12767700D01*
X5139300Y-12116300D02*
X5164700Y-12141700D01*
X5164700Y-12116300D02*
X5139300Y-12141700D01*
X5140300Y-13292300D02*
X5165700Y-13317700D01*
X5165700Y-13292300D02*
X5140300Y-13317700D01*
X5154300Y-12361300D02*
X5179700Y-12386700D01*
X5179700Y-12361300D02*
X5154300Y-12386700D01*
X5175300Y-13501300D02*
X5200700Y-13526700D01*
X5200700Y-13501300D02*
X5175300Y-13526700D01*
X5232300Y-12744300D02*
X5257700Y-12769700D01*
X5257700Y-12744300D02*
X5232300Y-12769700D01*
X5235300Y-13360300D02*
X5260700Y-13385700D01*
X5260700Y-13360300D02*
X5235300Y-13385700D01*
X5240300Y-13171300D02*
X5265700Y-13196700D01*
X5265700Y-13171300D02*
X5240300Y-13196700D01*
X5240300Y-13291300D02*
X5265700Y-13316700D01*
X5265700Y-13291300D02*
X5240300Y-13316700D01*
X5251300Y-12433300D02*
X5276700Y-12458700D01*
X5276700Y-12433300D02*
X5251300Y-12458700D01*
X5329300Y-12745300D02*
X5354700Y-12770700D01*
X5354700Y-12745300D02*
X5329300Y-12770700D01*
X5338300Y-14061300D02*
X5363700Y-14086700D01*
X5363700Y-14061300D02*
X5338300Y-14086700D01*
X5346300Y-13162300D02*
X5371700Y-13187700D01*
X5371700Y-13162300D02*
X5346300Y-13187700D01*
X5362300Y-12509300D02*
X5387700Y-12534700D01*
X5387700Y-12509300D02*
X5362300Y-12534700D01*
X5426300Y-12613300D02*
X5451700Y-12638700D01*
X5451700Y-12613300D02*
X5426300Y-12638700D01*
X5427300Y-13292300D02*
X5452700Y-13317700D01*
X5452700Y-13292300D02*
X5427300Y-13317700D01*
X5492300Y-13567300D02*
X5517700Y-13592700D01*
X5517700Y-13567300D02*
X5492300Y-13592700D01*
X5517300Y-12663300D02*
X5542700Y-12688700D01*
X5542700Y-12663300D02*
X5517300Y-12688700D01*
X5520300Y-14221300D02*
X5545700Y-14246700D01*
X5545700Y-14221300D02*
X5520300Y-14246700D01*
X5698300Y-13164300D02*
X5723700Y-13189700D01*
X5723700Y-13164300D02*
X5698300Y-13189700D01*
X5772300Y-14238300D02*
X5797700Y-14263700D01*
X5797700Y-14238300D02*
X5772300Y-14263700D01*
X5823300Y-12674300D02*
X5848700Y-12699700D01*
X5848700Y-12674300D02*
X5823300Y-12699700D01*
X5853300Y-12829300D02*
X5878700Y-12854700D01*
X5878700Y-12829300D02*
X5853300Y-12854700D01*
X5942300Y-13214300D02*
X5967700Y-13239700D01*
X5967700Y-13214300D02*
X5942300Y-13239700D01*
X5943300Y-12736300D02*
X5968700Y-12761700D01*
X5968700Y-12736300D02*
X5943300Y-12761700D01*
X6033300Y-13064300D02*
X6058700Y-13089700D01*
X6058700Y-13064300D02*
X6033300Y-13089700D01*
X6067300Y-13215300D02*
X6092700Y-13240700D01*
X6092700Y-13215300D02*
X6067300Y-13240700D01*
X6112300Y-13318300D02*
X6137700Y-13343700D01*
X6137700Y-13318300D02*
X6112300Y-13343700D01*
X6119300Y-14680300D02*
X6144700Y-14705700D01*
X6144700Y-14680300D02*
X6119300Y-14705700D01*
X6205300Y-12849300D02*
X6230700Y-12874700D01*
X6230700Y-12849300D02*
X6205300Y-12874700D01*
X6255300Y-12812300D02*
X6280700Y-12837700D01*
X6280700Y-12812300D02*
X6255300Y-12837700D01*
X6288300Y-14521300D02*
X6313700Y-14546700D01*
X6313700Y-14521300D02*
X6288300Y-14546700D01*
X6381300Y-13389300D02*
X6406700Y-13414700D01*
X6406700Y-13389300D02*
X6381300Y-13414700D01*
X6395300Y-12895300D02*
X6420700Y-12920700D01*
X6420700Y-12895300D02*
X6395300Y-12920700D01*
X6533300Y-14510300D02*
X6558700Y-14535700D01*
X6558700Y-14510300D02*
X6533300Y-14535700D01*
X6536300Y-13137300D02*
X6561700Y-13162700D01*
X6561700Y-13137300D02*
X6536300Y-13162700D01*
X6796300Y-13096300D02*
X6821700Y-13121700D01*
X6821700Y-13096300D02*
X6796300Y-13121700D01*
X6797300Y-14516300D02*
X6822700Y-14541700D01*
X6822700Y-14516300D02*
X6797300Y-14541700D01*
X7535300Y-13568300D02*
X7560700Y-13593700D01*
X7560700Y-13568300D02*
X7535300Y-13593700D01*
X7535300Y-13686300D02*
X7560700Y-13711700D01*
X7560700Y-13686300D02*
X7535300Y-13711700D01*
X7817300Y-14052300D02*
X7842700Y-14077700D01*
X7842700Y-14052300D02*
X7817300Y-14077700D01*
X7906300Y-13568300D02*
X7931700Y-13593700D01*
X7931700Y-13568300D02*
X7906300Y-13593700D01*
X7906300Y-13685300D02*
X7931700Y-13710700D01*
X7931700Y-13685300D02*
X7906300Y-13710700D01*
X8341300Y-13685300D02*
X8366700Y-13710700D01*
X8366700Y-13685300D02*
X8341300Y-13710700D01*
X8342300Y-13567300D02*
X8367700Y-13592700D01*
X8367700Y-13567300D02*
X8342300Y-13592700D01*
X8393300Y-13497300D02*
X8418700Y-13522700D01*
X8418700Y-13497300D02*
X8393300Y-13522700D01*
X8396300Y-13715300D02*
X8421700Y-13740700D01*
X8421700Y-13715300D02*
X8396300Y-13740700D01*
X8507300Y-14737300D02*
X8532700Y-14762700D01*
X8532700Y-14737300D02*
X8507300Y-14762700D01*
X8531300Y-13566300D02*
X8556700Y-13591700D01*
X8556700Y-13566300D02*
X8531300Y-13591700D01*
X8533300Y-13688300D02*
X8558700Y-13713700D01*
X8558700Y-13688300D02*
X8533300Y-13713700D01*
X8821300Y-13147300D02*
X8846700Y-13172700D01*
X8846700Y-13147300D02*
X8821300Y-13172700D01*
X8854300Y-14571300D02*
X8879700Y-14596700D01*
X8879700Y-14571300D02*
X8854300Y-14596700D01*
X8866300Y-13685300D02*
X8891700Y-13710700D01*
X8891700Y-13685300D02*
X8866300Y-13710700D01*
X8919300Y-13566300D02*
X8944700Y-13591700D01*
X8944700Y-13566300D02*
X8919300Y-13591700D01*
X8969300Y-13687300D02*
X8994700Y-13712700D01*
X8994700Y-13687300D02*
X8969300Y-13712700D01*
X9010300Y-14723300D02*
X9035700Y-14748700D01*
X9035700Y-14723300D02*
X9010300Y-14748700D01*
X9012300Y-14417300D02*
X9037700Y-14442700D01*
X9037700Y-14417300D02*
X9012300Y-14442700D01*
X9068300Y-13567300D02*
X9093700Y-13592700D01*
X9093700Y-13567300D02*
X9068300Y-13592700D01*
X9139300Y-14573300D02*
X9164700Y-14598700D01*
X9164700Y-14573300D02*
X9139300Y-14598700D01*
X9142300Y-13341300D02*
X9167700Y-13366700D01*
X9167700Y-13341300D02*
X9142300Y-13366700D01*
X9219300Y-13424300D02*
X9244700Y-13449700D01*
X9244700Y-13424300D02*
X9219300Y-13449700D01*
X9225300Y-13253300D02*
X9250700Y-13278700D01*
X9250700Y-13253300D02*
X9225300Y-13278700D01*
X9242300Y-12987300D02*
X9267700Y-13012700D01*
X9267700Y-12987300D02*
X9242300Y-13012700D01*
X9260300Y-14728300D02*
X9285700Y-14753700D01*
X9285700Y-14728300D02*
X9260300Y-14753700D01*
X9267300Y-14424300D02*
X9292700Y-14449700D01*
X9292700Y-14424300D02*
X9267300Y-14449700D01*
X9315300Y-13342300D02*
X9340700Y-13367700D01*
X9340700Y-13342300D02*
X9315300Y-13367700D01*
X9393300Y-14572300D02*
X9418700Y-14597700D01*
X9418700Y-14572300D02*
X9393300Y-14597700D01*
X9508300Y-13136300D02*
X9533700Y-13161700D01*
X9533700Y-13136300D02*
X9508300Y-13161700D01*
X9650300Y-13090300D02*
X9675700Y-13115700D01*
X9675700Y-13090300D02*
X9650300Y-13115700D01*
X9662300Y-12116300D02*
X9687700Y-12141700D01*
X9687700Y-12116300D02*
X9662300Y-12141700D01*
X9732300Y-13013300D02*
X9757700Y-13038700D01*
X9757700Y-13013300D02*
X9732300Y-13038700D01*
X9777300Y-13313300D02*
X9802700Y-13338700D01*
X9802700Y-13313300D02*
X9777300Y-13338700D01*
X9784300Y-12959300D02*
X9809700Y-12984700D01*
X9809700Y-12959300D02*
X9784300Y-12984700D01*
X9819300Y-13393300D02*
X9844700Y-13418700D01*
X9844700Y-13393300D02*
X9819300Y-13418700D01*
X9856300Y-12885300D02*
X9881700Y-12910700D01*
X9881700Y-12885300D02*
X9856300Y-12910700D01*
X9904300Y-13081300D02*
X9929700Y-13106700D01*
X9929700Y-13081300D02*
X9904300Y-13106700D01*
X9931300Y-12810300D02*
X9956700Y-12835700D01*
X9956700Y-12810300D02*
X9931300Y-12835700D01*
X9976300Y-13006300D02*
X10001700Y-13031700D01*
X10001700Y-13006300D02*
X9976300Y-13031700D01*
X10017300Y-12729300D02*
X10042700Y-12754700D01*
X10042700Y-12729300D02*
X10017300Y-12754700D01*
X10053300Y-12931300D02*
X10078700Y-12956700D01*
X10078700Y-12931300D02*
X10053300Y-12956700D01*
X10139300Y-12845300D02*
X10164700Y-12870700D01*
X10164700Y-12845300D02*
X10139300Y-12870700D01*
X10241300Y-13162300D02*
X10266700Y-13187700D01*
X10266700Y-13162300D02*
X10241300Y-13187700D01*
X10318300Y-13045300D02*
X10343700Y-13070700D01*
X10343700Y-13045300D02*
X10318300Y-13070700D01*
X10436300Y-13104300D02*
X10461700Y-13129700D01*
X10461700Y-13104300D02*
X10436300Y-13129700D01*
X10610300Y-13408300D02*
X10635700Y-13433700D01*
X10635700Y-13408300D02*
X10610300Y-13433700D01*
X10642300Y-13054300D02*
X10667700Y-13079700D01*
X10667700Y-13054300D02*
X10642300Y-13079700D01*
X10744300Y-13976300D02*
X10769700Y-14001700D01*
X10769700Y-13976300D02*
X10744300Y-14001700D01*
X10766300Y-13087300D02*
X10791700Y-13112700D01*
X10791700Y-13087300D02*
X10766300Y-13112700D01*
X10871300Y-14128300D02*
X10896700Y-14153700D01*
X10896700Y-14128300D02*
X10871300Y-14153700D01*
X10875300Y-13834300D02*
X10900700Y-13859700D01*
X10900700Y-13834300D02*
X10875300Y-13859700D01*
X11033300Y-13977300D02*
X11058700Y-14002700D01*
X11058700Y-13977300D02*
X11033300Y-14002700D01*
X11053300Y-13148300D02*
X11078700Y-13173700D01*
X11078700Y-13148300D02*
X11053300Y-13173700D01*
X11070300Y-13846300D02*
X11095700Y-13871700D01*
X11095700Y-13846300D02*
X11070300Y-13871700D01*
X11285300Y-13637300D02*
X11310700Y-13662700D01*
X11310700Y-13637300D02*
X11285300Y-13662700D01*
X11294300Y-13837300D02*
X11319700Y-13862700D01*
X11319700Y-13837300D02*
X11294300Y-13862700D01*
X11375300Y-13618300D02*
X11400700Y-13643700D01*
X11400700Y-13618300D02*
X11375300Y-13643700D01*
X11459300Y-13532300D02*
X11484700Y-13557700D01*
X11484700Y-13532300D02*
X11459300Y-13557700D01*
X11469300Y-13674300D02*
X11494700Y-13699700D01*
X11494700Y-13674300D02*
X11469300Y-13699700D01*
X11580300Y-13556300D02*
X11605700Y-13581700D01*
X11605700Y-13556300D02*
X11580300Y-13581700D01*
X11644300Y-13346300D02*
X11669700Y-13371700D01*
X11669700Y-13346300D02*
X11644300Y-13371700D01*
X11718300Y-13423300D02*
X11743700Y-13448700D01*
X11743700Y-13423300D02*
X11718300Y-13448700D01*
X11731300Y-13261300D02*
X11756700Y-13286700D01*
X11756700Y-13261300D02*
X11731300Y-13286700D01*
X11807300Y-13334300D02*
X11832700Y-13359700D01*
X11832700Y-13334300D02*
X11807300Y-13359700D01*
X12013300Y-13126300D02*
X12038700Y-13151700D01*
X12038700Y-13126300D02*
X12013300Y-13151700D01*
X12165300Y-13104300D02*
X12190700Y-13129700D01*
X12190700Y-13104300D02*
X12165300Y-13129700D01*
X12195300Y-13399300D02*
X12220700Y-13424700D01*
X12220700Y-13399300D02*
X12195300Y-13424700D01*
X12318300Y-13095300D02*
X12343700Y-13120700D01*
X12343700Y-13095300D02*
X12318300Y-13120700D01*
X12485300Y-13174300D02*
X12510700Y-13199700D01*
X12510700Y-13174300D02*
X12485300Y-13199700D01*
X12626300Y-13380300D02*
X12651700Y-13405700D01*
X12651700Y-13380300D02*
X12626300Y-13405700D01*
X12729300Y-13155300D02*
X12754700Y-13180700D01*
X12754700Y-13155300D02*
X12729300Y-13180700D01*
X12816300Y-13091300D02*
X12841700Y-13116700D01*
X12841700Y-13091300D02*
X12816300Y-13116700D01*
X12931300Y-13107300D02*
X12956700Y-13132700D01*
X12956700Y-13107300D02*
X12931300Y-13132700D01*
X13097300Y-13393300D02*
X13122700Y-13418700D01*
X13122700Y-13393300D02*
X13097300Y-13418700D01*
X13133300Y-13050300D02*
X13158700Y-13075700D01*
X13158700Y-13050300D02*
X13133300Y-13075700D01*
X13238300Y-13165300D02*
X13263700Y-13190700D01*
X13263700Y-13165300D02*
X13238300Y-13190700D01*
X13246300Y-13975300D02*
X13271700Y-14000700D01*
X13271700Y-13975300D02*
X13246300Y-14000700D01*
X13374300Y-14119300D02*
X13399700Y-14144700D01*
X13399700Y-14119300D02*
X13374300Y-14144700D01*
X13375300Y-13832300D02*
X13400700Y-13857700D01*
X13400700Y-13832300D02*
X13375300Y-13857700D01*
X13499300Y-13181300D02*
X13524700Y-13206700D01*
X13524700Y-13181300D02*
X13499300Y-13206700D01*
X13520300Y-13979300D02*
X13545700Y-14004700D01*
X13545700Y-13979300D02*
X13520300Y-14004700D01*
X13524300Y-13692300D02*
X13549700Y-13717700D01*
X13549700Y-13692300D02*
X13524300Y-13717700D01*
X13573300Y-13849300D02*
X13598700Y-13874700D01*
X13598700Y-13849300D02*
X13573300Y-13874700D01*
X13796300Y-13630300D02*
X13821700Y-13655700D01*
X13821700Y-13630300D02*
X13796300Y-13655700D01*
X13801300Y-13839300D02*
X13826700Y-13864700D01*
X13826700Y-13839300D02*
X13801300Y-13864700D01*
X13926300Y-13653300D02*
X13951700Y-13678700D01*
X13951700Y-13653300D02*
X13926300Y-13678700D01*
X13999300Y-13554300D02*
X14024700Y-13579700D01*
X14024700Y-13554300D02*
X13999300Y-13579700D01*
X14027300Y-13680300D02*
X14052700Y-13705700D01*
X14052700Y-13680300D02*
X14027300Y-13705700D01*
X14133300Y-13561300D02*
X14158700Y-13586700D01*
X14158700Y-13561300D02*
X14133300Y-13586700D01*
X14206300Y-13348300D02*
X14231700Y-13373700D01*
X14231700Y-13348300D02*
X14206300Y-13373700D01*
X14276300Y-13419300D02*
X14301700Y-13444700D01*
X14301700Y-13419300D02*
X14276300Y-13444700D01*
X14290300Y-13265300D02*
X14315700Y-13290700D01*
X14315700Y-13265300D02*
X14290300Y-13290700D01*
X14361300Y-13333300D02*
X14386700Y-13358700D01*
X14386700Y-13333300D02*
X14361300Y-13358700D01*
X14482300Y-13111300D02*
X14507700Y-13136700D01*
X14507700Y-13111300D02*
X14482300Y-13136700D01*
X14791300Y-13177300D02*
X14816700Y-13202700D01*
X14816700Y-13177300D02*
X14791300Y-13202700D01*
X15089300Y-13113300D02*
X15114700Y-13138700D01*
X15114700Y-13113300D02*
X15089300Y-13138700D01*
X15102300Y-12116300D02*
X15127700Y-12141700D01*
X15127700Y-12116300D02*
X15102300Y-12141700D01*
X15232300Y-13103300D02*
X15257700Y-13128700D01*
X15257700Y-13103300D02*
X15232300Y-13128700D01*
X15235300Y-14570300D02*
X15260700Y-14595700D01*
X15260700Y-14570300D02*
X15235300Y-14595700D01*
X15361300Y-14431300D02*
X15386700Y-14456700D01*
X15386700Y-14431300D02*
X15361300Y-14456700D01*
X15361300Y-14712300D02*
X15386700Y-14737700D01*
X15386700Y-14712300D02*
X15361300Y-14737700D01*
X15476300Y-14799300D02*
X15501700Y-14824700D01*
X15501700Y-14799300D02*
X15476300Y-14824700D01*
X15481300Y-14715300D02*
X15506700Y-14740700D01*
X15506700Y-14715300D02*
X15481300Y-14740700D01*
X15489300Y-14571300D02*
X15514700Y-14596700D01*
X15514700Y-14571300D02*
X15489300Y-14596700D01*
X15527300Y-13101300D02*
X15552700Y-13126700D01*
X15552700Y-13101300D02*
X15527300Y-13126700D01*
X15615300Y-14714300D02*
X15640700Y-14739700D01*
X15640700Y-14714300D02*
X15615300Y-14739700D01*
X15617300Y-14430300D02*
X15642700Y-14455700D01*
X15642700Y-14430300D02*
X15617300Y-14455700D01*
X15712300Y-14432300D02*
X15737700Y-14457700D01*
X15737700Y-14432300D02*
X15712300Y-14457700D01*
X15748300Y-14343300D02*
X15773700Y-14368700D01*
X15773700Y-14343300D02*
X15748300Y-14368700D01*
X15749300Y-14572300D02*
X15774700Y-14597700D01*
X15774700Y-14572300D02*
X15749300Y-14597700D01*
X15786300Y-14231300D02*
X15811700Y-14256700D01*
X15811700Y-14231300D02*
X15786300Y-14256700D01*
X15806300Y-13973300D02*
X15831700Y-13998700D01*
X15831700Y-13973300D02*
X15806300Y-13998700D01*
X15828300Y-14124300D02*
X15853700Y-14149700D01*
X15853700Y-14124300D02*
X15828300Y-14149700D01*
X15890300Y-14488300D02*
X15915700Y-14513700D01*
X15915700Y-14488300D02*
X15890300Y-14513700D01*
X15891300Y-14689300D02*
X15916700Y-14714700D01*
X15916700Y-14689300D02*
X15891300Y-14714700D01*
X15932300Y-13831300D02*
X15957700Y-13856700D01*
X15957700Y-13831300D02*
X15932300Y-13856700D01*
X15932300Y-14130300D02*
X15957700Y-14155700D01*
X15957700Y-14130300D02*
X15932300Y-14155700D01*
X16030300Y-13712300D02*
X16055700Y-13737700D01*
X16055700Y-13712300D02*
X16030300Y-13737700D01*
X16079300Y-13975300D02*
X16104700Y-14000700D01*
X16104700Y-13975300D02*
X16079300Y-14000700D01*
X16092300Y-14687300D02*
X16117700Y-14712700D01*
X16117700Y-14687300D02*
X16092300Y-14712700D01*
X16096300Y-14500300D02*
X16121700Y-14525700D01*
X16121700Y-14500300D02*
X16096300Y-14525700D01*
X16136300Y-13844300D02*
X16161700Y-13869700D01*
X16161700Y-13844300D02*
X16136300Y-13869700D01*
X16248300Y-13307300D02*
X16273700Y-13332700D01*
X16273700Y-13307300D02*
X16248300Y-13332700D01*
X16299300Y-12902300D02*
X16324700Y-12927700D01*
X16324700Y-12902300D02*
X16299300Y-12927700D01*
X16322300Y-13156300D02*
X16347700Y-13181700D01*
X16347700Y-13156300D02*
X16322300Y-13181700D01*
X16323300Y-12990300D02*
X16348700Y-13015700D01*
X16348700Y-12990300D02*
X16323300Y-13015700D01*
X16348300Y-13842300D02*
X16373700Y-13867700D01*
X16373700Y-13842300D02*
X16348300Y-13867700D01*
X16412300Y-13896300D02*
X16437700Y-13921700D01*
X16437700Y-13896300D02*
X16412300Y-13921700D01*
X16423300Y-14098300D02*
X16448700Y-14123700D01*
X16448700Y-14098300D02*
X16423300Y-14123700D01*
X16423300Y-14227500D02*
X16448700Y-14252900D01*
X16448700Y-14227500D02*
X16423300Y-14252900D01*
X16423300Y-14356700D02*
X16448700Y-14382100D01*
X16448700Y-14356700D02*
X16423300Y-14382100D01*
X16423300Y-14485900D02*
X16448700Y-14511300D01*
X16448700Y-14485900D02*
X16423300Y-14511300D01*
X16423300Y-14615100D02*
X16448700Y-14640500D01*
X16448700Y-14615100D02*
X16423300Y-14640500D01*
X16423300Y-14744300D02*
X16448700Y-14769700D01*
X16448700Y-14744300D02*
X16423300Y-14769700D01*
X16456300Y-13287300D02*
X16481700Y-13312700D01*
X16481700Y-13287300D02*
X16456300Y-13312700D01*
X16458300Y-13122300D02*
X16483700Y-13147700D01*
X16483700Y-13122300D02*
X16458300Y-13147700D01*
X16507300Y-13994300D02*
X16532700Y-14019700D01*
X16532700Y-13994300D02*
X16507300Y-14019700D01*
X16512300Y-13792300D02*
X16537700Y-13817700D01*
X16537700Y-13792300D02*
X16512300Y-13817700D01*
X16551300Y-13092300D02*
X16576700Y-13117700D01*
X16576700Y-13092300D02*
X16551300Y-13117700D01*
X16562300Y-13702300D02*
X16587700Y-13727700D01*
X16587700Y-13702300D02*
X16562300Y-13727700D01*
X16568300Y-13537300D02*
X16593700Y-13562700D01*
X16593700Y-13537300D02*
X16568300Y-13562700D01*
X16687300Y-14404300D02*
X16712700Y-14429700D01*
X16712700Y-14404300D02*
X16687300Y-14429700D01*
X16760300Y-13300300D02*
X16785700Y-13325700D01*
X16785700Y-13300300D02*
X16760300Y-13325700D01*
X16767300Y-13105300D02*
X16792700Y-13130700D01*
X16792700Y-13105300D02*
X16767300Y-13130700D01*
X16796300Y-13911300D02*
X16821700Y-13936700D01*
X16821700Y-13911300D02*
X16796300Y-13936700D01*
X16814300Y-14403300D02*
X16839700Y-14428700D01*
X16839700Y-14403300D02*
X16814300Y-14428700D01*
X16839300Y-13787300D02*
X16864700Y-13812700D01*
X16864700Y-13787300D02*
X16839300Y-13812700D01*
X16841300Y-13627300D02*
X16866700Y-13652700D01*
X16866700Y-13627300D02*
X16841300Y-13652700D01*
X16949300Y-14351300D02*
X16974700Y-14376700D01*
X16974700Y-14351300D02*
X16949300Y-14376700D01*
X17080300Y-14416300D02*
X17105700Y-14441700D01*
X17105700Y-14416300D02*
X17080300Y-14441700D01*
X17084300Y-14707300D02*
X17109700Y-14732700D01*
X17109700Y-14707300D02*
X17084300Y-14732700D01*
X17168300Y-14628300D02*
X17193700Y-14653700D01*
X17193700Y-14628300D02*
X17168300Y-14653700D01*
X17170300Y-14329300D02*
X17195700Y-14354700D01*
X17195700Y-14329300D02*
X17170300Y-14354700D01*
X17182300Y-13396300D02*
X17207700Y-13421700D01*
X17207700Y-13396300D02*
X17182300Y-13421700D01*
X17198300Y-13215300D02*
X17223700Y-13240700D01*
X17223700Y-13215300D02*
X17198300Y-13240700D01*
X17298300Y-13511300D02*
X17323700Y-13536700D01*
X17323700Y-13511300D02*
X17298300Y-13536700D01*
X17319300Y-13387300D02*
X17344700Y-13412700D01*
X17344700Y-13387300D02*
X17319300Y-13412700D01*
X17327300Y-13080300D02*
X17352700Y-13105700D01*
X17352700Y-13080300D02*
X17327300Y-13105700D01*
X17364300Y-14104300D02*
X17389700Y-14129700D01*
X17389700Y-14104300D02*
X17364300Y-14129700D01*
X17403300Y-13473300D02*
X17428700Y-13498700D01*
X17428700Y-13473300D02*
X17403300Y-13498700D01*
X17455300Y-13214300D02*
X17480700Y-13239700D01*
X17480700Y-13214300D02*
X17455300Y-13239700D01*
X17459300Y-14024300D02*
X17484700Y-14049700D01*
X17484700Y-14024300D02*
X17459300Y-14049700D01*
X17526300Y-13848300D02*
X17551700Y-13873700D01*
X17551700Y-13848300D02*
X17526300Y-13873700D01*
X17708300Y-13214300D02*
X17733700Y-13239700D01*
X17733700Y-13214300D02*
X17708300Y-13239700D01*
X17715300Y-14379300D02*
X17740700Y-14404700D01*
X17740700Y-14379300D02*
X17715300Y-14404700D01*
X17764300Y-14193300D02*
X17789700Y-14218700D01*
X17789700Y-14193300D02*
X17764300Y-14218700D01*
X17809300Y-13848300D02*
X17834700Y-13873700D01*
X17834700Y-13848300D02*
X17809300Y-13873700D01*
X17836300Y-13079300D02*
X17861700Y-13104700D01*
X17861700Y-13079300D02*
X17836300Y-13104700D01*
X17837300Y-13358300D02*
X17862700Y-13383700D01*
X17862700Y-13358300D02*
X17837300Y-13383700D01*
X17873300Y-14199300D02*
X17898700Y-14224700D01*
X17898700Y-14199300D02*
X17873300Y-14224700D01*
X17980300Y-13214300D02*
X18005700Y-13239700D01*
X18005700Y-13214300D02*
X17980300Y-13239700D01*
X17998300Y-14620300D02*
X18023700Y-14645700D01*
X18023700Y-14620300D02*
X17998300Y-14645700D01*
X18028300Y-12681300D02*
X18053700Y-12706700D01*
X18053700Y-12681300D02*
X18028300Y-12706700D01*
X18033300Y-13979300D02*
X18058700Y-14004700D01*
X18058700Y-13979300D02*
X18033300Y-14004700D01*
X18059300Y-14398300D02*
X18084700Y-14423700D01*
X18084700Y-14398300D02*
X18059300Y-14423700D01*
X18083300Y-14707300D02*
X18108700Y-14732700D01*
X18108700Y-14707300D02*
X18083300Y-14732700D01*
X18123300Y-12619300D02*
X18148700Y-12644700D01*
X18148700Y-12619300D02*
X18123300Y-12644700D01*
X18140300Y-13979300D02*
X18165700Y-14004700D01*
X18165700Y-13979300D02*
X18140300Y-14004700D01*
X18172300Y-14404300D02*
X18197700Y-14429700D01*
X18197700Y-14404300D02*
X18172300Y-14429700D01*
X18210300Y-12858300D02*
X18235700Y-12883700D01*
X18235700Y-12858300D02*
X18210300Y-12883700D01*
X18212300Y-13748300D02*
X18237700Y-13773700D01*
X18237700Y-13748300D02*
X18212300Y-13773700D01*
X18223300Y-12980300D02*
X18248700Y-13005700D01*
X18248700Y-12980300D02*
X18223300Y-13005700D01*
X18225300Y-14241300D02*
X18250700Y-14266700D01*
X18250700Y-14241300D02*
X18225300Y-14266700D01*
X18254300Y-12551300D02*
X18279700Y-12576700D01*
X18279700Y-12551300D02*
X18254300Y-12576700D01*
X18261300Y-12116300D02*
X18286700Y-12141700D01*
X18286700Y-12116300D02*
X18261300Y-12141700D01*
X18328300Y-12979300D02*
X18353700Y-13004700D01*
X18353700Y-12979300D02*
X18328300Y-13004700D01*
X18329300Y-12861300D02*
X18354700Y-12886700D01*
X18354700Y-12861300D02*
X18329300Y-12886700D01*
X18399300Y-13048300D02*
X18424700Y-13073700D01*
X18424700Y-13048300D02*
X18399300Y-13073700D01*
X18404300Y-13978300D02*
X18429700Y-14003700D01*
X18429700Y-13978300D02*
X18404300Y-14003700D01*
X18413300Y-12861300D02*
X18438700Y-12886700D01*
X18438700Y-12861300D02*
X18413300Y-12886700D01*
X18467300Y-13758300D02*
X18492700Y-13783700D01*
X18492700Y-13758300D02*
X18467300Y-13783700D01*
X18477300Y-12979300D02*
X18502700Y-13004700D01*
X18502700Y-12979300D02*
X18477300Y-13004700D01*
X18492300Y-12489300D02*
X18517700Y-12514700D01*
X18517700Y-12489300D02*
X18492300Y-12514700D01*
X18571300Y-14156300D02*
X18596700Y-14181700D01*
X18596700Y-14156300D02*
X18571300Y-14181700D01*
X18575300Y-12862300D02*
X18600700Y-12887700D01*
X18600700Y-12862300D02*
X18575300Y-12887700D01*
X18581300Y-12984300D02*
X18606700Y-13009700D01*
X18606700Y-12984300D02*
X18581300Y-13009700D01*
X18599300Y-12419300D02*
X18624700Y-12444700D01*
X18624700Y-12419300D02*
X18599300Y-12444700D01*
X18613300Y-12603300D02*
X18638700Y-12628700D01*
X18638700Y-12603300D02*
X18613300Y-12628700D01*
X18685300Y-14023300D02*
X18710700Y-14048700D01*
X18710700Y-14023300D02*
X18685300Y-14048700D01*
X18708300Y-13563300D02*
X18733700Y-13588700D01*
X18733700Y-13563300D02*
X18708300Y-13588700D01*
X18713300Y-12863300D02*
X18738700Y-12888700D01*
X18738700Y-12863300D02*
X18713300Y-12888700D01*
X18714300Y-12979300D02*
X18739700Y-13004700D01*
X18739700Y-12979300D02*
X18714300Y-13004700D01*
X18726300Y-13437300D02*
X18751700Y-13462700D01*
X18751700Y-13437300D02*
X18726300Y-13462700D01*
X18743300Y-13250300D02*
X18768700Y-13275700D01*
X18768700Y-13250300D02*
X18743300Y-13275700D01*
X18786300Y-14656300D02*
X18811700Y-14681700D01*
X18811700Y-14656300D02*
X18786300Y-14681700D01*
X18929300Y-14434300D02*
X18954700Y-14459700D01*
X18954700Y-14434300D02*
X18929300Y-14459700D01*
X18958300Y-13977300D02*
X18983700Y-14002700D01*
X18983700Y-13977300D02*
X18958300Y-14002700D01*
X18986500Y-13296900D02*
X19011900Y-13322300D01*
X19011900Y-13296900D02*
X18986500Y-13322300D01*
X19014300Y-14232300D02*
X19039700Y-14257700D01*
X19039700Y-14232300D02*
X19014300Y-14257700D01*
X19023300Y-14010300D02*
X19048700Y-14035700D01*
X19048700Y-14010300D02*
X19023300Y-14035700D01*
X19133300Y-13797300D02*
X19158700Y-13822700D01*
X19158700Y-13797300D02*
X19133300Y-13822700D01*
X19134300Y-13713300D02*
X19159700Y-13738700D01*
X19159700Y-13713300D02*
X19134300Y-13738700D01*
X19253300Y-14369300D02*
X19278700Y-14394700D01*
X19278700Y-14369300D02*
X19253300Y-14394700D01*
X19303300Y-13742300D02*
X19328700Y-13767700D01*
X19328700Y-13742300D02*
X19303300Y-13767700D01*
X19382300Y-14212300D02*
X19407700Y-14237700D01*
X19407700Y-14212300D02*
X19382300Y-14237700D01*
X19410300Y-14627300D02*
X19435700Y-14652700D01*
X19435700Y-14627300D02*
X19410300Y-14652700D01*
X19471300Y-14454300D02*
X19496700Y-14479700D01*
X19496700Y-14454300D02*
X19471300Y-14479700D01*
X19480300Y-13364300D02*
X19505700Y-13389700D01*
X19505700Y-13364300D02*
X19480300Y-13389700D01*
X19485300Y-13235300D02*
X19510700Y-13260700D01*
X19510700Y-13235300D02*
X19485300Y-13260700D01*
X19511300Y-14370300D02*
X19536700Y-14395700D01*
X19536700Y-14370300D02*
X19511300Y-14395700D01*
X19574300Y-13744300D02*
X19599700Y-13769700D01*
X19599700Y-13744300D02*
X19574300Y-13769700D01*
X19584300Y-13455300D02*
X19609700Y-13480700D01*
X19609700Y-13455300D02*
X19584300Y-13480700D01*
X19604300Y-14462300D02*
X19629700Y-14487700D01*
X19629700Y-14462300D02*
X19604300Y-14487700D01*
X19605300Y-14685300D02*
X19630700Y-14710700D01*
X19630700Y-14685300D02*
X19605300Y-14710700D01*
X19613300Y-13252300D02*
X19638700Y-13277700D01*
X19638700Y-13252300D02*
X19613300Y-13277700D01*
X19636300Y-14215300D02*
X19661700Y-14240700D01*
X19661700Y-14215300D02*
X19636300Y-14240700D01*
X19657300Y-14629300D02*
X19682700Y-14654700D01*
X19682700Y-14629300D02*
X19657300Y-14654700D01*
X19720300Y-14340300D02*
X19745700Y-14365700D01*
X19745700Y-14340300D02*
X19720300Y-14365700D01*
X19725300Y-14455300D02*
X19750700Y-14480700D01*
X19750700Y-14455300D02*
X19725300Y-14480700D01*
X19732300Y-13597300D02*
X19757700Y-13622700D01*
X19757700Y-13597300D02*
X19732300Y-13622700D01*
X19800300Y-13722300D02*
X19825700Y-13747700D01*
X19825700Y-13722300D02*
X19800300Y-13747700D01*
X19863300Y-14464300D02*
X19888700Y-14489700D01*
X19888700Y-14464300D02*
X19863300Y-14489700D01*
X19872300Y-13593300D02*
X19897700Y-13618700D01*
X19897700Y-13593300D02*
X19872300Y-13618700D01*
X19884300Y-14269300D02*
X19909700Y-14294700D01*
X19909700Y-14269300D02*
X19884300Y-14294700D01*
X19911300Y-14630300D02*
X19936700Y-14655700D01*
X19936700Y-14630300D02*
X19911300Y-14655700D01*
X19967300Y-13694300D02*
X19992700Y-13719700D01*
X19992700Y-13694300D02*
X19967300Y-13719700D01*
X19974300Y-14345300D02*
X19999700Y-14370700D01*
X19999700Y-14345300D02*
X19974300Y-14370700D01*
X20071300Y-14442300D02*
X20096700Y-14467700D01*
X20096700Y-14442300D02*
X20071300Y-14467700D01*
X20125300Y-13675300D02*
X20150700Y-13700700D01*
X20150700Y-13675300D02*
X20125300Y-13700700D01*
X20127300Y-13466300D02*
X20152700Y-13491700D01*
X20152700Y-13466300D02*
X20127300Y-13491700D01*
X20144300Y-14268300D02*
X20169700Y-14293700D01*
X20169700Y-14268300D02*
X20144300Y-14293700D01*
X20170300Y-14526300D02*
X20195700Y-14551700D01*
X20195700Y-14526300D02*
X20170300Y-14551700D01*
X20174300Y-14641300D02*
X20199700Y-14666700D01*
X20199700Y-14641300D02*
X20174300Y-14666700D01*
X20193300Y-14324300D02*
X20218700Y-14349700D01*
X20218700Y-14324300D02*
X20193300Y-14349700D01*
X20250300Y-14438300D02*
X20275700Y-14463700D01*
X20275700Y-14438300D02*
X20250300Y-14463700D01*
X20333300Y-14335300D02*
X20358700Y-14360700D01*
X20358700Y-14335300D02*
X20333300Y-14360700D01*
X20342300Y-13669300D02*
X20367700Y-13694700D01*
X20367700Y-13669300D02*
X20342300Y-13694700D01*
X20348300Y-13474300D02*
X20373700Y-13499700D01*
X20373700Y-13474300D02*
X20348300Y-13499700D01*
X20398300Y-14257300D02*
X20423700Y-14282700D01*
X20423700Y-14257300D02*
X20398300Y-14282700D01*
X20424300Y-14649300D02*
X20449700Y-14674700D01*
X20449700Y-14649300D02*
X20424300Y-14674700D01*
X20431300Y-14540300D02*
X20456700Y-14565700D01*
X20456700Y-14540300D02*
X20431300Y-14565700D01*
X20450300Y-14325300D02*
X20475700Y-14350700D01*
X20475700Y-14325300D02*
X20450300Y-14350700D01*
X20593300Y-14340300D02*
X20618700Y-14365700D01*
X20618700Y-14340300D02*
X20593300Y-14365700D01*
X20722300Y-14341300D02*
X20747700Y-14366700D01*
X20747700Y-14341300D02*
X20722300Y-14366700D01*
X20812300Y-14080300D02*
X20837700Y-14105700D01*
X20837700Y-14080300D02*
X20812300Y-14105700D01*
X20851300Y-14334300D02*
X20876700Y-14359700D01*
X20876700Y-14334300D02*
X20851300Y-14359700D01*
X20859300Y-13459300D02*
X20884700Y-13484700D01*
X20884700Y-13459300D02*
X20859300Y-13484700D01*
X20862300Y-13957300D02*
X20887700Y-13982700D01*
X20887700Y-13957300D02*
X20862300Y-13982700D01*
X20863300Y-13677300D02*
X20888700Y-13702700D01*
X20888700Y-13677300D02*
X20863300Y-13702700D01*
X20873300Y-14531300D02*
X20898700Y-14556700D01*
X20898700Y-14531300D02*
X20873300Y-14556700D01*
X20878300Y-14658300D02*
X20903700Y-14683700D01*
X20903700Y-14658300D02*
X20878300Y-14683700D01*
X20908300Y-14169300D02*
X20933700Y-14194700D01*
X20933700Y-14169300D02*
X20908300Y-14194700D01*
X20960300Y-14453300D02*
X20985700Y-14478700D01*
X20985700Y-14453300D02*
X20960300Y-14478700D01*
X20976300Y-14338300D02*
X21001700Y-14363700D01*
X21001700Y-14338300D02*
X20976300Y-14363700D01*
X21003300Y-14079300D02*
X21028700Y-14104700D01*
X21028700Y-14079300D02*
X21003300Y-14104700D01*
X21022300Y-12553300D02*
X21047700Y-12578700D01*
X21047700Y-12553300D02*
X21022300Y-12578700D01*
X21090300Y-13684300D02*
X21115700Y-13709700D01*
X21115700Y-13684300D02*
X21090300Y-13709700D01*
X21090300Y-13959300D02*
X21115700Y-13984700D01*
X21115700Y-13959300D02*
X21090300Y-13984700D01*
X21092300Y-13466300D02*
X21117700Y-13491700D01*
X21117700Y-13466300D02*
X21092300Y-13491700D01*
X21101300Y-14333300D02*
X21126700Y-14358700D01*
X21126700Y-14333300D02*
X21101300Y-14358700D01*
X21122300Y-12350300D02*
X21147700Y-12375700D01*
X21147700Y-12350300D02*
X21122300Y-12375700D01*
X21125300Y-14529300D02*
X21150700Y-14554700D01*
X21150700Y-14529300D02*
X21125300Y-14554700D01*
X21127300Y-14660300D02*
X21152700Y-14685700D01*
X21152700Y-14660300D02*
X21127300Y-14685700D01*
X21136300Y-12613300D02*
X21161700Y-12638700D01*
X21161700Y-12613300D02*
X21136300Y-12638700D01*
X21182300Y-14074300D02*
X21207700Y-14099700D01*
X21207700Y-14074300D02*
X21182300Y-14099700D01*
X21198300Y-12283300D02*
X21223700Y-12308700D01*
X21223700Y-12283300D02*
X21198300Y-12308700D01*
X21209300Y-12117300D02*
X21234700Y-12142700D01*
X21234700Y-12117300D02*
X21209300Y-12142700D01*
X21218300Y-14447300D02*
X21243700Y-14472700D01*
X21243700Y-14447300D02*
X21218300Y-14472700D01*
X21294300Y-12215300D02*
X21319700Y-12240700D01*
X21319700Y-12215300D02*
X21294300Y-12240700D01*
X21328300Y-14341300D02*
X21353700Y-14366700D01*
X21353700Y-14341300D02*
X21328300Y-14366700D01*
X21329300Y-14096300D02*
X21354700Y-14121700D01*
X21354700Y-14096300D02*
X21329300Y-14121700D01*
X21376300Y-14657300D02*
X21401700Y-14682700D01*
X21401700Y-14657300D02*
X21376300Y-14682700D01*
X21413300Y-13511300D02*
X21438700Y-13536700D01*
X21438700Y-13511300D02*
X21413300Y-13536700D01*
X21419300Y-14257300D02*
X21444700Y-14282700D01*
X21444700Y-14257300D02*
X21419300Y-14282700D01*
X21424300Y-12721300D02*
X21449700Y-12746700D01*
X21449700Y-12721300D02*
X21424300Y-12746700D01*
X21424900Y-13830300D02*
X21450300Y-13855700D01*
X21450300Y-13830300D02*
X21424900Y-13855700D01*
X21431300Y-12405300D02*
X21456700Y-12430700D01*
X21456700Y-12405300D02*
X21431300Y-12430700D01*
X21438300Y-14460300D02*
X21463700Y-14485700D01*
X21463700Y-14460300D02*
X21438300Y-14485700D01*
X21447300Y-14128300D02*
X21472700Y-14153700D01*
X21472700Y-14128300D02*
X21447300Y-14153700D01*
X21475700Y-13144500D02*
X21501100Y-13169900D01*
X21501100Y-13144500D02*
X21475700Y-13169900D01*
X21508300Y-12818300D02*
X21533700Y-12843700D01*
X21533700Y-12818300D02*
X21508300Y-12843700D01*
X21551300Y-14380300D02*
X21576700Y-14405700D01*
X21576700Y-14380300D02*
X21551300Y-14405700D01*
X21560300Y-13955300D02*
X21585700Y-13980700D01*
X21585700Y-13955300D02*
X21560300Y-13980700D01*
X21566300Y-14456300D02*
X21591700Y-14481700D01*
X21591700Y-14456300D02*
X21566300Y-14481700D01*
X21591300Y-14341300D02*
X21616700Y-14366700D01*
X21616700Y-14341300D02*
X21591300Y-14366700D01*
X21631300Y-14641300D02*
X21656700Y-14666700D01*
X21656700Y-14641300D02*
X21631300Y-14666700D01*
X21633300Y-12439300D02*
X21658700Y-12464700D01*
X21658700Y-12439300D02*
X21633300Y-12464700D01*
X21648300Y-13507300D02*
X21673700Y-13532700D01*
X21673700Y-13507300D02*
X21648300Y-13532700D01*
X21657300Y-12555300D02*
X21682700Y-12580700D01*
X21682700Y-12555300D02*
X21657300Y-12580700D01*
X21668300Y-14216300D02*
X21693700Y-14241700D01*
X21693700Y-14216300D02*
X21668300Y-14241700D01*
X21697300Y-14456300D02*
X21722700Y-14481700D01*
X21722700Y-14456300D02*
X21697300Y-14481700D01*
X21729700Y-13855700D02*
X21755100Y-13881100D01*
X21755100Y-13855700D02*
X21729700Y-13881100D01*
X21794300Y-14367300D02*
X21819700Y-14392700D01*
X21819700Y-14367300D02*
X21794300Y-14392700D01*
X21818300Y-14683300D02*
X21843700Y-14708700D01*
X21843700Y-14683300D02*
X21818300Y-14708700D01*
X21823300Y-14459300D02*
X21848700Y-14484700D01*
X21848700Y-14459300D02*
X21823300Y-14484700D01*
X21827300Y-13008300D02*
X21852700Y-13033700D01*
X21852700Y-13008300D02*
X21827300Y-13033700D01*
X21846300Y-12440300D02*
X21871700Y-12465700D01*
X21871700Y-12440300D02*
X21846300Y-12465700D01*
X21846300Y-12554300D02*
X21871700Y-12579700D01*
X21871700Y-12554300D02*
X21846300Y-12579700D01*
X21847300Y-13945300D02*
X21872700Y-13970700D01*
X21872700Y-13945300D02*
X21847300Y-13970700D01*
X21885300Y-12725300D02*
X21910700Y-12750700D01*
X21910700Y-12725300D02*
X21885300Y-12750700D01*
X21922300Y-14215300D02*
X21947700Y-14240700D01*
X21947700Y-14215300D02*
X21922300Y-14240700D01*
X21946300Y-13499300D02*
X21971700Y-13524700D01*
X21971700Y-13499300D02*
X21946300Y-13524700D01*
X21958300Y-13220700D02*
X21983700Y-13246100D01*
X21983700Y-13220700D02*
X21958300Y-13246100D01*
X21976300Y-13995300D02*
X22001700Y-14020700D01*
X22001700Y-13995300D02*
X21976300Y-14020700D01*
X22050300Y-14365300D02*
X22075700Y-14390700D01*
X22075700Y-14365300D02*
X22050300Y-14390700D01*
X22074300Y-13487300D02*
X22099700Y-13512700D01*
X22099700Y-13487300D02*
X22074300Y-13512700D01*
X22085300Y-13042900D02*
X22110700Y-13068300D01*
X22110700Y-13042900D02*
X22085300Y-13068300D01*
X22167300Y-12358300D02*
X22192700Y-12383700D01*
X22192700Y-12358300D02*
X22167300Y-12383700D01*
X22199300Y-13154300D02*
X22224700Y-13179700D01*
X22224700Y-13154300D02*
X22199300Y-13179700D01*
X22209300Y-13350300D02*
X22234700Y-13375700D01*
X22234700Y-13350300D02*
X22209300Y-13375700D01*
X22210300Y-14216300D02*
X22235700Y-14241700D01*
X22235700Y-14216300D02*
X22210300Y-14241700D01*
X22221300Y-13992300D02*
X22246700Y-14017700D01*
X22246700Y-13992300D02*
X22221300Y-14017700D01*
X22236300Y-13538300D02*
X22261700Y-13563700D01*
X22261700Y-13538300D02*
X22236300Y-13563700D01*
X22244300Y-14164300D02*
X22269700Y-14189700D01*
X22269700Y-14164300D02*
X22244300Y-14189700D01*
X22306300Y-12496300D02*
X22331700Y-12521700D01*
X22331700Y-12496300D02*
X22306300Y-12521700D01*
X22314300Y-12237300D02*
X22339700Y-12262700D01*
X22339700Y-12237300D02*
X22314300Y-12262700D01*
X22339300Y-13195300D02*
X22364700Y-13220700D01*
X22364700Y-13195300D02*
X22339300Y-13220700D01*
X22341300Y-14026300D02*
X22366700Y-14051700D01*
X22366700Y-14026300D02*
X22341300Y-14051700D01*
X22350300Y-13001300D02*
X22375700Y-13026700D01*
X22375700Y-13001300D02*
X22350300Y-13026700D01*
X22352300Y-13755300D02*
X22377700Y-13780700D01*
X22377700Y-13755300D02*
X22352300Y-13780700D01*
X22390300Y-14166300D02*
X22415700Y-14191700D01*
X22415700Y-14166300D02*
X22390300Y-14191700D01*
X22421300Y-12140300D02*
X22446700Y-12165700D01*
X22446700Y-12140300D02*
X22421300Y-12165700D01*
X22429300Y-13341300D02*
X22454700Y-13366700D01*
X22454700Y-13341300D02*
X22429300Y-13366700D01*
X22446300Y-13754300D02*
X22471700Y-13779700D01*
X22471700Y-13754300D02*
X22446300Y-13779700D01*
X22452300Y-13510300D02*
X22477700Y-13535700D01*
X22477700Y-13510300D02*
X22452300Y-13535700D01*
X22517100Y-13982700D02*
X22542500Y-14008100D01*
X22542500Y-13982700D02*
X22517100Y-14008100D01*
X22519300Y-13593300D02*
X22544700Y-13618700D01*
X22544700Y-13593300D02*
X22519300Y-13618700D01*
X22545300Y-13852300D02*
X22570700Y-13877700D01*
X22570700Y-13852300D02*
X22545300Y-13877700D01*
X22571300Y-13186300D02*
X22596700Y-13211700D01*
X22596700Y-13186300D02*
X22571300Y-13211700D01*
X22576300Y-14167300D02*
X22601700Y-14192700D01*
X22601700Y-14167300D02*
X22576300Y-14192700D01*
X22577300Y-13003300D02*
X22602700Y-13028700D01*
X22602700Y-13003300D02*
X22577300Y-13028700D01*
X22585300Y-14025300D02*
X22610700Y-14050700D01*
X22610700Y-14025300D02*
X22585300Y-14050700D01*
X22644300Y-13766300D02*
X22669700Y-13791700D01*
X22669700Y-13766300D02*
X22644300Y-13791700D01*
X22679300Y-13510300D02*
X22704700Y-13535700D01*
X22704700Y-13510300D02*
X22679300Y-13535700D01*
X22704300Y-13003300D02*
X22729700Y-13028700D01*
X22729700Y-13003300D02*
X22704300Y-13028700D01*
X22714300Y-14055300D02*
X22739700Y-14080700D01*
X22739700Y-14055300D02*
X22714300Y-14080700D01*
X22731300Y-13986300D02*
X22756700Y-14011700D01*
X22756700Y-13986300D02*
X22731300Y-14011700D01*
X22760300Y-14167300D02*
X22785700Y-14192700D01*
X22785700Y-14167300D02*
X22760300Y-14192700D01*
X22769300Y-13824300D02*
X22794700Y-13849700D01*
X22794700Y-13824300D02*
X22769300Y-13849700D01*
X22773300Y-13659300D02*
X22798700Y-13684700D01*
X22798700Y-13659300D02*
X22773300Y-13684700D01*
X22814300Y-13728300D02*
X22839700Y-13753700D01*
X22839700Y-13728300D02*
X22814300Y-13753700D01*
X22822300Y-14054300D02*
X22847700Y-14079700D01*
X22847700Y-14054300D02*
X22822300Y-14079700D01*
X22829300Y-13358300D02*
X22854700Y-13383700D01*
X22854700Y-13358300D02*
X22829300Y-13383700D01*
X22834300Y-13523300D02*
X22859700Y-13548700D01*
X22859700Y-13523300D02*
X22834300Y-13548700D01*
X22839300Y-12999300D02*
X22864700Y-13024700D01*
X22864700Y-12999300D02*
X22839300Y-13024700D01*
X22863300Y-13788300D02*
X22888700Y-13813700D01*
X22888700Y-13788300D02*
X22863300Y-13813700D01*
X22868300Y-14005300D02*
X22893700Y-14030700D01*
X22893700Y-14005300D02*
X22868300Y-14030700D01*
X22893300Y-14149300D02*
X22918700Y-14174700D01*
X22918700Y-14149300D02*
X22893300Y-14174700D01*
X22951300Y-12751300D02*
X22976700Y-12776700D01*
X22976700Y-12751300D02*
X22951300Y-12776700D01*
X22963300Y-13509300D02*
X22988700Y-13534700D01*
X22988700Y-13509300D02*
X22963300Y-13534700D01*
X22965300Y-14073300D02*
X22990700Y-14098700D01*
X22990700Y-14073300D02*
X22965300Y-14098700D01*
X22968300Y-13392300D02*
X22993700Y-13417700D01*
X22993700Y-13392300D02*
X22968300Y-13417700D01*
X22971300Y-13009300D02*
X22996700Y-13034700D01*
X22996700Y-13009300D02*
X22971300Y-13034700D01*
X22988300Y-13995300D02*
X23013700Y-14020700D01*
X23013700Y-13995300D02*
X22988300Y-14020700D01*
X22994300Y-13777300D02*
X23019700Y-13802700D01*
X23019700Y-13777300D02*
X22994300Y-13802700D01*
X23032300Y-13637300D02*
X23057700Y-13662700D01*
X23057700Y-13637300D02*
X23032300Y-13662700D01*
X22615331Y-12401573D02*
G75*
G03*
X22615331Y-12401573I-25000J0D01*
G01*
X22685626Y-12231867D02*
G75*
G03*
X22685626Y-12231867I-25000J0D01*
G01*
X22685626Y-12571279D02*
G75*
G03*
X22685626Y-12571279I-25000J0D01*
G01*
X22855331Y-12161573D02*
G75*
G03*
X22855331Y-12161573I-25000J0D01*
G01*
X22855331Y-12641573D02*
G75*
G03*
X22855331Y-12641573I-25000J0D01*
G01*
X23025037Y-12231867D02*
G75*
G03*
X23025037Y-12231867I-25000J0D01*
G01*
X23025037Y-12571279D02*
G75*
G03*
X23025037Y-12571279I-25000J0D01*
G01*
X23095331Y-12401573D02*
G75*
G03*
X23095331Y-12401573I-25000J0D01*
G01*
X7548390Y-13197710D02*
X7548390Y-13267710D01*
X7513390Y-13232710D02*
X7583390Y-13232710D01*
X7548390Y-13959710D02*
X7548390Y-14029710D01*
X7513390Y-13994710D02*
X7583390Y-13994710D01*
X7917452Y-13197710D02*
X7917452Y-13267710D01*
X7882452Y-13232710D02*
X7952452Y-13232710D01*
X7917452Y-13959710D02*
X7917452Y-14029710D01*
X7882452Y-13994710D02*
X7952452Y-13994710D01*
X8286514Y-13197710D02*
X8286514Y-13267710D01*
X8251514Y-13232710D02*
X8321514Y-13232710D01*
X8286514Y-13959710D02*
X8286514Y-14029710D01*
X8251514Y-13994710D02*
X8321514Y-13994710D01*
X16002000Y-14275000D02*
X16002000Y-14345000D01*
X15967000Y-14310000D02*
X16037000Y-14310000D01*
X16002000Y-14570000D02*
X16002000Y-14640000D01*
X15967000Y-14605000D02*
X16037000Y-14605000D01*
X16764000Y-14275000D02*
X16764000Y-14345000D01*
X16729000Y-14310000D02*
X16799000Y-14310000D01*
X16764000Y-14570000D02*
X16764000Y-14640000D01*
X16729000Y-14605000D02*
X16799000Y-14605000D01*
X17066000Y-14275000D02*
X17066000Y-14345000D01*
X17031000Y-14310000D02*
X17101000Y-14310000D01*
X17066000Y-14570000D02*
X17066000Y-14640000D01*
X17031000Y-14605000D02*
X17101000Y-14605000D01*
X17828000Y-14275000D02*
X17828000Y-14345000D01*
X17793000Y-14310000D02*
X17863000Y-14310000D01*
X17828000Y-14570000D02*
X17828000Y-14640000D01*
X17793000Y-14605000D02*
X17863000Y-14605000D01*
X18130000Y-14275000D02*
X18130000Y-14345000D01*
X18095000Y-14310000D02*
X18165000Y-14310000D01*
X18130000Y-14570000D02*
X18130000Y-14640000D01*
X18095000Y-14605000D02*
X18165000Y-14605000D01*
X18892000Y-14275000D02*
X18892000Y-14345000D01*
X18857000Y-14310000D02*
X18927000Y-14310000D01*
X18892000Y-14570000D02*
X18892000Y-14640000D01*
X18857000Y-14605000D02*
X18927000Y-14605000D01*
X20218000Y-13865000D02*
X20218000Y-13935000D01*
X20183000Y-13900000D02*
X20253000Y-13900000D01*
X20980000Y-13865000D02*
X20980000Y-13935000D01*
X20945000Y-13900000D02*
X21015000Y-13900000D01*
X21260000Y-13865000D02*
X21260000Y-13935000D01*
X21225000Y-13900000D02*
X21295000Y-13900000D01*
X21560000Y-12345000D02*
X21560000Y-12415000D01*
X21525000Y-12380000D02*
X21595000Y-12380000D01*
X21560000Y-12599000D02*
X21560000Y-12669000D01*
X21525000Y-12634000D02*
X21595000Y-12634000D01*
X22022000Y-13865000D02*
X22022000Y-13935000D01*
X21987000Y-13900000D02*
X22057000Y-13900000D01*
X22322000Y-12345000D02*
X22322000Y-12415000D01*
X22287000Y-12380000D02*
X22357000Y-12380000D01*
X22322000Y-12599000D02*
X22322000Y-12669000D01*
X22287000Y-12634000D02*
X22357000Y-12634000D01*
X22420000Y-13865000D02*
X22420000Y-13935000D01*
X22385000Y-13900000D02*
X22455000Y-13900000D01*
X22420000Y-14627000D02*
X22420000Y-14697000D01*
X22385000Y-14662000D02*
X22455000Y-14662000D01*
X22680000Y-13865000D02*
X22680000Y-13935000D01*
X22645000Y-13900000D02*
X22715000Y-13900000D01*
X22680000Y-14627000D02*
X22680000Y-14697000D01*
X22645000Y-14662000D02*
X22715000Y-14662000D01*
X22940000Y-13865000D02*
X22940000Y-13935000D01*
X22905000Y-13900000D02*
X22975000Y-13900000D01*
X22940000Y-14627000D02*
X22940000Y-14697000D01*
X22905000Y-14662000D02*
X22975000Y-14662000D01*
X9136573Y-13256140D02*
X9136573Y-13199571D01*
X9080004Y-13199571D01*
X9080004Y-13256140D01*
X9136573Y-13256140D01*
X9136573Y-14018140D02*
X9136573Y-13961571D01*
X9080004Y-13961571D01*
X9080004Y-14018140D01*
X9136573Y-14018140D01*
X9390573Y-13256140D02*
X9390573Y-13199571D01*
X9334004Y-13199571D01*
X9334004Y-13256140D01*
X9390573Y-13256140D01*
X9390573Y-14018140D02*
X9390573Y-13961571D01*
X9334004Y-13961571D01*
X9334004Y-14018140D01*
X9390573Y-14018140D01*
X9644573Y-13256140D02*
X9644573Y-13199571D01*
X9588004Y-13199571D01*
X9588004Y-13256140D01*
X9644573Y-13256140D01*
X9644573Y-14018140D02*
X9644573Y-13961571D01*
X9588004Y-13961571D01*
X9588004Y-14018140D01*
X9644573Y-14018140D01*
X9898573Y-13256140D02*
X9898573Y-13199571D01*
X9842004Y-13199571D01*
X9842004Y-13256140D01*
X9898573Y-13256140D01*
X9898573Y-14018140D02*
X9898573Y-13961571D01*
X9842004Y-13961571D01*
X9842004Y-14018140D01*
X9898573Y-14018140D01*
X10152573Y-13256140D02*
X10152573Y-13199571D01*
X10096004Y-13199571D01*
X10096004Y-13256140D01*
X10152573Y-13256140D01*
X10152573Y-14018140D02*
X10152573Y-13961571D01*
X10096004Y-13961571D01*
X10096004Y-14018140D01*
X10152573Y-14018140D01*
X10406573Y-13256140D02*
X10406573Y-13199571D01*
X10350004Y-13199571D01*
X10350004Y-13256140D01*
X10406573Y-13256140D01*
X10406573Y-14018140D02*
X10406573Y-13961571D01*
X10350004Y-13961571D01*
X10350004Y-14018140D01*
X10406573Y-14018140D01*
X10660573Y-13256140D02*
X10660573Y-13199571D01*
X10604004Y-13199571D01*
X10604004Y-13256140D01*
X10660573Y-13256140D01*
X10660573Y-14018140D02*
X10660573Y-13961571D01*
X10604004Y-13961571D01*
X10604004Y-14018140D01*
X10660573Y-14018140D01*
X10914573Y-13256140D02*
X10914573Y-13199571D01*
X10858004Y-13199571D01*
X10858004Y-13256140D01*
X10914573Y-13256140D01*
X10914573Y-14018140D02*
X10914573Y-13961571D01*
X10858004Y-13961571D01*
X10858004Y-14018140D01*
X10914573Y-14018140D01*
X11220169Y-13530015D02*
X11220169Y-13473446D01*
X11163600Y-13473446D01*
X11163600Y-13530015D01*
X11220169Y-13530015D01*
X11220169Y-13780015D02*
X11220169Y-13723446D01*
X11163600Y-13723446D01*
X11163600Y-13780015D01*
X11220169Y-13780015D01*
X11636888Y-13256140D02*
X11636888Y-13199571D01*
X11580319Y-13199571D01*
X11580319Y-13256140D01*
X11636888Y-13256140D01*
X11636888Y-14018140D02*
X11636888Y-13961571D01*
X11580319Y-13961571D01*
X11580319Y-14018140D01*
X11636888Y-14018140D01*
X11890888Y-13256140D02*
X11890888Y-13199571D01*
X11834319Y-13199571D01*
X11834319Y-13256140D01*
X11890888Y-13256140D01*
X11890888Y-14018140D02*
X11890888Y-13961571D01*
X11834319Y-13961571D01*
X11834319Y-14018140D01*
X11890888Y-14018140D01*
X12144888Y-13256140D02*
X12144888Y-13199571D01*
X12088319Y-13199571D01*
X12088319Y-13256140D01*
X12144888Y-13256140D01*
X12144888Y-14018140D02*
X12144888Y-13961571D01*
X12088319Y-13961571D01*
X12088319Y-14018140D01*
X12144888Y-14018140D01*
X12398888Y-13256140D02*
X12398888Y-13199571D01*
X12342319Y-13199571D01*
X12342319Y-13256140D01*
X12398888Y-13256140D01*
X12398888Y-14018140D02*
X12398888Y-13961571D01*
X12342319Y-13961571D01*
X12342319Y-14018140D01*
X12398888Y-14018140D01*
X12652888Y-13256140D02*
X12652888Y-13199571D01*
X12596319Y-13199571D01*
X12596319Y-13256140D01*
X12652888Y-13256140D01*
X12652888Y-14018140D02*
X12652888Y-13961571D01*
X12596319Y-13961571D01*
X12596319Y-14018140D01*
X12652888Y-14018140D01*
X12906888Y-13256140D02*
X12906888Y-13199571D01*
X12850319Y-13199571D01*
X12850319Y-13256140D01*
X12906888Y-13256140D01*
X12906888Y-14018140D02*
X12906888Y-13961571D01*
X12850319Y-13961571D01*
X12850319Y-14018140D01*
X12906888Y-14018140D01*
X13160888Y-13256140D02*
X13160888Y-13199571D01*
X13104319Y-13199571D01*
X13104319Y-13256140D01*
X13160888Y-13256140D01*
X13160888Y-14018140D02*
X13160888Y-13961571D01*
X13104319Y-13961571D01*
X13104319Y-14018140D01*
X13160888Y-14018140D01*
X13414888Y-13256140D02*
X13414888Y-13199571D01*
X13358319Y-13199571D01*
X13358319Y-13256140D01*
X13414888Y-13256140D01*
X13414888Y-14018140D02*
X13414888Y-13961571D01*
X13358319Y-13961571D01*
X13358319Y-14018140D01*
X13414888Y-14018140D01*
X13720483Y-13530015D02*
X13720483Y-13473446D01*
X13663914Y-13473446D01*
X13663914Y-13530015D01*
X13720483Y-13530015D01*
X13720483Y-13780015D02*
X13720483Y-13723446D01*
X13663914Y-13723446D01*
X13663914Y-13780015D01*
X13720483Y-13780015D01*
X14196734Y-13256140D02*
X14196734Y-13199571D01*
X14140165Y-13199571D01*
X14140165Y-13256140D01*
X14196734Y-13256140D01*
X14196734Y-14018140D02*
X14196734Y-13961571D01*
X14140165Y-13961571D01*
X14140165Y-14018140D01*
X14196734Y-14018140D01*
X14450734Y-13256140D02*
X14450734Y-13199571D01*
X14394165Y-13199571D01*
X14394165Y-13256140D01*
X14450734Y-13256140D01*
X14450734Y-14018140D02*
X14450734Y-13961571D01*
X14394165Y-13961571D01*
X14394165Y-14018140D01*
X14450734Y-14018140D01*
X14704734Y-13256140D02*
X14704734Y-13199571D01*
X14648165Y-13199571D01*
X14648165Y-13256140D01*
X14704734Y-13256140D01*
X14704734Y-14018140D02*
X14704734Y-13961571D01*
X14648165Y-13961571D01*
X14648165Y-14018140D01*
X14704734Y-14018140D01*
X14958734Y-13256140D02*
X14958734Y-13199571D01*
X14902165Y-13199571D01*
X14902165Y-13256140D01*
X14958734Y-13256140D01*
X14958734Y-14018140D02*
X14958734Y-13961571D01*
X14902165Y-13961571D01*
X14902165Y-14018140D01*
X14958734Y-14018140D01*
X15212734Y-13256140D02*
X15212734Y-13199571D01*
X15156165Y-13199571D01*
X15156165Y-13256140D01*
X15212734Y-13256140D01*
X15212734Y-14018140D02*
X15212734Y-13961571D01*
X15156165Y-13961571D01*
X15156165Y-14018140D01*
X15212734Y-14018140D01*
X15466734Y-13256140D02*
X15466734Y-13199571D01*
X15410165Y-13199571D01*
X15410165Y-13256140D01*
X15466734Y-13256140D01*
X15466734Y-14018140D02*
X15466734Y-13961571D01*
X15410165Y-13961571D01*
X15410165Y-14018140D01*
X15466734Y-14018140D01*
X15720734Y-13256140D02*
X15720734Y-13199571D01*
X15664165Y-13199571D01*
X15664165Y-13256140D01*
X15720734Y-13256140D01*
X15720734Y-14018140D02*
X15720734Y-13961571D01*
X15664165Y-13961571D01*
X15664165Y-14018140D01*
X15720734Y-14018140D01*
X15974734Y-13256140D02*
X15974734Y-13199571D01*
X15918165Y-13199571D01*
X15918165Y-13256140D01*
X15974734Y-13256140D01*
X15974734Y-14018140D02*
X15974734Y-13961571D01*
X15918165Y-13961571D01*
X15918165Y-14018140D01*
X15974734Y-14018140D01*
X16280329Y-13530015D02*
X16280329Y-13473446D01*
X16223760Y-13473446D01*
X16223760Y-13530015D01*
X16280329Y-13530015D01*
X16280329Y-13780015D02*
X16280329Y-13723446D01*
X16223760Y-13723446D01*
X16223760Y-13780015D01*
X16280329Y-13780015D01*
X16697048Y-13244233D02*
X16697048Y-13187664D01*
X16640479Y-13187664D01*
X16640479Y-13244233D01*
X16697048Y-13244233D01*
X16697048Y-13494233D02*
X16697048Y-13437664D01*
X16640479Y-13437664D01*
X16640479Y-13494233D01*
X16697048Y-13494233D01*
X16697048Y-13827671D02*
X16697048Y-13771102D01*
X16640479Y-13771102D01*
X16640479Y-13827671D01*
X16697048Y-13827671D01*
X16697048Y-14077671D02*
X16697048Y-14021102D01*
X16640479Y-14021102D01*
X16640479Y-14077671D01*
X16697048Y-14077671D01*
X17113768Y-13256140D02*
X17113768Y-13199571D01*
X17057199Y-13199571D01*
X17057199Y-13256140D01*
X17113768Y-13256140D01*
X17113768Y-14018140D02*
X17113768Y-13961571D01*
X17057199Y-13961571D01*
X17057199Y-14018140D01*
X17113768Y-14018140D01*
X17367768Y-13256140D02*
X17367768Y-13199571D01*
X17311199Y-13199571D01*
X17311199Y-13256140D01*
X17367768Y-13256140D01*
X17367768Y-14018140D02*
X17367768Y-13961571D01*
X17311199Y-13961571D01*
X17311199Y-14018140D01*
X17367768Y-14018140D01*
X17621768Y-13256140D02*
X17621768Y-13199571D01*
X17565199Y-13199571D01*
X17565199Y-13256140D01*
X17621768Y-13256140D01*
X17621768Y-14018140D02*
X17621768Y-13961571D01*
X17565199Y-13961571D01*
X17565199Y-14018140D01*
X17621768Y-14018140D01*
X17875768Y-13256140D02*
X17875768Y-13199571D01*
X17819199Y-13199571D01*
X17819199Y-13256140D01*
X17875768Y-13256140D01*
X17875768Y-14018140D02*
X17875768Y-13961571D01*
X17819199Y-13961571D01*
X17819199Y-14018140D01*
X17875768Y-14018140D01*
X18316285Y-13160084D02*
X18316285Y-13103515D01*
X18259716Y-13103515D01*
X18259716Y-13160084D01*
X18316285Y-13160084D01*
X18316285Y-13922084D02*
X18316285Y-13865515D01*
X18259716Y-13865515D01*
X18259716Y-13922084D01*
X18316285Y-13922084D01*
X18570285Y-13160084D02*
X18570285Y-13103515D01*
X18513716Y-13103515D01*
X18513716Y-13160084D01*
X18570285Y-13160084D01*
X18570285Y-13922084D02*
X18570285Y-13865515D01*
X18513716Y-13865515D01*
X18513716Y-13922084D01*
X18570285Y-13922084D01*
X18824285Y-13160084D02*
X18824285Y-13103515D01*
X18767716Y-13103515D01*
X18767716Y-13160084D01*
X18824285Y-13160084D01*
X18824285Y-13922084D02*
X18824285Y-13865515D01*
X18767716Y-13865515D01*
X18767716Y-13922084D01*
X18824285Y-13922084D01*
X19078285Y-13160084D02*
X19078285Y-13103515D01*
X19021716Y-13103515D01*
X19021716Y-13160084D01*
X19078285Y-13160084D01*
X19078285Y-13922084D02*
X19078285Y-13865515D01*
X19021716Y-13865515D01*
X19021716Y-13922084D01*
X19078285Y-13922084D01*
X19316426Y-14613453D02*
X19316426Y-14556884D01*
X19259857Y-14556884D01*
X19259857Y-14613453D01*
X19316426Y-14613453D01*
X19332285Y-13160084D02*
X19332285Y-13103515D01*
X19275716Y-13103515D01*
X19275716Y-13160084D01*
X19332285Y-13160084D01*
X19332285Y-13922084D02*
X19332285Y-13865515D01*
X19275716Y-13865515D01*
X19275716Y-13922084D01*
X19332285Y-13922084D01*
X19570426Y-14613453D02*
X19570426Y-14556884D01*
X19513857Y-14556884D01*
X19513857Y-14613453D01*
X19570426Y-14613453D01*
X19586285Y-13160084D02*
X19586285Y-13103515D01*
X19529716Y-13103515D01*
X19529716Y-13160084D01*
X19586285Y-13160084D01*
X19586285Y-13922084D02*
X19586285Y-13865515D01*
X19529716Y-13865515D01*
X19529716Y-13922084D01*
X19586285Y-13922084D01*
X19824426Y-14613453D02*
X19824426Y-14556884D01*
X19767857Y-14556884D01*
X19767857Y-14613453D01*
X19824426Y-14613453D01*
X19840285Y-13160084D02*
X19840285Y-13103515D01*
X19783716Y-13103515D01*
X19783716Y-13160084D01*
X19840285Y-13160084D01*
X19840285Y-13922084D02*
X19840285Y-13865515D01*
X19783716Y-13865515D01*
X19783716Y-13922084D01*
X19840285Y-13922084D01*
X20078426Y-14613453D02*
X20078426Y-14556884D01*
X20021857Y-14556884D01*
X20021857Y-14613453D01*
X20078426Y-14613453D01*
X20274285Y-13362284D02*
X20274285Y-13305715D01*
X20217716Y-13305715D01*
X20217716Y-13362284D01*
X20274285Y-13362284D01*
X20274285Y-13612284D02*
X20274285Y-13555715D01*
X20217716Y-13555715D01*
X20217716Y-13612284D01*
X20274285Y-13612284D01*
X20332426Y-14613453D02*
X20332426Y-14556884D01*
X20275857Y-14556884D01*
X20275857Y-14613453D01*
X20332426Y-14613453D01*
X21017285Y-13364284D02*
X21017285Y-13307715D01*
X20960716Y-13307715D01*
X20960716Y-13364284D01*
X21017285Y-13364284D01*
X21017285Y-13614284D02*
X21017285Y-13557715D01*
X20960716Y-13557715D01*
X20960716Y-13614284D01*
X21017285Y-13614284D01*
X21038866Y-14613453D02*
X21038866Y-14556884D01*
X20982297Y-14556884D01*
X20982297Y-14613453D01*
X21038866Y-14613453D01*
X21292866Y-14613453D02*
X21292866Y-14556884D01*
X21236297Y-14556884D01*
X21236297Y-14613453D01*
X21292866Y-14613453D01*
X21415085Y-12916284D02*
X21415085Y-12859715D01*
X21358516Y-12859715D01*
X21358516Y-12916284D01*
X21415085Y-12916284D01*
X21415085Y-13678284D02*
X21415085Y-13621715D01*
X21358516Y-13621715D01*
X21358516Y-13678284D01*
X21415085Y-13678284D01*
X21546866Y-14613453D02*
X21546866Y-14556884D01*
X21490297Y-14556884D01*
X21490297Y-14613453D01*
X21546866Y-14613453D01*
X21669085Y-12916284D02*
X21669085Y-12859715D01*
X21612516Y-12859715D01*
X21612516Y-12916284D01*
X21669085Y-12916284D01*
X21669085Y-13678284D02*
X21669085Y-13621715D01*
X21612516Y-13621715D01*
X21612516Y-13678284D01*
X21669085Y-13678284D01*
X21800866Y-14613453D02*
X21800866Y-14556884D01*
X21744297Y-14556884D01*
X21744297Y-14613453D01*
X21800866Y-14613453D01*
X21923085Y-12916284D02*
X21923085Y-12859715D01*
X21866516Y-12859715D01*
X21866516Y-12916284D01*
X21923085Y-12916284D01*
X21923085Y-13678284D02*
X21923085Y-13621715D01*
X21866516Y-13621715D01*
X21866516Y-13678284D01*
X21923085Y-13678284D01*
X22054866Y-14613453D02*
X22054866Y-14556884D01*
X21998297Y-14556884D01*
X21998297Y-14613453D01*
X22054866Y-14613453D01*
X22177085Y-12916284D02*
X22177085Y-12859715D01*
X22120516Y-12859715D01*
X22120516Y-12916284D01*
X22177085Y-12916284D01*
X22177085Y-13678284D02*
X22177085Y-13621715D01*
X22120516Y-13621715D01*
X22120516Y-13678284D01*
X22177085Y-13678284D01*
X22431084Y-12916284D02*
X22431084Y-12859715D01*
X22374515Y-12859715D01*
X22374515Y-12916284D01*
X22431084Y-12916284D01*
X22431084Y-13678284D02*
X22431084Y-13621715D01*
X22374515Y-13621715D01*
X22374515Y-13678284D01*
X22431084Y-13678284D01*
X22685084Y-12916284D02*
X22685084Y-12859715D01*
X22628515Y-12859715D01*
X22628515Y-12916284D01*
X22685084Y-12916284D01*
X22685084Y-13678284D02*
X22685084Y-13621715D01*
X22628515Y-13621715D01*
X22628515Y-13678284D01*
X22685084Y-13678284D01*
X22939084Y-12916284D02*
X22939084Y-12859715D01*
X22882515Y-12859715D01*
X22882515Y-12916284D01*
X22939084Y-12916284D01*
X22939084Y-13678284D02*
X22939084Y-13621715D01*
X22882515Y-13621715D01*
X22882515Y-13678284D01*
X22939084Y-13678284D01*
X4073255Y-12432510D02*
X4123255Y-12382510D01*
X4073255Y-12332510D01*
X4023255Y-12382510D01*
X4073255Y-12432510D01*
X4073255Y-12686510D02*
X4123255Y-12636510D01*
X4073255Y-12586510D01*
X4023255Y-12636510D01*
X4073255Y-12686510D01*
X4327255Y-12432510D02*
X4377255Y-12382510D01*
X4327255Y-12332510D01*
X4277255Y-12382510D01*
X4327255Y-12432510D01*
X4327255Y-12686510D02*
X4377255Y-12636510D01*
X4327255Y-12586510D01*
X4277255Y-12636510D01*
X4327255Y-12686510D01*
X4581255Y-12432510D02*
X4631255Y-12382510D01*
X4581255Y-12332510D01*
X4531255Y-12382510D01*
X4581255Y-12432510D01*
X4581255Y-12686510D02*
X4631255Y-12636510D01*
X4581255Y-12586510D01*
X4531255Y-12636510D01*
X4581255Y-12686510D01*
X5502000Y-13486600D02*
X5552000Y-13436600D01*
X5502000Y-13386600D01*
X5452000Y-13436600D01*
X5502000Y-13486600D01*
X5762000Y-13486600D02*
X5812000Y-13436600D01*
X5762000Y-13386600D01*
X5712000Y-13436600D01*
X5762000Y-13486600D01*
X6022000Y-13486600D02*
X6072000Y-13436600D01*
X6022000Y-13386600D01*
X5972000Y-13436600D01*
X6022000Y-13486600D01*
X7589284Y-14526142D02*
X7639284Y-14476142D01*
X7589284Y-14426142D01*
X7539284Y-14476142D01*
X7589284Y-14526142D01*
X7589284Y-14780142D02*
X7639284Y-14730142D01*
X7589284Y-14680142D01*
X7539284Y-14730142D01*
X7589284Y-14780142D01*
X7843284Y-14526142D02*
X7893284Y-14476142D01*
X7843284Y-14426142D01*
X7793284Y-14476142D01*
X7843284Y-14526142D01*
X7843284Y-14780142D02*
X7893284Y-14730142D01*
X7843284Y-14680142D01*
X7793284Y-14730142D01*
X7843284Y-14780142D01*
X8097284Y-14526142D02*
X8147284Y-14476142D01*
X8097284Y-14426142D01*
X8047284Y-14476142D01*
X8097284Y-14526142D01*
X8097284Y-14780142D02*
X8147284Y-14730142D01*
X8097284Y-14680142D01*
X8047284Y-14730142D01*
X8097284Y-14780142D01*
X8351284Y-14780142D02*
X8401284Y-14730142D01*
X8351284Y-14680142D01*
X8301284Y-14730142D01*
X8351284Y-14780142D01*
X9024947Y-14635168D02*
X9074947Y-14585168D01*
X9024947Y-14535168D01*
X8974947Y-14585168D01*
X9024947Y-14635168D01*
X9278947Y-14635168D02*
X9328947Y-14585168D01*
X9278947Y-14535168D01*
X9228947Y-14585168D01*
X9278947Y-14635168D01*
X9532947Y-14635168D02*
X9582947Y-14585168D01*
X9532947Y-14535168D01*
X9482947Y-14585168D01*
X9532947Y-14635168D01*
X9786947Y-14635168D02*
X9836947Y-14585168D01*
X9786947Y-14535168D01*
X9736947Y-14585168D01*
X9786947Y-14635168D01*
X10040947Y-14635168D02*
X10090947Y-14585168D01*
X10040947Y-14535168D01*
X9990947Y-14585168D01*
X10040947Y-14635168D01*
X10294947Y-14635168D02*
X10344947Y-14585168D01*
X10294947Y-14535168D01*
X10244947Y-14585168D01*
X10294947Y-14635168D01*
X10548947Y-14635168D02*
X10598947Y-14585168D01*
X10548947Y-14535168D01*
X10498947Y-14585168D01*
X10548947Y-14635168D01*
X10802947Y-14635168D02*
X10852947Y-14585168D01*
X10802947Y-14535168D01*
X10752947Y-14585168D01*
X10802947Y-14635168D01*
X11056947Y-14635168D02*
X11106947Y-14585168D01*
X11056947Y-14535168D01*
X11006947Y-14585168D01*
X11056947Y-14635168D01*
X11310947Y-14635168D02*
X11360947Y-14585168D01*
X11310947Y-14535168D01*
X11260947Y-14585168D01*
X11310947Y-14635168D01*
X11564947Y-14635168D02*
X11614947Y-14585168D01*
X11564947Y-14535168D01*
X11514947Y-14585168D01*
X11564947Y-14635168D01*
X11818947Y-14635168D02*
X11868947Y-14585168D01*
X11818947Y-14535168D01*
X11768947Y-14585168D01*
X11818947Y-14635168D01*
X12072947Y-14635168D02*
X12122947Y-14585168D01*
X12072947Y-14535168D01*
X12022947Y-14585168D01*
X12072947Y-14635168D01*
X12326947Y-14635168D02*
X12376947Y-14585168D01*
X12326947Y-14535168D01*
X12276947Y-14585168D01*
X12326947Y-14635168D01*
X12580947Y-14635168D02*
X12630947Y-14585168D01*
X12580947Y-14535168D01*
X12530947Y-14585168D01*
X12580947Y-14635168D01*
X12834947Y-14635168D02*
X12884947Y-14585168D01*
X12834947Y-14535168D01*
X12784947Y-14585168D01*
X12834947Y-14635168D01*
X13088947Y-14635168D02*
X13138947Y-14585168D01*
X13088947Y-14535168D01*
X13038947Y-14585168D01*
X13088947Y-14635168D01*
X13342947Y-14635168D02*
X13392947Y-14585168D01*
X13342947Y-14535168D01*
X13292947Y-14585168D01*
X13342947Y-14635168D01*
X13596947Y-14635168D02*
X13646947Y-14585168D01*
X13596947Y-14535168D01*
X13546947Y-14585168D01*
X13596947Y-14635168D01*
X13850947Y-14635168D02*
X13900947Y-14585168D01*
X13850947Y-14535168D01*
X13800947Y-14585168D01*
X13850947Y-14635168D01*
X14104947Y-14635168D02*
X14154947Y-14585168D01*
X14104947Y-14535168D01*
X14054947Y-14585168D01*
X14104947Y-14635168D01*
X14358947Y-14635168D02*
X14408947Y-14585168D01*
X14358947Y-14535168D01*
X14308947Y-14585168D01*
X14358947Y-14635168D01*
X14612947Y-14635168D02*
X14662947Y-14585168D01*
X14612947Y-14535168D01*
X14562947Y-14585168D01*
X14612947Y-14635168D01*
X14866947Y-14635168D02*
X14916947Y-14585168D01*
X14866947Y-14535168D01*
X14816947Y-14585168D01*
X14866947Y-14635168D01*
X15120947Y-14635168D02*
X15170947Y-14585168D01*
X15120947Y-14535168D01*
X15070947Y-14585168D01*
X15120947Y-14635168D01*
X15374947Y-14635168D02*
X15424947Y-14585168D01*
X15374947Y-14535168D01*
X15324947Y-14585168D01*
X15374947Y-14635168D01*
X15628947Y-14635168D02*
X15678947Y-14585168D01*
X15628947Y-14535168D01*
X15578947Y-14585168D01*
X15628947Y-14635168D01*
X19268299Y-14277981D02*
X19318299Y-14227981D01*
X19268299Y-14177981D01*
X19218299Y-14227981D01*
X19268299Y-14277981D01*
X19522299Y-14277981D02*
X19572299Y-14227981D01*
X19522299Y-14177981D01*
X19472299Y-14227981D01*
X19522299Y-14277981D01*
X19776299Y-14277981D02*
X19826299Y-14227981D01*
X19776299Y-14177981D01*
X19726299Y-14227981D01*
X19776299Y-14277981D01*
X20030299Y-14277981D02*
X20080299Y-14227981D01*
X20030299Y-14177981D01*
X19980299Y-14227981D01*
X20030299Y-14277981D01*
X20284299Y-14277981D02*
X20334299Y-14227981D01*
X20284299Y-14177981D01*
X20234299Y-14227981D01*
X20284299Y-14277981D01*
X20538299Y-14277981D02*
X20588299Y-14227981D01*
X20538299Y-14177981D01*
X20488299Y-14227981D01*
X20538299Y-14277981D01*
X20792299Y-14277981D02*
X20842299Y-14227981D01*
X20792299Y-14177981D01*
X20742299Y-14227981D01*
X20792299Y-14277981D01*
X21046299Y-14277981D02*
X21096299Y-14227981D01*
X21046299Y-14177981D01*
X20996299Y-14227981D01*
X21046299Y-14277981D01*
X21300299Y-14277981D02*
X21350299Y-14227981D01*
X21300299Y-14177981D01*
X21250299Y-14227981D01*
X21300299Y-14277981D01*
X21554299Y-14277981D02*
X21604299Y-14227981D01*
X21554299Y-14177981D01*
X21504299Y-14227981D01*
X21554299Y-14277981D01*
X21808299Y-14277981D02*
X21858299Y-14227981D01*
X21808299Y-14177981D01*
X21758299Y-14227981D01*
X21808299Y-14277981D01*
X22062299Y-14277981D02*
X22112299Y-14227981D01*
X22062299Y-14177981D01*
X22012299Y-14227981D01*
X22062299Y-14277981D01*
X4081756Y-12994262D02*
X4191756Y-13104262D01*
X4191756Y-12994262D02*
X4081756Y-13104262D01*
X4191756Y-13049262D02*
G75*
G03*
X4191756Y-13049262I-55000J0D01*
G01*
X4081756Y-14518262D02*
X4191756Y-14628262D01*
X4191756Y-14518262D02*
X4081756Y-14628262D01*
X4191756Y-14573262D02*
G75*
G03*
X4191756Y-14573262I-55000J0D01*
G01*
X4335756Y-12994262D02*
X4445756Y-13104262D01*
X4445756Y-12994262D02*
X4335756Y-13104262D01*
X4445756Y-13049262D02*
G75*
G03*
X4445756Y-13049262I-55000J0D01*
G01*
X4335756Y-14518262D02*
X4445756Y-14628262D01*
X4445756Y-14518262D02*
X4335756Y-14628262D01*
X4445756Y-14573262D02*
G75*
G03*
X4445756Y-14573262I-55000J0D01*
G01*
X4589756Y-12994262D02*
X4699756Y-13104262D01*
X4699756Y-12994262D02*
X4589756Y-13104262D01*
X4699756Y-13049262D02*
G75*
G03*
X4699756Y-13049262I-55000J0D01*
G01*
X4589756Y-14518262D02*
X4699756Y-14628262D01*
X4699756Y-14518262D02*
X4589756Y-14628262D01*
X4699756Y-14573262D02*
G75*
G03*
X4699756Y-14573262I-55000J0D01*
G01*
X4843756Y-12994262D02*
X4953756Y-13104262D01*
X4953756Y-12994262D02*
X4843756Y-13104262D01*
X4953756Y-13049262D02*
G75*
G03*
X4953756Y-13049262I-55000J0D01*
G01*
X4843756Y-14518262D02*
X4953756Y-14628262D01*
X4953756Y-14518262D02*
X4843756Y-14628262D01*
X4953756Y-14573262D02*
G75*
G03*
X4953756Y-14573262I-55000J0D01*
G01*
X5097756Y-12994262D02*
X5207756Y-13104262D01*
X5207756Y-12994262D02*
X5097756Y-13104262D01*
X5207756Y-13049262D02*
G75*
G03*
X5207756Y-13049262I-55000J0D01*
G01*
X5097756Y-14518262D02*
X5207756Y-14628262D01*
X5207756Y-14518262D02*
X5097756Y-14628262D01*
X5207756Y-14573262D02*
G75*
G03*
X5207756Y-14573262I-55000J0D01*
G01*
X5351756Y-12994262D02*
X5461756Y-13104262D01*
X5461756Y-12994262D02*
X5351756Y-13104262D01*
X5461756Y-13049262D02*
G75*
G03*
X5461756Y-13049262I-55000J0D01*
G01*
X5351756Y-14518262D02*
X5461756Y-14628262D01*
X5461756Y-14518262D02*
X5351756Y-14628262D01*
X5461756Y-14573262D02*
G75*
G03*
X5461756Y-14573262I-55000J0D01*
G01*
X5605756Y-12994262D02*
X5715756Y-13104262D01*
X5715756Y-12994262D02*
X5605756Y-13104262D01*
X5715756Y-13049262D02*
G75*
G03*
X5715756Y-13049262I-55000J0D01*
G01*
X5605756Y-14518262D02*
X5715756Y-14628262D01*
X5715756Y-14518262D02*
X5605756Y-14628262D01*
X5715756Y-14573262D02*
G75*
G03*
X5715756Y-14573262I-55000J0D01*
G01*
X5859756Y-12994262D02*
X5969756Y-13104262D01*
X5969756Y-12994262D02*
X5859756Y-13104262D01*
X5969756Y-13049262D02*
G75*
G03*
X5969756Y-13049262I-55000J0D01*
G01*
X5859756Y-14518262D02*
X5969756Y-14628262D01*
X5969756Y-14518262D02*
X5859756Y-14628262D01*
X5969756Y-14573262D02*
G75*
G03*
X5969756Y-14573262I-55000J0D01*
G01*
X6113756Y-12994262D02*
X6223756Y-13104262D01*
X6223756Y-12994262D02*
X6113756Y-13104262D01*
X6223756Y-13049262D02*
G75*
G03*
X6223756Y-13049262I-55000J0D01*
G01*
X6113756Y-14518262D02*
X6223756Y-14628262D01*
X6223756Y-14518262D02*
X6113756Y-14628262D01*
X6223756Y-14573262D02*
G75*
G03*
X6223756Y-14573262I-55000J0D01*
G01*
X6367756Y-12994262D02*
X6477756Y-13104262D01*
X6477756Y-12994262D02*
X6367756Y-13104262D01*
X6477756Y-13049262D02*
G75*
G03*
X6477756Y-13049262I-55000J0D01*
G01*
X6367756Y-14518262D02*
X6477756Y-14628262D01*
X6477756Y-14518262D02*
X6367756Y-14628262D01*
X6477756Y-14573262D02*
G75*
G03*
X6477756Y-14573262I-55000J0D01*
G01*
X6621756Y-12994262D02*
X6731756Y-13104262D01*
X6731756Y-12994262D02*
X6621756Y-13104262D01*
X6731756Y-13049262D02*
G75*
G03*
X6731756Y-13049262I-55000J0D01*
G01*
X6621756Y-14518262D02*
X6731756Y-14628262D01*
X6731756Y-14518262D02*
X6621756Y-14628262D01*
X6731756Y-14573262D02*
G75*
G03*
X6731756Y-14573262I-55000J0D01*
G01*
X6875756Y-12994262D02*
X6985756Y-13104262D01*
X6985756Y-12994262D02*
X6875756Y-13104262D01*
X6985756Y-13049262D02*
G75*
G03*
X6985756Y-13049262I-55000J0D01*
G01*
X6875756Y-14518262D02*
X6985756Y-14628262D01*
X6985756Y-14518262D02*
X6875756Y-14628262D01*
X6985756Y-14573262D02*
G75*
G03*
X6985756Y-14573262I-55000J0D01*
G01*
X20543000Y-13414000D02*
X20693000Y-13564000D01*
X20693000Y-13414000D02*
X20543000Y-13564000D01*
X20618000Y-13414000D02*
X20618000Y-13564000D01*
X20543000Y-13489000D02*
X20693000Y-13489000D01*
X22670331Y-12241573D02*
X22990331Y-12561573D01*
X22990331Y-12241573D02*
X22670331Y-12561573D01*
X22943470Y-12514711D02*
X22943470Y-12288435D01*
X22717193Y-12288435D01*
X22717193Y-12514711D01*
X22943470Y-12514711D01*
D12*
X4031745Y-15351039D02*
X4031745Y-15051039D01*
X4103174Y-15051039D01*
X4146031Y-15065325D01*
X4174603Y-15093896D01*
X4188888Y-15122468D01*
X4203174Y-15179611D01*
X4203174Y-15222468D01*
X4188888Y-15279611D01*
X4174603Y-15308182D01*
X4146031Y-15336754D01*
X4103174Y-15351039D01*
X4031745Y-15351039D01*
X4331745Y-15351039D02*
X4331745Y-15151039D01*
X4331745Y-15208182D02*
X4346031Y-15179611D01*
X4360317Y-15165325D01*
X4388888Y-15151039D01*
X4417460Y-15151039D01*
X4517460Y-15351039D02*
X4517460Y-15151039D01*
X4517460Y-15051039D02*
X4503174Y-15065325D01*
X4517460Y-15079611D01*
X4531745Y-15065325D01*
X4517460Y-15051039D01*
X4517460Y-15079611D01*
X4703174Y-15351039D02*
X4674603Y-15336754D01*
X4660317Y-15308182D01*
X4660317Y-15051039D01*
X4860317Y-15351039D02*
X4831745Y-15336754D01*
X4817460Y-15308182D01*
X4817460Y-15051039D01*
X5203174Y-15351039D02*
X5203174Y-15051039D01*
X5303174Y-15265325D01*
X5403174Y-15051039D01*
X5403174Y-15351039D01*
X5674603Y-15351039D02*
X5674603Y-15193896D01*
X5660317Y-15165325D01*
X5631745Y-15151039D01*
X5574603Y-15151039D01*
X5546031Y-15165325D01*
X5674603Y-15336754D02*
X5646031Y-15351039D01*
X5574603Y-15351039D01*
X5546031Y-15336754D01*
X5531745Y-15308182D01*
X5531745Y-15279611D01*
X5546031Y-15251039D01*
X5574603Y-15236754D01*
X5646031Y-15236754D01*
X5674603Y-15222468D01*
X5817460Y-15151039D02*
X5817460Y-15451039D01*
X5817460Y-15165325D02*
X5846031Y-15151039D01*
X5903174Y-15151039D01*
X5931745Y-15165325D01*
X5946031Y-15179611D01*
X5960317Y-15208182D01*
X5960317Y-15293896D01*
X5946031Y-15322468D01*
X5931745Y-15336754D01*
X5903174Y-15351039D01*
X5846031Y-15351039D01*
X5817460Y-15336754D01*
X6088888Y-15322468D02*
X6103174Y-15336754D01*
X6088888Y-15351039D01*
X6074603Y-15336754D01*
X6088888Y-15322468D01*
X6088888Y-15351039D01*
X6088888Y-15165325D02*
X6103174Y-15179611D01*
X6088888Y-15193896D01*
X6074603Y-15179611D01*
X6088888Y-15165325D01*
X6088888Y-15193896D01*
X3719917Y-15832625D02*
X3745317Y-15858025D01*
X3745317Y-15832625D02*
X3719917Y-15858025D01*
X4088888Y-15681039D02*
X4117460Y-15681039D01*
X4146031Y-15695325D01*
X4160317Y-15709611D01*
X4174603Y-15738182D01*
X4188888Y-15795325D01*
X4188888Y-15866754D01*
X4174603Y-15923896D01*
X4160317Y-15952468D01*
X4146031Y-15966754D01*
X4117460Y-15981039D01*
X4088888Y-15981039D01*
X4060317Y-15966754D01*
X4046031Y-15952468D01*
X4031745Y-15923896D01*
X4017460Y-15866754D01*
X4017460Y-15795325D01*
X4031745Y-15738182D01*
X4046031Y-15709611D01*
X4060317Y-15695325D01*
X4088888Y-15681039D01*
X4317460Y-15952468D02*
X4331745Y-15966754D01*
X4317460Y-15981039D01*
X4303174Y-15966754D01*
X4317460Y-15952468D01*
X4317460Y-15981039D01*
X4446031Y-15709611D02*
X4460317Y-15695325D01*
X4488888Y-15681039D01*
X4560317Y-15681039D01*
X4588888Y-15695325D01*
X4603174Y-15709611D01*
X4617460Y-15738182D01*
X4617460Y-15766754D01*
X4603174Y-15809611D01*
X4431745Y-15981039D01*
X4617460Y-15981039D01*
X4888888Y-15681039D02*
X4746031Y-15681039D01*
X4731745Y-15823896D01*
X4746031Y-15809611D01*
X4774603Y-15795325D01*
X4846031Y-15795325D01*
X4874603Y-15809611D01*
X4888888Y-15823896D01*
X4903174Y-15852468D01*
X4903174Y-15923896D01*
X4888888Y-15952468D01*
X4874603Y-15966754D01*
X4846031Y-15981039D01*
X4774603Y-15981039D01*
X4746031Y-15966754D01*
X4731745Y-15952468D01*
X5160317Y-15781039D02*
X5160317Y-15981039D01*
X5088888Y-15666754D02*
X5017460Y-15881039D01*
X5203174Y-15881039D01*
X5317460Y-15981039D02*
X5317460Y-15781039D01*
X5317460Y-15809611D02*
X5331745Y-15795325D01*
X5360317Y-15781039D01*
X5403174Y-15781039D01*
X5431745Y-15795325D01*
X5446031Y-15823896D01*
X5446031Y-15981039D01*
X5446031Y-15823896D02*
X5460317Y-15795325D01*
X5488888Y-15781039D01*
X5531745Y-15781039D01*
X5560317Y-15795325D01*
X5574603Y-15823896D01*
X5574603Y-15981039D01*
X5717460Y-15981039D02*
X5717460Y-15781039D01*
X5717460Y-15809611D02*
X5731745Y-15795325D01*
X5760317Y-15781039D01*
X5803174Y-15781039D01*
X5831745Y-15795325D01*
X5846031Y-15823896D01*
X5846031Y-15981039D01*
X5846031Y-15823896D02*
X5860317Y-15795325D01*
X5888888Y-15781039D01*
X5931745Y-15781039D01*
X5960317Y-15795325D01*
X5974603Y-15823896D01*
X5974603Y-15981039D01*
X6560317Y-15666754D02*
X6303174Y-16052468D01*
X6946031Y-15681039D02*
X6974603Y-15681039D01*
X7003174Y-15695325D01*
X7017460Y-15709611D01*
X7031745Y-15738182D01*
X7046031Y-15795325D01*
X7046031Y-15866754D01*
X7031745Y-15923896D01*
X7017460Y-15952468D01*
X7003174Y-15966754D01*
X6974603Y-15981039D01*
X6946031Y-15981039D01*
X6917460Y-15966754D01*
X6903174Y-15952468D01*
X6888888Y-15923896D01*
X6874603Y-15866754D01*
X6874603Y-15795325D01*
X6888888Y-15738182D01*
X6903174Y-15709611D01*
X6917460Y-15695325D01*
X6946031Y-15681039D01*
X7174603Y-15952468D02*
X7188888Y-15966754D01*
X7174603Y-15981039D01*
X7160317Y-15966754D01*
X7174603Y-15952468D01*
X7174603Y-15981039D01*
X7374603Y-15681039D02*
X7403174Y-15681039D01*
X7431745Y-15695325D01*
X7446031Y-15709611D01*
X7460317Y-15738182D01*
X7474603Y-15795325D01*
X7474603Y-15866754D01*
X7460317Y-15923896D01*
X7446031Y-15952468D01*
X7431745Y-15966754D01*
X7403174Y-15981039D01*
X7374603Y-15981039D01*
X7346031Y-15966754D01*
X7331745Y-15952468D01*
X7317460Y-15923896D01*
X7303174Y-15866754D01*
X7303174Y-15795325D01*
X7317460Y-15738182D01*
X7331745Y-15709611D01*
X7346031Y-15695325D01*
X7374603Y-15681039D01*
X7760317Y-15981039D02*
X7588888Y-15981039D01*
X7674603Y-15981039D02*
X7674603Y-15681039D01*
X7646031Y-15723896D01*
X7617460Y-15752468D01*
X7588888Y-15766754D01*
X7946031Y-15681039D02*
X7974603Y-15681039D01*
X8003174Y-15695325D01*
X8017460Y-15709611D01*
X8031745Y-15738182D01*
X8046031Y-15795325D01*
X8046031Y-15866754D01*
X8031745Y-15923896D01*
X8017460Y-15952468D01*
X8003174Y-15966754D01*
X7974603Y-15981039D01*
X7946031Y-15981039D01*
X7917460Y-15966754D01*
X7903174Y-15952468D01*
X7888888Y-15923896D01*
X7874603Y-15866754D01*
X7874603Y-15795325D01*
X7888888Y-15738182D01*
X7903174Y-15709611D01*
X7917460Y-15695325D01*
X7946031Y-15681039D01*
X8231745Y-15681039D02*
X8260317Y-15681039D01*
X8288888Y-15695325D01*
X8303174Y-15709611D01*
X8317460Y-15738182D01*
X8331745Y-15795325D01*
X8331745Y-15866754D01*
X8317460Y-15923896D01*
X8303174Y-15952468D01*
X8288888Y-15966754D01*
X8260317Y-15981039D01*
X8231745Y-15981039D01*
X8203174Y-15966754D01*
X8188888Y-15952468D01*
X8174603Y-15923896D01*
X8160317Y-15866754D01*
X8160317Y-15795325D01*
X8174603Y-15738182D01*
X8188888Y-15709611D01*
X8203174Y-15695325D01*
X8231745Y-15681039D01*
X8446031Y-15681039D02*
X8446031Y-15738182D01*
X8560317Y-15681039D02*
X8560317Y-15738182D01*
X9003174Y-16095325D02*
X8988888Y-16081039D01*
X8960317Y-16038182D01*
X8946031Y-16009611D01*
X8931745Y-15966754D01*
X8917460Y-15895325D01*
X8917460Y-15838182D01*
X8931745Y-15766754D01*
X8946031Y-15723896D01*
X8960317Y-15695325D01*
X8988888Y-15652468D01*
X9003174Y-15638182D01*
X9246031Y-15781039D02*
X9246031Y-15981039D01*
X9174603Y-15666754D02*
X9103174Y-15881039D01*
X9288888Y-15881039D01*
X9531745Y-15781039D02*
X9531745Y-15981039D01*
X9460317Y-15666754D02*
X9388888Y-15881039D01*
X9574603Y-15881039D01*
X9660317Y-15681039D02*
X9860317Y-15681039D01*
X9731745Y-15981039D01*
X10203174Y-15981039D02*
X10203174Y-15681039D01*
X10331745Y-15981039D02*
X10331745Y-15823896D01*
X10317460Y-15795325D01*
X10288888Y-15781039D01*
X10246031Y-15781039D01*
X10217460Y-15795325D01*
X10203174Y-15809611D01*
X10517460Y-15981039D02*
X10488888Y-15966754D01*
X10474603Y-15952468D01*
X10460317Y-15923896D01*
X10460317Y-15838182D01*
X10474603Y-15809611D01*
X10488888Y-15795325D01*
X10517460Y-15781039D01*
X10560317Y-15781039D01*
X10588888Y-15795325D01*
X10603174Y-15809611D01*
X10617460Y-15838182D01*
X10617460Y-15923896D01*
X10603174Y-15952468D01*
X10588888Y-15966754D01*
X10560317Y-15981039D01*
X10517460Y-15981039D01*
X10788888Y-15981039D02*
X10760317Y-15966754D01*
X10746031Y-15938182D01*
X10746031Y-15681039D01*
X11017460Y-15966754D02*
X10988888Y-15981039D01*
X10931745Y-15981039D01*
X10903174Y-15966754D01*
X10888888Y-15938182D01*
X10888888Y-15823896D01*
X10903174Y-15795325D01*
X10931745Y-15781039D01*
X10988888Y-15781039D01*
X11017460Y-15795325D01*
X11031745Y-15823896D01*
X11031745Y-15852468D01*
X10888888Y-15881039D01*
X11146031Y-15966754D02*
X11174603Y-15981039D01*
X11231745Y-15981039D01*
X11260317Y-15966754D01*
X11274603Y-15938182D01*
X11274603Y-15923896D01*
X11260317Y-15895325D01*
X11231745Y-15881039D01*
X11188888Y-15881039D01*
X11160317Y-15866754D01*
X11146031Y-15838182D01*
X11146031Y-15823896D01*
X11160317Y-15795325D01*
X11188888Y-15781039D01*
X11231745Y-15781039D01*
X11260317Y-15795325D01*
X11374603Y-16095325D02*
X11388888Y-16081039D01*
X11417460Y-16038182D01*
X11431745Y-16009611D01*
X11446031Y-15966754D01*
X11460317Y-15895325D01*
X11460317Y-15838182D01*
X11446031Y-15766754D01*
X11431745Y-15723896D01*
X11417460Y-15695325D01*
X11388888Y-15652468D01*
X11374603Y-15638182D01*
X3745317Y-16241325D02*
G75*
G03*
X3745317Y-16241325I-25000J0D01*
G01*
X4088888Y-16077039D02*
X4117460Y-16077039D01*
X4146031Y-16091325D01*
X4160317Y-16105611D01*
X4174603Y-16134182D01*
X4188888Y-16191325D01*
X4188888Y-16262754D01*
X4174603Y-16319896D01*
X4160317Y-16348468D01*
X4146031Y-16362754D01*
X4117460Y-16377039D01*
X4088888Y-16377039D01*
X4060317Y-16362754D01*
X4046031Y-16348468D01*
X4031745Y-16319896D01*
X4017460Y-16262754D01*
X4017460Y-16191325D01*
X4031745Y-16134182D01*
X4046031Y-16105611D01*
X4060317Y-16091325D01*
X4088888Y-16077039D01*
X4317460Y-16348468D02*
X4331745Y-16362754D01*
X4317460Y-16377039D01*
X4303174Y-16362754D01*
X4317460Y-16348468D01*
X4317460Y-16377039D01*
X4603174Y-16077039D02*
X4460317Y-16077039D01*
X4446031Y-16219896D01*
X4460317Y-16205611D01*
X4488888Y-16191325D01*
X4560317Y-16191325D01*
X4588888Y-16205611D01*
X4603174Y-16219896D01*
X4617460Y-16248468D01*
X4617460Y-16319896D01*
X4603174Y-16348468D01*
X4588888Y-16362754D01*
X4560317Y-16377039D01*
X4488888Y-16377039D01*
X4460317Y-16362754D01*
X4446031Y-16348468D01*
X4803174Y-16077039D02*
X4831745Y-16077039D01*
X4860317Y-16091325D01*
X4874603Y-16105611D01*
X4888888Y-16134182D01*
X4903174Y-16191325D01*
X4903174Y-16262754D01*
X4888888Y-16319896D01*
X4874603Y-16348468D01*
X4860317Y-16362754D01*
X4831745Y-16377039D01*
X4803174Y-16377039D01*
X4774603Y-16362754D01*
X4760317Y-16348468D01*
X4746031Y-16319896D01*
X4731745Y-16262754D01*
X4731745Y-16191325D01*
X4746031Y-16134182D01*
X4760317Y-16105611D01*
X4774603Y-16091325D01*
X4803174Y-16077039D01*
X5088888Y-16077039D02*
X5117460Y-16077039D01*
X5146031Y-16091325D01*
X5160317Y-16105611D01*
X5174603Y-16134182D01*
X5188888Y-16191325D01*
X5188888Y-16262754D01*
X5174603Y-16319896D01*
X5160317Y-16348468D01*
X5146031Y-16362754D01*
X5117460Y-16377039D01*
X5088888Y-16377039D01*
X5060317Y-16362754D01*
X5046031Y-16348468D01*
X5031745Y-16319896D01*
X5017460Y-16262754D01*
X5017460Y-16191325D01*
X5031745Y-16134182D01*
X5046031Y-16105611D01*
X5060317Y-16091325D01*
X5088888Y-16077039D01*
X5317460Y-16377039D02*
X5317460Y-16177039D01*
X5317460Y-16205611D02*
X5331745Y-16191325D01*
X5360317Y-16177039D01*
X5403174Y-16177039D01*
X5431745Y-16191325D01*
X5446031Y-16219896D01*
X5446031Y-16377039D01*
X5446031Y-16219896D02*
X5460317Y-16191325D01*
X5488888Y-16177039D01*
X5531745Y-16177039D01*
X5560317Y-16191325D01*
X5574603Y-16219896D01*
X5574603Y-16377039D01*
X5717460Y-16377039D02*
X5717460Y-16177039D01*
X5717460Y-16205611D02*
X5731745Y-16191325D01*
X5760317Y-16177039D01*
X5803174Y-16177039D01*
X5831745Y-16191325D01*
X5846031Y-16219896D01*
X5846031Y-16377039D01*
X5846031Y-16219896D02*
X5860317Y-16191325D01*
X5888888Y-16177039D01*
X5931745Y-16177039D01*
X5960317Y-16191325D01*
X5974603Y-16219896D01*
X5974603Y-16377039D01*
X6560317Y-16062754D02*
X6303174Y-16448468D01*
X6946031Y-16077039D02*
X6974603Y-16077039D01*
X7003174Y-16091325D01*
X7017460Y-16105611D01*
X7031745Y-16134182D01*
X7046031Y-16191325D01*
X7046031Y-16262754D01*
X7031745Y-16319896D01*
X7017460Y-16348468D01*
X7003174Y-16362754D01*
X6974603Y-16377039D01*
X6946031Y-16377039D01*
X6917460Y-16362754D01*
X6903174Y-16348468D01*
X6888888Y-16319896D01*
X6874603Y-16262754D01*
X6874603Y-16191325D01*
X6888888Y-16134182D01*
X6903174Y-16105611D01*
X6917460Y-16091325D01*
X6946031Y-16077039D01*
X7174603Y-16348468D02*
X7188888Y-16362754D01*
X7174603Y-16377039D01*
X7160317Y-16362754D01*
X7174603Y-16348468D01*
X7174603Y-16377039D01*
X7374603Y-16077039D02*
X7403174Y-16077039D01*
X7431745Y-16091325D01*
X7446031Y-16105611D01*
X7460317Y-16134182D01*
X7474603Y-16191325D01*
X7474603Y-16262754D01*
X7460317Y-16319896D01*
X7446031Y-16348468D01*
X7431745Y-16362754D01*
X7403174Y-16377039D01*
X7374603Y-16377039D01*
X7346031Y-16362754D01*
X7331745Y-16348468D01*
X7317460Y-16319896D01*
X7303174Y-16262754D01*
X7303174Y-16191325D01*
X7317460Y-16134182D01*
X7331745Y-16105611D01*
X7346031Y-16091325D01*
X7374603Y-16077039D01*
X7760317Y-16377039D02*
X7588888Y-16377039D01*
X7674603Y-16377039D02*
X7674603Y-16077039D01*
X7646031Y-16119896D01*
X7617460Y-16148468D01*
X7588888Y-16162754D01*
X7903174Y-16377039D02*
X7960317Y-16377039D01*
X7988888Y-16362754D01*
X8003174Y-16348468D01*
X8031745Y-16305611D01*
X8046031Y-16248468D01*
X8046031Y-16134182D01*
X8031745Y-16105611D01*
X8017460Y-16091325D01*
X7988888Y-16077039D01*
X7931745Y-16077039D01*
X7903174Y-16091325D01*
X7888888Y-16105611D01*
X7874603Y-16134182D01*
X7874603Y-16205611D01*
X7888888Y-16234182D01*
X7903174Y-16248468D01*
X7931745Y-16262754D01*
X7988888Y-16262754D01*
X8017460Y-16248468D01*
X8031745Y-16234182D01*
X8046031Y-16205611D01*
X8146031Y-16077039D02*
X8346031Y-16077039D01*
X8217460Y-16377039D01*
X8446031Y-16077039D02*
X8446031Y-16134182D01*
X8560317Y-16077039D02*
X8560317Y-16134182D01*
X9003174Y-16491325D02*
X8988888Y-16477039D01*
X8960317Y-16434182D01*
X8946031Y-16405611D01*
X8931745Y-16362754D01*
X8917460Y-16291325D01*
X8917460Y-16234182D01*
X8931745Y-16162754D01*
X8946031Y-16119896D01*
X8960317Y-16091325D01*
X8988888Y-16048468D01*
X9003174Y-16034182D01*
X9160317Y-16205611D02*
X9131745Y-16191325D01*
X9117460Y-16177039D01*
X9103174Y-16148468D01*
X9103174Y-16134182D01*
X9117460Y-16105611D01*
X9131745Y-16091325D01*
X9160317Y-16077039D01*
X9217460Y-16077039D01*
X9246031Y-16091325D01*
X9260317Y-16105611D01*
X9274603Y-16134182D01*
X9274603Y-16148468D01*
X9260317Y-16177039D01*
X9246031Y-16191325D01*
X9217460Y-16205611D01*
X9160317Y-16205611D01*
X9131745Y-16219896D01*
X9117460Y-16234182D01*
X9103174Y-16262754D01*
X9103174Y-16319896D01*
X9117460Y-16348468D01*
X9131745Y-16362754D01*
X9160317Y-16377039D01*
X9217460Y-16377039D01*
X9246031Y-16362754D01*
X9260317Y-16348468D01*
X9274603Y-16319896D01*
X9274603Y-16262754D01*
X9260317Y-16234182D01*
X9246031Y-16219896D01*
X9217460Y-16205611D01*
X9631745Y-16377039D02*
X9631745Y-16077039D01*
X9760317Y-16377039D02*
X9760317Y-16219896D01*
X9746031Y-16191325D01*
X9717460Y-16177039D01*
X9674603Y-16177039D01*
X9646031Y-16191325D01*
X9631745Y-16205611D01*
X9946031Y-16377039D02*
X9917460Y-16362754D01*
X9903174Y-16348468D01*
X9888888Y-16319896D01*
X9888888Y-16234182D01*
X9903174Y-16205611D01*
X9917460Y-16191325D01*
X9946031Y-16177039D01*
X9988888Y-16177039D01*
X10017460Y-16191325D01*
X10031745Y-16205611D01*
X10046031Y-16234182D01*
X10046031Y-16319896D01*
X10031745Y-16348468D01*
X10017460Y-16362754D01*
X9988888Y-16377039D01*
X9946031Y-16377039D01*
X10217460Y-16377039D02*
X10188888Y-16362754D01*
X10174603Y-16334182D01*
X10174603Y-16077039D01*
X10446031Y-16362754D02*
X10417460Y-16377039D01*
X10360317Y-16377039D01*
X10331745Y-16362754D01*
X10317460Y-16334182D01*
X10317460Y-16219896D01*
X10331745Y-16191325D01*
X10360317Y-16177039D01*
X10417460Y-16177039D01*
X10446031Y-16191325D01*
X10460317Y-16219896D01*
X10460317Y-16248468D01*
X10317460Y-16277039D01*
X10574603Y-16362754D02*
X10603174Y-16377039D01*
X10660317Y-16377039D01*
X10688888Y-16362754D01*
X10703174Y-16334182D01*
X10703174Y-16319896D01*
X10688888Y-16291325D01*
X10660317Y-16277039D01*
X10617460Y-16277039D01*
X10588888Y-16262754D01*
X10574603Y-16234182D01*
X10574603Y-16219896D01*
X10588888Y-16191325D01*
X10617460Y-16177039D01*
X10660317Y-16177039D01*
X10688888Y-16191325D01*
X10803174Y-16491325D02*
X10817460Y-16477039D01*
X10846031Y-16434182D01*
X10860317Y-16405611D01*
X10874603Y-16362754D01*
X10888888Y-16291325D01*
X10888888Y-16234182D01*
X10874603Y-16162754D01*
X10860317Y-16119896D01*
X10846031Y-16091325D01*
X10817460Y-16048468D01*
X10803174Y-16034182D01*
X3710317Y-16602325D02*
X3710317Y-16672325D01*
X3675317Y-16637325D02*
X3745317Y-16637325D01*
X4088888Y-16473039D02*
X4117460Y-16473039D01*
X4146031Y-16487325D01*
X4160317Y-16501611D01*
X4174603Y-16530182D01*
X4188888Y-16587325D01*
X4188888Y-16658754D01*
X4174603Y-16715896D01*
X4160317Y-16744468D01*
X4146031Y-16758754D01*
X4117460Y-16773039D01*
X4088888Y-16773039D01*
X4060317Y-16758754D01*
X4046031Y-16744468D01*
X4031745Y-16715896D01*
X4017460Y-16658754D01*
X4017460Y-16587325D01*
X4031745Y-16530182D01*
X4046031Y-16501611D01*
X4060317Y-16487325D01*
X4088888Y-16473039D01*
X4317460Y-16744468D02*
X4331745Y-16758754D01*
X4317460Y-16773039D01*
X4303174Y-16758754D01*
X4317460Y-16744468D01*
X4317460Y-16773039D01*
X4431745Y-16473039D02*
X4631745Y-16473039D01*
X4503174Y-16773039D01*
X4803174Y-16473039D02*
X4831745Y-16473039D01*
X4860317Y-16487325D01*
X4874603Y-16501611D01*
X4888888Y-16530182D01*
X4903174Y-16587325D01*
X4903174Y-16658754D01*
X4888888Y-16715896D01*
X4874603Y-16744468D01*
X4860317Y-16758754D01*
X4831745Y-16773039D01*
X4803174Y-16773039D01*
X4774603Y-16758754D01*
X4760317Y-16744468D01*
X4746031Y-16715896D01*
X4731745Y-16658754D01*
X4731745Y-16587325D01*
X4746031Y-16530182D01*
X4760317Y-16501611D01*
X4774603Y-16487325D01*
X4803174Y-16473039D01*
X5088888Y-16473039D02*
X5117460Y-16473039D01*
X5146031Y-16487325D01*
X5160317Y-16501611D01*
X5174603Y-16530182D01*
X5188888Y-16587325D01*
X5188888Y-16658754D01*
X5174603Y-16715896D01*
X5160317Y-16744468D01*
X5146031Y-16758754D01*
X5117460Y-16773039D01*
X5088888Y-16773039D01*
X5060317Y-16758754D01*
X5046031Y-16744468D01*
X5031745Y-16715896D01*
X5017460Y-16658754D01*
X5017460Y-16587325D01*
X5031745Y-16530182D01*
X5046031Y-16501611D01*
X5060317Y-16487325D01*
X5088888Y-16473039D01*
X5317460Y-16773039D02*
X5317460Y-16573039D01*
X5317460Y-16601611D02*
X5331745Y-16587325D01*
X5360317Y-16573039D01*
X5403174Y-16573039D01*
X5431745Y-16587325D01*
X5446031Y-16615896D01*
X5446031Y-16773039D01*
X5446031Y-16615896D02*
X5460317Y-16587325D01*
X5488888Y-16573039D01*
X5531745Y-16573039D01*
X5560317Y-16587325D01*
X5574603Y-16615896D01*
X5574603Y-16773039D01*
X5717460Y-16773039D02*
X5717460Y-16573039D01*
X5717460Y-16601611D02*
X5731745Y-16587325D01*
X5760317Y-16573039D01*
X5803174Y-16573039D01*
X5831745Y-16587325D01*
X5846031Y-16615896D01*
X5846031Y-16773039D01*
X5846031Y-16615896D02*
X5860317Y-16587325D01*
X5888888Y-16573039D01*
X5931745Y-16573039D01*
X5960317Y-16587325D01*
X5974603Y-16615896D01*
X5974603Y-16773039D01*
X6560317Y-16458754D02*
X6303174Y-16844468D01*
X6946031Y-16473039D02*
X6974603Y-16473039D01*
X7003174Y-16487325D01*
X7017460Y-16501611D01*
X7031745Y-16530182D01*
X7046031Y-16587325D01*
X7046031Y-16658754D01*
X7031745Y-16715896D01*
X7017460Y-16744468D01*
X7003174Y-16758754D01*
X6974603Y-16773039D01*
X6946031Y-16773039D01*
X6917460Y-16758754D01*
X6903174Y-16744468D01*
X6888888Y-16715896D01*
X6874603Y-16658754D01*
X6874603Y-16587325D01*
X6888888Y-16530182D01*
X6903174Y-16501611D01*
X6917460Y-16487325D01*
X6946031Y-16473039D01*
X7174603Y-16744468D02*
X7188888Y-16758754D01*
X7174603Y-16773039D01*
X7160317Y-16758754D01*
X7174603Y-16744468D01*
X7174603Y-16773039D01*
X7374603Y-16473039D02*
X7403174Y-16473039D01*
X7431745Y-16487325D01*
X7446031Y-16501611D01*
X7460317Y-16530182D01*
X7474603Y-16587325D01*
X7474603Y-16658754D01*
X7460317Y-16715896D01*
X7446031Y-16744468D01*
X7431745Y-16758754D01*
X7403174Y-16773039D01*
X7374603Y-16773039D01*
X7346031Y-16758754D01*
X7331745Y-16744468D01*
X7317460Y-16715896D01*
X7303174Y-16658754D01*
X7303174Y-16587325D01*
X7317460Y-16530182D01*
X7331745Y-16501611D01*
X7346031Y-16487325D01*
X7374603Y-16473039D01*
X7588888Y-16501611D02*
X7603174Y-16487325D01*
X7631745Y-16473039D01*
X7703174Y-16473039D01*
X7731745Y-16487325D01*
X7746031Y-16501611D01*
X7760317Y-16530182D01*
X7760317Y-16558754D01*
X7746031Y-16601611D01*
X7574603Y-16773039D01*
X7760317Y-16773039D01*
X7860317Y-16473039D02*
X8060317Y-16473039D01*
X7931745Y-16773039D01*
X8303174Y-16473039D02*
X8246031Y-16473039D01*
X8217460Y-16487325D01*
X8203174Y-16501611D01*
X8174603Y-16544468D01*
X8160317Y-16601611D01*
X8160317Y-16715896D01*
X8174603Y-16744468D01*
X8188888Y-16758754D01*
X8217460Y-16773039D01*
X8274603Y-16773039D01*
X8303174Y-16758754D01*
X8317460Y-16744468D01*
X8331745Y-16715896D01*
X8331745Y-16644468D01*
X8317460Y-16615896D01*
X8303174Y-16601611D01*
X8274603Y-16587325D01*
X8217460Y-16587325D01*
X8188888Y-16601611D01*
X8174603Y-16615896D01*
X8160317Y-16644468D01*
X8446031Y-16473039D02*
X8446031Y-16530182D01*
X8560317Y-16473039D02*
X8560317Y-16530182D01*
X9003174Y-16887325D02*
X8988888Y-16873039D01*
X8960317Y-16830182D01*
X8946031Y-16801611D01*
X8931745Y-16758754D01*
X8917460Y-16687325D01*
X8917460Y-16630182D01*
X8931745Y-16558754D01*
X8946031Y-16515896D01*
X8960317Y-16487325D01*
X8988888Y-16444468D01*
X9003174Y-16430182D01*
X9088888Y-16473039D02*
X9274603Y-16473039D01*
X9174603Y-16587325D01*
X9217460Y-16587325D01*
X9246031Y-16601611D01*
X9260317Y-16615896D01*
X9274603Y-16644468D01*
X9274603Y-16715896D01*
X9260317Y-16744468D01*
X9246031Y-16758754D01*
X9217460Y-16773039D01*
X9131745Y-16773039D01*
X9103174Y-16758754D01*
X9088888Y-16744468D01*
X9388888Y-16501611D02*
X9403174Y-16487325D01*
X9431745Y-16473039D01*
X9503174Y-16473039D01*
X9531745Y-16487325D01*
X9546031Y-16501611D01*
X9560317Y-16530182D01*
X9560317Y-16558754D01*
X9546031Y-16601611D01*
X9374603Y-16773039D01*
X9560317Y-16773039D01*
X9917460Y-16773039D02*
X9917460Y-16473039D01*
X10046031Y-16773039D02*
X10046031Y-16615896D01*
X10031745Y-16587325D01*
X10003174Y-16573039D01*
X9960317Y-16573039D01*
X9931745Y-16587325D01*
X9917460Y-16601611D01*
X10231745Y-16773039D02*
X10203174Y-16758754D01*
X10188888Y-16744468D01*
X10174603Y-16715896D01*
X10174603Y-16630182D01*
X10188888Y-16601611D01*
X10203174Y-16587325D01*
X10231745Y-16573039D01*
X10274603Y-16573039D01*
X10303174Y-16587325D01*
X10317460Y-16601611D01*
X10331745Y-16630182D01*
X10331745Y-16715896D01*
X10317460Y-16744468D01*
X10303174Y-16758754D01*
X10274603Y-16773039D01*
X10231745Y-16773039D01*
X10503174Y-16773039D02*
X10474603Y-16758754D01*
X10460317Y-16730182D01*
X10460317Y-16473039D01*
X10731745Y-16758754D02*
X10703174Y-16773039D01*
X10646031Y-16773039D01*
X10617460Y-16758754D01*
X10603174Y-16730182D01*
X10603174Y-16615896D01*
X10617460Y-16587325D01*
X10646031Y-16573039D01*
X10703174Y-16573039D01*
X10731745Y-16587325D01*
X10746031Y-16615896D01*
X10746031Y-16644468D01*
X10603174Y-16673039D01*
X10860317Y-16758754D02*
X10888888Y-16773039D01*
X10946031Y-16773039D01*
X10974603Y-16758754D01*
X10988888Y-16730182D01*
X10988888Y-16715896D01*
X10974603Y-16687325D01*
X10946031Y-16673039D01*
X10903174Y-16673039D01*
X10874603Y-16658754D01*
X10860317Y-16630182D01*
X10860317Y-16615896D01*
X10874603Y-16587325D01*
X10903174Y-16573039D01*
X10946031Y-16573039D01*
X10974603Y-16587325D01*
X11088888Y-16887325D02*
X11103174Y-16873039D01*
X11131745Y-16830182D01*
X11146031Y-16801611D01*
X11160317Y-16758754D01*
X11174603Y-16687325D01*
X11174603Y-16630182D01*
X11160317Y-16558754D01*
X11146031Y-16515896D01*
X11131745Y-16487325D01*
X11103174Y-16444468D01*
X11088888Y-16430182D01*
X3733601Y-17061610D02*
X3733601Y-17005041D01*
X3677032Y-17005041D01*
X3677032Y-17061610D01*
X3733601Y-17061610D01*
X4088888Y-16869039D02*
X4117460Y-16869039D01*
X4146031Y-16883325D01*
X4160317Y-16897611D01*
X4174603Y-16926182D01*
X4188888Y-16983325D01*
X4188888Y-17054754D01*
X4174603Y-17111897D01*
X4160317Y-17140468D01*
X4146031Y-17154754D01*
X4117460Y-17169039D01*
X4088888Y-17169039D01*
X4060317Y-17154754D01*
X4046031Y-17140468D01*
X4031745Y-17111897D01*
X4017460Y-17054754D01*
X4017460Y-16983325D01*
X4031745Y-16926182D01*
X4046031Y-16897611D01*
X4060317Y-16883325D01*
X4088888Y-16869039D01*
X4317460Y-17140468D02*
X4331745Y-17154754D01*
X4317460Y-17169039D01*
X4303174Y-17154754D01*
X4317460Y-17140468D01*
X4317460Y-17169039D01*
X4503174Y-16997611D02*
X4474603Y-16983325D01*
X4460317Y-16969039D01*
X4446031Y-16940468D01*
X4446031Y-16926182D01*
X4460317Y-16897611D01*
X4474603Y-16883325D01*
X4503174Y-16869039D01*
X4560317Y-16869039D01*
X4588888Y-16883325D01*
X4603174Y-16897611D01*
X4617460Y-16926182D01*
X4617460Y-16940468D01*
X4603174Y-16969039D01*
X4588888Y-16983325D01*
X4560317Y-16997611D01*
X4503174Y-16997611D01*
X4474603Y-17011897D01*
X4460317Y-17026182D01*
X4446031Y-17054754D01*
X4446031Y-17111897D01*
X4460317Y-17140468D01*
X4474603Y-17154754D01*
X4503174Y-17169039D01*
X4560317Y-17169039D01*
X4588888Y-17154754D01*
X4603174Y-17140468D01*
X4617460Y-17111897D01*
X4617460Y-17054754D01*
X4603174Y-17026182D01*
X4588888Y-17011897D01*
X4560317Y-16997611D01*
X4803174Y-16869039D02*
X4831745Y-16869039D01*
X4860317Y-16883325D01*
X4874603Y-16897611D01*
X4888888Y-16926182D01*
X4903174Y-16983325D01*
X4903174Y-17054754D01*
X4888888Y-17111897D01*
X4874603Y-17140468D01*
X4860317Y-17154754D01*
X4831745Y-17169039D01*
X4803174Y-17169039D01*
X4774603Y-17154754D01*
X4760317Y-17140468D01*
X4746031Y-17111897D01*
X4731745Y-17054754D01*
X4731745Y-16983325D01*
X4746031Y-16926182D01*
X4760317Y-16897611D01*
X4774603Y-16883325D01*
X4803174Y-16869039D01*
X5088888Y-16869039D02*
X5117460Y-16869039D01*
X5146031Y-16883325D01*
X5160317Y-16897611D01*
X5174603Y-16926182D01*
X5188888Y-16983325D01*
X5188888Y-17054754D01*
X5174603Y-17111897D01*
X5160317Y-17140468D01*
X5146031Y-17154754D01*
X5117460Y-17169039D01*
X5088888Y-17169039D01*
X5060317Y-17154754D01*
X5046031Y-17140468D01*
X5031745Y-17111897D01*
X5017460Y-17054754D01*
X5017460Y-16983325D01*
X5031745Y-16926182D01*
X5046031Y-16897611D01*
X5060317Y-16883325D01*
X5088888Y-16869039D01*
X5317460Y-17169039D02*
X5317460Y-16969039D01*
X5317460Y-16997611D02*
X5331745Y-16983325D01*
X5360317Y-16969039D01*
X5403174Y-16969039D01*
X5431745Y-16983325D01*
X5446031Y-17011897D01*
X5446031Y-17169039D01*
X5446031Y-17011897D02*
X5460317Y-16983325D01*
X5488888Y-16969039D01*
X5531745Y-16969039D01*
X5560317Y-16983325D01*
X5574603Y-17011897D01*
X5574603Y-17169039D01*
X5717460Y-17169039D02*
X5717460Y-16969039D01*
X5717460Y-16997611D02*
X5731745Y-16983325D01*
X5760317Y-16969039D01*
X5803174Y-16969039D01*
X5831745Y-16983325D01*
X5846031Y-17011897D01*
X5846031Y-17169039D01*
X5846031Y-17011897D02*
X5860317Y-16983325D01*
X5888888Y-16969039D01*
X5931745Y-16969039D01*
X5960317Y-16983325D01*
X5974603Y-17011897D01*
X5974603Y-17169039D01*
X6560317Y-16854754D02*
X6303174Y-17240468D01*
X6946031Y-16869039D02*
X6974603Y-16869039D01*
X7003174Y-16883325D01*
X7017460Y-16897611D01*
X7031745Y-16926182D01*
X7046031Y-16983325D01*
X7046031Y-17054754D01*
X7031745Y-17111897D01*
X7017460Y-17140468D01*
X7003174Y-17154754D01*
X6974603Y-17169039D01*
X6946031Y-17169039D01*
X6917460Y-17154754D01*
X6903174Y-17140468D01*
X6888888Y-17111897D01*
X6874603Y-17054754D01*
X6874603Y-16983325D01*
X6888888Y-16926182D01*
X6903174Y-16897611D01*
X6917460Y-16883325D01*
X6946031Y-16869039D01*
X7174603Y-17140468D02*
X7188888Y-17154754D01*
X7174603Y-17169039D01*
X7160317Y-17154754D01*
X7174603Y-17140468D01*
X7174603Y-17169039D01*
X7374603Y-16869039D02*
X7403174Y-16869039D01*
X7431745Y-16883325D01*
X7446031Y-16897611D01*
X7460317Y-16926182D01*
X7474603Y-16983325D01*
X7474603Y-17054754D01*
X7460317Y-17111897D01*
X7446031Y-17140468D01*
X7431745Y-17154754D01*
X7403174Y-17169039D01*
X7374603Y-17169039D01*
X7346031Y-17154754D01*
X7331745Y-17140468D01*
X7317460Y-17111897D01*
X7303174Y-17054754D01*
X7303174Y-16983325D01*
X7317460Y-16926182D01*
X7331745Y-16897611D01*
X7346031Y-16883325D01*
X7374603Y-16869039D01*
X7574603Y-16869039D02*
X7760317Y-16869039D01*
X7660317Y-16983325D01*
X7703174Y-16983325D01*
X7731745Y-16997611D01*
X7746031Y-17011897D01*
X7760317Y-17040468D01*
X7760317Y-17111897D01*
X7746031Y-17140468D01*
X7731745Y-17154754D01*
X7703174Y-17169039D01*
X7617460Y-17169039D01*
X7588888Y-17154754D01*
X7574603Y-17140468D01*
X8046031Y-17169039D02*
X7874603Y-17169039D01*
X7960317Y-17169039D02*
X7960317Y-16869039D01*
X7931745Y-16911897D01*
X7903174Y-16940468D01*
X7874603Y-16954754D01*
X8317460Y-16869039D02*
X8174603Y-16869039D01*
X8160317Y-17011897D01*
X8174603Y-16997611D01*
X8203174Y-16983325D01*
X8274603Y-16983325D01*
X8303174Y-16997611D01*
X8317460Y-17011897D01*
X8331745Y-17040468D01*
X8331745Y-17111897D01*
X8317460Y-17140468D01*
X8303174Y-17154754D01*
X8274603Y-17169039D01*
X8203174Y-17169039D01*
X8174603Y-17154754D01*
X8160317Y-17140468D01*
X8446031Y-16869039D02*
X8446031Y-16926182D01*
X8560317Y-16869039D02*
X8560317Y-16926182D01*
X9003174Y-17283325D02*
X8988888Y-17269039D01*
X8960317Y-17226182D01*
X8946031Y-17197611D01*
X8931745Y-17154754D01*
X8917460Y-17083325D01*
X8917460Y-17026182D01*
X8931745Y-16954754D01*
X8946031Y-16911897D01*
X8960317Y-16883325D01*
X8988888Y-16840468D01*
X9003174Y-16826182D01*
X9274603Y-17169039D02*
X9103174Y-17169039D01*
X9188888Y-17169039D02*
X9188888Y-16869039D01*
X9160317Y-16911897D01*
X9131745Y-16940468D01*
X9103174Y-16954754D01*
X9460317Y-16869039D02*
X9488888Y-16869039D01*
X9517460Y-16883325D01*
X9531745Y-16897611D01*
X9546031Y-16926182D01*
X9560317Y-16983325D01*
X9560317Y-17054754D01*
X9546031Y-17111897D01*
X9531745Y-17140468D01*
X9517460Y-17154754D01*
X9488888Y-17169039D01*
X9460317Y-17169039D01*
X9431745Y-17154754D01*
X9417460Y-17140468D01*
X9403174Y-17111897D01*
X9388888Y-17054754D01*
X9388888Y-16983325D01*
X9403174Y-16926182D01*
X9417460Y-16897611D01*
X9431745Y-16883325D01*
X9460317Y-16869039D01*
X9731745Y-16997611D02*
X9703174Y-16983325D01*
X9688888Y-16969039D01*
X9674603Y-16940468D01*
X9674603Y-16926182D01*
X9688888Y-16897611D01*
X9703174Y-16883325D01*
X9731745Y-16869039D01*
X9788888Y-16869039D01*
X9817460Y-16883325D01*
X9831745Y-16897611D01*
X9846031Y-16926182D01*
X9846031Y-16940468D01*
X9831745Y-16969039D01*
X9817460Y-16983325D01*
X9788888Y-16997611D01*
X9731745Y-16997611D01*
X9703174Y-17011897D01*
X9688888Y-17026182D01*
X9674603Y-17054754D01*
X9674603Y-17111897D01*
X9688888Y-17140468D01*
X9703174Y-17154754D01*
X9731745Y-17169039D01*
X9788888Y-17169039D01*
X9817460Y-17154754D01*
X9831745Y-17140468D01*
X9846031Y-17111897D01*
X9846031Y-17054754D01*
X9831745Y-17026182D01*
X9817460Y-17011897D01*
X9788888Y-16997611D01*
X10203174Y-17169039D02*
X10203174Y-16869039D01*
X10331745Y-17169039D02*
X10331745Y-17011897D01*
X10317460Y-16983325D01*
X10288888Y-16969039D01*
X10246031Y-16969039D01*
X10217460Y-16983325D01*
X10203174Y-16997611D01*
X10517460Y-17169039D02*
X10488888Y-17154754D01*
X10474603Y-17140468D01*
X10460317Y-17111897D01*
X10460317Y-17026182D01*
X10474603Y-16997611D01*
X10488888Y-16983325D01*
X10517460Y-16969039D01*
X10560317Y-16969039D01*
X10588888Y-16983325D01*
X10603174Y-16997611D01*
X10617460Y-17026182D01*
X10617460Y-17111897D01*
X10603174Y-17140468D01*
X10588888Y-17154754D01*
X10560317Y-17169039D01*
X10517460Y-17169039D01*
X10788888Y-17169039D02*
X10760317Y-17154754D01*
X10746031Y-17126182D01*
X10746031Y-16869039D01*
X11017460Y-17154754D02*
X10988888Y-17169039D01*
X10931745Y-17169039D01*
X10903174Y-17154754D01*
X10888888Y-17126182D01*
X10888888Y-17011897D01*
X10903174Y-16983325D01*
X10931745Y-16969039D01*
X10988888Y-16969039D01*
X11017460Y-16983325D01*
X11031745Y-17011897D01*
X11031745Y-17040468D01*
X10888888Y-17069039D01*
X11146031Y-17154754D02*
X11174603Y-17169039D01*
X11231745Y-17169039D01*
X11260317Y-17154754D01*
X11274603Y-17126182D01*
X11274603Y-17111897D01*
X11260317Y-17083325D01*
X11231745Y-17069039D01*
X11188888Y-17069039D01*
X11160317Y-17054754D01*
X11146031Y-17026182D01*
X11146031Y-17011897D01*
X11160317Y-16983325D01*
X11188888Y-16969039D01*
X11231745Y-16969039D01*
X11260317Y-16983325D01*
X11374603Y-17283325D02*
X11388888Y-17269039D01*
X11417460Y-17226182D01*
X11431745Y-17197611D01*
X11446031Y-17154754D01*
X11460317Y-17083325D01*
X11460317Y-17026182D01*
X11446031Y-16954754D01*
X11431745Y-16911897D01*
X11417460Y-16883325D01*
X11388888Y-16840468D01*
X11374603Y-16826182D01*
X3695317Y-17479325D02*
X3745317Y-17429325D01*
X3695317Y-17379325D01*
X3645317Y-17429325D01*
X3695317Y-17479325D01*
X4188888Y-17565039D02*
X4017460Y-17565039D01*
X4103174Y-17565039D02*
X4103174Y-17265039D01*
X4074603Y-17307897D01*
X4046031Y-17336468D01*
X4017460Y-17350754D01*
X4317460Y-17536468D02*
X4331745Y-17550754D01*
X4317460Y-17565039D01*
X4303174Y-17550754D01*
X4317460Y-17536468D01*
X4317460Y-17565039D01*
X4517460Y-17265039D02*
X4546031Y-17265039D01*
X4574603Y-17279325D01*
X4588888Y-17293611D01*
X4603174Y-17322182D01*
X4617460Y-17379325D01*
X4617460Y-17450754D01*
X4603174Y-17507897D01*
X4588888Y-17536468D01*
X4574603Y-17550754D01*
X4546031Y-17565039D01*
X4517460Y-17565039D01*
X4488888Y-17550754D01*
X4474603Y-17536468D01*
X4460317Y-17507897D01*
X4446031Y-17450754D01*
X4446031Y-17379325D01*
X4460317Y-17322182D01*
X4474603Y-17293611D01*
X4488888Y-17279325D01*
X4517460Y-17265039D01*
X4803174Y-17265039D02*
X4831745Y-17265039D01*
X4860317Y-17279325D01*
X4874603Y-17293611D01*
X4888888Y-17322182D01*
X4903174Y-17379325D01*
X4903174Y-17450754D01*
X4888888Y-17507897D01*
X4874603Y-17536468D01*
X4860317Y-17550754D01*
X4831745Y-17565039D01*
X4803174Y-17565039D01*
X4774603Y-17550754D01*
X4760317Y-17536468D01*
X4746031Y-17507897D01*
X4731745Y-17450754D01*
X4731745Y-17379325D01*
X4746031Y-17322182D01*
X4760317Y-17293611D01*
X4774603Y-17279325D01*
X4803174Y-17265039D01*
X5088888Y-17265039D02*
X5117460Y-17265039D01*
X5146031Y-17279325D01*
X5160317Y-17293611D01*
X5174603Y-17322182D01*
X5188888Y-17379325D01*
X5188888Y-17450754D01*
X5174603Y-17507897D01*
X5160317Y-17536468D01*
X5146031Y-17550754D01*
X5117460Y-17565039D01*
X5088888Y-17565039D01*
X5060317Y-17550754D01*
X5046031Y-17536468D01*
X5031745Y-17507897D01*
X5017460Y-17450754D01*
X5017460Y-17379325D01*
X5031745Y-17322182D01*
X5046031Y-17293611D01*
X5060317Y-17279325D01*
X5088888Y-17265039D01*
X5317460Y-17565039D02*
X5317460Y-17365039D01*
X5317460Y-17393611D02*
X5331745Y-17379325D01*
X5360317Y-17365039D01*
X5403174Y-17365039D01*
X5431745Y-17379325D01*
X5446031Y-17407897D01*
X5446031Y-17565039D01*
X5446031Y-17407897D02*
X5460317Y-17379325D01*
X5488888Y-17365039D01*
X5531745Y-17365039D01*
X5560317Y-17379325D01*
X5574603Y-17407897D01*
X5574603Y-17565039D01*
X5717460Y-17565039D02*
X5717460Y-17365039D01*
X5717460Y-17393611D02*
X5731745Y-17379325D01*
X5760317Y-17365039D01*
X5803174Y-17365039D01*
X5831745Y-17379325D01*
X5846031Y-17407897D01*
X5846031Y-17565039D01*
X5846031Y-17407897D02*
X5860317Y-17379325D01*
X5888888Y-17365039D01*
X5931745Y-17365039D01*
X5960317Y-17379325D01*
X5974603Y-17407897D01*
X5974603Y-17565039D01*
X6560317Y-17250754D02*
X6303174Y-17636468D01*
X6946031Y-17265039D02*
X6974603Y-17265039D01*
X7003174Y-17279325D01*
X7017460Y-17293611D01*
X7031745Y-17322182D01*
X7046031Y-17379325D01*
X7046031Y-17450754D01*
X7031745Y-17507897D01*
X7017460Y-17536468D01*
X7003174Y-17550754D01*
X6974603Y-17565039D01*
X6946031Y-17565039D01*
X6917460Y-17550754D01*
X6903174Y-17536468D01*
X6888888Y-17507897D01*
X6874603Y-17450754D01*
X6874603Y-17379325D01*
X6888888Y-17322182D01*
X6903174Y-17293611D01*
X6917460Y-17279325D01*
X6946031Y-17265039D01*
X7174603Y-17536468D02*
X7188888Y-17550754D01*
X7174603Y-17565039D01*
X7160317Y-17550754D01*
X7174603Y-17536468D01*
X7174603Y-17565039D01*
X7374603Y-17265039D02*
X7403174Y-17265039D01*
X7431745Y-17279325D01*
X7446031Y-17293611D01*
X7460317Y-17322182D01*
X7474603Y-17379325D01*
X7474603Y-17450754D01*
X7460317Y-17507897D01*
X7446031Y-17536468D01*
X7431745Y-17550754D01*
X7403174Y-17565039D01*
X7374603Y-17565039D01*
X7346031Y-17550754D01*
X7331745Y-17536468D01*
X7317460Y-17507897D01*
X7303174Y-17450754D01*
X7303174Y-17379325D01*
X7317460Y-17322182D01*
X7331745Y-17293611D01*
X7346031Y-17279325D01*
X7374603Y-17265039D01*
X7574603Y-17265039D02*
X7760317Y-17265039D01*
X7660317Y-17379325D01*
X7703174Y-17379325D01*
X7731745Y-17393611D01*
X7746031Y-17407897D01*
X7760317Y-17436468D01*
X7760317Y-17507897D01*
X7746031Y-17536468D01*
X7731745Y-17550754D01*
X7703174Y-17565039D01*
X7617460Y-17565039D01*
X7588888Y-17550754D01*
X7574603Y-17536468D01*
X7903174Y-17565039D02*
X7960317Y-17565039D01*
X7988888Y-17550754D01*
X8003174Y-17536468D01*
X8031745Y-17493611D01*
X8046031Y-17436468D01*
X8046031Y-17322182D01*
X8031745Y-17293611D01*
X8017460Y-17279325D01*
X7988888Y-17265039D01*
X7931745Y-17265039D01*
X7903174Y-17279325D01*
X7888888Y-17293611D01*
X7874603Y-17322182D01*
X7874603Y-17393611D01*
X7888888Y-17422182D01*
X7903174Y-17436468D01*
X7931745Y-17450754D01*
X7988888Y-17450754D01*
X8017460Y-17436468D01*
X8031745Y-17422182D01*
X8046031Y-17393611D01*
X8303174Y-17365039D02*
X8303174Y-17565039D01*
X8231745Y-17250754D02*
X8160317Y-17465039D01*
X8346031Y-17465039D01*
X8446031Y-17265039D02*
X8446031Y-17322182D01*
X8560317Y-17265039D02*
X8560317Y-17322182D01*
X9003174Y-17679325D02*
X8988888Y-17665039D01*
X8960317Y-17622182D01*
X8946031Y-17593611D01*
X8931745Y-17550754D01*
X8917460Y-17479325D01*
X8917460Y-17422182D01*
X8931745Y-17350754D01*
X8946031Y-17307897D01*
X8960317Y-17279325D01*
X8988888Y-17236468D01*
X9003174Y-17222182D01*
X9260317Y-17265039D02*
X9117460Y-17265039D01*
X9103174Y-17407897D01*
X9117460Y-17393611D01*
X9146031Y-17379325D01*
X9217460Y-17379325D01*
X9246031Y-17393611D01*
X9260317Y-17407897D01*
X9274603Y-17436468D01*
X9274603Y-17507897D01*
X9260317Y-17536468D01*
X9246031Y-17550754D01*
X9217460Y-17565039D01*
X9146031Y-17565039D01*
X9117460Y-17550754D01*
X9103174Y-17536468D01*
X9546031Y-17265039D02*
X9403174Y-17265039D01*
X9388888Y-17407897D01*
X9403174Y-17393611D01*
X9431745Y-17379325D01*
X9503174Y-17379325D01*
X9531745Y-17393611D01*
X9546031Y-17407897D01*
X9560317Y-17436468D01*
X9560317Y-17507897D01*
X9546031Y-17536468D01*
X9531745Y-17550754D01*
X9503174Y-17565039D01*
X9431745Y-17565039D01*
X9403174Y-17550754D01*
X9388888Y-17536468D01*
X9917460Y-17565039D02*
X9917460Y-17265039D01*
X10046031Y-17565039D02*
X10046031Y-17407897D01*
X10031745Y-17379325D01*
X10003174Y-17365039D01*
X9960317Y-17365039D01*
X9931745Y-17379325D01*
X9917460Y-17393611D01*
X10231745Y-17565039D02*
X10203174Y-17550754D01*
X10188888Y-17536468D01*
X10174603Y-17507897D01*
X10174603Y-17422182D01*
X10188888Y-17393611D01*
X10203174Y-17379325D01*
X10231745Y-17365039D01*
X10274603Y-17365039D01*
X10303174Y-17379325D01*
X10317460Y-17393611D01*
X10331745Y-17422182D01*
X10331745Y-17507897D01*
X10317460Y-17536468D01*
X10303174Y-17550754D01*
X10274603Y-17565039D01*
X10231745Y-17565039D01*
X10503174Y-17565039D02*
X10474603Y-17550754D01*
X10460317Y-17522182D01*
X10460317Y-17265039D01*
X10731745Y-17550754D02*
X10703174Y-17565039D01*
X10646031Y-17565039D01*
X10617460Y-17550754D01*
X10603174Y-17522182D01*
X10603174Y-17407897D01*
X10617460Y-17379325D01*
X10646031Y-17365039D01*
X10703174Y-17365039D01*
X10731745Y-17379325D01*
X10746031Y-17407897D01*
X10746031Y-17436468D01*
X10603174Y-17465039D01*
X10860317Y-17550754D02*
X10888888Y-17565039D01*
X10946031Y-17565039D01*
X10974603Y-17550754D01*
X10988888Y-17522182D01*
X10988888Y-17507897D01*
X10974603Y-17479325D01*
X10946031Y-17465039D01*
X10903174Y-17465039D01*
X10874603Y-17450754D01*
X10860317Y-17422182D01*
X10860317Y-17407897D01*
X10874603Y-17379325D01*
X10903174Y-17365039D01*
X10946031Y-17365039D01*
X10974603Y-17379325D01*
X11088888Y-17679325D02*
X11103174Y-17665039D01*
X11131745Y-17622182D01*
X11146031Y-17593611D01*
X11160317Y-17550754D01*
X11174603Y-17479325D01*
X11174603Y-17422182D01*
X11160317Y-17350754D01*
X11146031Y-17307897D01*
X11131745Y-17279325D01*
X11103174Y-17236468D01*
X11088888Y-17222182D01*
X3635317Y-17770325D02*
X3745317Y-17880325D01*
X3745317Y-17770325D02*
X3635317Y-17880325D01*
X3745317Y-17825325D02*
G75*
G03*
X3745317Y-17825325I-55000J0D01*
G01*
X4188888Y-17961039D02*
X4017460Y-17961039D01*
X4103174Y-17961039D02*
X4103174Y-17661039D01*
X4074603Y-17703897D01*
X4046031Y-17732468D01*
X4017460Y-17746754D01*
X4317460Y-17932468D02*
X4331745Y-17946754D01*
X4317460Y-17961039D01*
X4303174Y-17946754D01*
X4317460Y-17932468D01*
X4317460Y-17961039D01*
X4617460Y-17961039D02*
X4446031Y-17961039D01*
X4531745Y-17961039D02*
X4531745Y-17661039D01*
X4503174Y-17703897D01*
X4474603Y-17732468D01*
X4446031Y-17746754D01*
X4803174Y-17661039D02*
X4831745Y-17661039D01*
X4860317Y-17675325D01*
X4874603Y-17689611D01*
X4888888Y-17718182D01*
X4903174Y-17775325D01*
X4903174Y-17846754D01*
X4888888Y-17903897D01*
X4874603Y-17932468D01*
X4860317Y-17946754D01*
X4831745Y-17961039D01*
X4803174Y-17961039D01*
X4774603Y-17946754D01*
X4760317Y-17932468D01*
X4746031Y-17903897D01*
X4731745Y-17846754D01*
X4731745Y-17775325D01*
X4746031Y-17718182D01*
X4760317Y-17689611D01*
X4774603Y-17675325D01*
X4803174Y-17661039D01*
X5088888Y-17661039D02*
X5117460Y-17661039D01*
X5146031Y-17675325D01*
X5160317Y-17689611D01*
X5174603Y-17718182D01*
X5188888Y-17775325D01*
X5188888Y-17846754D01*
X5174603Y-17903897D01*
X5160317Y-17932468D01*
X5146031Y-17946754D01*
X5117460Y-17961039D01*
X5088888Y-17961039D01*
X5060317Y-17946754D01*
X5046031Y-17932468D01*
X5031745Y-17903897D01*
X5017460Y-17846754D01*
X5017460Y-17775325D01*
X5031745Y-17718182D01*
X5046031Y-17689611D01*
X5060317Y-17675325D01*
X5088888Y-17661039D01*
X5317460Y-17961039D02*
X5317460Y-17761039D01*
X5317460Y-17789611D02*
X5331745Y-17775325D01*
X5360317Y-17761039D01*
X5403174Y-17761039D01*
X5431745Y-17775325D01*
X5446031Y-17803897D01*
X5446031Y-17961039D01*
X5446031Y-17803897D02*
X5460317Y-17775325D01*
X5488888Y-17761039D01*
X5531745Y-17761039D01*
X5560317Y-17775325D01*
X5574603Y-17803897D01*
X5574603Y-17961039D01*
X5717460Y-17961039D02*
X5717460Y-17761039D01*
X5717460Y-17789611D02*
X5731745Y-17775325D01*
X5760317Y-17761039D01*
X5803174Y-17761039D01*
X5831745Y-17775325D01*
X5846031Y-17803897D01*
X5846031Y-17961039D01*
X5846031Y-17803897D02*
X5860317Y-17775325D01*
X5888888Y-17761039D01*
X5931745Y-17761039D01*
X5960317Y-17775325D01*
X5974603Y-17803897D01*
X5974603Y-17961039D01*
X6560317Y-17646754D02*
X6303174Y-18032468D01*
X6946031Y-17661039D02*
X6974603Y-17661039D01*
X7003174Y-17675325D01*
X7017460Y-17689611D01*
X7031745Y-17718182D01*
X7046031Y-17775325D01*
X7046031Y-17846754D01*
X7031745Y-17903897D01*
X7017460Y-17932468D01*
X7003174Y-17946754D01*
X6974603Y-17961039D01*
X6946031Y-17961039D01*
X6917460Y-17946754D01*
X6903174Y-17932468D01*
X6888888Y-17903897D01*
X6874603Y-17846754D01*
X6874603Y-17775325D01*
X6888888Y-17718182D01*
X6903174Y-17689611D01*
X6917460Y-17675325D01*
X6946031Y-17661039D01*
X7174603Y-17932468D02*
X7188888Y-17946754D01*
X7174603Y-17961039D01*
X7160317Y-17946754D01*
X7174603Y-17932468D01*
X7174603Y-17961039D01*
X7374603Y-17661039D02*
X7403174Y-17661039D01*
X7431745Y-17675325D01*
X7446031Y-17689611D01*
X7460317Y-17718182D01*
X7474603Y-17775325D01*
X7474603Y-17846754D01*
X7460317Y-17903897D01*
X7446031Y-17932468D01*
X7431745Y-17946754D01*
X7403174Y-17961039D01*
X7374603Y-17961039D01*
X7346031Y-17946754D01*
X7331745Y-17932468D01*
X7317460Y-17903897D01*
X7303174Y-17846754D01*
X7303174Y-17775325D01*
X7317460Y-17718182D01*
X7331745Y-17689611D01*
X7346031Y-17675325D01*
X7374603Y-17661039D01*
X7731745Y-17761039D02*
X7731745Y-17961039D01*
X7660317Y-17646754D02*
X7588888Y-17861039D01*
X7774603Y-17861039D01*
X7860317Y-17661039D02*
X8046031Y-17661039D01*
X7946031Y-17775325D01*
X7988888Y-17775325D01*
X8017460Y-17789611D01*
X8031745Y-17803897D01*
X8046031Y-17832468D01*
X8046031Y-17903897D01*
X8031745Y-17932468D01*
X8017460Y-17946754D01*
X7988888Y-17961039D01*
X7903174Y-17961039D01*
X7874603Y-17946754D01*
X7860317Y-17932468D01*
X8146031Y-17661039D02*
X8331745Y-17661039D01*
X8231745Y-17775325D01*
X8274603Y-17775325D01*
X8303174Y-17789611D01*
X8317460Y-17803897D01*
X8331745Y-17832468D01*
X8331745Y-17903897D01*
X8317460Y-17932468D01*
X8303174Y-17946754D01*
X8274603Y-17961039D01*
X8188888Y-17961039D01*
X8160317Y-17946754D01*
X8146031Y-17932468D01*
X8446031Y-17661039D02*
X8446031Y-17718182D01*
X8560317Y-17661039D02*
X8560317Y-17718182D01*
X9003174Y-18075325D02*
X8988888Y-18061039D01*
X8960317Y-18018182D01*
X8946031Y-17989611D01*
X8931745Y-17946754D01*
X8917460Y-17875325D01*
X8917460Y-17818182D01*
X8931745Y-17746754D01*
X8946031Y-17703897D01*
X8960317Y-17675325D01*
X8988888Y-17632468D01*
X9003174Y-17618182D01*
X9103174Y-17689611D02*
X9117460Y-17675325D01*
X9146031Y-17661039D01*
X9217460Y-17661039D01*
X9246031Y-17675325D01*
X9260317Y-17689611D01*
X9274603Y-17718182D01*
X9274603Y-17746754D01*
X9260317Y-17789611D01*
X9088888Y-17961039D01*
X9274603Y-17961039D01*
X9531745Y-17761039D02*
X9531745Y-17961039D01*
X9460317Y-17646754D02*
X9388888Y-17861039D01*
X9574603Y-17861039D01*
X9917460Y-17961039D02*
X9917460Y-17661039D01*
X10046031Y-17961039D02*
X10046031Y-17803897D01*
X10031745Y-17775325D01*
X10003174Y-17761039D01*
X9960317Y-17761039D01*
X9931745Y-17775325D01*
X9917460Y-17789611D01*
X10231745Y-17961039D02*
X10203174Y-17946754D01*
X10188888Y-17932468D01*
X10174603Y-17903897D01*
X10174603Y-17818182D01*
X10188888Y-17789611D01*
X10203174Y-17775325D01*
X10231745Y-17761039D01*
X10274603Y-17761039D01*
X10303174Y-17775325D01*
X10317460Y-17789611D01*
X10331745Y-17818182D01*
X10331745Y-17903897D01*
X10317460Y-17932468D01*
X10303174Y-17946754D01*
X10274603Y-17961039D01*
X10231745Y-17961039D01*
X10503174Y-17961039D02*
X10474603Y-17946754D01*
X10460317Y-17918182D01*
X10460317Y-17661039D01*
X10731745Y-17946754D02*
X10703174Y-17961039D01*
X10646031Y-17961039D01*
X10617460Y-17946754D01*
X10603174Y-17918182D01*
X10603174Y-17803897D01*
X10617460Y-17775325D01*
X10646031Y-17761039D01*
X10703174Y-17761039D01*
X10731745Y-17775325D01*
X10746031Y-17803897D01*
X10746031Y-17832468D01*
X10603174Y-17861039D01*
X10860317Y-17946754D02*
X10888888Y-17961039D01*
X10946031Y-17961039D01*
X10974603Y-17946754D01*
X10988888Y-17918182D01*
X10988888Y-17903897D01*
X10974603Y-17875325D01*
X10946031Y-17861039D01*
X10903174Y-17861039D01*
X10874603Y-17846754D01*
X10860317Y-17818182D01*
X10860317Y-17803897D01*
X10874603Y-17775325D01*
X10903174Y-17761039D01*
X10946031Y-17761039D01*
X10974603Y-17775325D01*
X11088888Y-18075325D02*
X11103174Y-18061039D01*
X11131745Y-18018182D01*
X11146031Y-17989611D01*
X11160317Y-17946754D01*
X11174603Y-17875325D01*
X11174603Y-17818182D01*
X11160317Y-17746754D01*
X11146031Y-17703897D01*
X11131745Y-17675325D01*
X11103174Y-17632468D01*
X11088888Y-17618182D01*
X3595317Y-18146325D02*
X3745317Y-18296325D01*
X3745317Y-18146325D02*
X3595317Y-18296325D01*
X3670317Y-18146325D02*
X3670317Y-18296325D01*
X3595317Y-18221325D02*
X3745317Y-18221325D01*
X4188888Y-18357039D02*
X4017460Y-18357039D01*
X4103174Y-18357039D02*
X4103174Y-18057039D01*
X4074603Y-18099897D01*
X4046031Y-18128468D01*
X4017460Y-18142754D01*
X4317460Y-18328468D02*
X4331745Y-18342754D01*
X4317460Y-18357039D01*
X4303174Y-18342754D01*
X4317460Y-18328468D01*
X4317460Y-18357039D01*
X4603174Y-18057039D02*
X4460317Y-18057039D01*
X4446031Y-18199897D01*
X4460317Y-18185611D01*
X4488888Y-18171325D01*
X4560317Y-18171325D01*
X4588888Y-18185611D01*
X4603174Y-18199897D01*
X4617460Y-18228468D01*
X4617460Y-18299897D01*
X4603174Y-18328468D01*
X4588888Y-18342754D01*
X4560317Y-18357039D01*
X4488888Y-18357039D01*
X4460317Y-18342754D01*
X4446031Y-18328468D01*
X4803174Y-18057039D02*
X4831745Y-18057039D01*
X4860317Y-18071325D01*
X4874603Y-18085611D01*
X4888888Y-18114182D01*
X4903174Y-18171325D01*
X4903174Y-18242754D01*
X4888888Y-18299897D01*
X4874603Y-18328468D01*
X4860317Y-18342754D01*
X4831745Y-18357039D01*
X4803174Y-18357039D01*
X4774603Y-18342754D01*
X4760317Y-18328468D01*
X4746031Y-18299897D01*
X4731745Y-18242754D01*
X4731745Y-18171325D01*
X4746031Y-18114182D01*
X4760317Y-18085611D01*
X4774603Y-18071325D01*
X4803174Y-18057039D01*
X5088888Y-18057039D02*
X5117460Y-18057039D01*
X5146031Y-18071325D01*
X5160317Y-18085611D01*
X5174603Y-18114182D01*
X5188888Y-18171325D01*
X5188888Y-18242754D01*
X5174603Y-18299897D01*
X5160317Y-18328468D01*
X5146031Y-18342754D01*
X5117460Y-18357039D01*
X5088888Y-18357039D01*
X5060317Y-18342754D01*
X5046031Y-18328468D01*
X5031745Y-18299897D01*
X5017460Y-18242754D01*
X5017460Y-18171325D01*
X5031745Y-18114182D01*
X5046031Y-18085611D01*
X5060317Y-18071325D01*
X5088888Y-18057039D01*
X5317460Y-18357039D02*
X5317460Y-18157039D01*
X5317460Y-18185611D02*
X5331745Y-18171325D01*
X5360317Y-18157039D01*
X5403174Y-18157039D01*
X5431745Y-18171325D01*
X5446031Y-18199897D01*
X5446031Y-18357039D01*
X5446031Y-18199897D02*
X5460317Y-18171325D01*
X5488888Y-18157039D01*
X5531745Y-18157039D01*
X5560317Y-18171325D01*
X5574603Y-18199897D01*
X5574603Y-18357039D01*
X5717460Y-18357039D02*
X5717460Y-18157039D01*
X5717460Y-18185611D02*
X5731745Y-18171325D01*
X5760317Y-18157039D01*
X5803174Y-18157039D01*
X5831745Y-18171325D01*
X5846031Y-18199897D01*
X5846031Y-18357039D01*
X5846031Y-18199897D02*
X5860317Y-18171325D01*
X5888888Y-18157039D01*
X5931745Y-18157039D01*
X5960317Y-18171325D01*
X5974603Y-18199897D01*
X5974603Y-18357039D01*
X6560317Y-18042754D02*
X6303174Y-18428468D01*
X6946031Y-18057039D02*
X6974603Y-18057039D01*
X7003174Y-18071325D01*
X7017460Y-18085611D01*
X7031745Y-18114182D01*
X7046031Y-18171325D01*
X7046031Y-18242754D01*
X7031745Y-18299897D01*
X7017460Y-18328468D01*
X7003174Y-18342754D01*
X6974603Y-18357039D01*
X6946031Y-18357039D01*
X6917460Y-18342754D01*
X6903174Y-18328468D01*
X6888888Y-18299897D01*
X6874603Y-18242754D01*
X6874603Y-18171325D01*
X6888888Y-18114182D01*
X6903174Y-18085611D01*
X6917460Y-18071325D01*
X6946031Y-18057039D01*
X7174603Y-18328468D02*
X7188888Y-18342754D01*
X7174603Y-18357039D01*
X7160317Y-18342754D01*
X7174603Y-18328468D01*
X7174603Y-18357039D01*
X7374603Y-18057039D02*
X7403174Y-18057039D01*
X7431745Y-18071325D01*
X7446031Y-18085611D01*
X7460317Y-18114182D01*
X7474603Y-18171325D01*
X7474603Y-18242754D01*
X7460317Y-18299897D01*
X7446031Y-18328468D01*
X7431745Y-18342754D01*
X7403174Y-18357039D01*
X7374603Y-18357039D01*
X7346031Y-18342754D01*
X7331745Y-18328468D01*
X7317460Y-18299897D01*
X7303174Y-18242754D01*
X7303174Y-18171325D01*
X7317460Y-18114182D01*
X7331745Y-18085611D01*
X7346031Y-18071325D01*
X7374603Y-18057039D01*
X7746031Y-18057039D02*
X7603174Y-18057039D01*
X7588888Y-18199897D01*
X7603174Y-18185611D01*
X7631745Y-18171325D01*
X7703174Y-18171325D01*
X7731745Y-18185611D01*
X7746031Y-18199897D01*
X7760317Y-18228468D01*
X7760317Y-18299897D01*
X7746031Y-18328468D01*
X7731745Y-18342754D01*
X7703174Y-18357039D01*
X7631745Y-18357039D01*
X7603174Y-18342754D01*
X7588888Y-18328468D01*
X7903174Y-18357039D02*
X7960317Y-18357039D01*
X7988888Y-18342754D01*
X8003174Y-18328468D01*
X8031745Y-18285611D01*
X8046031Y-18228468D01*
X8046031Y-18114182D01*
X8031745Y-18085611D01*
X8017460Y-18071325D01*
X7988888Y-18057039D01*
X7931745Y-18057039D01*
X7903174Y-18071325D01*
X7888888Y-18085611D01*
X7874603Y-18114182D01*
X7874603Y-18185611D01*
X7888888Y-18214182D01*
X7903174Y-18228468D01*
X7931745Y-18242754D01*
X7988888Y-18242754D01*
X8017460Y-18228468D01*
X8031745Y-18214182D01*
X8046031Y-18185611D01*
X8331745Y-18357039D02*
X8160317Y-18357039D01*
X8246031Y-18357039D02*
X8246031Y-18057039D01*
X8217460Y-18099897D01*
X8188888Y-18128468D01*
X8160317Y-18142754D01*
X8446031Y-18057039D02*
X8446031Y-18114182D01*
X8560317Y-18057039D02*
X8560317Y-18114182D01*
X9003174Y-18471325D02*
X8988888Y-18457039D01*
X8960317Y-18414182D01*
X8946031Y-18385611D01*
X8931745Y-18342754D01*
X8917460Y-18271325D01*
X8917460Y-18214182D01*
X8931745Y-18142754D01*
X8946031Y-18099897D01*
X8960317Y-18071325D01*
X8988888Y-18028468D01*
X9003174Y-18014182D01*
X9274603Y-18357039D02*
X9103174Y-18357039D01*
X9188888Y-18357039D02*
X9188888Y-18057039D01*
X9160317Y-18099897D01*
X9131745Y-18128468D01*
X9103174Y-18142754D01*
X9631745Y-18357039D02*
X9631745Y-18057039D01*
X9760317Y-18357039D02*
X9760317Y-18199897D01*
X9746031Y-18171325D01*
X9717460Y-18157039D01*
X9674603Y-18157039D01*
X9646031Y-18171325D01*
X9631745Y-18185611D01*
X9946031Y-18357039D02*
X9917460Y-18342754D01*
X9903174Y-18328468D01*
X9888888Y-18299897D01*
X9888888Y-18214182D01*
X9903174Y-18185611D01*
X9917460Y-18171325D01*
X9946031Y-18157039D01*
X9988888Y-18157039D01*
X10017460Y-18171325D01*
X10031745Y-18185611D01*
X10046031Y-18214182D01*
X10046031Y-18299897D01*
X10031745Y-18328468D01*
X10017460Y-18342754D01*
X9988888Y-18357039D01*
X9946031Y-18357039D01*
X10217460Y-18357039D02*
X10188888Y-18342754D01*
X10174603Y-18314182D01*
X10174603Y-18057039D01*
X10446031Y-18342754D02*
X10417460Y-18357039D01*
X10360317Y-18357039D01*
X10331745Y-18342754D01*
X10317460Y-18314182D01*
X10317460Y-18199897D01*
X10331745Y-18171325D01*
X10360317Y-18157039D01*
X10417460Y-18157039D01*
X10446031Y-18171325D01*
X10460317Y-18199897D01*
X10460317Y-18228468D01*
X10317460Y-18257039D01*
X10560317Y-18471325D02*
X10574603Y-18457039D01*
X10603174Y-18414182D01*
X10617460Y-18385611D01*
X10631745Y-18342754D01*
X10646031Y-18271325D01*
X10646031Y-18214182D01*
X10631745Y-18142754D01*
X10617460Y-18099897D01*
X10603174Y-18071325D01*
X10574603Y-18028468D01*
X10560317Y-18014182D01*
X3425317Y-18457325D02*
X3745317Y-18777325D01*
X3745317Y-18457325D02*
X3425317Y-18777325D01*
X3698455Y-18730463D02*
X3698455Y-18504187D01*
X3472179Y-18504187D01*
X3472179Y-18730463D01*
X3698455Y-18730463D01*
X4003174Y-18453039D02*
X4188888Y-18453039D01*
X4088888Y-18567325D01*
X4131745Y-18567325D01*
X4160317Y-18581611D01*
X4174603Y-18595897D01*
X4188888Y-18624468D01*
X4188888Y-18695897D01*
X4174603Y-18724468D01*
X4160317Y-18738754D01*
X4131745Y-18753039D01*
X4046031Y-18753039D01*
X4017460Y-18738754D01*
X4003174Y-18724468D01*
X4317460Y-18724468D02*
X4331745Y-18738754D01*
X4317460Y-18753039D01*
X4303174Y-18738754D01*
X4317460Y-18724468D01*
X4317460Y-18753039D01*
X4446031Y-18481611D02*
X4460317Y-18467325D01*
X4488888Y-18453039D01*
X4560317Y-18453039D01*
X4588888Y-18467325D01*
X4603174Y-18481611D01*
X4617460Y-18510182D01*
X4617460Y-18538754D01*
X4603174Y-18581611D01*
X4431745Y-18753039D01*
X4617460Y-18753039D01*
X4803174Y-18453039D02*
X4831745Y-18453039D01*
X4860317Y-18467325D01*
X4874603Y-18481611D01*
X4888888Y-18510182D01*
X4903174Y-18567325D01*
X4903174Y-18638754D01*
X4888888Y-18695897D01*
X4874603Y-18724468D01*
X4860317Y-18738754D01*
X4831745Y-18753039D01*
X4803174Y-18753039D01*
X4774603Y-18738754D01*
X4760317Y-18724468D01*
X4746031Y-18695897D01*
X4731745Y-18638754D01*
X4731745Y-18567325D01*
X4746031Y-18510182D01*
X4760317Y-18481611D01*
X4774603Y-18467325D01*
X4803174Y-18453039D01*
X5088888Y-18453039D02*
X5117460Y-18453039D01*
X5146031Y-18467325D01*
X5160317Y-18481611D01*
X5174603Y-18510182D01*
X5188888Y-18567325D01*
X5188888Y-18638754D01*
X5174603Y-18695897D01*
X5160317Y-18724468D01*
X5146031Y-18738754D01*
X5117460Y-18753039D01*
X5088888Y-18753039D01*
X5060317Y-18738754D01*
X5046031Y-18724468D01*
X5031745Y-18695897D01*
X5017460Y-18638754D01*
X5017460Y-18567325D01*
X5031745Y-18510182D01*
X5046031Y-18481611D01*
X5060317Y-18467325D01*
X5088888Y-18453039D01*
X5317460Y-18753039D02*
X5317460Y-18553039D01*
X5317460Y-18581611D02*
X5331745Y-18567325D01*
X5360317Y-18553039D01*
X5403174Y-18553039D01*
X5431745Y-18567325D01*
X5446031Y-18595897D01*
X5446031Y-18753039D01*
X5446031Y-18595897D02*
X5460317Y-18567325D01*
X5488888Y-18553039D01*
X5531745Y-18553039D01*
X5560317Y-18567325D01*
X5574603Y-18595897D01*
X5574603Y-18753039D01*
X5717460Y-18753039D02*
X5717460Y-18553039D01*
X5717460Y-18581611D02*
X5731745Y-18567325D01*
X5760317Y-18553039D01*
X5803174Y-18553039D01*
X5831745Y-18567325D01*
X5846031Y-18595897D01*
X5846031Y-18753039D01*
X5846031Y-18595897D02*
X5860317Y-18567325D01*
X5888888Y-18553039D01*
X5931745Y-18553039D01*
X5960317Y-18567325D01*
X5974603Y-18595897D01*
X5974603Y-18753039D01*
X6560317Y-18438754D02*
X6303174Y-18824468D01*
X6946031Y-18453039D02*
X6974603Y-18453039D01*
X7003174Y-18467325D01*
X7017460Y-18481611D01*
X7031745Y-18510182D01*
X7046031Y-18567325D01*
X7046031Y-18638754D01*
X7031745Y-18695897D01*
X7017460Y-18724468D01*
X7003174Y-18738754D01*
X6974603Y-18753039D01*
X6946031Y-18753039D01*
X6917460Y-18738754D01*
X6903174Y-18724468D01*
X6888888Y-18695897D01*
X6874603Y-18638754D01*
X6874603Y-18567325D01*
X6888888Y-18510182D01*
X6903174Y-18481611D01*
X6917460Y-18467325D01*
X6946031Y-18453039D01*
X7174603Y-18724468D02*
X7188888Y-18738754D01*
X7174603Y-18753039D01*
X7160317Y-18738754D01*
X7174603Y-18724468D01*
X7174603Y-18753039D01*
X7474603Y-18753039D02*
X7303174Y-18753039D01*
X7388888Y-18753039D02*
X7388888Y-18453039D01*
X7360317Y-18495897D01*
X7331745Y-18524468D01*
X7303174Y-18538754D01*
X7588888Y-18481611D02*
X7603174Y-18467325D01*
X7631745Y-18453039D01*
X7703174Y-18453039D01*
X7731745Y-18467325D01*
X7746031Y-18481611D01*
X7760317Y-18510182D01*
X7760317Y-18538754D01*
X7746031Y-18581611D01*
X7574603Y-18753039D01*
X7760317Y-18753039D01*
X8017460Y-18453039D02*
X7960317Y-18453039D01*
X7931745Y-18467325D01*
X7917460Y-18481611D01*
X7888888Y-18524468D01*
X7874603Y-18581611D01*
X7874603Y-18695897D01*
X7888888Y-18724468D01*
X7903174Y-18738754D01*
X7931745Y-18753039D01*
X7988888Y-18753039D01*
X8017460Y-18738754D01*
X8031745Y-18724468D01*
X8046031Y-18695897D01*
X8046031Y-18624468D01*
X8031745Y-18595897D01*
X8017460Y-18581611D01*
X7988888Y-18567325D01*
X7931745Y-18567325D01*
X7903174Y-18581611D01*
X7888888Y-18595897D01*
X7874603Y-18624468D01*
X8231745Y-18453039D02*
X8260317Y-18453039D01*
X8288888Y-18467325D01*
X8303174Y-18481611D01*
X8317460Y-18510182D01*
X8331745Y-18567325D01*
X8331745Y-18638754D01*
X8317460Y-18695897D01*
X8303174Y-18724468D01*
X8288888Y-18738754D01*
X8260317Y-18753039D01*
X8231745Y-18753039D01*
X8203174Y-18738754D01*
X8188888Y-18724468D01*
X8174603Y-18695897D01*
X8160317Y-18638754D01*
X8160317Y-18567325D01*
X8174603Y-18510182D01*
X8188888Y-18481611D01*
X8203174Y-18467325D01*
X8231745Y-18453039D01*
X8446031Y-18453039D02*
X8446031Y-18510182D01*
X8560317Y-18453039D02*
X8560317Y-18510182D01*
X9003174Y-18867325D02*
X8988888Y-18853039D01*
X8960317Y-18810182D01*
X8946031Y-18781611D01*
X8931745Y-18738754D01*
X8917460Y-18667325D01*
X8917460Y-18610182D01*
X8931745Y-18538754D01*
X8946031Y-18495897D01*
X8960317Y-18467325D01*
X8988888Y-18424468D01*
X9003174Y-18410182D01*
X9274603Y-18753039D02*
X9103174Y-18753039D01*
X9188888Y-18753039D02*
X9188888Y-18453039D01*
X9160317Y-18495897D01*
X9131745Y-18524468D01*
X9103174Y-18538754D01*
X9631745Y-18753039D02*
X9631745Y-18453039D01*
X9760317Y-18753039D02*
X9760317Y-18595897D01*
X9746031Y-18567325D01*
X9717460Y-18553039D01*
X9674603Y-18553039D01*
X9646031Y-18567325D01*
X9631745Y-18581611D01*
X9946031Y-18753039D02*
X9917460Y-18738754D01*
X9903174Y-18724468D01*
X9888888Y-18695897D01*
X9888888Y-18610182D01*
X9903174Y-18581611D01*
X9917460Y-18567325D01*
X9946031Y-18553039D01*
X9988888Y-18553039D01*
X10017460Y-18567325D01*
X10031745Y-18581611D01*
X10046031Y-18610182D01*
X10046031Y-18695897D01*
X10031745Y-18724468D01*
X10017460Y-18738754D01*
X9988888Y-18753039D01*
X9946031Y-18753039D01*
X10217460Y-18753039D02*
X10188888Y-18738754D01*
X10174603Y-18710182D01*
X10174603Y-18453039D01*
X10446031Y-18738754D02*
X10417460Y-18753039D01*
X10360317Y-18753039D01*
X10331745Y-18738754D01*
X10317460Y-18710182D01*
X10317460Y-18595897D01*
X10331745Y-18567325D01*
X10360317Y-18553039D01*
X10417460Y-18553039D01*
X10446031Y-18567325D01*
X10460317Y-18595897D01*
X10460317Y-18624468D01*
X10317460Y-18653039D01*
X10560317Y-18867325D02*
X10574603Y-18853039D01*
X10603174Y-18810182D01*
X10617460Y-18781611D01*
X10631745Y-18738754D01*
X10646031Y-18667325D01*
X10646031Y-18610182D01*
X10631745Y-18538754D01*
X10617460Y-18495897D01*
X10603174Y-18467325D01*
X10574603Y-18424468D01*
X10560317Y-18410182D01*
M02*
