G04 Layer: BottomLayer*
G04 EasyEDA v6.4.25, 2021-10-13T21:01:18+02:00*
G04 d0ff4fc4c9904c088b94a7576bbea1e5,6cd4ab53e48b4e7bb7bf80376082a040,10*
G04 Gerber Generator version 0.2*
G04 Scale: 100 percent, Rotated: No, Reflected: No *
G04 Dimensions in millimeters *
G04 leading zeros omitted , absolute positions ,4 integer and 5 decimal *
%FSLAX45Y45*%
%MOMM*%

%ADD10C,0.2540*%
%ADD11C,1.2500*%
%ADD12C,1.5240*%

%LPD*%
G36*
X49987Y626821D02*
G01*
X49987Y-623214D01*
X775004Y-623214D01*
X775004Y626821D01*
G37*
G36*
X20950021Y-5523230D02*
G01*
X20950021Y-6773214D01*
X21674988Y-6773214D01*
X21674988Y-5523230D01*
G37*
G36*
X19050000Y-5523230D02*
G01*
X19050000Y-6773214D01*
X19775017Y-6773214D01*
X19775017Y-5523230D01*
G37*
G36*
X17149978Y-5523230D02*
G01*
X17149978Y-6773214D01*
X17874996Y-6773214D01*
X17874996Y-5523230D01*
G37*
G36*
X15250007Y-5523230D02*
G01*
X15250007Y-6773214D01*
X15974974Y-6773214D01*
X15974974Y-5523230D01*
G37*
G36*
X13349986Y-5523230D02*
G01*
X13349986Y-6773214D01*
X14075003Y-6773214D01*
X14075003Y-5523230D01*
G37*
G36*
X11450015Y-5523230D02*
G01*
X11450015Y-6773214D01*
X12174982Y-6773214D01*
X12174982Y-5523230D01*
G37*
G36*
X9549993Y-5523230D02*
G01*
X9549993Y-6773214D01*
X10275011Y-6773214D01*
X10275011Y-5523230D01*
G37*
G36*
X7650022Y-5523230D02*
G01*
X7650022Y-6773214D01*
X8374989Y-6773214D01*
X8374989Y-5523230D01*
G37*
G36*
X5750001Y-5523230D02*
G01*
X5750001Y-6773214D01*
X6475018Y-6773214D01*
X6475018Y-5523230D01*
G37*
G36*
X3849979Y-5523230D02*
G01*
X3849979Y-6773214D01*
X4574997Y-6773214D01*
X4574997Y-5523230D01*
G37*
G36*
X1950008Y-5523230D02*
G01*
X1950008Y-6773214D01*
X2674975Y-6773214D01*
X2674975Y-5523230D01*
G37*
G36*
X49987Y-5523230D02*
G01*
X49987Y-6773214D01*
X775004Y-6773214D01*
X775004Y-5523230D01*
G37*
G36*
X20950021Y-3473196D02*
G01*
X20950021Y-4723180D01*
X21674988Y-4723180D01*
X21674988Y-3473196D01*
G37*
G36*
X19050000Y-3473196D02*
G01*
X19050000Y-4723180D01*
X19775017Y-4723180D01*
X19775017Y-3473196D01*
G37*
G36*
X17149978Y-3473196D02*
G01*
X17149978Y-4723180D01*
X17874996Y-4723180D01*
X17874996Y-3473196D01*
G37*
G36*
X15250007Y-3473196D02*
G01*
X15250007Y-4723180D01*
X15974974Y-4723180D01*
X15974974Y-3473196D01*
G37*
G36*
X13349986Y-3473196D02*
G01*
X13349986Y-4723180D01*
X14075003Y-4723180D01*
X14075003Y-3473196D01*
G37*
G36*
X11450015Y-3473196D02*
G01*
X11450015Y-4723180D01*
X12174982Y-4723180D01*
X12174982Y-3473196D01*
G37*
G36*
X9549993Y-3473196D02*
G01*
X9549993Y-4723180D01*
X10275011Y-4723180D01*
X10275011Y-3473196D01*
G37*
G36*
X7650022Y-3473196D02*
G01*
X7650022Y-4723180D01*
X8374989Y-4723180D01*
X8374989Y-3473196D01*
G37*
G36*
X5750001Y-3473196D02*
G01*
X5750001Y-4723180D01*
X6475018Y-4723180D01*
X6475018Y-3473196D01*
G37*
G36*
X3849979Y-3473196D02*
G01*
X3849979Y-4723180D01*
X4574997Y-4723180D01*
X4574997Y-3473196D01*
G37*
G36*
X1950008Y-3473196D02*
G01*
X1950008Y-4723180D01*
X2674975Y-4723180D01*
X2674975Y-3473196D01*
G37*
G36*
X49987Y-3473196D02*
G01*
X49987Y-4723180D01*
X775004Y-4723180D01*
X775004Y-3473196D01*
G37*
G36*
X20950021Y-1423212D02*
G01*
X20950021Y-2673197D01*
X21674988Y-2673197D01*
X21674988Y-1423212D01*
G37*
G36*
X19050000Y-1423212D02*
G01*
X19050000Y-2673197D01*
X19775017Y-2673197D01*
X19775017Y-1423212D01*
G37*
G36*
X17149978Y-1423212D02*
G01*
X17149978Y-2673197D01*
X17874996Y-2673197D01*
X17874996Y-1423212D01*
G37*
G36*
X15250007Y-1423212D02*
G01*
X15250007Y-2673197D01*
X15974974Y-2673197D01*
X15974974Y-1423212D01*
G37*
G36*
X13349986Y-1423212D02*
G01*
X13349986Y-2673197D01*
X14075003Y-2673197D01*
X14075003Y-1423212D01*
G37*
G36*
X11450015Y-1423212D02*
G01*
X11450015Y-2673197D01*
X12174982Y-2673197D01*
X12174982Y-1423212D01*
G37*
G36*
X9549993Y-1423212D02*
G01*
X9549993Y-2673197D01*
X10275011Y-2673197D01*
X10275011Y-1423212D01*
G37*
G36*
X7650022Y-1423212D02*
G01*
X7650022Y-2673197D01*
X8374989Y-2673197D01*
X8374989Y-1423212D01*
G37*
G36*
X5750001Y-1423212D02*
G01*
X5750001Y-2673197D01*
X6475018Y-2673197D01*
X6475018Y-1423212D01*
G37*
G36*
X3849979Y-1423212D02*
G01*
X3849979Y-2673197D01*
X4574997Y-2673197D01*
X4574997Y-1423212D01*
G37*
G36*
X1950008Y-1423212D02*
G01*
X1950008Y-2673197D01*
X2674975Y-2673197D01*
X2674975Y-1423212D01*
G37*
G36*
X49987Y-1423212D02*
G01*
X49987Y-2673197D01*
X775004Y-2673197D01*
X775004Y-1423212D01*
G37*
G36*
X20950021Y626821D02*
G01*
X20950021Y-623214D01*
X21674988Y-623214D01*
X21674988Y626821D01*
G37*
G36*
X19050000Y626821D02*
G01*
X19050000Y-623214D01*
X19775017Y-623214D01*
X19775017Y626821D01*
G37*
G36*
X17149978Y626821D02*
G01*
X17149978Y-623214D01*
X17874945Y-623214D01*
X17874945Y626821D01*
G37*
G36*
X15250007Y626821D02*
G01*
X15250007Y-623214D01*
X15974974Y-623214D01*
X15974974Y626821D01*
G37*
G36*
X13349986Y626821D02*
G01*
X13349986Y-623214D01*
X14075003Y-623214D01*
X14075003Y626821D01*
G37*
G36*
X11450015Y626821D02*
G01*
X11450015Y-623214D01*
X12174982Y-623214D01*
X12174982Y626821D01*
G37*
G36*
X9549993Y626821D02*
G01*
X9549993Y-623214D01*
X10275011Y-623214D01*
X10275011Y626821D01*
G37*
G36*
X7650022Y626821D02*
G01*
X7650022Y-623214D01*
X8374989Y-623214D01*
X8374989Y626821D01*
G37*
G36*
X5750001Y626821D02*
G01*
X5750001Y-623214D01*
X6475018Y-623214D01*
X6475018Y626821D01*
G37*
G36*
X3849979Y626821D02*
G01*
X3849979Y-623214D01*
X4574997Y-623214D01*
X4574997Y626821D01*
G37*
G36*
X1950008Y626821D02*
G01*
X1950008Y-623214D01*
X2674975Y-623214D01*
X2674975Y626821D01*
G37*
D11*
X-212496Y-6887484D02*
G01*
X21637500Y-6887484D01*
D10*
X412498Y-575000D02*
G01*
X412498Y-1487497D01*
X412498Y-2637495D02*
G01*
X412498Y-3512492D01*
X412498Y-4687491D02*
G01*
X412498Y-5562488D01*
X2312494Y-575000D02*
G01*
X2312494Y-1474998D01*
X2312494Y-2637495D02*
G01*
X2312494Y-3524994D01*
X2312494Y-4674989D02*
G01*
X2312494Y-5587489D01*
X4212490Y-575000D02*
G01*
X4212490Y-1474998D01*
X4212490Y-2624996D02*
G01*
X4212490Y-3524994D01*
X4212490Y-4687491D02*
G01*
X4212490Y-5562488D01*
X6112487Y-575000D02*
G01*
X6112487Y-1474998D01*
X6112487Y-2637495D02*
G01*
X6112487Y-3537493D01*
X6112487Y-4687491D02*
G01*
X6112487Y-5587489D01*
X8012483Y-575000D02*
G01*
X8012483Y-1487497D01*
X8012483Y-2612494D02*
G01*
X8012483Y-3524994D01*
X8012483Y-4674989D02*
G01*
X8012483Y-5574987D01*
X9912479Y-587499D02*
G01*
X9912479Y-1474998D01*
X9912479Y-2624996D02*
G01*
X9912479Y-3524994D01*
X9912479Y-4674989D02*
G01*
X9912479Y-5574987D01*
X11812475Y-562498D02*
G01*
X11812475Y-1474998D01*
X11812475Y-2624996D02*
G01*
X11812475Y-3524994D01*
X11812475Y-4674989D02*
G01*
X11812475Y-5562488D01*
X13712471Y-549998D02*
G01*
X13712471Y-1487497D01*
X13712471Y-2624996D02*
G01*
X13712471Y-3512492D01*
X13712471Y-4674989D02*
G01*
X13712471Y-5562488D01*
X15612468Y-575000D02*
G01*
X15612468Y-1487497D01*
X15612468Y-2624996D02*
G01*
X15612468Y-3537493D01*
X15612468Y-4687491D02*
G01*
X15612468Y-5562488D01*
X17512464Y-575000D02*
G01*
X17512464Y-1462496D01*
X17512464Y-2624996D02*
G01*
X17512464Y-3524994D01*
X17512464Y-4674989D02*
G01*
X17512464Y-5587489D01*
X19412460Y-575000D02*
G01*
X19412460Y-1462496D01*
X19412460Y-2624996D02*
G01*
X19412460Y-3524994D01*
X19412460Y-4687491D02*
G01*
X19412460Y-5562488D01*
X21312456Y-1474998D02*
G01*
X21312456Y-575000D01*
X21312456Y-2624996D02*
G01*
X21312456Y-3524994D01*
X21312456Y-4674989D02*
G01*
X21312456Y-5574987D01*
D11*
X299999Y-735700D02*
G01*
X299999Y-1310703D01*
X524997Y-735700D02*
G01*
X524997Y-1310703D01*
X2199998Y-735700D02*
G01*
X2199998Y-1310703D01*
X2424996Y-737499D02*
G01*
X2424996Y-1310703D01*
X4099999Y-735700D02*
G01*
X4099999Y-1310703D01*
X4324992Y-737499D02*
G01*
X4324997Y-1310703D01*
X5999998Y-735700D02*
G01*
X5999988Y-1312496D01*
X6224996Y-735700D02*
G01*
X6224996Y-1310703D01*
X7899999Y-735700D02*
G01*
X7899999Y-1310703D01*
X8124985Y-737499D02*
G01*
X8124997Y-1310703D01*
X9799998Y-735700D02*
G01*
X9799998Y-1310703D01*
X10024996Y-735700D02*
G01*
X10024996Y-1310703D01*
X11699976Y-737499D02*
G01*
X11699999Y-1310703D01*
X11924977Y-737499D02*
G01*
X11924997Y-1310703D01*
X13599998Y-735700D02*
G01*
X13599998Y-1310703D01*
X13824973Y-737499D02*
G01*
X13824996Y-1310703D01*
X15499999Y-735700D02*
G01*
X15499999Y-1310703D01*
X15724997Y-735700D02*
G01*
X15724997Y-1310703D01*
X17399965Y-737499D02*
G01*
X17399998Y-1310703D01*
X17624963Y-735700D02*
G01*
X17624966Y-1312496D01*
X19299999Y-735700D02*
G01*
X19299999Y-1310703D01*
X19524997Y-735700D02*
G01*
X19524997Y-1310703D01*
X21199998Y-735700D02*
G01*
X21199998Y-1310703D01*
X21424996Y-735700D02*
G01*
X21424996Y-1310703D01*
X299999Y-2787495D02*
G01*
X299999Y-3360701D01*
X524997Y-2785701D02*
G01*
X524997Y-3360701D01*
X299999Y-4837490D02*
G01*
X299999Y-5410702D01*
X524997Y-4835700D02*
G01*
X524997Y-5410702D01*
X2199998Y-2785701D02*
G01*
X2199998Y-3360701D01*
X2424996Y-2787495D02*
G01*
X2424996Y-3360701D01*
X4099999Y-2785701D02*
G01*
X4099999Y-3360701D01*
X4324997Y-2785701D02*
G01*
X4324997Y-3360701D01*
X5999988Y-2787495D02*
G01*
X5999998Y-3360701D01*
X6224996Y-2785701D02*
G01*
X6224996Y-3360701D01*
X2199998Y-4835700D02*
G01*
X2199998Y-5410702D01*
X2424996Y-4835700D02*
G01*
X2424996Y-5410702D01*
X4099999Y-4835700D02*
G01*
X4099999Y-5410702D01*
X4324997Y-4835700D02*
G01*
X4324997Y-5410702D01*
X5999998Y-4835700D02*
G01*
X5999998Y-5410702D01*
X6224996Y-4835700D02*
G01*
X6224996Y-5410702D01*
X7899999Y-2785701D02*
G01*
X7899999Y-3360701D01*
X8124985Y-2787495D02*
G01*
X8124997Y-3360701D01*
X9799998Y-2785701D02*
G01*
X9799998Y-3360701D01*
X10024996Y-2785701D02*
G01*
X10024996Y-3360701D01*
X11699999Y-2785701D02*
G01*
X11699999Y-3360701D01*
X11924977Y-2787495D02*
G01*
X11924997Y-3360701D01*
X13599972Y-2787495D02*
G01*
X13599998Y-3360701D01*
X13824973Y-2787495D02*
G01*
X13824996Y-3360701D01*
X7899999Y-4835700D02*
G01*
X7899999Y-5410702D01*
X8124985Y-4837490D02*
G01*
X8124997Y-5410702D01*
X9799998Y-4835700D02*
G01*
X9799998Y-5410702D01*
X10024996Y-4835700D02*
G01*
X10024996Y-5410702D01*
X11699999Y-4835700D02*
G01*
X11699999Y-5410702D01*
X11924997Y-4835700D02*
G01*
X11924997Y-5410702D01*
X13599972Y-4837490D02*
G01*
X13599998Y-5410702D01*
X13824973Y-4837490D02*
G01*
X13824996Y-5410702D01*
X15499968Y-2787495D02*
G01*
X15499999Y-3360701D01*
X15724969Y-2787495D02*
G01*
X15724997Y-3360701D01*
X17399965Y-2787495D02*
G01*
X17399998Y-3360701D01*
X17624966Y-2787495D02*
G01*
X17624996Y-3360701D01*
X19299999Y-2785701D02*
G01*
X19299999Y-3360701D01*
X19524962Y-2787495D02*
G01*
X19524997Y-3360701D01*
X21199998Y-2785701D02*
G01*
X21199998Y-3360701D01*
X21424996Y-2785701D02*
G01*
X21424996Y-3360701D01*
X15499999Y-4835700D02*
G01*
X15499999Y-5410702D01*
X15724969Y-4837490D02*
G01*
X15724997Y-5410702D01*
X17399998Y-4835700D02*
G01*
X17399998Y-5410702D01*
X17624966Y-4837490D02*
G01*
X17624996Y-5410702D01*
X19299999Y-4835700D02*
G01*
X19299999Y-5410702D01*
X19524962Y-4837490D02*
G01*
X19524997Y-5410702D01*
X21199957Y-4837490D02*
G01*
X21199998Y-5410702D01*
X21424996Y-4835700D02*
G01*
X21424996Y-5410702D01*
X-387604Y1737613D02*
G01*
X-387604Y737615D01*
X-62484Y737615D01*
X-774954Y1737613D02*
G01*
X-774954Y737615D01*
X-387604Y737615D01*
X299999Y1312496D02*
G01*
X299973Y739394D01*
X3549904Y1737613D02*
G01*
X3549992Y1312496D01*
X3162493Y1312496D01*
D10*
X3949954Y1199895D02*
G01*
X412498Y1199997D01*
X412498Y574997D01*
X2312415Y1150112D02*
G01*
X2312415Y562610D01*
X4737608Y1737613D02*
G01*
X4737608Y1100073D01*
X4212590Y1100073D01*
X4212490Y574997D01*
X5124958Y1737613D02*
G01*
X5124958Y1050036D01*
X6112509Y1050036D01*
X6112487Y587499D01*
X8012429Y1100073D02*
G01*
X8012429Y587502D01*
X5913120Y1149857D02*
G01*
X9912479Y1149997D01*
X6312486Y1199997D02*
G01*
X11812524Y1199997D01*
X13712443Y1249934D02*
G01*
X13712443Y575055D01*
X15612363Y1299971D02*
G01*
X15612468Y562498D01*
X7487485Y1349997D02*
G01*
X17512464Y1349997D01*
X7887461Y1400047D02*
G01*
X19412458Y1400047D01*
X19412460Y574997D01*
X21312377Y1450086D02*
G01*
X21312377Y549910D01*
X7887487Y1737497D02*
G01*
X7887461Y1400047D01*
X7487488Y1737497D02*
G01*
X7487411Y1350010D01*
X15612468Y1299997D02*
G01*
X7099985Y1299997D01*
X7099985Y1737497D02*
G01*
X7100061Y1299971D01*
X6700011Y1737613D02*
G01*
X6699986Y1249997D01*
X6312408Y1737613D02*
G01*
X6312486Y1199997D01*
X5912611Y1737613D02*
G01*
X5912487Y1149997D01*
X9912479Y574997D02*
G01*
X9912479Y1149997D01*
X5524982Y1737537D02*
G01*
X5524990Y1099997D01*
D11*
X2424937Y739394D02*
G01*
X2424937Y1037589D01*
X4100068Y1037589D01*
D10*
X4337491Y1149997D02*
G01*
X4337558Y1737613D01*
X3949992Y1199997D02*
G01*
X3949954Y1737613D01*
X11812475Y574997D02*
G01*
X11812524Y1199895D01*
X17512464Y587499D02*
G01*
X17512538Y1350010D01*
D11*
X10249992Y1737497D02*
G01*
X10249915Y1562607D01*
X10637520Y1562607D01*
X10637469Y1737497D02*
G01*
X10637520Y1562607D01*
X21424900Y1562607D01*
X21424900Y740155D01*
X4325111Y739394D02*
G01*
X4325111Y987552D01*
X5012489Y987498D01*
X5012489Y937498D01*
X6225031Y739394D02*
G01*
X6225031Y987552D01*
X8124952Y739394D02*
G01*
X8124952Y1037589D01*
X10025125Y739394D02*
G01*
X10024872Y1087373D01*
X11924997Y739297D02*
G01*
X11925045Y1137412D01*
X13599922Y1137412D01*
X13599972Y737499D01*
X13824966Y739394D02*
G01*
X13824966Y1187450D01*
X15724886Y739394D02*
G01*
X15724886Y1237487D01*
X17624963Y739297D02*
G01*
X17624966Y1287498D01*
X19299936Y1287526D01*
X19299999Y739297D01*
X19524962Y737499D02*
G01*
X19524962Y1337497D01*
X21199856Y1337563D01*
X21199998Y739297D01*
X3162493Y1312496D02*
G01*
X3162554Y1737613D01*
D10*
X8275065Y1450086D02*
G01*
X8275065Y1740915D01*
X8274989Y1737497D01*
D11*
X10249979Y1562496D02*
G01*
X8449983Y1562496D01*
X5012489Y937498D02*
G01*
X5999988Y937498D01*
X5999988Y739307D01*
X5999998Y739297D01*
X6225031Y987552D02*
G01*
X7899930Y987552D01*
X7899984Y987498D01*
X7899984Y739312D01*
X7899999Y739297D01*
X8124952Y1037589D02*
G01*
X9799888Y1037589D01*
X9799980Y1037498D01*
X9799980Y739315D01*
X9799998Y739297D01*
X299999Y1312496D02*
G01*
X3162493Y1312496D01*
X525018Y1087373D02*
G01*
X2199894Y1087373D01*
X2199894Y739394D01*
X10024872Y1087373D02*
G01*
X11699852Y1087373D01*
X11699976Y1087498D01*
X11699976Y739320D01*
X11699999Y739297D01*
X13824966Y1187450D02*
G01*
X15499841Y1187450D01*
X15500095Y739394D01*
X15724886Y1237487D02*
G01*
X17399955Y1237487D01*
X17399965Y1237498D01*
X17399965Y739330D01*
X17399998Y739297D01*
D10*
X2312415Y1150112D02*
G01*
X4337558Y1150112D01*
X5524990Y1099997D02*
G01*
X8012353Y1099997D01*
X8012429Y1100073D01*
X6699986Y1249997D02*
G01*
X13712380Y1249997D01*
X13712443Y1249934D01*
X8275065Y1450086D02*
G01*
X21312377Y1450086D01*
D11*
X4100068Y1037589D02*
G01*
X4100068Y739366D01*
X4099999Y739297D01*
X524997Y739297D02*
G01*
X525018Y1087373D01*
X-99999Y-6887486D02*
G01*
X-899998Y-6889269D01*
X-62499Y-735700D02*
G01*
X-62501Y739297D01*
X-62501Y739297D02*
G01*
X299999Y739297D01*
X887498Y-735700D02*
G01*
X887498Y739297D01*
X524997Y739297D02*
G01*
X887498Y739297D01*
X-62501Y-735700D02*
G01*
X299999Y-735700D01*
X524997Y-735700D02*
G01*
X887498Y-735700D01*
X20837499Y-6885701D02*
G01*
X20837497Y-5410702D01*
X20837497Y-5410702D02*
G01*
X21199998Y-5410702D01*
X21787497Y-6885701D02*
G01*
X21787497Y-5410702D01*
X21424996Y-5410702D02*
G01*
X21787497Y-5410702D01*
X20837497Y-6885701D02*
G01*
X21199998Y-6885701D01*
X21424996Y-6885701D02*
G01*
X21787497Y-6885701D01*
X18937500Y-6885701D02*
G01*
X18937498Y-5410702D01*
X18937498Y-5410702D02*
G01*
X19299999Y-5410702D01*
X19887498Y-6885701D02*
G01*
X19887498Y-5410702D01*
X19524997Y-5410702D02*
G01*
X19887498Y-5410702D01*
X18937498Y-6885701D02*
G01*
X19299999Y-6885701D01*
X19524997Y-6885701D02*
G01*
X19887498Y-6885701D01*
X17037499Y-6885701D02*
G01*
X17037497Y-5410702D01*
X17037497Y-5410702D02*
G01*
X17399998Y-5410702D01*
X17987497Y-6885701D02*
G01*
X17987497Y-5410702D01*
X17624996Y-5410702D02*
G01*
X17987497Y-5410702D01*
X17037497Y-6885701D02*
G01*
X17399998Y-6885701D01*
X17624996Y-6885701D02*
G01*
X17987497Y-6885701D01*
X15137500Y-6885701D02*
G01*
X15137498Y-5410702D01*
X15137498Y-5410702D02*
G01*
X15499999Y-5410702D01*
X16087498Y-6885701D02*
G01*
X16087498Y-5410702D01*
X15724997Y-5410702D02*
G01*
X16087498Y-5410702D01*
X15137498Y-6885701D02*
G01*
X15499999Y-6885701D01*
X15724997Y-6885701D02*
G01*
X16087498Y-6885701D01*
X13237499Y-6885701D02*
G01*
X13237497Y-5410702D01*
X13237497Y-5410702D02*
G01*
X13599998Y-5410702D01*
X14187497Y-6885701D02*
G01*
X14187497Y-5410702D01*
X13824996Y-5410702D02*
G01*
X14187497Y-5410702D01*
X13237497Y-6885701D02*
G01*
X13599998Y-6885701D01*
X13824996Y-6885701D02*
G01*
X14187497Y-6885701D01*
X11337500Y-6885701D02*
G01*
X11337498Y-5410702D01*
X11337498Y-5410702D02*
G01*
X11699999Y-5410702D01*
X12287498Y-6885701D02*
G01*
X12287498Y-5410702D01*
X11924997Y-5410702D02*
G01*
X12287498Y-5410702D01*
X11337498Y-6885701D02*
G01*
X11699999Y-6885701D01*
X11924997Y-6885701D02*
G01*
X12287498Y-6885701D01*
X9437499Y-6885701D02*
G01*
X9437497Y-5410702D01*
X9437497Y-5410702D02*
G01*
X9799998Y-5410702D01*
X10387497Y-6885701D02*
G01*
X10387497Y-5410702D01*
X10024996Y-5410702D02*
G01*
X10387497Y-5410702D01*
X9437497Y-6885701D02*
G01*
X9799998Y-6885701D01*
X10024996Y-6885701D02*
G01*
X10387497Y-6885701D01*
X7537500Y-6885701D02*
G01*
X7537498Y-5410702D01*
X7537498Y-5410702D02*
G01*
X7899999Y-5410702D01*
X8487498Y-6885701D02*
G01*
X8487498Y-5410702D01*
X8124997Y-5410702D02*
G01*
X8487498Y-5410702D01*
X7537498Y-6885701D02*
G01*
X7899999Y-6885701D01*
X8124997Y-6885701D02*
G01*
X8487498Y-6885701D01*
X5637499Y-6885701D02*
G01*
X5637496Y-5410702D01*
X5637496Y-5410702D02*
G01*
X5999998Y-5410702D01*
X6587497Y-6885701D02*
G01*
X6587497Y-5410702D01*
X6224996Y-5410702D02*
G01*
X6587497Y-5410702D01*
X5637496Y-6885701D02*
G01*
X5999998Y-6885701D01*
X6224996Y-6885701D02*
G01*
X6587497Y-6885701D01*
X3737500Y-6885701D02*
G01*
X3737498Y-5410702D01*
X3737498Y-5410702D02*
G01*
X4099999Y-5410702D01*
X4687498Y-6885701D02*
G01*
X4687498Y-5410702D01*
X4324997Y-5410702D02*
G01*
X4687498Y-5410702D01*
X3737498Y-6885701D02*
G01*
X4099999Y-6885701D01*
X4324997Y-6885701D02*
G01*
X4687498Y-6885701D01*
X1837499Y-6885701D02*
G01*
X1837496Y-5410702D01*
X1837496Y-5410702D02*
G01*
X2199998Y-5410702D01*
X2787497Y-6885701D02*
G01*
X2787497Y-5410702D01*
X2424996Y-5410702D02*
G01*
X2787497Y-5410702D01*
X1837496Y-6885701D02*
G01*
X2199998Y-6885701D01*
X2424996Y-6885701D02*
G01*
X2787497Y-6885701D01*
X-62499Y-6885701D02*
G01*
X-62501Y-5410702D01*
X-62501Y-5410702D02*
G01*
X299999Y-5410702D01*
X887498Y-6885701D02*
G01*
X887498Y-5410702D01*
X524997Y-5410702D02*
G01*
X887498Y-5410702D01*
X-62501Y-6885701D02*
G01*
X299999Y-6885701D01*
X524997Y-6885701D02*
G01*
X887498Y-6885701D01*
X20837499Y-4835700D02*
G01*
X20837497Y-3360701D01*
X20837497Y-3360701D02*
G01*
X21199998Y-3360701D01*
X21787497Y-4835700D02*
G01*
X21787497Y-3360701D01*
X21424996Y-3360701D02*
G01*
X21787497Y-3360701D01*
X20837497Y-4835700D02*
G01*
X21199998Y-4835700D01*
X21424996Y-4835700D02*
G01*
X21787497Y-4835700D01*
X18937500Y-4835700D02*
G01*
X18937498Y-3360701D01*
X18937498Y-3360701D02*
G01*
X19299999Y-3360701D01*
X19887498Y-4835700D02*
G01*
X19887498Y-3360701D01*
X19524997Y-3360701D02*
G01*
X19887498Y-3360701D01*
X18937498Y-4835700D02*
G01*
X19299999Y-4835700D01*
X19524997Y-4835700D02*
G01*
X19887498Y-4835700D01*
X17037499Y-4835700D02*
G01*
X17037497Y-3360701D01*
X17037497Y-3360701D02*
G01*
X17399998Y-3360701D01*
X17987497Y-4835700D02*
G01*
X17987497Y-3360701D01*
X17624996Y-3360701D02*
G01*
X17987497Y-3360701D01*
X17037497Y-4835700D02*
G01*
X17399998Y-4835700D01*
X17624996Y-4835700D02*
G01*
X17987497Y-4835700D01*
X15137500Y-4835700D02*
G01*
X15137498Y-3360701D01*
X15137498Y-3360701D02*
G01*
X15499999Y-3360701D01*
X16087498Y-4835700D02*
G01*
X16087498Y-3360701D01*
X15724997Y-3360701D02*
G01*
X16087498Y-3360701D01*
X15137498Y-4835700D02*
G01*
X15499999Y-4835700D01*
X15724997Y-4835700D02*
G01*
X16087498Y-4835700D01*
X13237499Y-4835700D02*
G01*
X13237497Y-3360701D01*
X13237497Y-3360701D02*
G01*
X13599998Y-3360701D01*
X14187497Y-4835700D02*
G01*
X14187497Y-3360701D01*
X13824996Y-3360701D02*
G01*
X14187497Y-3360701D01*
X13237497Y-4835700D02*
G01*
X13599998Y-4835700D01*
X13824996Y-4835700D02*
G01*
X14187497Y-4835700D01*
X11337500Y-4835700D02*
G01*
X11337498Y-3360701D01*
X11337498Y-3360701D02*
G01*
X11699999Y-3360701D01*
X12287498Y-4835700D02*
G01*
X12287498Y-3360701D01*
X11924997Y-3360701D02*
G01*
X12287498Y-3360701D01*
X11337498Y-4835700D02*
G01*
X11699999Y-4835700D01*
X11924997Y-4835700D02*
G01*
X12287498Y-4835700D01*
X9437499Y-4835700D02*
G01*
X9437497Y-3360701D01*
X9437497Y-3360701D02*
G01*
X9799998Y-3360701D01*
X10387497Y-4835700D02*
G01*
X10387497Y-3360701D01*
X10024996Y-3360701D02*
G01*
X10387497Y-3360701D01*
X9437497Y-4835700D02*
G01*
X9799998Y-4835700D01*
X10024996Y-4835700D02*
G01*
X10387497Y-4835700D01*
X7537500Y-4835700D02*
G01*
X7537498Y-3360701D01*
X7537498Y-3360701D02*
G01*
X7899999Y-3360701D01*
X8487498Y-4835700D02*
G01*
X8487498Y-3360701D01*
X8124997Y-3360701D02*
G01*
X8487498Y-3360701D01*
X7537498Y-4835700D02*
G01*
X7899999Y-4835700D01*
X8124997Y-4835700D02*
G01*
X8487498Y-4835700D01*
X5637499Y-4835700D02*
G01*
X5637496Y-3360701D01*
X5637496Y-3360701D02*
G01*
X5999998Y-3360701D01*
X6587497Y-4835700D02*
G01*
X6587497Y-3360701D01*
X6224996Y-3360701D02*
G01*
X6587497Y-3360701D01*
X5637496Y-4835700D02*
G01*
X5999998Y-4835700D01*
X6224996Y-4835700D02*
G01*
X6587497Y-4835700D01*
X3737500Y-4835700D02*
G01*
X3737498Y-3360701D01*
X3737498Y-3360701D02*
G01*
X4099999Y-3360701D01*
X4687498Y-4835700D02*
G01*
X4687498Y-3360701D01*
X4324997Y-3360701D02*
G01*
X4687498Y-3360701D01*
X3737498Y-4835700D02*
G01*
X4099999Y-4835700D01*
X4324997Y-4835700D02*
G01*
X4687498Y-4835700D01*
X1837499Y-4835700D02*
G01*
X1837496Y-3360701D01*
X1837496Y-3360701D02*
G01*
X2199998Y-3360701D01*
X2787497Y-4835700D02*
G01*
X2787497Y-3360701D01*
X2424996Y-3360701D02*
G01*
X2787497Y-3360701D01*
X1837496Y-4835700D02*
G01*
X2199998Y-4835700D01*
X2424996Y-4835700D02*
G01*
X2787497Y-4835700D01*
X-62499Y-4835700D02*
G01*
X-62501Y-3360701D01*
X-62501Y-3360701D02*
G01*
X299999Y-3360701D01*
X887498Y-4835700D02*
G01*
X887498Y-3360701D01*
X524997Y-3360701D02*
G01*
X887498Y-3360701D01*
X-62501Y-4835700D02*
G01*
X299999Y-4835700D01*
X524997Y-4835700D02*
G01*
X887498Y-4835700D01*
X20837499Y-2785701D02*
G01*
X20837497Y-1310703D01*
X20837497Y-1310703D02*
G01*
X21199998Y-1310703D01*
X21787497Y-2785701D02*
G01*
X21787497Y-1310703D01*
X21424996Y-1310703D02*
G01*
X21787497Y-1310703D01*
X20837497Y-2785701D02*
G01*
X21199998Y-2785701D01*
X21424996Y-2785701D02*
G01*
X21787497Y-2785701D01*
X18937500Y-2785701D02*
G01*
X18937498Y-1310703D01*
X18937498Y-1310703D02*
G01*
X19299999Y-1310703D01*
X19887498Y-2785701D02*
G01*
X19887498Y-1310703D01*
X19524997Y-1310703D02*
G01*
X19887498Y-1310703D01*
X18937498Y-2785701D02*
G01*
X19299999Y-2785701D01*
X19524997Y-2785701D02*
G01*
X19887498Y-2785701D01*
X17037499Y-2785701D02*
G01*
X17037497Y-1310703D01*
X17037497Y-1310703D02*
G01*
X17399998Y-1310703D01*
X17987497Y-2785701D02*
G01*
X17987497Y-1310703D01*
X17624996Y-1310703D02*
G01*
X17987497Y-1310703D01*
X17037497Y-2785701D02*
G01*
X17399998Y-2785701D01*
X17624996Y-2785701D02*
G01*
X17987497Y-2785701D01*
X15137500Y-2785701D02*
G01*
X15137498Y-1310703D01*
X15137498Y-1310703D02*
G01*
X15499999Y-1310703D01*
X16087498Y-2785701D02*
G01*
X16087498Y-1310703D01*
X15724997Y-1310703D02*
G01*
X16087498Y-1310703D01*
X15137498Y-2785701D02*
G01*
X15499999Y-2785701D01*
X15724997Y-2785701D02*
G01*
X16087498Y-2785701D01*
X13237499Y-2785701D02*
G01*
X13237497Y-1310703D01*
X13237497Y-1310703D02*
G01*
X13599998Y-1310703D01*
X14187497Y-2785701D02*
G01*
X14187497Y-1310703D01*
X13824996Y-1310703D02*
G01*
X14187497Y-1310703D01*
X13237497Y-2785701D02*
G01*
X13599998Y-2785701D01*
X13824996Y-2785701D02*
G01*
X14187497Y-2785701D01*
X11337500Y-2785701D02*
G01*
X11337498Y-1310703D01*
X11337498Y-1310703D02*
G01*
X11699999Y-1310703D01*
X12287498Y-2785701D02*
G01*
X12287498Y-1310703D01*
X11924997Y-1310703D02*
G01*
X12287498Y-1310703D01*
X11337498Y-2785701D02*
G01*
X11699999Y-2785701D01*
X11924997Y-2785701D02*
G01*
X12287498Y-2785701D01*
X9437499Y-2785701D02*
G01*
X9437497Y-1310703D01*
X9437497Y-1310703D02*
G01*
X9799998Y-1310703D01*
X10387497Y-2785701D02*
G01*
X10387497Y-1310703D01*
X10024996Y-1310703D02*
G01*
X10387497Y-1310703D01*
X9437497Y-2785701D02*
G01*
X9799998Y-2785701D01*
X10024996Y-2785701D02*
G01*
X10387497Y-2785701D01*
X7537500Y-2785701D02*
G01*
X7537498Y-1310703D01*
X7537498Y-1310703D02*
G01*
X7899999Y-1310703D01*
X8487498Y-2785701D02*
G01*
X8487498Y-1310703D01*
X8124997Y-1310703D02*
G01*
X8487498Y-1310703D01*
X7537498Y-2785701D02*
G01*
X7899999Y-2785701D01*
X8124997Y-2785701D02*
G01*
X8487498Y-2785701D01*
X5637499Y-2785701D02*
G01*
X5637496Y-1310703D01*
X5637496Y-1310703D02*
G01*
X5999998Y-1310703D01*
X6587497Y-2785701D02*
G01*
X6587497Y-1310703D01*
X6224996Y-1310703D02*
G01*
X6587497Y-1310703D01*
X5637496Y-2785701D02*
G01*
X5999998Y-2785701D01*
X6224996Y-2785701D02*
G01*
X6587497Y-2785701D01*
X3737500Y-2785701D02*
G01*
X3737498Y-1310703D01*
X3737498Y-1310703D02*
G01*
X4099999Y-1310703D01*
X4687498Y-2785701D02*
G01*
X4687498Y-1310703D01*
X4324997Y-1310703D02*
G01*
X4687498Y-1310703D01*
X3737498Y-2785701D02*
G01*
X4099999Y-2785701D01*
X4324997Y-2785701D02*
G01*
X4687498Y-2785701D01*
X1837499Y-2785701D02*
G01*
X1837496Y-1310703D01*
X1837496Y-1310703D02*
G01*
X2199998Y-1310703D01*
X2787497Y-2785701D02*
G01*
X2787497Y-1310703D01*
X2424996Y-1310703D02*
G01*
X2787497Y-1310703D01*
X1837496Y-2785701D02*
G01*
X2199998Y-2785701D01*
X2424996Y-2785701D02*
G01*
X2787497Y-2785701D01*
X-62499Y-2785701D02*
G01*
X-62501Y-1310703D01*
X-62501Y-1310703D02*
G01*
X299999Y-1310703D01*
X887498Y-2785701D02*
G01*
X887498Y-1310703D01*
X524997Y-1310703D02*
G01*
X887498Y-1310703D01*
X-62501Y-2785701D02*
G01*
X299999Y-2785701D01*
X524997Y-2785701D02*
G01*
X887498Y-2785701D01*
X20837499Y-735700D02*
G01*
X20837497Y739297D01*
X20837497Y739297D02*
G01*
X21199998Y739297D01*
X21787497Y-735700D02*
G01*
X21787497Y739297D01*
X21424996Y739297D02*
G01*
X21787497Y739297D01*
X20837497Y-735700D02*
G01*
X21199998Y-735700D01*
X21424996Y-735700D02*
G01*
X21787497Y-735700D01*
X18937500Y-735700D02*
G01*
X18937498Y739297D01*
X18937498Y739297D02*
G01*
X19299999Y739297D01*
X19887498Y-735700D02*
G01*
X19887498Y739297D01*
X19524997Y739297D02*
G01*
X19887498Y739297D01*
X18937498Y-735700D02*
G01*
X19299999Y-735700D01*
X19524997Y-735700D02*
G01*
X19887498Y-735700D01*
X17037466Y-735700D02*
G01*
X17037464Y739297D01*
X17037464Y739297D02*
G01*
X17399965Y739297D01*
X17987464Y-735700D02*
G01*
X17987464Y739297D01*
X17624963Y739297D02*
G01*
X17987464Y739297D01*
X17037464Y-735700D02*
G01*
X17399965Y-735700D01*
X17624963Y-735700D02*
G01*
X17987464Y-735700D01*
X15137500Y-735700D02*
G01*
X15137498Y739297D01*
X15137498Y739297D02*
G01*
X15499999Y739297D01*
X16087498Y-735700D02*
G01*
X16087498Y739297D01*
X15724997Y739297D02*
G01*
X16087498Y739297D01*
X15137498Y-735700D02*
G01*
X15499999Y-735700D01*
X15724997Y-735700D02*
G01*
X16087498Y-735700D01*
X13237499Y-735700D02*
G01*
X13237497Y739297D01*
X13237497Y739297D02*
G01*
X13599998Y739297D01*
X14187497Y-735700D02*
G01*
X14187497Y739297D01*
X13824996Y739297D02*
G01*
X14187497Y739297D01*
X13237497Y-735700D02*
G01*
X13599998Y-735700D01*
X13824996Y-735700D02*
G01*
X14187497Y-735700D01*
X11337500Y-735700D02*
G01*
X11337498Y739297D01*
X11337498Y739297D02*
G01*
X11699999Y739297D01*
X12287498Y-735700D02*
G01*
X12287498Y739297D01*
X11924997Y739297D02*
G01*
X12287498Y739297D01*
X11337498Y-735700D02*
G01*
X11699999Y-735700D01*
X11924997Y-735700D02*
G01*
X12287498Y-735700D01*
X9437499Y-735700D02*
G01*
X9437497Y739297D01*
X9437497Y739297D02*
G01*
X9799998Y739297D01*
X10387497Y-735700D02*
G01*
X10387497Y739297D01*
X10024996Y739297D02*
G01*
X10387497Y739297D01*
X9437497Y-735700D02*
G01*
X9799998Y-735700D01*
X10024996Y-735700D02*
G01*
X10387497Y-735700D01*
X7537500Y-735700D02*
G01*
X7537498Y739297D01*
X7537498Y739297D02*
G01*
X7899999Y739297D01*
X8487498Y-735700D02*
G01*
X8487498Y739297D01*
X8124997Y739297D02*
G01*
X8487498Y739297D01*
X7537498Y-735700D02*
G01*
X7899999Y-735700D01*
X8124997Y-735700D02*
G01*
X8487498Y-735700D01*
X5637499Y-735700D02*
G01*
X5637496Y739297D01*
X5637496Y739297D02*
G01*
X5999998Y739297D01*
X6587497Y-735700D02*
G01*
X6587497Y739297D01*
X6224996Y739297D02*
G01*
X6587497Y739297D01*
X5637496Y-735700D02*
G01*
X5999998Y-735700D01*
X6224996Y-735700D02*
G01*
X6587497Y-735700D01*
X3737500Y-735700D02*
G01*
X3737498Y739297D01*
X3737498Y739297D02*
G01*
X4099999Y739297D01*
X4687498Y-735700D02*
G01*
X4687498Y739297D01*
X4324997Y739297D02*
G01*
X4687498Y739297D01*
X3737498Y-735700D02*
G01*
X4099999Y-735700D01*
X4324997Y-735700D02*
G01*
X4687498Y-735700D01*
X1837499Y-735700D02*
G01*
X1837496Y739297D01*
X1837496Y739297D02*
G01*
X2199998Y739297D01*
X2787497Y-735700D02*
G01*
X2787497Y739297D01*
X2424996Y739297D02*
G01*
X2787497Y739297D01*
X1837496Y-735700D02*
G01*
X2199998Y-735700D01*
X2424996Y-735700D02*
G01*
X2787497Y-735700D01*
G36*
X-1012494Y1575003D02*
G01*
X-799998Y1575003D01*
X-799998Y-6949998D01*
X-1012494Y-6949998D01*
G37*
G36*
X-812495Y1575003D02*
G01*
X312496Y1575003D01*
X312496Y724992D01*
X-812495Y724992D01*
G37*
G36*
X299999Y1575003D02*
G01*
X3549980Y1575003D01*
X3549980Y1287475D01*
X299999Y1287475D01*
G37*
D12*
G01*
X-775004Y1737487D03*
G01*
X6699986Y1737537D03*
G01*
X6312484Y1737537D03*
G01*
X5912484Y1737537D03*
G01*
X5524982Y1737537D03*
G01*
X5124983Y1737537D03*
G01*
X4737481Y1737537D03*
G01*
X4337481Y1737537D03*
G01*
X3949979Y1737537D03*
G01*
X3550005Y1737537D03*
G01*
X3162503Y1737537D03*
G01*
X2762504Y1737537D03*
G01*
X2375001Y1737537D03*
G01*
X1975002Y1737487D03*
G01*
X1587500Y1737537D03*
G01*
X1187500Y1737537D03*
G01*
X799998Y1737537D03*
G01*
X399999Y1737537D03*
G01*
X12496Y1737537D03*
G01*
X-387502Y1737537D03*
G01*
X7099985Y1737487D03*
G01*
X7487488Y1737487D03*
G01*
X7887487Y1737487D03*
G01*
X8274989Y1737487D03*
G01*
X8674988Y1737487D03*
G01*
X9062491Y1737487D03*
G01*
X9462490Y1737487D03*
G01*
X9849993Y1737487D03*
G01*
X10249992Y1737487D03*
G01*
X10637469Y1737487D03*
M02*
