M48
METRIC,LZ,000.000
;FILE_FORMAT=3:3
;TYPE=PLATED
;Layer: Drill PTH
;EasyEDA v6.4.25, 2021-10-13T21:01:18+02:00
;d0ff4fc4c9904c088b94a7576bbea1e5,6cd4ab53e48b4e7bb7bf80376082a040,10
;Gerber Generator version 0.2
;Holesize 1 = 0.915 mm
T01C0.915
%
G05
G90
T01
X-007750Y017375
X067000Y017375
X063125Y017375
X059125Y017375
X055250Y017375
X051250Y017375
X047375Y017375
X043375Y017375
X039500Y017375
X035500Y017375
X031625Y017375
X027625Y017375
X023750Y017375
X019750Y017375
X015875Y017375
X011875Y017375
X008000Y017375
X004000Y017375
X000125Y017375
X-003875Y017375
X071000Y017375
X074875Y017375
X078875Y017375
X082750Y017375
X086750Y017375
X090625Y017375
X094625Y017375
X098500Y017375
X102500Y017375
X106375Y017375
M30
