G04 #@! TF.GenerationSoftware,KiCad,Pcbnew,5.1.10*
G04 #@! TF.CreationDate,2021-12-29T16:09:09+01:00*
G04 #@! TF.ProjectId,model_d,6d6f6465-6c5f-4642-9e6b-696361645f70,rev?*
G04 #@! TF.SameCoordinates,Original*
G04 #@! TF.FileFunction,Legend,Top*
G04 #@! TF.FilePolarity,Positive*
%FSLAX46Y46*%
G04 Gerber Fmt 4.6, Leading zero omitted, Abs format (unit mm)*
G04 Created by KiCad (PCBNEW 5.1.10) date 2021-12-29 16:09:09*
%MOMM*%
%LPD*%
G01*
G04 APERTURE LIST*
%ADD10C,0.010000*%
%ADD11C,0.120000*%
%ADD12C,0.150000*%
%ADD13C,3.200000*%
%ADD14O,1.700000X1.700000*%
%ADD15R,1.700000X1.700000*%
G04 APERTURE END LIST*
D10*
G36*
X29292000Y-40124666D02*
G01*
X27260000Y-40124666D01*
X27260000Y-39701333D01*
X29292000Y-39701333D01*
X29292000Y-40124666D01*
G37*
X29292000Y-40124666D02*
X27260000Y-40124666D01*
X27260000Y-39701333D01*
X29292000Y-39701333D01*
X29292000Y-40124666D01*
G36*
X30689585Y-39728169D02*
G01*
X30716802Y-39822847D01*
X30615478Y-39996743D01*
X30522337Y-40104125D01*
X30457479Y-40070056D01*
X30403811Y-39976158D01*
X30321858Y-39796917D01*
X30348465Y-39719091D01*
X30501037Y-39701389D01*
X30519666Y-39701333D01*
X30689585Y-39728169D01*
G37*
X30689585Y-39728169D02*
X30716802Y-39822847D01*
X30615478Y-39996743D01*
X30522337Y-40104125D01*
X30457479Y-40070056D01*
X30403811Y-39976158D01*
X30321858Y-39796917D01*
X30348465Y-39719091D01*
X30501037Y-39701389D01*
X30519666Y-39701333D01*
X30689585Y-39728169D01*
G36*
X33779333Y-40124666D02*
G01*
X31662666Y-40124666D01*
X31662666Y-39701333D01*
X33779333Y-39701333D01*
X33779333Y-40124666D01*
G37*
X33779333Y-40124666D02*
X31662666Y-40124666D01*
X31662666Y-39701333D01*
X33779333Y-39701333D01*
X33779333Y-40124666D01*
G36*
X35906216Y-39719582D02*
G01*
X35947599Y-39720289D01*
X37293000Y-39743666D01*
X36912000Y-39932307D01*
X36544778Y-40052040D01*
X36083085Y-40114525D01*
X35592623Y-40117451D01*
X35139094Y-40058507D01*
X34937200Y-40001761D01*
X34681237Y-39903107D01*
X34542471Y-39827876D01*
X34529462Y-39773682D01*
X34650770Y-39738140D01*
X34914958Y-39718866D01*
X35330586Y-39713475D01*
X35906216Y-39719582D01*
G37*
X35906216Y-39719582D02*
X35947599Y-39720289D01*
X37293000Y-39743666D01*
X36912000Y-39932307D01*
X36544778Y-40052040D01*
X36083085Y-40114525D01*
X35592623Y-40117451D01*
X35139094Y-40058507D01*
X34937200Y-40001761D01*
X34681237Y-39903107D01*
X34542471Y-39827876D01*
X34529462Y-39773682D01*
X34650770Y-39738140D01*
X34914958Y-39718866D01*
X35330586Y-39713475D01*
X35906216Y-39719582D01*
G36*
X40318704Y-39704458D02*
G01*
X40784379Y-39713193D01*
X41162957Y-39726578D01*
X41429705Y-39743655D01*
X41559888Y-39763462D01*
X41568666Y-39770318D01*
X41499632Y-39847190D01*
X41328011Y-39952729D01*
X41269460Y-39981985D01*
X41126787Y-40036111D01*
X40942177Y-40075128D01*
X40688072Y-40101247D01*
X40336911Y-40116680D01*
X39861135Y-40123638D01*
X39491460Y-40124666D01*
X38012666Y-40124666D01*
X38012666Y-39701333D01*
X39790666Y-39701333D01*
X40318704Y-39704458D01*
G37*
X40318704Y-39704458D02*
X40784379Y-39713193D01*
X41162957Y-39726578D01*
X41429705Y-39743655D01*
X41559888Y-39763462D01*
X41568666Y-39770318D01*
X41499632Y-39847190D01*
X41328011Y-39952729D01*
X41269460Y-39981985D01*
X41126787Y-40036111D01*
X40942177Y-40075128D01*
X40688072Y-40101247D01*
X40336911Y-40116680D01*
X39861135Y-40123638D01*
X39491460Y-40124666D01*
X38012666Y-40124666D01*
X38012666Y-39701333D01*
X39790666Y-39701333D01*
X40318704Y-39704458D01*
G36*
X46818000Y-40124666D02*
G01*
X42330666Y-40124666D01*
X42330666Y-39701333D01*
X46818000Y-39701333D01*
X46818000Y-40124666D01*
G37*
X46818000Y-40124666D02*
X42330666Y-40124666D01*
X42330666Y-39701333D01*
X46818000Y-39701333D01*
X46818000Y-40124666D01*
G36*
X51051333Y-40124666D02*
G01*
X46902666Y-40124666D01*
X46902666Y-39701333D01*
X51051333Y-39701333D01*
X51051333Y-40124666D01*
G37*
X51051333Y-40124666D02*
X46902666Y-40124666D01*
X46902666Y-39701333D01*
X51051333Y-39701333D01*
X51051333Y-40124666D01*
G36*
X55722355Y-39703717D02*
G01*
X56208685Y-39712473D01*
X56548244Y-39730009D01*
X56752291Y-39758730D01*
X56832083Y-39801042D01*
X56798879Y-39859353D01*
X56663936Y-39936069D01*
X56504716Y-40006305D01*
X56328221Y-40054989D01*
X56053963Y-40089773D01*
X55662164Y-40111982D01*
X55133045Y-40122940D01*
X54737052Y-40124666D01*
X53252666Y-40124666D01*
X53252666Y-39701333D01*
X55077996Y-39701333D01*
X55722355Y-39703717D01*
G37*
X55722355Y-39703717D02*
X56208685Y-39712473D01*
X56548244Y-39730009D01*
X56752291Y-39758730D01*
X56832083Y-39801042D01*
X56798879Y-39859353D01*
X56663936Y-39936069D01*
X56504716Y-40006305D01*
X56328221Y-40054989D01*
X56053963Y-40089773D01*
X55662164Y-40111982D01*
X55133045Y-40122940D01*
X54737052Y-40124666D01*
X53252666Y-40124666D01*
X53252666Y-39701333D01*
X55077996Y-39701333D01*
X55722355Y-39703717D01*
G36*
X29292000Y-39447333D02*
G01*
X27260000Y-39447333D01*
X27260000Y-39024000D01*
X29292000Y-39024000D01*
X29292000Y-39447333D01*
G37*
X29292000Y-39447333D02*
X27260000Y-39447333D01*
X27260000Y-39024000D01*
X29292000Y-39024000D01*
X29292000Y-39447333D01*
G36*
X30792945Y-39031052D02*
G01*
X30929797Y-39058933D01*
X30962788Y-39117729D01*
X30952058Y-39157924D01*
X30906372Y-39319227D01*
X30900666Y-39369591D01*
X30824979Y-39415958D01*
X30633484Y-39443768D01*
X30519666Y-39447333D01*
X30292429Y-39431889D01*
X30156135Y-39392815D01*
X30138666Y-39369591D01*
X30110738Y-39227701D01*
X30087274Y-39157924D01*
X30083432Y-39081524D01*
X30168473Y-39040678D01*
X30374964Y-39025299D01*
X30519666Y-39024000D01*
X30792945Y-39031052D01*
G37*
X30792945Y-39031052D02*
X30929797Y-39058933D01*
X30962788Y-39117729D01*
X30952058Y-39157924D01*
X30906372Y-39319227D01*
X30900666Y-39369591D01*
X30824979Y-39415958D01*
X30633484Y-39443768D01*
X30519666Y-39447333D01*
X30292429Y-39431889D01*
X30156135Y-39392815D01*
X30138666Y-39369591D01*
X30110738Y-39227701D01*
X30087274Y-39157924D01*
X30083432Y-39081524D01*
X30168473Y-39040678D01*
X30374964Y-39025299D01*
X30519666Y-39024000D01*
X30792945Y-39031052D01*
G36*
X37822240Y-39214500D02*
G01*
X37775053Y-39277452D01*
X37713191Y-39325111D01*
X37614000Y-39359982D01*
X37454824Y-39384570D01*
X37213008Y-39401380D01*
X36865896Y-39412918D01*
X36390832Y-39421688D01*
X35885747Y-39428626D01*
X35287514Y-39435833D01*
X34835670Y-39438495D01*
X34507292Y-39434770D01*
X34279455Y-39422811D01*
X34129236Y-39400776D01*
X34033713Y-39366820D01*
X33969961Y-39319099D01*
X33927500Y-39271080D01*
X33779333Y-39089907D01*
X33779333Y-39268620D01*
X33771466Y-39342710D01*
X33729471Y-39392866D01*
X33625757Y-39423747D01*
X33432734Y-39440012D01*
X33122810Y-39446319D01*
X32721000Y-39447333D01*
X31662666Y-39447333D01*
X31662666Y-39024000D01*
X37948653Y-39024000D01*
X37822240Y-39214500D01*
G37*
X37822240Y-39214500D02*
X37775053Y-39277452D01*
X37713191Y-39325111D01*
X37614000Y-39359982D01*
X37454824Y-39384570D01*
X37213008Y-39401380D01*
X36865896Y-39412918D01*
X36390832Y-39421688D01*
X35885747Y-39428626D01*
X35287514Y-39435833D01*
X34835670Y-39438495D01*
X34507292Y-39434770D01*
X34279455Y-39422811D01*
X34129236Y-39400776D01*
X34033713Y-39366820D01*
X33969961Y-39319099D01*
X33927500Y-39271080D01*
X33779333Y-39089907D01*
X33779333Y-39268620D01*
X33771466Y-39342710D01*
X33729471Y-39392866D01*
X33625757Y-39423747D01*
X33432734Y-39440012D01*
X33122810Y-39446319D01*
X32721000Y-39447333D01*
X31662666Y-39447333D01*
X31662666Y-39024000D01*
X37948653Y-39024000D01*
X37822240Y-39214500D01*
G36*
X40659495Y-39025866D02*
G01*
X41171462Y-39031115D01*
X41599999Y-39039215D01*
X41922206Y-39049640D01*
X42115183Y-39061859D01*
X42161333Y-39071899D01*
X42125775Y-39176800D01*
X42073687Y-39283566D01*
X42037250Y-39335580D01*
X41976780Y-39375260D01*
X41871235Y-39404265D01*
X41699572Y-39424258D01*
X41440748Y-39436899D01*
X41073721Y-39443851D01*
X40577448Y-39446774D01*
X39999354Y-39447333D01*
X38012666Y-39447333D01*
X38012666Y-39024000D01*
X40087000Y-39024000D01*
X40659495Y-39025866D01*
G37*
X40659495Y-39025866D02*
X41171462Y-39031115D01*
X41599999Y-39039215D01*
X41922206Y-39049640D01*
X42115183Y-39061859D01*
X42161333Y-39071899D01*
X42125775Y-39176800D01*
X42073687Y-39283566D01*
X42037250Y-39335580D01*
X41976780Y-39375260D01*
X41871235Y-39404265D01*
X41699572Y-39424258D01*
X41440748Y-39436899D01*
X41073721Y-39443851D01*
X40577448Y-39446774D01*
X39999354Y-39447333D01*
X38012666Y-39447333D01*
X38012666Y-39024000D01*
X40087000Y-39024000D01*
X40659495Y-39025866D01*
G36*
X46818000Y-39447333D02*
G01*
X42330666Y-39447333D01*
X42330666Y-39024000D01*
X46818000Y-39024000D01*
X46818000Y-39447333D01*
G37*
X46818000Y-39447333D02*
X42330666Y-39447333D01*
X42330666Y-39024000D01*
X46818000Y-39024000D01*
X46818000Y-39447333D01*
G36*
X51051333Y-39447333D02*
G01*
X46902666Y-39447333D01*
X46902666Y-39024000D01*
X51051333Y-39024000D01*
X51051333Y-39447333D01*
G37*
X51051333Y-39447333D02*
X46902666Y-39447333D01*
X46902666Y-39024000D01*
X51051333Y-39024000D01*
X51051333Y-39447333D01*
G36*
X57380227Y-39214500D02*
G01*
X57335548Y-39274724D01*
X57277391Y-39320986D01*
X57184351Y-39355430D01*
X57035020Y-39380202D01*
X56807993Y-39397448D01*
X56481862Y-39409314D01*
X56035222Y-39417945D01*
X55446666Y-39425486D01*
X55253234Y-39427699D01*
X53252666Y-39450398D01*
X53252666Y-39024000D01*
X55379660Y-39024000D01*
X57506653Y-39023999D01*
X57380227Y-39214500D01*
G37*
X57380227Y-39214500D02*
X57335548Y-39274724D01*
X57277391Y-39320986D01*
X57184351Y-39355430D01*
X57035020Y-39380202D01*
X56807993Y-39397448D01*
X56481862Y-39409314D01*
X56035222Y-39417945D01*
X55446666Y-39425486D01*
X55253234Y-39427699D01*
X53252666Y-39450398D01*
X53252666Y-39024000D01*
X55379660Y-39024000D01*
X57506653Y-39023999D01*
X57380227Y-39214500D01*
G36*
X29292000Y-38770000D02*
G01*
X27937333Y-38770000D01*
X27937333Y-38262000D01*
X29292000Y-38262000D01*
X29292000Y-38770000D01*
G37*
X29292000Y-38770000D02*
X27937333Y-38770000D01*
X27937333Y-38262000D01*
X29292000Y-38262000D01*
X29292000Y-38770000D01*
G36*
X31213416Y-38516000D02*
G01*
X31155910Y-38647945D01*
X31079636Y-38723833D01*
X30941967Y-38759160D01*
X30700272Y-38769423D01*
X30514694Y-38770000D01*
X30197584Y-38765516D01*
X30006716Y-38743243D01*
X29899061Y-38689943D01*
X29831589Y-38592383D01*
X29813590Y-38554349D01*
X29741778Y-38384496D01*
X29715333Y-38300349D01*
X29793838Y-38283801D01*
X30004723Y-38270840D01*
X30311048Y-38263246D01*
X30512312Y-38262000D01*
X31309291Y-38262000D01*
X31213416Y-38516000D01*
G37*
X31213416Y-38516000D02*
X31155910Y-38647945D01*
X31079636Y-38723833D01*
X30941967Y-38759160D01*
X30700272Y-38769423D01*
X30514694Y-38770000D01*
X30197584Y-38765516D01*
X30006716Y-38743243D01*
X29899061Y-38689943D01*
X29831589Y-38592383D01*
X29813590Y-38554349D01*
X29741778Y-38384496D01*
X29715333Y-38300349D01*
X29793838Y-38283801D01*
X30004723Y-38270840D01*
X30311048Y-38263246D01*
X30512312Y-38262000D01*
X31309291Y-38262000D01*
X31213416Y-38516000D01*
G36*
X33102000Y-38770000D02*
G01*
X31662666Y-38770000D01*
X31662666Y-38262000D01*
X33102000Y-38262000D01*
X33102000Y-38770000D01*
G37*
X33102000Y-38770000D02*
X31662666Y-38770000D01*
X31662666Y-38262000D01*
X33102000Y-38262000D01*
X33102000Y-38770000D01*
G36*
X35472666Y-38770000D02*
G01*
X33626565Y-38770000D01*
X33449475Y-38262000D01*
X35472666Y-38262000D01*
X35472666Y-38770000D01*
G37*
X35472666Y-38770000D02*
X33626565Y-38770000D01*
X33449475Y-38262000D01*
X35472666Y-38262000D01*
X35472666Y-38770000D01*
G36*
X37646677Y-38265131D02*
G01*
X37939211Y-38280880D01*
X38109428Y-38318774D01*
X38180822Y-38388344D01*
X38176889Y-38499118D01*
X38130608Y-38636075D01*
X38080099Y-38696648D01*
X37964750Y-38736280D01*
X37755505Y-38758968D01*
X37423307Y-38768708D01*
X37156941Y-38770000D01*
X36234666Y-38770000D01*
X36234666Y-38262000D01*
X37208333Y-38262000D01*
X37646677Y-38265131D01*
G37*
X37646677Y-38265131D02*
X37939211Y-38280880D01*
X38109428Y-38318774D01*
X38180822Y-38388344D01*
X38176889Y-38499118D01*
X38130608Y-38636075D01*
X38080099Y-38696648D01*
X37964750Y-38736280D01*
X37755505Y-38758968D01*
X37423307Y-38768708D01*
X37156941Y-38770000D01*
X36234666Y-38770000D01*
X36234666Y-38262000D01*
X37208333Y-38262000D01*
X37646677Y-38265131D01*
G36*
X39758162Y-38348610D02*
G01*
X39970852Y-38361013D01*
X40081259Y-38393738D01*
X40122911Y-38456644D01*
X40129333Y-38558333D01*
X40122725Y-38660832D01*
X40080552Y-38723387D01*
X39969288Y-38755860D01*
X39755407Y-38768111D01*
X39409666Y-38770000D01*
X39061170Y-38768056D01*
X38848481Y-38755652D01*
X38738073Y-38722927D01*
X38696421Y-38660021D01*
X38690000Y-38558333D01*
X38696607Y-38455834D01*
X38738780Y-38393278D01*
X38850045Y-38360805D01*
X39063925Y-38348555D01*
X39409666Y-38346666D01*
X39758162Y-38348610D01*
G37*
X39758162Y-38348610D02*
X39970852Y-38361013D01*
X40081259Y-38393738D01*
X40122911Y-38456644D01*
X40129333Y-38558333D01*
X40122725Y-38660832D01*
X40080552Y-38723387D01*
X39969288Y-38755860D01*
X39755407Y-38768111D01*
X39409666Y-38770000D01*
X39061170Y-38768056D01*
X38848481Y-38755652D01*
X38738073Y-38722927D01*
X38696421Y-38660021D01*
X38690000Y-38558333D01*
X38696607Y-38455834D01*
X38738780Y-38393278D01*
X38850045Y-38360805D01*
X39063925Y-38348555D01*
X39409666Y-38346666D01*
X39758162Y-38348610D01*
G36*
X42033562Y-38347930D02*
G01*
X42275554Y-38356379D01*
X42404950Y-38378998D01*
X42450116Y-38422772D01*
X42439423Y-38494685D01*
X42424284Y-38537166D01*
X42377831Y-38627874D01*
X42296065Y-38686016D01*
X42143687Y-38720579D01*
X41885398Y-38740550D01*
X41580346Y-38752010D01*
X40806666Y-38776354D01*
X40806666Y-38346666D01*
X41650605Y-38346666D01*
X42033562Y-38347930D01*
G37*
X42033562Y-38347930D02*
X42275554Y-38356379D01*
X42404950Y-38378998D01*
X42450116Y-38422772D01*
X42439423Y-38494685D01*
X42424284Y-38537166D01*
X42377831Y-38627874D01*
X42296065Y-38686016D01*
X42143687Y-38720579D01*
X41885398Y-38740550D01*
X41580346Y-38752010D01*
X40806666Y-38776354D01*
X40806666Y-38346666D01*
X41650605Y-38346666D01*
X42033562Y-38347930D01*
G36*
X44532000Y-38770000D02*
G01*
X43092666Y-38770000D01*
X43092666Y-38262000D01*
X44532000Y-38262000D01*
X44532000Y-38770000D01*
G37*
X44532000Y-38770000D02*
X43092666Y-38770000D01*
X43092666Y-38262000D01*
X44532000Y-38262000D01*
X44532000Y-38770000D01*
G36*
X46818000Y-38770000D02*
G01*
X45463333Y-38770000D01*
X45463333Y-38262000D01*
X46818000Y-38262000D01*
X46818000Y-38770000D01*
G37*
X46818000Y-38770000D02*
X45463333Y-38770000D01*
X45463333Y-38262000D01*
X46818000Y-38262000D01*
X46818000Y-38770000D01*
G36*
X49104000Y-38770000D02*
G01*
X47580000Y-38770000D01*
X47580000Y-38262000D01*
X49104000Y-38262000D01*
X49104000Y-38770000D01*
G37*
X49104000Y-38770000D02*
X47580000Y-38770000D01*
X47580000Y-38262000D01*
X49104000Y-38262000D01*
X49104000Y-38770000D01*
G36*
X51051333Y-38770000D02*
G01*
X50388111Y-38770000D01*
X50067766Y-38763247D01*
X49816295Y-38745355D01*
X49678908Y-38719868D01*
X49668444Y-38713555D01*
X49623894Y-38592405D01*
X49612000Y-38459555D01*
X49620359Y-38363842D01*
X49667757Y-38305420D01*
X49787670Y-38275101D01*
X50013577Y-38263693D01*
X50331666Y-38262000D01*
X51051333Y-38262000D01*
X51051333Y-38770000D01*
G37*
X51051333Y-38770000D02*
X50388111Y-38770000D01*
X50067766Y-38763247D01*
X49816295Y-38745355D01*
X49678908Y-38719868D01*
X49668444Y-38713555D01*
X49623894Y-38592405D01*
X49612000Y-38459555D01*
X49620359Y-38363842D01*
X49667757Y-38305420D01*
X49787670Y-38275101D01*
X50013577Y-38263693D01*
X50331666Y-38262000D01*
X51051333Y-38262000D01*
X51051333Y-38770000D01*
G36*
X55027929Y-38348922D02*
G01*
X55229077Y-38362886D01*
X55329992Y-38399356D01*
X55365223Y-38469128D01*
X55369333Y-38558333D01*
X55362115Y-38663311D01*
X55317428Y-38726169D01*
X55200724Y-38757705D01*
X54977454Y-38768715D01*
X54692000Y-38770000D01*
X54356070Y-38767744D01*
X54154922Y-38753779D01*
X54054007Y-38717309D01*
X54018776Y-38647537D01*
X54014666Y-38558333D01*
X54021884Y-38453355D01*
X54066571Y-38390496D01*
X54183275Y-38358960D01*
X54406545Y-38347951D01*
X54692000Y-38346666D01*
X55027929Y-38348922D01*
G37*
X55027929Y-38348922D02*
X55229077Y-38362886D01*
X55329992Y-38399356D01*
X55365223Y-38469128D01*
X55369333Y-38558333D01*
X55362115Y-38663311D01*
X55317428Y-38726169D01*
X55200724Y-38757705D01*
X54977454Y-38768715D01*
X54692000Y-38770000D01*
X54356070Y-38767744D01*
X54154922Y-38753779D01*
X54054007Y-38717309D01*
X54018776Y-38647537D01*
X54014666Y-38558333D01*
X54021884Y-38453355D01*
X54066571Y-38390496D01*
X54183275Y-38358960D01*
X54406545Y-38347951D01*
X54692000Y-38346666D01*
X55027929Y-38348922D01*
G36*
X57291173Y-38349697D02*
G01*
X57537967Y-38361819D01*
X57670058Y-38387575D01*
X57714732Y-38431508D01*
X57706725Y-38480591D01*
X57661039Y-38641894D01*
X57655333Y-38692258D01*
X57578346Y-38724903D01*
X57377741Y-38749070D01*
X57099052Y-38764133D01*
X56787810Y-38769469D01*
X56489550Y-38764452D01*
X56249803Y-38748457D01*
X56114104Y-38720861D01*
X56103111Y-38713555D01*
X56054621Y-38589051D01*
X56046666Y-38501888D01*
X56061779Y-38431290D01*
X56127207Y-38385935D01*
X56273081Y-38360357D01*
X56529532Y-38349091D01*
X56902391Y-38346666D01*
X57291173Y-38349697D01*
G37*
X57291173Y-38349697D02*
X57537967Y-38361819D01*
X57670058Y-38387575D01*
X57714732Y-38431508D01*
X57706725Y-38480591D01*
X57661039Y-38641894D01*
X57655333Y-38692258D01*
X57578346Y-38724903D01*
X57377741Y-38749070D01*
X57099052Y-38764133D01*
X56787810Y-38769469D01*
X56489550Y-38764452D01*
X56249803Y-38748457D01*
X56114104Y-38720861D01*
X56103111Y-38713555D01*
X56054621Y-38589051D01*
X56046666Y-38501888D01*
X56061779Y-38431290D01*
X56127207Y-38385935D01*
X56273081Y-38360357D01*
X56529532Y-38349091D01*
X56902391Y-38346666D01*
X57291173Y-38349697D01*
G36*
X39758162Y-37671276D02*
G01*
X39970852Y-37683680D01*
X40081259Y-37716405D01*
X40122911Y-37779311D01*
X40129333Y-37881000D01*
X40122725Y-37983498D01*
X40080552Y-38046054D01*
X39969288Y-38078527D01*
X39755407Y-38090777D01*
X39409666Y-38092666D01*
X39061170Y-38090723D01*
X38848481Y-38078319D01*
X38738073Y-38045594D01*
X38696421Y-37982688D01*
X38690000Y-37881000D01*
X38696607Y-37778501D01*
X38738780Y-37715945D01*
X38850045Y-37683472D01*
X39063925Y-37671222D01*
X39409666Y-37669333D01*
X39758162Y-37671276D01*
G37*
X39758162Y-37671276D02*
X39970852Y-37683680D01*
X40081259Y-37716405D01*
X40122911Y-37779311D01*
X40129333Y-37881000D01*
X40122725Y-37983498D01*
X40080552Y-38046054D01*
X39969288Y-38078527D01*
X39755407Y-38090777D01*
X39409666Y-38092666D01*
X39061170Y-38090723D01*
X38848481Y-38078319D01*
X38738073Y-38045594D01*
X38696421Y-37982688D01*
X38690000Y-37881000D01*
X38696607Y-37778501D01*
X38738780Y-37715945D01*
X38850045Y-37683472D01*
X39063925Y-37671222D01*
X39409666Y-37669333D01*
X39758162Y-37671276D01*
G36*
X42098448Y-37670717D02*
G01*
X42355133Y-37679131D01*
X42500737Y-37700970D01*
X42564383Y-37742625D01*
X42575198Y-37810490D01*
X42569388Y-37859833D01*
X42547730Y-37945862D01*
X42491130Y-38002448D01*
X42368152Y-38037132D01*
X42147361Y-38057454D01*
X41797322Y-38070951D01*
X41674500Y-38074461D01*
X40806666Y-38098590D01*
X40806666Y-37669333D01*
X41701555Y-37669333D01*
X42098448Y-37670717D01*
G37*
X42098448Y-37670717D02*
X42355133Y-37679131D01*
X42500737Y-37700970D01*
X42564383Y-37742625D01*
X42575198Y-37810490D01*
X42569388Y-37859833D01*
X42547730Y-37945862D01*
X42491130Y-38002448D01*
X42368152Y-38037132D01*
X42147361Y-38057454D01*
X41797322Y-38070951D01*
X41674500Y-38074461D01*
X40806666Y-38098590D01*
X40806666Y-37669333D01*
X41701555Y-37669333D01*
X42098448Y-37670717D01*
G36*
X55027929Y-37671588D02*
G01*
X55229077Y-37685553D01*
X55329992Y-37722023D01*
X55365223Y-37791795D01*
X55369333Y-37881000D01*
X55362115Y-37985977D01*
X55317428Y-38048836D01*
X55200724Y-38080372D01*
X54977454Y-38091382D01*
X54692000Y-38092666D01*
X54356070Y-38090411D01*
X54154922Y-38076446D01*
X54054007Y-38039976D01*
X54018776Y-37970204D01*
X54014666Y-37881000D01*
X54021884Y-37776022D01*
X54066571Y-37713163D01*
X54183275Y-37681627D01*
X54406545Y-37670617D01*
X54692000Y-37669333D01*
X55027929Y-37671588D01*
G37*
X55027929Y-37671588D02*
X55229077Y-37685553D01*
X55329992Y-37722023D01*
X55365223Y-37791795D01*
X55369333Y-37881000D01*
X55362115Y-37985977D01*
X55317428Y-38048836D01*
X55200724Y-38080372D01*
X54977454Y-38091382D01*
X54692000Y-38092666D01*
X54356070Y-38090411D01*
X54154922Y-38076446D01*
X54054007Y-38039976D01*
X54018776Y-37970204D01*
X54014666Y-37881000D01*
X54021884Y-37776022D01*
X54066571Y-37713163D01*
X54183275Y-37681627D01*
X54406545Y-37670617D01*
X54692000Y-37669333D01*
X55027929Y-37671588D01*
G36*
X57824666Y-38092666D02*
G01*
X56046666Y-38092666D01*
X56046666Y-37669333D01*
X57824666Y-37669333D01*
X57824666Y-38092666D01*
G37*
X57824666Y-38092666D02*
X56046666Y-38092666D01*
X56046666Y-37669333D01*
X57824666Y-37669333D01*
X57824666Y-38092666D01*
G36*
X28950596Y-37586922D02*
G01*
X29151743Y-37600886D01*
X29252658Y-37637356D01*
X29287890Y-37707128D01*
X29292000Y-37796333D01*
X29284782Y-37901311D01*
X29240095Y-37964169D01*
X29123391Y-37995705D01*
X28900121Y-38006715D01*
X28614666Y-38008000D01*
X28278737Y-38005744D01*
X28077589Y-37991779D01*
X27976674Y-37955309D01*
X27941443Y-37885537D01*
X27937333Y-37796333D01*
X27944551Y-37691355D01*
X27989237Y-37628496D01*
X28105941Y-37596960D01*
X28329212Y-37585951D01*
X28614666Y-37584666D01*
X28950596Y-37586922D01*
G37*
X28950596Y-37586922D02*
X29151743Y-37600886D01*
X29252658Y-37637356D01*
X29287890Y-37707128D01*
X29292000Y-37796333D01*
X29284782Y-37901311D01*
X29240095Y-37964169D01*
X29123391Y-37995705D01*
X28900121Y-38006715D01*
X28614666Y-38008000D01*
X28278737Y-38005744D01*
X28077589Y-37991779D01*
X27976674Y-37955309D01*
X27941443Y-37885537D01*
X27937333Y-37796333D01*
X27944551Y-37691355D01*
X27989237Y-37628496D01*
X28105941Y-37596960D01*
X28329212Y-37585951D01*
X28614666Y-37584666D01*
X28950596Y-37586922D01*
G36*
X31502233Y-37775166D02*
G01*
X31461309Y-37858505D01*
X31390806Y-37914419D01*
X31259207Y-37949576D01*
X31034996Y-37970648D01*
X30686655Y-37984304D01*
X30488961Y-37989606D01*
X30079629Y-37993146D01*
X29770256Y-37981899D01*
X29586375Y-37957396D01*
X29546000Y-37933030D01*
X29517962Y-37788300D01*
X29494608Y-37718591D01*
X29490973Y-37662825D01*
X29547244Y-37624884D01*
X29688453Y-37601459D01*
X29939635Y-37589242D01*
X30325824Y-37584924D01*
X30507879Y-37584666D01*
X31572543Y-37584666D01*
X31502233Y-37775166D01*
G37*
X31502233Y-37775166D02*
X31461309Y-37858505D01*
X31390806Y-37914419D01*
X31259207Y-37949576D01*
X31034996Y-37970648D01*
X30686655Y-37984304D01*
X30488961Y-37989606D01*
X30079629Y-37993146D01*
X29770256Y-37981899D01*
X29586375Y-37957396D01*
X29546000Y-37933030D01*
X29517962Y-37788300D01*
X29494608Y-37718591D01*
X29490973Y-37662825D01*
X29547244Y-37624884D01*
X29688453Y-37601459D01*
X29939635Y-37589242D01*
X30325824Y-37584924D01*
X30507879Y-37584666D01*
X31572543Y-37584666D01*
X31502233Y-37775166D01*
G36*
X32730829Y-37586610D02*
G01*
X32943518Y-37599013D01*
X33053926Y-37631738D01*
X33095578Y-37694644D01*
X33102000Y-37796333D01*
X33095392Y-37898832D01*
X33053219Y-37961387D01*
X32941954Y-37993860D01*
X32728074Y-38006111D01*
X32382333Y-38008000D01*
X32033837Y-38006056D01*
X31821147Y-37993652D01*
X31710740Y-37960927D01*
X31669088Y-37898021D01*
X31662666Y-37796333D01*
X31669274Y-37693834D01*
X31711447Y-37631278D01*
X31822711Y-37598805D01*
X32036592Y-37586555D01*
X32382333Y-37584666D01*
X32730829Y-37586610D01*
G37*
X32730829Y-37586610D02*
X32943518Y-37599013D01*
X33053926Y-37631738D01*
X33095578Y-37694644D01*
X33102000Y-37796333D01*
X33095392Y-37898832D01*
X33053219Y-37961387D01*
X32941954Y-37993860D01*
X32728074Y-38006111D01*
X32382333Y-38008000D01*
X32033837Y-38006056D01*
X31821147Y-37993652D01*
X31710740Y-37960927D01*
X31669088Y-37898021D01*
X31662666Y-37796333D01*
X31669274Y-37693834D01*
X31711447Y-37631278D01*
X31822711Y-37598805D01*
X32036592Y-37586555D01*
X32382333Y-37584666D01*
X32730829Y-37586610D01*
G36*
X35472666Y-38008000D02*
G01*
X33356000Y-38008000D01*
X33356000Y-37584666D01*
X35472666Y-37584666D01*
X35472666Y-38008000D01*
G37*
X35472666Y-38008000D02*
X33356000Y-38008000D01*
X33356000Y-37584666D01*
X35472666Y-37584666D01*
X35472666Y-38008000D01*
G36*
X38266666Y-38008000D02*
G01*
X36234666Y-38008000D01*
X36234666Y-37584666D01*
X38266666Y-37584666D01*
X38266666Y-38008000D01*
G37*
X38266666Y-38008000D02*
X36234666Y-38008000D01*
X36234666Y-37584666D01*
X38266666Y-37584666D01*
X38266666Y-38008000D01*
G36*
X45548000Y-38008000D02*
G01*
X43092666Y-38008000D01*
X43092666Y-37584666D01*
X45548000Y-37584666D01*
X45548000Y-38008000D01*
G37*
X45548000Y-38008000D02*
X43092666Y-38008000D01*
X43092666Y-37584666D01*
X45548000Y-37584666D01*
X45548000Y-38008000D01*
G36*
X48702717Y-37586352D02*
G01*
X48926686Y-37597442D01*
X49046493Y-37626989D01*
X49094724Y-37684045D01*
X49103962Y-37777660D01*
X49104000Y-37796333D01*
X49097932Y-37896532D01*
X49058006Y-37958746D01*
X48951636Y-37992026D01*
X48746237Y-38005423D01*
X48409223Y-38007989D01*
X48342000Y-38008000D01*
X47981282Y-38006314D01*
X47757313Y-37995224D01*
X47637506Y-37965676D01*
X47589275Y-37908621D01*
X47580037Y-37815006D01*
X47580000Y-37796333D01*
X47586067Y-37696134D01*
X47625993Y-37633920D01*
X47732363Y-37600640D01*
X47937762Y-37587243D01*
X48274776Y-37584676D01*
X48342000Y-37584666D01*
X48702717Y-37586352D01*
G37*
X48702717Y-37586352D02*
X48926686Y-37597442D01*
X49046493Y-37626989D01*
X49094724Y-37684045D01*
X49103962Y-37777660D01*
X49104000Y-37796333D01*
X49097932Y-37896532D01*
X49058006Y-37958746D01*
X48951636Y-37992026D01*
X48746237Y-38005423D01*
X48409223Y-38007989D01*
X48342000Y-38008000D01*
X47981282Y-38006314D01*
X47757313Y-37995224D01*
X47637506Y-37965676D01*
X47589275Y-37908621D01*
X47580037Y-37815006D01*
X47580000Y-37796333D01*
X47586067Y-37696134D01*
X47625993Y-37633920D01*
X47732363Y-37600640D01*
X47937762Y-37587243D01*
X48274776Y-37584676D01*
X48342000Y-37584666D01*
X48702717Y-37586352D01*
G36*
X35472666Y-37415333D02*
G01*
X34454009Y-37415333D01*
X34004454Y-37411308D01*
X33698286Y-37397250D01*
X33509707Y-37370183D01*
X33412919Y-37327131D01*
X33388173Y-37292387D01*
X33364154Y-37172767D01*
X33413442Y-37089015D01*
X33557410Y-37035150D01*
X33817431Y-37005193D01*
X34214875Y-36993163D01*
X34461663Y-36992000D01*
X35472666Y-36992000D01*
X35472666Y-37415333D01*
G37*
X35472666Y-37415333D02*
X34454009Y-37415333D01*
X34004454Y-37411308D01*
X33698286Y-37397250D01*
X33509707Y-37370183D01*
X33412919Y-37327131D01*
X33388173Y-37292387D01*
X33364154Y-37172767D01*
X33413442Y-37089015D01*
X33557410Y-37035150D01*
X33817431Y-37005193D01*
X34214875Y-36993163D01*
X34461663Y-36992000D01*
X35472666Y-36992000D01*
X35472666Y-37415333D01*
G36*
X38266666Y-37415333D02*
G01*
X36234666Y-37415333D01*
X36234666Y-36992000D01*
X38266666Y-36992000D01*
X38266666Y-37415333D01*
G37*
X38266666Y-37415333D02*
X36234666Y-37415333D01*
X36234666Y-36992000D01*
X38266666Y-36992000D01*
X38266666Y-37415333D01*
G36*
X39758162Y-36993943D02*
G01*
X39970852Y-37006347D01*
X40081259Y-37039072D01*
X40122911Y-37101978D01*
X40129333Y-37203666D01*
X40122725Y-37306165D01*
X40080552Y-37368721D01*
X39969288Y-37401194D01*
X39755407Y-37413444D01*
X39409666Y-37415333D01*
X39061170Y-37413389D01*
X38848481Y-37400986D01*
X38738073Y-37368261D01*
X38696421Y-37305355D01*
X38690000Y-37203666D01*
X38696607Y-37101167D01*
X38738780Y-37038612D01*
X38850045Y-37006139D01*
X39063925Y-36993888D01*
X39409666Y-36992000D01*
X39758162Y-36993943D01*
G37*
X39758162Y-36993943D02*
X39970852Y-37006347D01*
X40081259Y-37039072D01*
X40122911Y-37101978D01*
X40129333Y-37203666D01*
X40122725Y-37306165D01*
X40080552Y-37368721D01*
X39969288Y-37401194D01*
X39755407Y-37413444D01*
X39409666Y-37415333D01*
X39061170Y-37413389D01*
X38848481Y-37400986D01*
X38738073Y-37368261D01*
X38696421Y-37305355D01*
X38690000Y-37203666D01*
X38696607Y-37101167D01*
X38738780Y-37038612D01*
X38850045Y-37006139D01*
X39063925Y-36993888D01*
X39409666Y-36992000D01*
X39758162Y-36993943D01*
G36*
X42584666Y-37415333D02*
G01*
X40806666Y-37415333D01*
X40806666Y-36992000D01*
X42584666Y-36992000D01*
X42584666Y-37415333D01*
G37*
X42584666Y-37415333D02*
X40806666Y-37415333D01*
X40806666Y-36992000D01*
X42584666Y-36992000D01*
X42584666Y-37415333D01*
G36*
X45548000Y-37415333D02*
G01*
X43092666Y-37415333D01*
X43092666Y-36992000D01*
X45548000Y-36992000D01*
X45548000Y-37415333D01*
G37*
X45548000Y-37415333D02*
X43092666Y-37415333D01*
X43092666Y-36992000D01*
X45548000Y-36992000D01*
X45548000Y-37415333D01*
G36*
X48710006Y-36993914D02*
G01*
X48934033Y-37005014D01*
X49051207Y-37033332D01*
X49092765Y-37086900D01*
X49089946Y-37173751D01*
X49088721Y-37182500D01*
X49062620Y-37277638D01*
X48993729Y-37336586D01*
X48846384Y-37370159D01*
X48584924Y-37389172D01*
X48380423Y-37397311D01*
X48055333Y-37401723D01*
X47798127Y-37391812D01*
X47653452Y-37369704D01*
X47639589Y-37362034D01*
X47588329Y-37234456D01*
X47580000Y-37147222D01*
X47596367Y-37073401D01*
X47666585Y-37027394D01*
X47822328Y-37002800D01*
X48095271Y-36993214D01*
X48347888Y-36992000D01*
X48710006Y-36993914D01*
G37*
X48710006Y-36993914D02*
X48934033Y-37005014D01*
X49051207Y-37033332D01*
X49092765Y-37086900D01*
X49089946Y-37173751D01*
X49088721Y-37182500D01*
X49062620Y-37277638D01*
X48993729Y-37336586D01*
X48846384Y-37370159D01*
X48584924Y-37389172D01*
X48380423Y-37397311D01*
X48055333Y-37401723D01*
X47798127Y-37391812D01*
X47653452Y-37369704D01*
X47639589Y-37362034D01*
X47588329Y-37234456D01*
X47580000Y-37147222D01*
X47596367Y-37073401D01*
X47666585Y-37027394D01*
X47822328Y-37002800D01*
X48095271Y-36993214D01*
X48347888Y-36992000D01*
X48710006Y-36993914D01*
G36*
X55027929Y-36994255D02*
G01*
X55229077Y-37008220D01*
X55329992Y-37044690D01*
X55365223Y-37114462D01*
X55369333Y-37203666D01*
X55362115Y-37308644D01*
X55317428Y-37371503D01*
X55200724Y-37403039D01*
X54977454Y-37414048D01*
X54692000Y-37415333D01*
X54356070Y-37413077D01*
X54154922Y-37399113D01*
X54054007Y-37362643D01*
X54018776Y-37292871D01*
X54014666Y-37203666D01*
X54021884Y-37098688D01*
X54066571Y-37035830D01*
X54183275Y-37004294D01*
X54406545Y-36993284D01*
X54692000Y-36992000D01*
X55027929Y-36994255D01*
G37*
X55027929Y-36994255D02*
X55229077Y-37008220D01*
X55329992Y-37044690D01*
X55365223Y-37114462D01*
X55369333Y-37203666D01*
X55362115Y-37308644D01*
X55317428Y-37371503D01*
X55200724Y-37403039D01*
X54977454Y-37414048D01*
X54692000Y-37415333D01*
X54356070Y-37413077D01*
X54154922Y-37399113D01*
X54054007Y-37362643D01*
X54018776Y-37292871D01*
X54014666Y-37203666D01*
X54021884Y-37098688D01*
X54066571Y-37035830D01*
X54183275Y-37004294D01*
X54406545Y-36993284D01*
X54692000Y-36992000D01*
X55027929Y-36994255D01*
G36*
X57824666Y-37415333D02*
G01*
X56046666Y-37415333D01*
X56046666Y-36992000D01*
X57824666Y-36992000D01*
X57824666Y-37415333D01*
G37*
X57824666Y-37415333D02*
X56046666Y-37415333D01*
X56046666Y-36992000D01*
X57824666Y-36992000D01*
X57824666Y-37415333D01*
G36*
X31248086Y-36994979D02*
G01*
X31824858Y-36996747D01*
X32267667Y-37001099D01*
X32594198Y-37009187D01*
X32822136Y-37022162D01*
X32969166Y-37041173D01*
X33052973Y-37067371D01*
X33091243Y-37101907D01*
X33101660Y-37145931D01*
X33102000Y-37162656D01*
X33096872Y-37210048D01*
X33069701Y-37247573D01*
X33002801Y-37276383D01*
X32878486Y-37297628D01*
X32679071Y-37312458D01*
X32386873Y-37322024D01*
X31984205Y-37327476D01*
X31453382Y-37329966D01*
X30776720Y-37330644D01*
X30519666Y-37330666D01*
X29791246Y-37330333D01*
X29214474Y-37328565D01*
X28771665Y-37324212D01*
X28445135Y-37316124D01*
X28217197Y-37303150D01*
X28070166Y-37284139D01*
X27986359Y-37257941D01*
X27948089Y-37223405D01*
X27937672Y-37179380D01*
X27937333Y-37162656D01*
X27942460Y-37115264D01*
X27969631Y-37077738D01*
X28036532Y-37048928D01*
X28160847Y-37027684D01*
X28360261Y-37012854D01*
X28652460Y-37003288D01*
X29055128Y-36997835D01*
X29585950Y-36995345D01*
X30262612Y-36994667D01*
X30519666Y-36994645D01*
X31248086Y-36994979D01*
G37*
X31248086Y-36994979D02*
X31824858Y-36996747D01*
X32267667Y-37001099D01*
X32594198Y-37009187D01*
X32822136Y-37022162D01*
X32969166Y-37041173D01*
X33052973Y-37067371D01*
X33091243Y-37101907D01*
X33101660Y-37145931D01*
X33102000Y-37162656D01*
X33096872Y-37210048D01*
X33069701Y-37247573D01*
X33002801Y-37276383D01*
X32878486Y-37297628D01*
X32679071Y-37312458D01*
X32386873Y-37322024D01*
X31984205Y-37327476D01*
X31453382Y-37329966D01*
X30776720Y-37330644D01*
X30519666Y-37330666D01*
X29791246Y-37330333D01*
X29214474Y-37328565D01*
X28771665Y-37324212D01*
X28445135Y-37316124D01*
X28217197Y-37303150D01*
X28070166Y-37284139D01*
X27986359Y-37257941D01*
X27948089Y-37223405D01*
X27937672Y-37179380D01*
X27937333Y-37162656D01*
X27942460Y-37115264D01*
X27969631Y-37077738D01*
X28036532Y-37048928D01*
X28160847Y-37027684D01*
X28360261Y-37012854D01*
X28652460Y-37003288D01*
X29055128Y-36997835D01*
X29585950Y-36995345D01*
X30262612Y-36994667D01*
X30519666Y-36994645D01*
X31248086Y-36994979D01*
G36*
X29488191Y-36316742D02*
G01*
X29801250Y-36325660D01*
X30003399Y-36345453D01*
X30123836Y-36380156D01*
X30191760Y-36433804D01*
X30220354Y-36478433D01*
X30290727Y-36629360D01*
X30308000Y-36690100D01*
X30228385Y-36707315D01*
X30009737Y-36721785D01*
X29682348Y-36732287D01*
X29276512Y-36737595D01*
X29122666Y-36738000D01*
X27937333Y-36738000D01*
X27937333Y-36314666D01*
X29035021Y-36314666D01*
X29488191Y-36316742D01*
G37*
X29488191Y-36316742D02*
X29801250Y-36325660D01*
X30003399Y-36345453D01*
X30123836Y-36380156D01*
X30191760Y-36433804D01*
X30220354Y-36478433D01*
X30290727Y-36629360D01*
X30308000Y-36690100D01*
X30228385Y-36707315D01*
X30009737Y-36721785D01*
X29682348Y-36732287D01*
X29276512Y-36737595D01*
X29122666Y-36738000D01*
X27937333Y-36738000D01*
X27937333Y-36314666D01*
X29035021Y-36314666D01*
X29488191Y-36316742D01*
G36*
X33102000Y-36738000D02*
G01*
X31916666Y-36738000D01*
X31490661Y-36734782D01*
X31132578Y-36725947D01*
X30872708Y-36712717D01*
X30741345Y-36696317D01*
X30731333Y-36690100D01*
X30766891Y-36585199D01*
X30818978Y-36478433D01*
X30868988Y-36410989D01*
X30953375Y-36364995D01*
X31101339Y-36336416D01*
X31342079Y-36321219D01*
X31704795Y-36315369D01*
X32004312Y-36314666D01*
X33102000Y-36314666D01*
X33102000Y-36738000D01*
G37*
X33102000Y-36738000D02*
X31916666Y-36738000D01*
X31490661Y-36734782D01*
X31132578Y-36725947D01*
X30872708Y-36712717D01*
X30741345Y-36696317D01*
X30731333Y-36690100D01*
X30766891Y-36585199D01*
X30818978Y-36478433D01*
X30868988Y-36410989D01*
X30953375Y-36364995D01*
X31101339Y-36336416D01*
X31342079Y-36321219D01*
X31704795Y-36315369D01*
X32004312Y-36314666D01*
X33102000Y-36314666D01*
X33102000Y-36738000D01*
G36*
X35472666Y-36738000D02*
G01*
X34493111Y-36738000D01*
X34074366Y-36736859D01*
X33797027Y-36729715D01*
X33633167Y-36710981D01*
X33554859Y-36675073D01*
X33534175Y-36616404D01*
X33540611Y-36547500D01*
X33560811Y-36464758D01*
X33613394Y-36409181D01*
X33728304Y-36374216D01*
X33935484Y-36353305D01*
X34264878Y-36339895D01*
X34520166Y-36333060D01*
X35472666Y-36309120D01*
X35472666Y-36738000D01*
G37*
X35472666Y-36738000D02*
X34493111Y-36738000D01*
X34074366Y-36736859D01*
X33797027Y-36729715D01*
X33633167Y-36710981D01*
X33554859Y-36675073D01*
X33534175Y-36616404D01*
X33540611Y-36547500D01*
X33560811Y-36464758D01*
X33613394Y-36409181D01*
X33728304Y-36374216D01*
X33935484Y-36353305D01*
X34264878Y-36339895D01*
X34520166Y-36333060D01*
X35472666Y-36309120D01*
X35472666Y-36738000D01*
G36*
X37522793Y-36317805D02*
G01*
X37788606Y-36330921D01*
X37951109Y-36359560D01*
X38043285Y-36409271D01*
X38094354Y-36478433D01*
X38164727Y-36629360D01*
X38182000Y-36690100D01*
X38102908Y-36708958D01*
X37887917Y-36724321D01*
X37570448Y-36734545D01*
X37208333Y-36738000D01*
X36234666Y-36738000D01*
X36234666Y-36314666D01*
X37120687Y-36314666D01*
X37522793Y-36317805D01*
G37*
X37522793Y-36317805D02*
X37788606Y-36330921D01*
X37951109Y-36359560D01*
X38043285Y-36409271D01*
X38094354Y-36478433D01*
X38164727Y-36629360D01*
X38182000Y-36690100D01*
X38102908Y-36708958D01*
X37887917Y-36724321D01*
X37570448Y-36734545D01*
X37208333Y-36738000D01*
X36234666Y-36738000D01*
X36234666Y-36314666D01*
X37120687Y-36314666D01*
X37522793Y-36317805D01*
G36*
X39758162Y-36316610D02*
G01*
X39970852Y-36329013D01*
X40081259Y-36361738D01*
X40122911Y-36424644D01*
X40129333Y-36526333D01*
X40122725Y-36628832D01*
X40080552Y-36691387D01*
X39969288Y-36723860D01*
X39755407Y-36736111D01*
X39409666Y-36738000D01*
X39061170Y-36736056D01*
X38848481Y-36723652D01*
X38738073Y-36690927D01*
X38696421Y-36628021D01*
X38690000Y-36526333D01*
X38696607Y-36423834D01*
X38738780Y-36361278D01*
X38850045Y-36328805D01*
X39063925Y-36316555D01*
X39409666Y-36314666D01*
X39758162Y-36316610D01*
G37*
X39758162Y-36316610D02*
X39970852Y-36329013D01*
X40081259Y-36361738D01*
X40122911Y-36424644D01*
X40129333Y-36526333D01*
X40122725Y-36628832D01*
X40080552Y-36691387D01*
X39969288Y-36723860D01*
X39755407Y-36736111D01*
X39409666Y-36738000D01*
X39061170Y-36736056D01*
X38848481Y-36723652D01*
X38738073Y-36690927D01*
X38696421Y-36628021D01*
X38690000Y-36526333D01*
X38696607Y-36423834D01*
X38738780Y-36361278D01*
X38850045Y-36328805D01*
X39063925Y-36316555D01*
X39409666Y-36314666D01*
X39758162Y-36316610D01*
G36*
X41956607Y-36322255D02*
G01*
X42227830Y-36342654D01*
X42387904Y-36372309D01*
X42415333Y-36392408D01*
X42443261Y-36534298D01*
X42466725Y-36604075D01*
X42470776Y-36665103D01*
X42408423Y-36704455D01*
X42252380Y-36726675D01*
X41975364Y-36736305D01*
X41662391Y-36738000D01*
X40806666Y-36738000D01*
X40806666Y-36526333D01*
X40812252Y-36428275D01*
X40850154Y-36366432D01*
X40952092Y-36332456D01*
X41149783Y-36318001D01*
X41474946Y-36314720D01*
X41611000Y-36314666D01*
X41956607Y-36322255D01*
G37*
X41956607Y-36322255D02*
X42227830Y-36342654D01*
X42387904Y-36372309D01*
X42415333Y-36392408D01*
X42443261Y-36534298D01*
X42466725Y-36604075D01*
X42470776Y-36665103D01*
X42408423Y-36704455D01*
X42252380Y-36726675D01*
X41975364Y-36736305D01*
X41662391Y-36738000D01*
X40806666Y-36738000D01*
X40806666Y-36526333D01*
X40812252Y-36428275D01*
X40850154Y-36366432D01*
X40952092Y-36332456D01*
X41149783Y-36318001D01*
X41474946Y-36314720D01*
X41611000Y-36314666D01*
X41956607Y-36322255D01*
G36*
X44160829Y-36316610D02*
G01*
X44373518Y-36329013D01*
X44483926Y-36361738D01*
X44525578Y-36424644D01*
X44532000Y-36526333D01*
X44525392Y-36628832D01*
X44483219Y-36691387D01*
X44371954Y-36723860D01*
X44158074Y-36736111D01*
X43812333Y-36738000D01*
X43463837Y-36736056D01*
X43251147Y-36723652D01*
X43140740Y-36690927D01*
X43099088Y-36628021D01*
X43092666Y-36526333D01*
X43099274Y-36423834D01*
X43141447Y-36361278D01*
X43252711Y-36328805D01*
X43466592Y-36316555D01*
X43812333Y-36314666D01*
X44160829Y-36316610D01*
G37*
X44160829Y-36316610D02*
X44373518Y-36329013D01*
X44483926Y-36361738D01*
X44525578Y-36424644D01*
X44532000Y-36526333D01*
X44525392Y-36628832D01*
X44483219Y-36691387D01*
X44371954Y-36723860D01*
X44158074Y-36736111D01*
X43812333Y-36738000D01*
X43463837Y-36736056D01*
X43251147Y-36723652D01*
X43140740Y-36690927D01*
X43099088Y-36628021D01*
X43092666Y-36526333D01*
X43099274Y-36423834D01*
X43141447Y-36361278D01*
X43252711Y-36328805D01*
X43466592Y-36316555D01*
X43812333Y-36314666D01*
X44160829Y-36316610D01*
G36*
X46421320Y-36317304D02*
G01*
X46610648Y-36333144D01*
X46701985Y-36374076D01*
X46730999Y-36451988D01*
X46733333Y-36526333D01*
X46725419Y-36633995D01*
X46677899Y-36697105D01*
X46555104Y-36727550D01*
X46321366Y-36737221D01*
X46098333Y-36738000D01*
X45775345Y-36735362D01*
X45586017Y-36719522D01*
X45494681Y-36678590D01*
X45465667Y-36600677D01*
X45463333Y-36526333D01*
X45471247Y-36418670D01*
X45518767Y-36355561D01*
X45641561Y-36325116D01*
X45875299Y-36315444D01*
X46098333Y-36314666D01*
X46421320Y-36317304D01*
G37*
X46421320Y-36317304D02*
X46610648Y-36333144D01*
X46701985Y-36374076D01*
X46730999Y-36451988D01*
X46733333Y-36526333D01*
X46725419Y-36633995D01*
X46677899Y-36697105D01*
X46555104Y-36727550D01*
X46321366Y-36737221D01*
X46098333Y-36738000D01*
X45775345Y-36735362D01*
X45586017Y-36719522D01*
X45494681Y-36678590D01*
X45465667Y-36600677D01*
X45463333Y-36526333D01*
X45471247Y-36418670D01*
X45518767Y-36355561D01*
X45641561Y-36325116D01*
X45875299Y-36315444D01*
X46098333Y-36314666D01*
X46421320Y-36317304D01*
G36*
X48702717Y-36316352D02*
G01*
X48926686Y-36327442D01*
X49046493Y-36356989D01*
X49094724Y-36414045D01*
X49103962Y-36507660D01*
X49104000Y-36526333D01*
X49097932Y-36626532D01*
X49058006Y-36688746D01*
X48951636Y-36722026D01*
X48746237Y-36735423D01*
X48409223Y-36737989D01*
X48342000Y-36738000D01*
X47981282Y-36736314D01*
X47757313Y-36725224D01*
X47637506Y-36695676D01*
X47589275Y-36638621D01*
X47580037Y-36545006D01*
X47580000Y-36526333D01*
X47586067Y-36426134D01*
X47625993Y-36363920D01*
X47732363Y-36330640D01*
X47937762Y-36317243D01*
X48274776Y-36314676D01*
X48342000Y-36314666D01*
X48702717Y-36316352D01*
G37*
X48702717Y-36316352D02*
X48926686Y-36327442D01*
X49046493Y-36356989D01*
X49094724Y-36414045D01*
X49103962Y-36507660D01*
X49104000Y-36526333D01*
X49097932Y-36626532D01*
X49058006Y-36688746D01*
X48951636Y-36722026D01*
X48746237Y-36735423D01*
X48409223Y-36737989D01*
X48342000Y-36738000D01*
X47981282Y-36736314D01*
X47757313Y-36725224D01*
X47637506Y-36695676D01*
X47589275Y-36638621D01*
X47580037Y-36545006D01*
X47580000Y-36526333D01*
X47586067Y-36426134D01*
X47625993Y-36363920D01*
X47732363Y-36330640D01*
X47937762Y-36317243D01*
X48274776Y-36314676D01*
X48342000Y-36314666D01*
X48702717Y-36316352D01*
G36*
X55027929Y-36316922D02*
G01*
X55229077Y-36330886D01*
X55329992Y-36367356D01*
X55365223Y-36437128D01*
X55369333Y-36526333D01*
X55362115Y-36631311D01*
X55317428Y-36694169D01*
X55200724Y-36725705D01*
X54977454Y-36736715D01*
X54692000Y-36738000D01*
X54356070Y-36735744D01*
X54154922Y-36721779D01*
X54054007Y-36685309D01*
X54018776Y-36615537D01*
X54014666Y-36526333D01*
X54021884Y-36421355D01*
X54066571Y-36358496D01*
X54183275Y-36326960D01*
X54406545Y-36315951D01*
X54692000Y-36314666D01*
X55027929Y-36316922D01*
G37*
X55027929Y-36316922D02*
X55229077Y-36330886D01*
X55329992Y-36367356D01*
X55365223Y-36437128D01*
X55369333Y-36526333D01*
X55362115Y-36631311D01*
X55317428Y-36694169D01*
X55200724Y-36725705D01*
X54977454Y-36736715D01*
X54692000Y-36738000D01*
X54356070Y-36735744D01*
X54154922Y-36721779D01*
X54054007Y-36685309D01*
X54018776Y-36615537D01*
X54014666Y-36526333D01*
X54021884Y-36421355D01*
X54066571Y-36358496D01*
X54183275Y-36326960D01*
X54406545Y-36315951D01*
X54692000Y-36314666D01*
X55027929Y-36316922D01*
G36*
X57266931Y-36359198D02*
G01*
X57503962Y-36370796D01*
X57637179Y-36399299D01*
X57699337Y-36452213D01*
X57723192Y-36537042D01*
X57724721Y-36547500D01*
X57730116Y-36633466D01*
X57697077Y-36688683D01*
X57595916Y-36719952D01*
X57396944Y-36734076D01*
X57070472Y-36737859D01*
X56893333Y-36738000D01*
X56506157Y-36736487D01*
X56258625Y-36727415D01*
X56121046Y-36703981D01*
X56063733Y-36659381D01*
X56056996Y-36586813D01*
X56061944Y-36547500D01*
X56083782Y-36459090D01*
X56140669Y-36403341D01*
X56265362Y-36372748D01*
X56490614Y-36359806D01*
X56849179Y-36357010D01*
X56893333Y-36357000D01*
X57266931Y-36359198D01*
G37*
X57266931Y-36359198D02*
X57503962Y-36370796D01*
X57637179Y-36399299D01*
X57699337Y-36452213D01*
X57723192Y-36537042D01*
X57724721Y-36547500D01*
X57730116Y-36633466D01*
X57697077Y-36688683D01*
X57595916Y-36719952D01*
X57396944Y-36734076D01*
X57070472Y-36737859D01*
X56893333Y-36738000D01*
X56506157Y-36736487D01*
X56258625Y-36727415D01*
X56121046Y-36703981D01*
X56063733Y-36659381D01*
X56056996Y-36586813D01*
X56061944Y-36547500D01*
X56083782Y-36459090D01*
X56140669Y-36403341D01*
X56265362Y-36372748D01*
X56490614Y-36359806D01*
X56849179Y-36357010D01*
X56893333Y-36357000D01*
X57266931Y-36359198D01*
G36*
X29018141Y-35638920D02*
G01*
X29366879Y-35645854D01*
X29600174Y-35661390D01*
X29744964Y-35688785D01*
X29828187Y-35731296D01*
X29876783Y-35792180D01*
X29881687Y-35801100D01*
X29952061Y-35952027D01*
X29969333Y-36012767D01*
X29889392Y-36028940D01*
X29668459Y-36042780D01*
X29334872Y-36053286D01*
X28916967Y-36059456D01*
X28614666Y-36060666D01*
X27260000Y-36060666D01*
X27260000Y-35637333D01*
X28527021Y-35637333D01*
X29018141Y-35638920D01*
G37*
X29018141Y-35638920D02*
X29366879Y-35645854D01*
X29600174Y-35661390D01*
X29744964Y-35688785D01*
X29828187Y-35731296D01*
X29876783Y-35792180D01*
X29881687Y-35801100D01*
X29952061Y-35952027D01*
X29969333Y-36012767D01*
X29889392Y-36028940D01*
X29668459Y-36042780D01*
X29334872Y-36053286D01*
X28916967Y-36059456D01*
X28614666Y-36060666D01*
X27260000Y-36060666D01*
X27260000Y-35637333D01*
X28527021Y-35637333D01*
X29018141Y-35638920D01*
G36*
X33003757Y-35639168D02*
G01*
X33350401Y-35646479D01*
X33576756Y-35661979D01*
X33707330Y-35688376D01*
X33766634Y-35728382D01*
X33779333Y-35777455D01*
X33791714Y-35869767D01*
X33857403Y-35844152D01*
X33936107Y-35775699D01*
X34006454Y-35727760D01*
X34111742Y-35692593D01*
X34275004Y-35668768D01*
X34519272Y-35654856D01*
X34867581Y-35649426D01*
X35342964Y-35651047D01*
X35852023Y-35656744D01*
X36440406Y-35665017D01*
X36882493Y-35674136D01*
X37201311Y-35686706D01*
X37419888Y-35705333D01*
X37561252Y-35732625D01*
X37648430Y-35771188D01*
X37704451Y-35823627D01*
X37737577Y-35870166D01*
X37863987Y-36060666D01*
X34466993Y-36060666D01*
X33727203Y-36059514D01*
X33042938Y-36056227D01*
X32432093Y-36051057D01*
X31912562Y-36044256D01*
X31502242Y-36036077D01*
X31219028Y-36026772D01*
X31080814Y-36016593D01*
X31070000Y-36012767D01*
X31105558Y-35907866D01*
X31157645Y-35801100D01*
X31203841Y-35737731D01*
X31281350Y-35693135D01*
X31417111Y-35664055D01*
X31638061Y-35647235D01*
X31971141Y-35639419D01*
X32443288Y-35637350D01*
X32512312Y-35637333D01*
X33003757Y-35639168D01*
G37*
X33003757Y-35639168D02*
X33350401Y-35646479D01*
X33576756Y-35661979D01*
X33707330Y-35688376D01*
X33766634Y-35728382D01*
X33779333Y-35777455D01*
X33791714Y-35869767D01*
X33857403Y-35844152D01*
X33936107Y-35775699D01*
X34006454Y-35727760D01*
X34111742Y-35692593D01*
X34275004Y-35668768D01*
X34519272Y-35654856D01*
X34867581Y-35649426D01*
X35342964Y-35651047D01*
X35852023Y-35656744D01*
X36440406Y-35665017D01*
X36882493Y-35674136D01*
X37201311Y-35686706D01*
X37419888Y-35705333D01*
X37561252Y-35732625D01*
X37648430Y-35771188D01*
X37704451Y-35823627D01*
X37737577Y-35870166D01*
X37863987Y-36060666D01*
X34466993Y-36060666D01*
X33727203Y-36059514D01*
X33042938Y-36056227D01*
X32432093Y-36051057D01*
X31912562Y-36044256D01*
X31502242Y-36036077D01*
X31219028Y-36026772D01*
X31080814Y-36016593D01*
X31070000Y-36012767D01*
X31105558Y-35907866D01*
X31157645Y-35801100D01*
X31203841Y-35737731D01*
X31281350Y-35693135D01*
X31417111Y-35664055D01*
X31638061Y-35647235D01*
X31971141Y-35639419D01*
X32443288Y-35637350D01*
X32512312Y-35637333D01*
X33003757Y-35639168D01*
G36*
X40013234Y-35656967D02*
G01*
X40645427Y-35664589D01*
X41129702Y-35672698D01*
X41487464Y-35683440D01*
X41740121Y-35698961D01*
X41909078Y-35721406D01*
X42015743Y-35752922D01*
X42081522Y-35795653D01*
X42127821Y-35851746D01*
X42140227Y-35870166D01*
X42266653Y-36060666D01*
X38012666Y-36060666D01*
X38012666Y-35634268D01*
X40013234Y-35656967D01*
G37*
X40013234Y-35656967D02*
X40645427Y-35664589D01*
X41129702Y-35672698D01*
X41487464Y-35683440D01*
X41740121Y-35698961D01*
X41909078Y-35721406D01*
X42015743Y-35752922D01*
X42081522Y-35795653D01*
X42127821Y-35851746D01*
X42140227Y-35870166D01*
X42266653Y-36060666D01*
X38012666Y-36060666D01*
X38012666Y-35634268D01*
X40013234Y-35656967D01*
G36*
X46733333Y-36060666D02*
G01*
X42330666Y-36060666D01*
X42330666Y-35637333D01*
X46733333Y-35637333D01*
X46733333Y-36060666D01*
G37*
X46733333Y-36060666D02*
X42330666Y-36060666D01*
X42330666Y-35637333D01*
X46733333Y-35637333D01*
X46733333Y-36060666D01*
G36*
X49781333Y-36060666D02*
G01*
X46902666Y-36060666D01*
X46902666Y-35637333D01*
X49781333Y-35637333D01*
X49781333Y-36060666D01*
G37*
X49781333Y-36060666D02*
X46902666Y-36060666D01*
X46902666Y-35637333D01*
X49781333Y-35637333D01*
X49781333Y-36060666D01*
G36*
X55920495Y-35638016D02*
G01*
X56410776Y-35641139D01*
X56773334Y-35648312D01*
X57028974Y-35661144D01*
X57198500Y-35681244D01*
X57302716Y-35710223D01*
X57362427Y-35749690D01*
X57398354Y-35801100D01*
X57468727Y-35952027D01*
X57486000Y-36012767D01*
X57405112Y-36025860D01*
X57177564Y-36037588D01*
X56826024Y-36047439D01*
X56373164Y-36054899D01*
X55841653Y-36059456D01*
X55369333Y-36060666D01*
X53252666Y-36060666D01*
X53252666Y-35637333D01*
X55281687Y-35637333D01*
X55920495Y-35638016D01*
G37*
X55920495Y-35638016D02*
X56410776Y-35641139D01*
X56773334Y-35648312D01*
X57028974Y-35661144D01*
X57198500Y-35681244D01*
X57302716Y-35710223D01*
X57362427Y-35749690D01*
X57398354Y-35801100D01*
X57468727Y-35952027D01*
X57486000Y-36012767D01*
X57405112Y-36025860D01*
X57177564Y-36037588D01*
X56826024Y-36047439D01*
X56373164Y-36054899D01*
X55841653Y-36059456D01*
X55369333Y-36060666D01*
X53252666Y-36060666D01*
X53252666Y-35637333D01*
X55281687Y-35637333D01*
X55920495Y-35638016D01*
G36*
X28810857Y-34962076D02*
G01*
X29123917Y-34970993D01*
X29326065Y-34990786D01*
X29446502Y-35025490D01*
X29514427Y-35079137D01*
X29543021Y-35123767D01*
X29613394Y-35274694D01*
X29630666Y-35335433D01*
X29551052Y-35352648D01*
X29332404Y-35367118D01*
X29005015Y-35377620D01*
X28599178Y-35382928D01*
X28445333Y-35383333D01*
X27260000Y-35383333D01*
X27260000Y-34960000D01*
X28357687Y-34960000D01*
X28810857Y-34962076D01*
G37*
X28810857Y-34962076D02*
X29123917Y-34970993D01*
X29326065Y-34990786D01*
X29446502Y-35025490D01*
X29514427Y-35079137D01*
X29543021Y-35123767D01*
X29613394Y-35274694D01*
X29630666Y-35335433D01*
X29551052Y-35352648D01*
X29332404Y-35367118D01*
X29005015Y-35377620D01*
X28599178Y-35382928D01*
X28445333Y-35383333D01*
X27260000Y-35383333D01*
X27260000Y-34960000D01*
X28357687Y-34960000D01*
X28810857Y-34962076D01*
G36*
X33779333Y-35383333D02*
G01*
X32594000Y-35383333D01*
X32158980Y-35378094D01*
X31798541Y-35363634D01*
X31541380Y-35341834D01*
X31416196Y-35314576D01*
X31408666Y-35305591D01*
X31419185Y-35171086D01*
X31467653Y-35076800D01*
X31579441Y-35015644D01*
X31779919Y-34980528D01*
X32094456Y-34964364D01*
X32548421Y-34960061D01*
X32645391Y-34960000D01*
X33779333Y-34960000D01*
X33779333Y-35383333D01*
G37*
X33779333Y-35383333D02*
X32594000Y-35383333D01*
X32158980Y-35378094D01*
X31798541Y-35363634D01*
X31541380Y-35341834D01*
X31416196Y-35314576D01*
X31408666Y-35305591D01*
X31419185Y-35171086D01*
X31467653Y-35076800D01*
X31579441Y-35015644D01*
X31779919Y-34980528D01*
X32094456Y-34964364D01*
X32548421Y-34960061D01*
X32645391Y-34960000D01*
X33779333Y-34960000D01*
X33779333Y-35383333D01*
G36*
X36146464Y-34973410D02*
G01*
X36581631Y-35044349D01*
X36740953Y-35096193D01*
X36948743Y-35195134D01*
X37069206Y-35283073D01*
X37081333Y-35307859D01*
X37001471Y-35333724D01*
X36781078Y-35355769D01*
X36448941Y-35372339D01*
X36033849Y-35381778D01*
X35769000Y-35383333D01*
X35319255Y-35380505D01*
X34935930Y-35372700D01*
X34647813Y-35360937D01*
X34483696Y-35346237D01*
X34456666Y-35336860D01*
X34526491Y-35277736D01*
X34703607Y-35180653D01*
X34816500Y-35127053D01*
X35194042Y-35015882D01*
X35660649Y-34964294D01*
X36146464Y-34973410D01*
G37*
X36146464Y-34973410D02*
X36581631Y-35044349D01*
X36740953Y-35096193D01*
X36948743Y-35195134D01*
X37069206Y-35283073D01*
X37081333Y-35307859D01*
X37001471Y-35333724D01*
X36781078Y-35355769D01*
X36448941Y-35372339D01*
X36033849Y-35381778D01*
X35769000Y-35383333D01*
X35319255Y-35380505D01*
X34935930Y-35372700D01*
X34647813Y-35360937D01*
X34483696Y-35346237D01*
X34456666Y-35336860D01*
X34526491Y-35277736D01*
X34703607Y-35180653D01*
X34816500Y-35127053D01*
X35194042Y-35015882D01*
X35660649Y-34964294D01*
X36146464Y-34973410D01*
G36*
X40119048Y-34964782D02*
G01*
X40591734Y-34980012D01*
X40934889Y-35007015D01*
X41168291Y-35047115D01*
X41264716Y-35078361D01*
X41467870Y-35170288D01*
X41577638Y-35242024D01*
X41582762Y-35295977D01*
X41471985Y-35334552D01*
X41234049Y-35360156D01*
X40857695Y-35375196D01*
X40331665Y-35382077D01*
X39837996Y-35383333D01*
X38012666Y-35383333D01*
X38012666Y-34960000D01*
X39497052Y-34960000D01*
X40119048Y-34964782D01*
G37*
X40119048Y-34964782D02*
X40591734Y-34980012D01*
X40934889Y-35007015D01*
X41168291Y-35047115D01*
X41264716Y-35078361D01*
X41467870Y-35170288D01*
X41577638Y-35242024D01*
X41582762Y-35295977D01*
X41471985Y-35334552D01*
X41234049Y-35360156D01*
X40857695Y-35375196D01*
X40331665Y-35382077D01*
X39837996Y-35383333D01*
X38012666Y-35383333D01*
X38012666Y-34960000D01*
X39497052Y-34960000D01*
X40119048Y-34964782D01*
G36*
X46733333Y-35383333D02*
G01*
X42330666Y-35383333D01*
X42330666Y-34960000D01*
X46733333Y-34960000D01*
X46733333Y-35383333D01*
G37*
X46733333Y-35383333D02*
X42330666Y-35383333D01*
X42330666Y-34960000D01*
X46733333Y-34960000D01*
X46733333Y-35383333D01*
G36*
X49781333Y-35383333D02*
G01*
X46902666Y-35383333D01*
X46902666Y-34960000D01*
X49781333Y-34960000D01*
X49781333Y-35383333D01*
G37*
X49781333Y-35383333D02*
X46902666Y-35383333D01*
X46902666Y-34960000D01*
X49781333Y-34960000D01*
X49781333Y-35383333D01*
G36*
X55319137Y-34963542D02*
G01*
X55763624Y-34975525D01*
X56093260Y-34997981D01*
X56335225Y-35032946D01*
X56516702Y-35082452D01*
X56552953Y-35096193D01*
X56760743Y-35195134D01*
X56881206Y-35283073D01*
X56893333Y-35307859D01*
X56812648Y-35330254D01*
X56586503Y-35349943D01*
X56238762Y-35365938D01*
X55793289Y-35377247D01*
X55273949Y-35382883D01*
X55073000Y-35383333D01*
X53252666Y-35383333D01*
X53252666Y-34960000D01*
X54732619Y-34960000D01*
X55319137Y-34963542D01*
G37*
X55319137Y-34963542D02*
X55763624Y-34975525D01*
X56093260Y-34997981D01*
X56335225Y-35032946D01*
X56516702Y-35082452D01*
X56552953Y-35096193D01*
X56760743Y-35195134D01*
X56881206Y-35283073D01*
X56893333Y-35307859D01*
X56812648Y-35330254D01*
X56586503Y-35349943D01*
X56238762Y-35365938D01*
X55793289Y-35377247D01*
X55273949Y-35382883D01*
X55073000Y-35383333D01*
X53252666Y-35383333D01*
X53252666Y-34960000D01*
X54732619Y-34960000D01*
X55319137Y-34963542D01*
D11*
X243890000Y-34670000D02*
X243890000Y-37330000D01*
X261730000Y-34670000D02*
X243890000Y-34670000D01*
X261730000Y-37330000D02*
X243890000Y-37330000D01*
X261730000Y-34670000D02*
X261730000Y-37330000D01*
X263000000Y-34670000D02*
X264330000Y-34670000D01*
X264330000Y-34670000D02*
X264330000Y-36000000D01*
X159430000Y-37330000D02*
X159430000Y-34670000D01*
X121270000Y-37330000D02*
X159430000Y-37330000D01*
X121270000Y-34670000D02*
X159430000Y-34670000D01*
X121270000Y-37330000D02*
X121270000Y-34670000D01*
X120000000Y-37330000D02*
X118670000Y-37330000D01*
X118670000Y-37330000D02*
X118670000Y-36000000D01*
D12*
X265782380Y-36785714D02*
X265306190Y-37119047D01*
X265782380Y-37357142D02*
X264782380Y-37357142D01*
X264782380Y-36976190D01*
X264830000Y-36880952D01*
X264877619Y-36833333D01*
X264972857Y-36785714D01*
X265115714Y-36785714D01*
X265210952Y-36833333D01*
X265258571Y-36880952D01*
X265306190Y-36976190D01*
X265306190Y-37357142D01*
X264782380Y-36166666D02*
X264782380Y-35976190D01*
X264830000Y-35880952D01*
X264925238Y-35785714D01*
X265115714Y-35738095D01*
X265449047Y-35738095D01*
X265639523Y-35785714D01*
X265734761Y-35880952D01*
X265782380Y-35976190D01*
X265782380Y-36166666D01*
X265734761Y-36261904D01*
X265639523Y-36357142D01*
X265449047Y-36404761D01*
X265115714Y-36404761D01*
X264925238Y-36357142D01*
X264830000Y-36261904D01*
X264782380Y-36166666D01*
X264782380Y-35404761D02*
X265782380Y-35166666D01*
X265068095Y-34976190D01*
X265782380Y-34785714D01*
X264782380Y-34547619D01*
X118027142Y-36619047D02*
X118074761Y-36666666D01*
X118122380Y-36809523D01*
X118122380Y-36904761D01*
X118074761Y-37047619D01*
X117979523Y-37142857D01*
X117884285Y-37190476D01*
X117693809Y-37238095D01*
X117550952Y-37238095D01*
X117360476Y-37190476D01*
X117265238Y-37142857D01*
X117170000Y-37047619D01*
X117122380Y-36904761D01*
X117122380Y-36809523D01*
X117170000Y-36666666D01*
X117217619Y-36619047D01*
X117122380Y-36000000D02*
X117122380Y-35809523D01*
X117170000Y-35714285D01*
X117265238Y-35619047D01*
X117455714Y-35571428D01*
X117789047Y-35571428D01*
X117979523Y-35619047D01*
X118074761Y-35714285D01*
X118122380Y-35809523D01*
X118122380Y-36000000D01*
X118074761Y-36095238D01*
X117979523Y-36190476D01*
X117789047Y-36238095D01*
X117455714Y-36238095D01*
X117265238Y-36190476D01*
X117170000Y-36095238D01*
X117122380Y-36000000D01*
X118122380Y-34666666D02*
X118122380Y-35142857D01*
X117122380Y-35142857D01*
%LPC*%
D13*
X262500000Y-30000000D03*
X223150000Y-135000000D03*
X144490000Y-135000000D03*
X183820000Y-135000000D03*
X144490000Y-30000000D03*
X105160000Y-30000000D03*
X105160000Y-135000000D03*
X183820000Y-30000000D03*
X262500000Y-135000000D03*
X26500000Y-30000000D03*
X223150000Y-30000000D03*
X65830000Y-30000000D03*
X65830000Y-135000000D03*
X26500000Y-135000000D03*
D14*
X245220000Y-36000000D03*
X247760000Y-36000000D03*
X250300000Y-36000000D03*
X252840000Y-36000000D03*
X255380000Y-36000000D03*
X257920000Y-36000000D03*
X260460000Y-36000000D03*
D15*
X263000000Y-36000000D03*
D14*
X158100000Y-36000000D03*
X155560000Y-36000000D03*
X153020000Y-36000000D03*
X150480000Y-36000000D03*
X147940000Y-36000000D03*
X145400000Y-36000000D03*
X142860000Y-36000000D03*
X140320000Y-36000000D03*
X137780000Y-36000000D03*
X135240000Y-36000000D03*
X132700000Y-36000000D03*
X130160000Y-36000000D03*
X127620000Y-36000000D03*
X125080000Y-36000000D03*
X122540000Y-36000000D03*
D15*
X120000000Y-36000000D03*
M02*
