G04 #@! TF.GenerationSoftware,KiCad,Pcbnew,5.1.10*
G04 #@! TF.CreationDate,2021-12-29T16:09:09+01:00*
G04 #@! TF.ProjectId,model_d,6d6f6465-6c5f-4642-9e6b-696361645f70,rev?*
G04 #@! TF.SameCoordinates,Original*
G04 #@! TF.FileFunction,Copper,L2,Bot*
G04 #@! TF.FilePolarity,Positive*
%FSLAX46Y46*%
G04 Gerber Fmt 4.6, Leading zero omitted, Abs format (unit mm)*
G04 Created by KiCad (PCBNEW 5.1.10) date 2021-12-29 16:09:09*
%MOMM*%
%LPD*%
G01*
G04 APERTURE LIST*
G04 #@! TA.AperFunction,ComponentPad*
%ADD10O,1.700000X1.700000*%
G04 #@! TD*
G04 #@! TA.AperFunction,ComponentPad*
%ADD11R,1.700000X1.700000*%
G04 #@! TD*
G04 #@! TA.AperFunction,ViaPad*
%ADD12C,0.800000*%
G04 #@! TD*
G04 #@! TA.AperFunction,Conductor*
%ADD13C,0.254000*%
G04 #@! TD*
G04 #@! TA.AperFunction,Conductor*
%ADD14C,0.100000*%
G04 #@! TD*
G04 APERTURE END LIST*
D10*
X245220000Y-36000000D03*
X247760000Y-36000000D03*
X250300000Y-36000000D03*
X252840000Y-36000000D03*
X255380000Y-36000000D03*
X257920000Y-36000000D03*
X260460000Y-36000000D03*
D11*
X263000000Y-36000000D03*
D10*
X158100000Y-36000000D03*
X155560000Y-36000000D03*
X153020000Y-36000000D03*
X150480000Y-36000000D03*
X147940000Y-36000000D03*
X145400000Y-36000000D03*
X142860000Y-36000000D03*
X140320000Y-36000000D03*
X137780000Y-36000000D03*
X135240000Y-36000000D03*
X132700000Y-36000000D03*
X130160000Y-36000000D03*
X127620000Y-36000000D03*
X125080000Y-36000000D03*
X122540000Y-36000000D03*
D11*
X120000000Y-36000000D03*
D12*
X30000000Y-40000000D03*
X30000000Y-50000000D03*
X30000000Y-60000000D03*
X30000000Y-70000000D03*
X30000000Y-80000000D03*
X30000000Y-90000000D03*
X30000000Y-100000000D03*
X30000000Y-110000000D03*
X30000000Y-120000000D03*
X40000000Y-40000000D03*
X40000000Y-50000000D03*
X40000000Y-60000000D03*
X40000000Y-70000000D03*
X40000000Y-80000000D03*
X40000000Y-90000000D03*
X40000000Y-100000000D03*
X40000000Y-110000000D03*
X40000000Y-120000000D03*
X50000000Y-40000000D03*
X50000000Y-50000000D03*
X50000000Y-60000000D03*
X50000000Y-70000000D03*
X50000000Y-80000000D03*
X50000000Y-90000000D03*
X50000000Y-100000000D03*
X50000000Y-110000000D03*
X50000000Y-120000000D03*
X70000000Y-110000000D03*
X80000000Y-120000000D03*
X60000000Y-40000000D03*
X80000000Y-100000000D03*
X60000000Y-110000000D03*
X80000000Y-50000000D03*
X60000000Y-80000000D03*
X60000000Y-100000000D03*
X60000000Y-60000000D03*
X60000000Y-70000000D03*
X80000000Y-70000000D03*
X70000000Y-80000000D03*
X80000000Y-110000000D03*
X80000000Y-40000000D03*
X70000000Y-100000000D03*
X70000000Y-40000000D03*
X70000000Y-120000000D03*
X80000000Y-60000000D03*
X60000000Y-90000000D03*
X70000000Y-70000000D03*
X70000000Y-50000000D03*
X80000000Y-90000000D03*
X60000000Y-50000000D03*
X80000000Y-80000000D03*
X70000000Y-60000000D03*
X70000000Y-90000000D03*
X60000000Y-120000000D03*
X100000000Y-110000000D03*
X110000000Y-120000000D03*
X90000000Y-40000000D03*
X130000000Y-50000000D03*
X140000000Y-60000000D03*
X140000000Y-40000000D03*
X110000000Y-100000000D03*
X120000000Y-50000000D03*
X90000000Y-110000000D03*
X110000000Y-50000000D03*
X140000000Y-80000000D03*
X130000000Y-120000000D03*
X90000000Y-80000000D03*
X140000000Y-110000000D03*
X130000000Y-60000000D03*
X90000000Y-100000000D03*
X130000000Y-90000000D03*
X90000000Y-60000000D03*
X140000000Y-70000000D03*
X90000000Y-70000000D03*
X110000000Y-70000000D03*
X130000000Y-40000000D03*
X130000000Y-100000000D03*
X100000000Y-80000000D03*
X110000000Y-110000000D03*
X140000000Y-100000000D03*
X110000000Y-40000000D03*
X100000000Y-100000000D03*
X100000000Y-40000000D03*
X130000000Y-80000000D03*
X130000000Y-110000000D03*
X130000000Y-70000000D03*
X100000000Y-120000000D03*
X110000000Y-60000000D03*
X90000000Y-90000000D03*
X120000000Y-100000000D03*
X120000000Y-60000000D03*
X100000000Y-70000000D03*
X120000000Y-110000000D03*
X120000000Y-70000000D03*
X100000000Y-50000000D03*
X120000000Y-80000000D03*
X140000000Y-50000000D03*
X120000000Y-40000000D03*
X140000000Y-120000000D03*
X120000000Y-90000000D03*
X140000000Y-90000000D03*
X110000000Y-90000000D03*
X90000000Y-50000000D03*
X110000000Y-80000000D03*
X100000000Y-60000000D03*
X100000000Y-90000000D03*
X90000000Y-120000000D03*
X120000000Y-120000000D03*
X160000000Y-110000000D03*
X230000000Y-120000000D03*
X240000000Y-40000000D03*
X230000000Y-60000000D03*
X170000000Y-120000000D03*
X260000000Y-70000000D03*
X150000000Y-40000000D03*
X240000000Y-100000000D03*
X190000000Y-50000000D03*
X220000000Y-50000000D03*
X250000000Y-100000000D03*
X200000000Y-60000000D03*
X200000000Y-40000000D03*
X170000000Y-100000000D03*
X250000000Y-40000000D03*
X180000000Y-50000000D03*
X150000000Y-110000000D03*
X170000000Y-50000000D03*
X200000000Y-80000000D03*
X190000000Y-120000000D03*
X150000000Y-80000000D03*
X200000000Y-110000000D03*
X250000000Y-50000000D03*
X210000000Y-90000000D03*
X190000000Y-60000000D03*
X210000000Y-70000000D03*
X260000000Y-120000000D03*
X150000000Y-100000000D03*
X190000000Y-90000000D03*
X230000000Y-70000000D03*
X150000000Y-60000000D03*
X240000000Y-70000000D03*
X210000000Y-100000000D03*
X210000000Y-60000000D03*
X240000000Y-60000000D03*
X200000000Y-70000000D03*
X150000000Y-70000000D03*
X170000000Y-70000000D03*
X190000000Y-40000000D03*
X260000000Y-110000000D03*
X220000000Y-70000000D03*
X210000000Y-40000000D03*
X220000000Y-110000000D03*
X220000000Y-90000000D03*
X250000000Y-90000000D03*
X190000000Y-100000000D03*
X160000000Y-80000000D03*
X210000000Y-50000000D03*
X170000000Y-110000000D03*
X200000000Y-100000000D03*
X220000000Y-60000000D03*
X170000000Y-40000000D03*
X160000000Y-100000000D03*
X160000000Y-40000000D03*
X190000000Y-80000000D03*
X190000000Y-110000000D03*
X190000000Y-70000000D03*
X160000000Y-120000000D03*
X170000000Y-60000000D03*
X150000000Y-90000000D03*
X260000000Y-50000000D03*
X230000000Y-80000000D03*
X230000000Y-50000000D03*
X240000000Y-50000000D03*
X220000000Y-80000000D03*
X180000000Y-100000000D03*
X230000000Y-100000000D03*
X260000000Y-40000000D03*
X210000000Y-80000000D03*
X240000000Y-110000000D03*
X240000000Y-80000000D03*
X230000000Y-90000000D03*
X180000000Y-60000000D03*
X160000000Y-70000000D03*
X250000000Y-110000000D03*
X260000000Y-90000000D03*
X180000000Y-110000000D03*
X180000000Y-70000000D03*
X160000000Y-50000000D03*
X220000000Y-100000000D03*
X240000000Y-90000000D03*
X180000000Y-80000000D03*
X200000000Y-50000000D03*
X180000000Y-40000000D03*
X230000000Y-40000000D03*
X210000000Y-110000000D03*
X200000000Y-120000000D03*
X180000000Y-90000000D03*
X200000000Y-90000000D03*
X250000000Y-70000000D03*
X170000000Y-90000000D03*
X260000000Y-100000000D03*
X250000000Y-80000000D03*
X220000000Y-120000000D03*
X240000000Y-120000000D03*
X260000000Y-60000000D03*
X150000000Y-50000000D03*
X220000000Y-40000000D03*
X210000000Y-120000000D03*
X170000000Y-80000000D03*
X160000000Y-60000000D03*
X160000000Y-90000000D03*
X230000000Y-110000000D03*
X260000000Y-80000000D03*
X150000000Y-120000000D03*
X250000000Y-60000000D03*
X180000000Y-120000000D03*
X250000000Y-120000000D03*
X170000000Y-130000000D03*
X110000000Y-130000000D03*
X50000000Y-130000000D03*
X70000000Y-130000000D03*
X140000000Y-130000000D03*
X40000000Y-130000000D03*
X220000000Y-130000000D03*
X260000000Y-130000000D03*
X180000000Y-130000000D03*
X250000000Y-130000000D03*
X240000000Y-130000000D03*
X160000000Y-130000000D03*
X210000000Y-130000000D03*
X230000000Y-130000000D03*
X150000000Y-130000000D03*
X190000000Y-130000000D03*
X80000000Y-130000000D03*
X200000000Y-130000000D03*
X100000000Y-130000000D03*
X120000000Y-130000000D03*
X90000000Y-130000000D03*
X30000000Y-130000000D03*
X60000000Y-130000000D03*
X130000000Y-130000000D03*
D13*
X24265000Y-29779872D02*
X24265000Y-30220128D01*
X24350890Y-30651925D01*
X24519369Y-31058669D01*
X24763962Y-31424729D01*
X25075271Y-31736038D01*
X25441331Y-31980631D01*
X25848075Y-32149110D01*
X26279872Y-32235000D01*
X26720128Y-32235000D01*
X27151925Y-32149110D01*
X27558669Y-31980631D01*
X27924729Y-31736038D01*
X28236038Y-31424729D01*
X28480631Y-31058669D01*
X28649110Y-30651925D01*
X28735000Y-30220128D01*
X28735000Y-29779872D01*
X28704592Y-29627000D01*
X63625408Y-29627000D01*
X63595000Y-29779872D01*
X63595000Y-30220128D01*
X63680890Y-30651925D01*
X63849369Y-31058669D01*
X64093962Y-31424729D01*
X64405271Y-31736038D01*
X64771331Y-31980631D01*
X65178075Y-32149110D01*
X65609872Y-32235000D01*
X66050128Y-32235000D01*
X66481925Y-32149110D01*
X66888669Y-31980631D01*
X67254729Y-31736038D01*
X67566038Y-31424729D01*
X67810631Y-31058669D01*
X67979110Y-30651925D01*
X68065000Y-30220128D01*
X68065000Y-29779872D01*
X68034592Y-29627000D01*
X102955408Y-29627000D01*
X102925000Y-29779872D01*
X102925000Y-30220128D01*
X103010890Y-30651925D01*
X103179369Y-31058669D01*
X103423962Y-31424729D01*
X103735271Y-31736038D01*
X104101331Y-31980631D01*
X104508075Y-32149110D01*
X104939872Y-32235000D01*
X105380128Y-32235000D01*
X105811925Y-32149110D01*
X106218669Y-31980631D01*
X106584729Y-31736038D01*
X106896038Y-31424729D01*
X107140631Y-31058669D01*
X107309110Y-30651925D01*
X107395000Y-30220128D01*
X107395000Y-29779872D01*
X107364592Y-29627000D01*
X142285408Y-29627000D01*
X142255000Y-29779872D01*
X142255000Y-30220128D01*
X142340890Y-30651925D01*
X142509369Y-31058669D01*
X142753962Y-31424729D01*
X143065271Y-31736038D01*
X143431331Y-31980631D01*
X143838075Y-32149110D01*
X144269872Y-32235000D01*
X144710128Y-32235000D01*
X145141925Y-32149110D01*
X145548669Y-31980631D01*
X145914729Y-31736038D01*
X146226038Y-31424729D01*
X146470631Y-31058669D01*
X146639110Y-30651925D01*
X146725000Y-30220128D01*
X146725000Y-29779872D01*
X146694592Y-29627000D01*
X181615408Y-29627000D01*
X181585000Y-29779872D01*
X181585000Y-30220128D01*
X181670890Y-30651925D01*
X181839369Y-31058669D01*
X182083962Y-31424729D01*
X182395271Y-31736038D01*
X182761331Y-31980631D01*
X183168075Y-32149110D01*
X183599872Y-32235000D01*
X184040128Y-32235000D01*
X184471925Y-32149110D01*
X184878669Y-31980631D01*
X185244729Y-31736038D01*
X185556038Y-31424729D01*
X185800631Y-31058669D01*
X185969110Y-30651925D01*
X186055000Y-30220128D01*
X186055000Y-29779872D01*
X186024592Y-29627000D01*
X220945408Y-29627000D01*
X220915000Y-29779872D01*
X220915000Y-30220128D01*
X221000890Y-30651925D01*
X221169369Y-31058669D01*
X221413962Y-31424729D01*
X221725271Y-31736038D01*
X222091331Y-31980631D01*
X222498075Y-32149110D01*
X222929872Y-32235000D01*
X223370128Y-32235000D01*
X223801925Y-32149110D01*
X224208669Y-31980631D01*
X224574729Y-31736038D01*
X224886038Y-31424729D01*
X225130631Y-31058669D01*
X225299110Y-30651925D01*
X225385000Y-30220128D01*
X225385000Y-29779872D01*
X225354592Y-29627000D01*
X260295408Y-29627000D01*
X260265000Y-29779872D01*
X260265000Y-30220128D01*
X260350890Y-30651925D01*
X260519369Y-31058669D01*
X260763962Y-31424729D01*
X261075271Y-31736038D01*
X261441331Y-31980631D01*
X261626214Y-32057212D01*
X261574552Y-32061013D01*
X260982977Y-32232631D01*
X260436251Y-32516363D01*
X259955383Y-32901303D01*
X259558853Y-33372660D01*
X259261899Y-33912318D01*
X259075934Y-34499541D01*
X259066663Y-34603177D01*
X258860238Y-34842253D01*
X258623411Y-34684010D01*
X258353158Y-34572068D01*
X258066260Y-34515000D01*
X257773740Y-34515000D01*
X257486842Y-34572068D01*
X257216589Y-34684010D01*
X256973368Y-34846525D01*
X256766525Y-35053368D01*
X256650000Y-35227760D01*
X256533475Y-35053368D01*
X256326632Y-34846525D01*
X256083411Y-34684010D01*
X255813158Y-34572068D01*
X255526260Y-34515000D01*
X255233740Y-34515000D01*
X254946842Y-34572068D01*
X254676589Y-34684010D01*
X254433368Y-34846525D01*
X254226525Y-35053368D01*
X254110000Y-35227760D01*
X253993475Y-35053368D01*
X253786632Y-34846525D01*
X253543411Y-34684010D01*
X253273158Y-34572068D01*
X252986260Y-34515000D01*
X252693740Y-34515000D01*
X252406842Y-34572068D01*
X252136589Y-34684010D01*
X251893368Y-34846525D01*
X251686525Y-35053368D01*
X251570000Y-35227760D01*
X251453475Y-35053368D01*
X251246632Y-34846525D01*
X251003411Y-34684010D01*
X250733158Y-34572068D01*
X250446260Y-34515000D01*
X250153740Y-34515000D01*
X249866842Y-34572068D01*
X249596589Y-34684010D01*
X249359762Y-34842253D01*
X249122552Y-34567522D01*
X248816908Y-34329226D01*
X248811601Y-34326558D01*
X248542864Y-33814797D01*
X248052704Y-33208526D01*
X247453685Y-32709530D01*
X246768827Y-32336985D01*
X246024448Y-32105208D01*
X245967259Y-32093834D01*
X245347000Y-32807275D01*
X245347000Y-35873000D01*
X245367000Y-35873000D01*
X245367000Y-36127000D01*
X245347000Y-36127000D01*
X245347000Y-39192725D01*
X245967259Y-39906166D01*
X246024448Y-39894792D01*
X246768827Y-39663015D01*
X247453685Y-39290470D01*
X248052704Y-38791474D01*
X248542864Y-38185203D01*
X248811601Y-37673442D01*
X248816908Y-37670774D01*
X249122552Y-37432478D01*
X249359762Y-37157747D01*
X249596589Y-37315990D01*
X249866842Y-37427932D01*
X250153740Y-37485000D01*
X250446260Y-37485000D01*
X250733158Y-37427932D01*
X251003411Y-37315990D01*
X251246632Y-37153475D01*
X251453475Y-36946632D01*
X251570000Y-36772240D01*
X251686525Y-36946632D01*
X251893368Y-37153475D01*
X252136589Y-37315990D01*
X252406842Y-37427932D01*
X252693740Y-37485000D01*
X252986260Y-37485000D01*
X253273158Y-37427932D01*
X253543411Y-37315990D01*
X253786632Y-37153475D01*
X253993475Y-36946632D01*
X254110000Y-36772240D01*
X254226525Y-36946632D01*
X254433368Y-37153475D01*
X254676589Y-37315990D01*
X254946842Y-37427932D01*
X255233740Y-37485000D01*
X255526260Y-37485000D01*
X255813158Y-37427932D01*
X256083411Y-37315990D01*
X256326632Y-37153475D01*
X256533475Y-36946632D01*
X256650000Y-36772240D01*
X256766525Y-36946632D01*
X256973368Y-37153475D01*
X257216589Y-37315990D01*
X257486842Y-37427932D01*
X257773740Y-37485000D01*
X258066260Y-37485000D01*
X258353158Y-37427932D01*
X258623411Y-37315990D01*
X258860238Y-37157747D01*
X259066663Y-37396823D01*
X259075934Y-37500459D01*
X259261899Y-38087682D01*
X259558853Y-38627340D01*
X259955383Y-39098697D01*
X260436251Y-39483637D01*
X260982977Y-39767369D01*
X261574552Y-39938987D01*
X262091250Y-39977000D01*
X262873000Y-39195250D01*
X262873000Y-36127000D01*
X262853000Y-36127000D01*
X262853000Y-35873000D01*
X262873000Y-35873000D01*
X262873000Y-35853000D01*
X263127000Y-35853000D01*
X263127000Y-35873000D01*
X263147000Y-35873000D01*
X263147000Y-36127000D01*
X263127000Y-36127000D01*
X263127000Y-39195250D01*
X263908750Y-39977000D01*
X264425448Y-39938987D01*
X265017023Y-39767369D01*
X265563749Y-39483637D01*
X265840000Y-39262495D01*
X265840001Y-135873000D01*
X264557538Y-135873000D01*
X264649110Y-135651925D01*
X264735000Y-135220128D01*
X264735000Y-134779872D01*
X264649110Y-134348075D01*
X264480631Y-133941331D01*
X264236038Y-133575271D01*
X263924729Y-133263962D01*
X263558669Y-133019369D01*
X263151925Y-132850890D01*
X262720128Y-132765000D01*
X262279872Y-132765000D01*
X261848075Y-132850890D01*
X261441331Y-133019369D01*
X261075271Y-133263962D01*
X260763962Y-133575271D01*
X260519369Y-133941331D01*
X260350890Y-134348075D01*
X260265000Y-134779872D01*
X260265000Y-135220128D01*
X260350890Y-135651925D01*
X260442462Y-135873000D01*
X225207538Y-135873000D01*
X225299110Y-135651925D01*
X225385000Y-135220128D01*
X225385000Y-134779872D01*
X225299110Y-134348075D01*
X225130631Y-133941331D01*
X224886038Y-133575271D01*
X224574729Y-133263962D01*
X224208669Y-133019369D01*
X223801925Y-132850890D01*
X223370128Y-132765000D01*
X222929872Y-132765000D01*
X222498075Y-132850890D01*
X222091331Y-133019369D01*
X221725271Y-133263962D01*
X221413962Y-133575271D01*
X221169369Y-133941331D01*
X221000890Y-134348075D01*
X220915000Y-134779872D01*
X220915000Y-135220128D01*
X221000890Y-135651925D01*
X221092462Y-135873000D01*
X185877538Y-135873000D01*
X185969110Y-135651925D01*
X186055000Y-135220128D01*
X186055000Y-134779872D01*
X185969110Y-134348075D01*
X185800631Y-133941331D01*
X185556038Y-133575271D01*
X185244729Y-133263962D01*
X184878669Y-133019369D01*
X184471925Y-132850890D01*
X184040128Y-132765000D01*
X183599872Y-132765000D01*
X183168075Y-132850890D01*
X182761331Y-133019369D01*
X182395271Y-133263962D01*
X182083962Y-133575271D01*
X181839369Y-133941331D01*
X181670890Y-134348075D01*
X181585000Y-134779872D01*
X181585000Y-135220128D01*
X181670890Y-135651925D01*
X181762462Y-135873000D01*
X146547538Y-135873000D01*
X146639110Y-135651925D01*
X146725000Y-135220128D01*
X146725000Y-134779872D01*
X146639110Y-134348075D01*
X146470631Y-133941331D01*
X146226038Y-133575271D01*
X145914729Y-133263962D01*
X145548669Y-133019369D01*
X145141925Y-132850890D01*
X144710128Y-132765000D01*
X144269872Y-132765000D01*
X143838075Y-132850890D01*
X143431331Y-133019369D01*
X143065271Y-133263962D01*
X142753962Y-133575271D01*
X142509369Y-133941331D01*
X142340890Y-134348075D01*
X142255000Y-134779872D01*
X142255000Y-135220128D01*
X142340890Y-135651925D01*
X142432462Y-135873000D01*
X107217538Y-135873000D01*
X107309110Y-135651925D01*
X107395000Y-135220128D01*
X107395000Y-134779872D01*
X107309110Y-134348075D01*
X107140631Y-133941331D01*
X106896038Y-133575271D01*
X106584729Y-133263962D01*
X106218669Y-133019369D01*
X105811925Y-132850890D01*
X105380128Y-132765000D01*
X104939872Y-132765000D01*
X104508075Y-132850890D01*
X104101331Y-133019369D01*
X103735271Y-133263962D01*
X103423962Y-133575271D01*
X103179369Y-133941331D01*
X103010890Y-134348075D01*
X102925000Y-134779872D01*
X102925000Y-135220128D01*
X103010890Y-135651925D01*
X103102462Y-135873000D01*
X67887538Y-135873000D01*
X67979110Y-135651925D01*
X68065000Y-135220128D01*
X68065000Y-134779872D01*
X67979110Y-134348075D01*
X67810631Y-133941331D01*
X67566038Y-133575271D01*
X67254729Y-133263962D01*
X66888669Y-133019369D01*
X66481925Y-132850890D01*
X66050128Y-132765000D01*
X65609872Y-132765000D01*
X65178075Y-132850890D01*
X64771331Y-133019369D01*
X64405271Y-133263962D01*
X64093962Y-133575271D01*
X63849369Y-133941331D01*
X63680890Y-134348075D01*
X63595000Y-134779872D01*
X63595000Y-135220128D01*
X63680890Y-135651925D01*
X63772462Y-135873000D01*
X28557538Y-135873000D01*
X28649110Y-135651925D01*
X28735000Y-135220128D01*
X28735000Y-134779872D01*
X28649110Y-134348075D01*
X28480631Y-133941331D01*
X28236038Y-133575271D01*
X27924729Y-133263962D01*
X27558669Y-133019369D01*
X27151925Y-132850890D01*
X26720128Y-132765000D01*
X26279872Y-132765000D01*
X25848075Y-132850890D01*
X25441331Y-133019369D01*
X25075271Y-133263962D01*
X24763962Y-133575271D01*
X24519369Y-133941331D01*
X24350890Y-134348075D01*
X24265000Y-134779872D01*
X24265000Y-135220128D01*
X24350890Y-135651925D01*
X24442462Y-135873000D01*
X23160000Y-135873000D01*
X23160000Y-36908750D01*
X116023000Y-36908750D01*
X116075934Y-37500459D01*
X116261899Y-38087682D01*
X116558853Y-38627340D01*
X116955383Y-39098697D01*
X117436251Y-39483637D01*
X117982977Y-39767369D01*
X118574552Y-39938987D01*
X119091250Y-39977000D01*
X119873000Y-39195250D01*
X119873000Y-36127000D01*
X116804750Y-36127000D01*
X116023000Y-36908750D01*
X23160000Y-36908750D01*
X23160000Y-35091250D01*
X116023000Y-35091250D01*
X116804750Y-35873000D01*
X119873000Y-35873000D01*
X119873000Y-32804750D01*
X120127000Y-32804750D01*
X120127000Y-35873000D01*
X120147000Y-35873000D01*
X120147000Y-36127000D01*
X120127000Y-36127000D01*
X120127000Y-39195250D01*
X120908750Y-39977000D01*
X121425448Y-39938987D01*
X122017023Y-39767369D01*
X122563749Y-39483637D01*
X123044617Y-39098697D01*
X123441147Y-38627340D01*
X123738101Y-38087682D01*
X123924066Y-37500459D01*
X123933337Y-37396823D01*
X124139762Y-37157747D01*
X124376589Y-37315990D01*
X124646842Y-37427932D01*
X124933740Y-37485000D01*
X125226260Y-37485000D01*
X125513158Y-37427932D01*
X125783411Y-37315990D01*
X126026632Y-37153475D01*
X126233475Y-36946632D01*
X126350000Y-36772240D01*
X126466525Y-36946632D01*
X126673368Y-37153475D01*
X126916589Y-37315990D01*
X127186842Y-37427932D01*
X127473740Y-37485000D01*
X127766260Y-37485000D01*
X128053158Y-37427932D01*
X128323411Y-37315990D01*
X128566632Y-37153475D01*
X128773475Y-36946632D01*
X128890000Y-36772240D01*
X129006525Y-36946632D01*
X129213368Y-37153475D01*
X129456589Y-37315990D01*
X129726842Y-37427932D01*
X130013740Y-37485000D01*
X130306260Y-37485000D01*
X130593158Y-37427932D01*
X130863411Y-37315990D01*
X131106632Y-37153475D01*
X131313475Y-36946632D01*
X131430000Y-36772240D01*
X131546525Y-36946632D01*
X131753368Y-37153475D01*
X131996589Y-37315990D01*
X132266842Y-37427932D01*
X132553740Y-37485000D01*
X132846260Y-37485000D01*
X133133158Y-37427932D01*
X133403411Y-37315990D01*
X133646632Y-37153475D01*
X133853475Y-36946632D01*
X133970000Y-36772240D01*
X134086525Y-36946632D01*
X134293368Y-37153475D01*
X134536589Y-37315990D01*
X134806842Y-37427932D01*
X135093740Y-37485000D01*
X135386260Y-37485000D01*
X135673158Y-37427932D01*
X135943411Y-37315990D01*
X136186632Y-37153475D01*
X136393475Y-36946632D01*
X136510000Y-36772240D01*
X136626525Y-36946632D01*
X136833368Y-37153475D01*
X137076589Y-37315990D01*
X137346842Y-37427932D01*
X137633740Y-37485000D01*
X137926260Y-37485000D01*
X138213158Y-37427932D01*
X138483411Y-37315990D01*
X138726632Y-37153475D01*
X138933475Y-36946632D01*
X139050000Y-36772240D01*
X139166525Y-36946632D01*
X139373368Y-37153475D01*
X139616589Y-37315990D01*
X139886842Y-37427932D01*
X140173740Y-37485000D01*
X140466260Y-37485000D01*
X140753158Y-37427932D01*
X141023411Y-37315990D01*
X141266632Y-37153475D01*
X141473475Y-36946632D01*
X141590000Y-36772240D01*
X141706525Y-36946632D01*
X141913368Y-37153475D01*
X142156589Y-37315990D01*
X142426842Y-37427932D01*
X142713740Y-37485000D01*
X143006260Y-37485000D01*
X143293158Y-37427932D01*
X143563411Y-37315990D01*
X143806632Y-37153475D01*
X144013475Y-36946632D01*
X144130000Y-36772240D01*
X144246525Y-36946632D01*
X144453368Y-37153475D01*
X144696589Y-37315990D01*
X144966842Y-37427932D01*
X145253740Y-37485000D01*
X145546260Y-37485000D01*
X145833158Y-37427932D01*
X146103411Y-37315990D01*
X146346632Y-37153475D01*
X146553475Y-36946632D01*
X146670000Y-36772240D01*
X146786525Y-36946632D01*
X146993368Y-37153475D01*
X147236589Y-37315990D01*
X147506842Y-37427932D01*
X147793740Y-37485000D01*
X148086260Y-37485000D01*
X148373158Y-37427932D01*
X148643411Y-37315990D01*
X148886632Y-37153475D01*
X149093475Y-36946632D01*
X149210000Y-36772240D01*
X149326525Y-36946632D01*
X149533368Y-37153475D01*
X149776589Y-37315990D01*
X150046842Y-37427932D01*
X150333740Y-37485000D01*
X150626260Y-37485000D01*
X150913158Y-37427932D01*
X151183411Y-37315990D01*
X151426632Y-37153475D01*
X151633475Y-36946632D01*
X151750000Y-36772240D01*
X151866525Y-36946632D01*
X152073368Y-37153475D01*
X152316589Y-37315990D01*
X152586842Y-37427932D01*
X152873740Y-37485000D01*
X153166260Y-37485000D01*
X153453158Y-37427932D01*
X153723411Y-37315990D01*
X153960238Y-37157747D01*
X154197448Y-37432478D01*
X154503092Y-37670774D01*
X154508399Y-37673442D01*
X154777136Y-38185203D01*
X155267296Y-38791474D01*
X155866315Y-39290470D01*
X156551173Y-39663015D01*
X157295552Y-39894792D01*
X157352741Y-39906166D01*
X157973000Y-39192725D01*
X157973000Y-36127000D01*
X158227000Y-36127000D01*
X158227000Y-39192725D01*
X158847259Y-39906166D01*
X158904448Y-39894792D01*
X159648827Y-39663015D01*
X160333685Y-39290470D01*
X160932704Y-38791474D01*
X161422864Y-38185203D01*
X161785328Y-37494956D01*
X162006167Y-36747259D01*
X241313833Y-36747259D01*
X241534672Y-37494956D01*
X241897136Y-38185203D01*
X242387296Y-38791474D01*
X242986315Y-39290470D01*
X243671173Y-39663015D01*
X244415552Y-39894792D01*
X244472741Y-39906166D01*
X245093000Y-39192725D01*
X245093000Y-36127000D01*
X242026777Y-36127000D01*
X241313833Y-36747259D01*
X162006167Y-36747259D01*
X161293223Y-36127000D01*
X158227000Y-36127000D01*
X157973000Y-36127000D01*
X157953000Y-36127000D01*
X157953000Y-35873000D01*
X157973000Y-35873000D01*
X157973000Y-32807275D01*
X158227000Y-32807275D01*
X158227000Y-35873000D01*
X161293223Y-35873000D01*
X162006167Y-35252741D01*
X241313833Y-35252741D01*
X242026777Y-35873000D01*
X245093000Y-35873000D01*
X245093000Y-32807275D01*
X244472741Y-32093834D01*
X244415552Y-32105208D01*
X243671173Y-32336985D01*
X242986315Y-32709530D01*
X242387296Y-33208526D01*
X241897136Y-33814797D01*
X241534672Y-34505044D01*
X241313833Y-35252741D01*
X162006167Y-35252741D01*
X161785328Y-34505044D01*
X161422864Y-33814797D01*
X160932704Y-33208526D01*
X160333685Y-32709530D01*
X159648827Y-32336985D01*
X158904448Y-32105208D01*
X158847259Y-32093834D01*
X158227000Y-32807275D01*
X157973000Y-32807275D01*
X157352741Y-32093834D01*
X157295552Y-32105208D01*
X156551173Y-32336985D01*
X155866315Y-32709530D01*
X155267296Y-33208526D01*
X154777136Y-33814797D01*
X154508399Y-34326558D01*
X154503092Y-34329226D01*
X154197448Y-34567522D01*
X153960238Y-34842253D01*
X153723411Y-34684010D01*
X153453158Y-34572068D01*
X153166260Y-34515000D01*
X152873740Y-34515000D01*
X152586842Y-34572068D01*
X152316589Y-34684010D01*
X152073368Y-34846525D01*
X151866525Y-35053368D01*
X151750000Y-35227760D01*
X151633475Y-35053368D01*
X151426632Y-34846525D01*
X151183411Y-34684010D01*
X150913158Y-34572068D01*
X150626260Y-34515000D01*
X150333740Y-34515000D01*
X150046842Y-34572068D01*
X149776589Y-34684010D01*
X149533368Y-34846525D01*
X149326525Y-35053368D01*
X149210000Y-35227760D01*
X149093475Y-35053368D01*
X148886632Y-34846525D01*
X148643411Y-34684010D01*
X148373158Y-34572068D01*
X148086260Y-34515000D01*
X147793740Y-34515000D01*
X147506842Y-34572068D01*
X147236589Y-34684010D01*
X146993368Y-34846525D01*
X146786525Y-35053368D01*
X146670000Y-35227760D01*
X146553475Y-35053368D01*
X146346632Y-34846525D01*
X146103411Y-34684010D01*
X145833158Y-34572068D01*
X145546260Y-34515000D01*
X145253740Y-34515000D01*
X144966842Y-34572068D01*
X144696589Y-34684010D01*
X144453368Y-34846525D01*
X144246525Y-35053368D01*
X144130000Y-35227760D01*
X144013475Y-35053368D01*
X143806632Y-34846525D01*
X143563411Y-34684010D01*
X143293158Y-34572068D01*
X143006260Y-34515000D01*
X142713740Y-34515000D01*
X142426842Y-34572068D01*
X142156589Y-34684010D01*
X141913368Y-34846525D01*
X141706525Y-35053368D01*
X141590000Y-35227760D01*
X141473475Y-35053368D01*
X141266632Y-34846525D01*
X141023411Y-34684010D01*
X140753158Y-34572068D01*
X140466260Y-34515000D01*
X140173740Y-34515000D01*
X139886842Y-34572068D01*
X139616589Y-34684010D01*
X139373368Y-34846525D01*
X139166525Y-35053368D01*
X139050000Y-35227760D01*
X138933475Y-35053368D01*
X138726632Y-34846525D01*
X138483411Y-34684010D01*
X138213158Y-34572068D01*
X137926260Y-34515000D01*
X137633740Y-34515000D01*
X137346842Y-34572068D01*
X137076589Y-34684010D01*
X136833368Y-34846525D01*
X136626525Y-35053368D01*
X136510000Y-35227760D01*
X136393475Y-35053368D01*
X136186632Y-34846525D01*
X135943411Y-34684010D01*
X135673158Y-34572068D01*
X135386260Y-34515000D01*
X135093740Y-34515000D01*
X134806842Y-34572068D01*
X134536589Y-34684010D01*
X134293368Y-34846525D01*
X134086525Y-35053368D01*
X133970000Y-35227760D01*
X133853475Y-35053368D01*
X133646632Y-34846525D01*
X133403411Y-34684010D01*
X133133158Y-34572068D01*
X132846260Y-34515000D01*
X132553740Y-34515000D01*
X132266842Y-34572068D01*
X131996589Y-34684010D01*
X131753368Y-34846525D01*
X131546525Y-35053368D01*
X131430000Y-35227760D01*
X131313475Y-35053368D01*
X131106632Y-34846525D01*
X130863411Y-34684010D01*
X130593158Y-34572068D01*
X130306260Y-34515000D01*
X130013740Y-34515000D01*
X129726842Y-34572068D01*
X129456589Y-34684010D01*
X129213368Y-34846525D01*
X129006525Y-35053368D01*
X128890000Y-35227760D01*
X128773475Y-35053368D01*
X128566632Y-34846525D01*
X128323411Y-34684010D01*
X128053158Y-34572068D01*
X127766260Y-34515000D01*
X127473740Y-34515000D01*
X127186842Y-34572068D01*
X126916589Y-34684010D01*
X126673368Y-34846525D01*
X126466525Y-35053368D01*
X126350000Y-35227760D01*
X126233475Y-35053368D01*
X126026632Y-34846525D01*
X125783411Y-34684010D01*
X125513158Y-34572068D01*
X125226260Y-34515000D01*
X124933740Y-34515000D01*
X124646842Y-34572068D01*
X124376589Y-34684010D01*
X124139762Y-34842253D01*
X123933337Y-34603177D01*
X123924066Y-34499541D01*
X123738101Y-33912318D01*
X123441147Y-33372660D01*
X123044617Y-32901303D01*
X122563749Y-32516363D01*
X122017023Y-32232631D01*
X121425448Y-32061013D01*
X120908750Y-32023000D01*
X120127000Y-32804750D01*
X119873000Y-32804750D01*
X119091250Y-32023000D01*
X118574552Y-32061013D01*
X117982977Y-32232631D01*
X117436251Y-32516363D01*
X116955383Y-32901303D01*
X116558853Y-33372660D01*
X116261899Y-33912318D01*
X116075934Y-34499541D01*
X116023000Y-35091250D01*
X23160000Y-35091250D01*
X23160000Y-29627000D01*
X24295408Y-29627000D01*
X24265000Y-29779872D01*
G04 #@! TA.AperFunction,Conductor*
D14*
G36*
X24265000Y-29779872D02*
G01*
X24265000Y-30220128D01*
X24350890Y-30651925D01*
X24519369Y-31058669D01*
X24763962Y-31424729D01*
X25075271Y-31736038D01*
X25441331Y-31980631D01*
X25848075Y-32149110D01*
X26279872Y-32235000D01*
X26720128Y-32235000D01*
X27151925Y-32149110D01*
X27558669Y-31980631D01*
X27924729Y-31736038D01*
X28236038Y-31424729D01*
X28480631Y-31058669D01*
X28649110Y-30651925D01*
X28735000Y-30220128D01*
X28735000Y-29779872D01*
X28704592Y-29627000D01*
X63625408Y-29627000D01*
X63595000Y-29779872D01*
X63595000Y-30220128D01*
X63680890Y-30651925D01*
X63849369Y-31058669D01*
X64093962Y-31424729D01*
X64405271Y-31736038D01*
X64771331Y-31980631D01*
X65178075Y-32149110D01*
X65609872Y-32235000D01*
X66050128Y-32235000D01*
X66481925Y-32149110D01*
X66888669Y-31980631D01*
X67254729Y-31736038D01*
X67566038Y-31424729D01*
X67810631Y-31058669D01*
X67979110Y-30651925D01*
X68065000Y-30220128D01*
X68065000Y-29779872D01*
X68034592Y-29627000D01*
X102955408Y-29627000D01*
X102925000Y-29779872D01*
X102925000Y-30220128D01*
X103010890Y-30651925D01*
X103179369Y-31058669D01*
X103423962Y-31424729D01*
X103735271Y-31736038D01*
X104101331Y-31980631D01*
X104508075Y-32149110D01*
X104939872Y-32235000D01*
X105380128Y-32235000D01*
X105811925Y-32149110D01*
X106218669Y-31980631D01*
X106584729Y-31736038D01*
X106896038Y-31424729D01*
X107140631Y-31058669D01*
X107309110Y-30651925D01*
X107395000Y-30220128D01*
X107395000Y-29779872D01*
X107364592Y-29627000D01*
X142285408Y-29627000D01*
X142255000Y-29779872D01*
X142255000Y-30220128D01*
X142340890Y-30651925D01*
X142509369Y-31058669D01*
X142753962Y-31424729D01*
X143065271Y-31736038D01*
X143431331Y-31980631D01*
X143838075Y-32149110D01*
X144269872Y-32235000D01*
X144710128Y-32235000D01*
X145141925Y-32149110D01*
X145548669Y-31980631D01*
X145914729Y-31736038D01*
X146226038Y-31424729D01*
X146470631Y-31058669D01*
X146639110Y-30651925D01*
X146725000Y-30220128D01*
X146725000Y-29779872D01*
X146694592Y-29627000D01*
X181615408Y-29627000D01*
X181585000Y-29779872D01*
X181585000Y-30220128D01*
X181670890Y-30651925D01*
X181839369Y-31058669D01*
X182083962Y-31424729D01*
X182395271Y-31736038D01*
X182761331Y-31980631D01*
X183168075Y-32149110D01*
X183599872Y-32235000D01*
X184040128Y-32235000D01*
X184471925Y-32149110D01*
X184878669Y-31980631D01*
X185244729Y-31736038D01*
X185556038Y-31424729D01*
X185800631Y-31058669D01*
X185969110Y-30651925D01*
X186055000Y-30220128D01*
X186055000Y-29779872D01*
X186024592Y-29627000D01*
X220945408Y-29627000D01*
X220915000Y-29779872D01*
X220915000Y-30220128D01*
X221000890Y-30651925D01*
X221169369Y-31058669D01*
X221413962Y-31424729D01*
X221725271Y-31736038D01*
X222091331Y-31980631D01*
X222498075Y-32149110D01*
X222929872Y-32235000D01*
X223370128Y-32235000D01*
X223801925Y-32149110D01*
X224208669Y-31980631D01*
X224574729Y-31736038D01*
X224886038Y-31424729D01*
X225130631Y-31058669D01*
X225299110Y-30651925D01*
X225385000Y-30220128D01*
X225385000Y-29779872D01*
X225354592Y-29627000D01*
X260295408Y-29627000D01*
X260265000Y-29779872D01*
X260265000Y-30220128D01*
X260350890Y-30651925D01*
X260519369Y-31058669D01*
X260763962Y-31424729D01*
X261075271Y-31736038D01*
X261441331Y-31980631D01*
X261626214Y-32057212D01*
X261574552Y-32061013D01*
X260982977Y-32232631D01*
X260436251Y-32516363D01*
X259955383Y-32901303D01*
X259558853Y-33372660D01*
X259261899Y-33912318D01*
X259075934Y-34499541D01*
X259066663Y-34603177D01*
X258860238Y-34842253D01*
X258623411Y-34684010D01*
X258353158Y-34572068D01*
X258066260Y-34515000D01*
X257773740Y-34515000D01*
X257486842Y-34572068D01*
X257216589Y-34684010D01*
X256973368Y-34846525D01*
X256766525Y-35053368D01*
X256650000Y-35227760D01*
X256533475Y-35053368D01*
X256326632Y-34846525D01*
X256083411Y-34684010D01*
X255813158Y-34572068D01*
X255526260Y-34515000D01*
X255233740Y-34515000D01*
X254946842Y-34572068D01*
X254676589Y-34684010D01*
X254433368Y-34846525D01*
X254226525Y-35053368D01*
X254110000Y-35227760D01*
X253993475Y-35053368D01*
X253786632Y-34846525D01*
X253543411Y-34684010D01*
X253273158Y-34572068D01*
X252986260Y-34515000D01*
X252693740Y-34515000D01*
X252406842Y-34572068D01*
X252136589Y-34684010D01*
X251893368Y-34846525D01*
X251686525Y-35053368D01*
X251570000Y-35227760D01*
X251453475Y-35053368D01*
X251246632Y-34846525D01*
X251003411Y-34684010D01*
X250733158Y-34572068D01*
X250446260Y-34515000D01*
X250153740Y-34515000D01*
X249866842Y-34572068D01*
X249596589Y-34684010D01*
X249359762Y-34842253D01*
X249122552Y-34567522D01*
X248816908Y-34329226D01*
X248811601Y-34326558D01*
X248542864Y-33814797D01*
X248052704Y-33208526D01*
X247453685Y-32709530D01*
X246768827Y-32336985D01*
X246024448Y-32105208D01*
X245967259Y-32093834D01*
X245347000Y-32807275D01*
X245347000Y-35873000D01*
X245367000Y-35873000D01*
X245367000Y-36127000D01*
X245347000Y-36127000D01*
X245347000Y-39192725D01*
X245967259Y-39906166D01*
X246024448Y-39894792D01*
X246768827Y-39663015D01*
X247453685Y-39290470D01*
X248052704Y-38791474D01*
X248542864Y-38185203D01*
X248811601Y-37673442D01*
X248816908Y-37670774D01*
X249122552Y-37432478D01*
X249359762Y-37157747D01*
X249596589Y-37315990D01*
X249866842Y-37427932D01*
X250153740Y-37485000D01*
X250446260Y-37485000D01*
X250733158Y-37427932D01*
X251003411Y-37315990D01*
X251246632Y-37153475D01*
X251453475Y-36946632D01*
X251570000Y-36772240D01*
X251686525Y-36946632D01*
X251893368Y-37153475D01*
X252136589Y-37315990D01*
X252406842Y-37427932D01*
X252693740Y-37485000D01*
X252986260Y-37485000D01*
X253273158Y-37427932D01*
X253543411Y-37315990D01*
X253786632Y-37153475D01*
X253993475Y-36946632D01*
X254110000Y-36772240D01*
X254226525Y-36946632D01*
X254433368Y-37153475D01*
X254676589Y-37315990D01*
X254946842Y-37427932D01*
X255233740Y-37485000D01*
X255526260Y-37485000D01*
X255813158Y-37427932D01*
X256083411Y-37315990D01*
X256326632Y-37153475D01*
X256533475Y-36946632D01*
X256650000Y-36772240D01*
X256766525Y-36946632D01*
X256973368Y-37153475D01*
X257216589Y-37315990D01*
X257486842Y-37427932D01*
X257773740Y-37485000D01*
X258066260Y-37485000D01*
X258353158Y-37427932D01*
X258623411Y-37315990D01*
X258860238Y-37157747D01*
X259066663Y-37396823D01*
X259075934Y-37500459D01*
X259261899Y-38087682D01*
X259558853Y-38627340D01*
X259955383Y-39098697D01*
X260436251Y-39483637D01*
X260982977Y-39767369D01*
X261574552Y-39938987D01*
X262091250Y-39977000D01*
X262873000Y-39195250D01*
X262873000Y-36127000D01*
X262853000Y-36127000D01*
X262853000Y-35873000D01*
X262873000Y-35873000D01*
X262873000Y-35853000D01*
X263127000Y-35853000D01*
X263127000Y-35873000D01*
X263147000Y-35873000D01*
X263147000Y-36127000D01*
X263127000Y-36127000D01*
X263127000Y-39195250D01*
X263908750Y-39977000D01*
X264425448Y-39938987D01*
X265017023Y-39767369D01*
X265563749Y-39483637D01*
X265840000Y-39262495D01*
X265840001Y-135873000D01*
X264557538Y-135873000D01*
X264649110Y-135651925D01*
X264735000Y-135220128D01*
X264735000Y-134779872D01*
X264649110Y-134348075D01*
X264480631Y-133941331D01*
X264236038Y-133575271D01*
X263924729Y-133263962D01*
X263558669Y-133019369D01*
X263151925Y-132850890D01*
X262720128Y-132765000D01*
X262279872Y-132765000D01*
X261848075Y-132850890D01*
X261441331Y-133019369D01*
X261075271Y-133263962D01*
X260763962Y-133575271D01*
X260519369Y-133941331D01*
X260350890Y-134348075D01*
X260265000Y-134779872D01*
X260265000Y-135220128D01*
X260350890Y-135651925D01*
X260442462Y-135873000D01*
X225207538Y-135873000D01*
X225299110Y-135651925D01*
X225385000Y-135220128D01*
X225385000Y-134779872D01*
X225299110Y-134348075D01*
X225130631Y-133941331D01*
X224886038Y-133575271D01*
X224574729Y-133263962D01*
X224208669Y-133019369D01*
X223801925Y-132850890D01*
X223370128Y-132765000D01*
X222929872Y-132765000D01*
X222498075Y-132850890D01*
X222091331Y-133019369D01*
X221725271Y-133263962D01*
X221413962Y-133575271D01*
X221169369Y-133941331D01*
X221000890Y-134348075D01*
X220915000Y-134779872D01*
X220915000Y-135220128D01*
X221000890Y-135651925D01*
X221092462Y-135873000D01*
X185877538Y-135873000D01*
X185969110Y-135651925D01*
X186055000Y-135220128D01*
X186055000Y-134779872D01*
X185969110Y-134348075D01*
X185800631Y-133941331D01*
X185556038Y-133575271D01*
X185244729Y-133263962D01*
X184878669Y-133019369D01*
X184471925Y-132850890D01*
X184040128Y-132765000D01*
X183599872Y-132765000D01*
X183168075Y-132850890D01*
X182761331Y-133019369D01*
X182395271Y-133263962D01*
X182083962Y-133575271D01*
X181839369Y-133941331D01*
X181670890Y-134348075D01*
X181585000Y-134779872D01*
X181585000Y-135220128D01*
X181670890Y-135651925D01*
X181762462Y-135873000D01*
X146547538Y-135873000D01*
X146639110Y-135651925D01*
X146725000Y-135220128D01*
X146725000Y-134779872D01*
X146639110Y-134348075D01*
X146470631Y-133941331D01*
X146226038Y-133575271D01*
X145914729Y-133263962D01*
X145548669Y-133019369D01*
X145141925Y-132850890D01*
X144710128Y-132765000D01*
X144269872Y-132765000D01*
X143838075Y-132850890D01*
X143431331Y-133019369D01*
X143065271Y-133263962D01*
X142753962Y-133575271D01*
X142509369Y-133941331D01*
X142340890Y-134348075D01*
X142255000Y-134779872D01*
X142255000Y-135220128D01*
X142340890Y-135651925D01*
X142432462Y-135873000D01*
X107217538Y-135873000D01*
X107309110Y-135651925D01*
X107395000Y-135220128D01*
X107395000Y-134779872D01*
X107309110Y-134348075D01*
X107140631Y-133941331D01*
X106896038Y-133575271D01*
X106584729Y-133263962D01*
X106218669Y-133019369D01*
X105811925Y-132850890D01*
X105380128Y-132765000D01*
X104939872Y-132765000D01*
X104508075Y-132850890D01*
X104101331Y-133019369D01*
X103735271Y-133263962D01*
X103423962Y-133575271D01*
X103179369Y-133941331D01*
X103010890Y-134348075D01*
X102925000Y-134779872D01*
X102925000Y-135220128D01*
X103010890Y-135651925D01*
X103102462Y-135873000D01*
X67887538Y-135873000D01*
X67979110Y-135651925D01*
X68065000Y-135220128D01*
X68065000Y-134779872D01*
X67979110Y-134348075D01*
X67810631Y-133941331D01*
X67566038Y-133575271D01*
X67254729Y-133263962D01*
X66888669Y-133019369D01*
X66481925Y-132850890D01*
X66050128Y-132765000D01*
X65609872Y-132765000D01*
X65178075Y-132850890D01*
X64771331Y-133019369D01*
X64405271Y-133263962D01*
X64093962Y-133575271D01*
X63849369Y-133941331D01*
X63680890Y-134348075D01*
X63595000Y-134779872D01*
X63595000Y-135220128D01*
X63680890Y-135651925D01*
X63772462Y-135873000D01*
X28557538Y-135873000D01*
X28649110Y-135651925D01*
X28735000Y-135220128D01*
X28735000Y-134779872D01*
X28649110Y-134348075D01*
X28480631Y-133941331D01*
X28236038Y-133575271D01*
X27924729Y-133263962D01*
X27558669Y-133019369D01*
X27151925Y-132850890D01*
X26720128Y-132765000D01*
X26279872Y-132765000D01*
X25848075Y-132850890D01*
X25441331Y-133019369D01*
X25075271Y-133263962D01*
X24763962Y-133575271D01*
X24519369Y-133941331D01*
X24350890Y-134348075D01*
X24265000Y-134779872D01*
X24265000Y-135220128D01*
X24350890Y-135651925D01*
X24442462Y-135873000D01*
X23160000Y-135873000D01*
X23160000Y-36908750D01*
X116023000Y-36908750D01*
X116075934Y-37500459D01*
X116261899Y-38087682D01*
X116558853Y-38627340D01*
X116955383Y-39098697D01*
X117436251Y-39483637D01*
X117982977Y-39767369D01*
X118574552Y-39938987D01*
X119091250Y-39977000D01*
X119873000Y-39195250D01*
X119873000Y-36127000D01*
X116804750Y-36127000D01*
X116023000Y-36908750D01*
X23160000Y-36908750D01*
X23160000Y-35091250D01*
X116023000Y-35091250D01*
X116804750Y-35873000D01*
X119873000Y-35873000D01*
X119873000Y-32804750D01*
X120127000Y-32804750D01*
X120127000Y-35873000D01*
X120147000Y-35873000D01*
X120147000Y-36127000D01*
X120127000Y-36127000D01*
X120127000Y-39195250D01*
X120908750Y-39977000D01*
X121425448Y-39938987D01*
X122017023Y-39767369D01*
X122563749Y-39483637D01*
X123044617Y-39098697D01*
X123441147Y-38627340D01*
X123738101Y-38087682D01*
X123924066Y-37500459D01*
X123933337Y-37396823D01*
X124139762Y-37157747D01*
X124376589Y-37315990D01*
X124646842Y-37427932D01*
X124933740Y-37485000D01*
X125226260Y-37485000D01*
X125513158Y-37427932D01*
X125783411Y-37315990D01*
X126026632Y-37153475D01*
X126233475Y-36946632D01*
X126350000Y-36772240D01*
X126466525Y-36946632D01*
X126673368Y-37153475D01*
X126916589Y-37315990D01*
X127186842Y-37427932D01*
X127473740Y-37485000D01*
X127766260Y-37485000D01*
X128053158Y-37427932D01*
X128323411Y-37315990D01*
X128566632Y-37153475D01*
X128773475Y-36946632D01*
X128890000Y-36772240D01*
X129006525Y-36946632D01*
X129213368Y-37153475D01*
X129456589Y-37315990D01*
X129726842Y-37427932D01*
X130013740Y-37485000D01*
X130306260Y-37485000D01*
X130593158Y-37427932D01*
X130863411Y-37315990D01*
X131106632Y-37153475D01*
X131313475Y-36946632D01*
X131430000Y-36772240D01*
X131546525Y-36946632D01*
X131753368Y-37153475D01*
X131996589Y-37315990D01*
X132266842Y-37427932D01*
X132553740Y-37485000D01*
X132846260Y-37485000D01*
X133133158Y-37427932D01*
X133403411Y-37315990D01*
X133646632Y-37153475D01*
X133853475Y-36946632D01*
X133970000Y-36772240D01*
X134086525Y-36946632D01*
X134293368Y-37153475D01*
X134536589Y-37315990D01*
X134806842Y-37427932D01*
X135093740Y-37485000D01*
X135386260Y-37485000D01*
X135673158Y-37427932D01*
X135943411Y-37315990D01*
X136186632Y-37153475D01*
X136393475Y-36946632D01*
X136510000Y-36772240D01*
X136626525Y-36946632D01*
X136833368Y-37153475D01*
X137076589Y-37315990D01*
X137346842Y-37427932D01*
X137633740Y-37485000D01*
X137926260Y-37485000D01*
X138213158Y-37427932D01*
X138483411Y-37315990D01*
X138726632Y-37153475D01*
X138933475Y-36946632D01*
X139050000Y-36772240D01*
X139166525Y-36946632D01*
X139373368Y-37153475D01*
X139616589Y-37315990D01*
X139886842Y-37427932D01*
X140173740Y-37485000D01*
X140466260Y-37485000D01*
X140753158Y-37427932D01*
X141023411Y-37315990D01*
X141266632Y-37153475D01*
X141473475Y-36946632D01*
X141590000Y-36772240D01*
X141706525Y-36946632D01*
X141913368Y-37153475D01*
X142156589Y-37315990D01*
X142426842Y-37427932D01*
X142713740Y-37485000D01*
X143006260Y-37485000D01*
X143293158Y-37427932D01*
X143563411Y-37315990D01*
X143806632Y-37153475D01*
X144013475Y-36946632D01*
X144130000Y-36772240D01*
X144246525Y-36946632D01*
X144453368Y-37153475D01*
X144696589Y-37315990D01*
X144966842Y-37427932D01*
X145253740Y-37485000D01*
X145546260Y-37485000D01*
X145833158Y-37427932D01*
X146103411Y-37315990D01*
X146346632Y-37153475D01*
X146553475Y-36946632D01*
X146670000Y-36772240D01*
X146786525Y-36946632D01*
X146993368Y-37153475D01*
X147236589Y-37315990D01*
X147506842Y-37427932D01*
X147793740Y-37485000D01*
X148086260Y-37485000D01*
X148373158Y-37427932D01*
X148643411Y-37315990D01*
X148886632Y-37153475D01*
X149093475Y-36946632D01*
X149210000Y-36772240D01*
X149326525Y-36946632D01*
X149533368Y-37153475D01*
X149776589Y-37315990D01*
X150046842Y-37427932D01*
X150333740Y-37485000D01*
X150626260Y-37485000D01*
X150913158Y-37427932D01*
X151183411Y-37315990D01*
X151426632Y-37153475D01*
X151633475Y-36946632D01*
X151750000Y-36772240D01*
X151866525Y-36946632D01*
X152073368Y-37153475D01*
X152316589Y-37315990D01*
X152586842Y-37427932D01*
X152873740Y-37485000D01*
X153166260Y-37485000D01*
X153453158Y-37427932D01*
X153723411Y-37315990D01*
X153960238Y-37157747D01*
X154197448Y-37432478D01*
X154503092Y-37670774D01*
X154508399Y-37673442D01*
X154777136Y-38185203D01*
X155267296Y-38791474D01*
X155866315Y-39290470D01*
X156551173Y-39663015D01*
X157295552Y-39894792D01*
X157352741Y-39906166D01*
X157973000Y-39192725D01*
X157973000Y-36127000D01*
X158227000Y-36127000D01*
X158227000Y-39192725D01*
X158847259Y-39906166D01*
X158904448Y-39894792D01*
X159648827Y-39663015D01*
X160333685Y-39290470D01*
X160932704Y-38791474D01*
X161422864Y-38185203D01*
X161785328Y-37494956D01*
X162006167Y-36747259D01*
X241313833Y-36747259D01*
X241534672Y-37494956D01*
X241897136Y-38185203D01*
X242387296Y-38791474D01*
X242986315Y-39290470D01*
X243671173Y-39663015D01*
X244415552Y-39894792D01*
X244472741Y-39906166D01*
X245093000Y-39192725D01*
X245093000Y-36127000D01*
X242026777Y-36127000D01*
X241313833Y-36747259D01*
X162006167Y-36747259D01*
X161293223Y-36127000D01*
X158227000Y-36127000D01*
X157973000Y-36127000D01*
X157953000Y-36127000D01*
X157953000Y-35873000D01*
X157973000Y-35873000D01*
X157973000Y-32807275D01*
X158227000Y-32807275D01*
X158227000Y-35873000D01*
X161293223Y-35873000D01*
X162006167Y-35252741D01*
X241313833Y-35252741D01*
X242026777Y-35873000D01*
X245093000Y-35873000D01*
X245093000Y-32807275D01*
X244472741Y-32093834D01*
X244415552Y-32105208D01*
X243671173Y-32336985D01*
X242986315Y-32709530D01*
X242387296Y-33208526D01*
X241897136Y-33814797D01*
X241534672Y-34505044D01*
X241313833Y-35252741D01*
X162006167Y-35252741D01*
X161785328Y-34505044D01*
X161422864Y-33814797D01*
X160932704Y-33208526D01*
X160333685Y-32709530D01*
X159648827Y-32336985D01*
X158904448Y-32105208D01*
X158847259Y-32093834D01*
X158227000Y-32807275D01*
X157973000Y-32807275D01*
X157352741Y-32093834D01*
X157295552Y-32105208D01*
X156551173Y-32336985D01*
X155866315Y-32709530D01*
X155267296Y-33208526D01*
X154777136Y-33814797D01*
X154508399Y-34326558D01*
X154503092Y-34329226D01*
X154197448Y-34567522D01*
X153960238Y-34842253D01*
X153723411Y-34684010D01*
X153453158Y-34572068D01*
X153166260Y-34515000D01*
X152873740Y-34515000D01*
X152586842Y-34572068D01*
X152316589Y-34684010D01*
X152073368Y-34846525D01*
X151866525Y-35053368D01*
X151750000Y-35227760D01*
X151633475Y-35053368D01*
X151426632Y-34846525D01*
X151183411Y-34684010D01*
X150913158Y-34572068D01*
X150626260Y-34515000D01*
X150333740Y-34515000D01*
X150046842Y-34572068D01*
X149776589Y-34684010D01*
X149533368Y-34846525D01*
X149326525Y-35053368D01*
X149210000Y-35227760D01*
X149093475Y-35053368D01*
X148886632Y-34846525D01*
X148643411Y-34684010D01*
X148373158Y-34572068D01*
X148086260Y-34515000D01*
X147793740Y-34515000D01*
X147506842Y-34572068D01*
X147236589Y-34684010D01*
X146993368Y-34846525D01*
X146786525Y-35053368D01*
X146670000Y-35227760D01*
X146553475Y-35053368D01*
X146346632Y-34846525D01*
X146103411Y-34684010D01*
X145833158Y-34572068D01*
X145546260Y-34515000D01*
X145253740Y-34515000D01*
X144966842Y-34572068D01*
X144696589Y-34684010D01*
X144453368Y-34846525D01*
X144246525Y-35053368D01*
X144130000Y-35227760D01*
X144013475Y-35053368D01*
X143806632Y-34846525D01*
X143563411Y-34684010D01*
X143293158Y-34572068D01*
X143006260Y-34515000D01*
X142713740Y-34515000D01*
X142426842Y-34572068D01*
X142156589Y-34684010D01*
X141913368Y-34846525D01*
X141706525Y-35053368D01*
X141590000Y-35227760D01*
X141473475Y-35053368D01*
X141266632Y-34846525D01*
X141023411Y-34684010D01*
X140753158Y-34572068D01*
X140466260Y-34515000D01*
X140173740Y-34515000D01*
X139886842Y-34572068D01*
X139616589Y-34684010D01*
X139373368Y-34846525D01*
X139166525Y-35053368D01*
X139050000Y-35227760D01*
X138933475Y-35053368D01*
X138726632Y-34846525D01*
X138483411Y-34684010D01*
X138213158Y-34572068D01*
X137926260Y-34515000D01*
X137633740Y-34515000D01*
X137346842Y-34572068D01*
X137076589Y-34684010D01*
X136833368Y-34846525D01*
X136626525Y-35053368D01*
X136510000Y-35227760D01*
X136393475Y-35053368D01*
X136186632Y-34846525D01*
X135943411Y-34684010D01*
X135673158Y-34572068D01*
X135386260Y-34515000D01*
X135093740Y-34515000D01*
X134806842Y-34572068D01*
X134536589Y-34684010D01*
X134293368Y-34846525D01*
X134086525Y-35053368D01*
X133970000Y-35227760D01*
X133853475Y-35053368D01*
X133646632Y-34846525D01*
X133403411Y-34684010D01*
X133133158Y-34572068D01*
X132846260Y-34515000D01*
X132553740Y-34515000D01*
X132266842Y-34572068D01*
X131996589Y-34684010D01*
X131753368Y-34846525D01*
X131546525Y-35053368D01*
X131430000Y-35227760D01*
X131313475Y-35053368D01*
X131106632Y-34846525D01*
X130863411Y-34684010D01*
X130593158Y-34572068D01*
X130306260Y-34515000D01*
X130013740Y-34515000D01*
X129726842Y-34572068D01*
X129456589Y-34684010D01*
X129213368Y-34846525D01*
X129006525Y-35053368D01*
X128890000Y-35227760D01*
X128773475Y-35053368D01*
X128566632Y-34846525D01*
X128323411Y-34684010D01*
X128053158Y-34572068D01*
X127766260Y-34515000D01*
X127473740Y-34515000D01*
X127186842Y-34572068D01*
X126916589Y-34684010D01*
X126673368Y-34846525D01*
X126466525Y-35053368D01*
X126350000Y-35227760D01*
X126233475Y-35053368D01*
X126026632Y-34846525D01*
X125783411Y-34684010D01*
X125513158Y-34572068D01*
X125226260Y-34515000D01*
X124933740Y-34515000D01*
X124646842Y-34572068D01*
X124376589Y-34684010D01*
X124139762Y-34842253D01*
X123933337Y-34603177D01*
X123924066Y-34499541D01*
X123738101Y-33912318D01*
X123441147Y-33372660D01*
X123044617Y-32901303D01*
X122563749Y-32516363D01*
X122017023Y-32232631D01*
X121425448Y-32061013D01*
X120908750Y-32023000D01*
X120127000Y-32804750D01*
X119873000Y-32804750D01*
X119091250Y-32023000D01*
X118574552Y-32061013D01*
X117982977Y-32232631D01*
X117436251Y-32516363D01*
X116955383Y-32901303D01*
X116558853Y-33372660D01*
X116261899Y-33912318D01*
X116075934Y-34499541D01*
X116023000Y-35091250D01*
X23160000Y-35091250D01*
X23160000Y-29627000D01*
X24295408Y-29627000D01*
X24265000Y-29779872D01*
G37*
G04 #@! TD.AperFunction*
M02*
