M48
; DRILL file {KiCad 5.1.10} date Wed Dec 29 16:09:11 2021
; FORMAT={-:-/ absolute / metric / decimal}
; #@! TF.CreationDate,2021-12-29T16:09:11+01:00
; #@! TF.GenerationSoftware,Kicad,Pcbnew,5.1.10
; #@! TF.FileFunction,Plated,1,2,PTH
FMAT,2
METRIC
T1C0.400
T2C1.000
%
G90
G05
T1
X30.0Y-40.0
X30.0Y-50.0
X30.0Y-60.0
X30.0Y-70.0
X30.0Y-80.0
X30.0Y-90.0
X30.0Y-100.0
X30.0Y-110.0
X30.0Y-120.0
X30.0Y-130.0
X40.0Y-40.0
X40.0Y-50.0
X40.0Y-60.0
X40.0Y-70.0
X40.0Y-80.0
X40.0Y-90.0
X40.0Y-100.0
X40.0Y-110.0
X40.0Y-120.0
X40.0Y-130.0
X50.0Y-40.0
X50.0Y-50.0
X50.0Y-60.0
X50.0Y-70.0
X50.0Y-80.0
X50.0Y-90.0
X50.0Y-100.0
X50.0Y-110.0
X50.0Y-120.0
X50.0Y-130.0
X60.0Y-40.0
X60.0Y-50.0
X60.0Y-60.0
X60.0Y-70.0
X60.0Y-80.0
X60.0Y-90.0
X60.0Y-100.0
X60.0Y-110.0
X60.0Y-120.0
X60.0Y-130.0
X70.0Y-40.0
X70.0Y-50.0
X70.0Y-60.0
X70.0Y-70.0
X70.0Y-80.0
X70.0Y-90.0
X70.0Y-100.0
X70.0Y-110.0
X70.0Y-120.0
X70.0Y-130.0
X80.0Y-40.0
X80.0Y-50.0
X80.0Y-60.0
X80.0Y-70.0
X80.0Y-80.0
X80.0Y-90.0
X80.0Y-100.0
X80.0Y-110.0
X80.0Y-120.0
X80.0Y-130.0
X90.0Y-40.0
X90.0Y-50.0
X90.0Y-60.0
X90.0Y-70.0
X90.0Y-80.0
X90.0Y-90.0
X90.0Y-100.0
X90.0Y-110.0
X90.0Y-120.0
X90.0Y-130.0
X100.0Y-40.0
X100.0Y-50.0
X100.0Y-60.0
X100.0Y-70.0
X100.0Y-80.0
X100.0Y-90.0
X100.0Y-100.0
X100.0Y-110.0
X100.0Y-120.0
X100.0Y-130.0
X110.0Y-40.0
X110.0Y-50.0
X110.0Y-60.0
X110.0Y-70.0
X110.0Y-80.0
X110.0Y-90.0
X110.0Y-100.0
X110.0Y-110.0
X110.0Y-120.0
X110.0Y-130.0
X120.0Y-40.0
X120.0Y-50.0
X120.0Y-60.0
X120.0Y-70.0
X120.0Y-80.0
X120.0Y-90.0
X120.0Y-100.0
X120.0Y-110.0
X120.0Y-120.0
X120.0Y-130.0
X130.0Y-40.0
X130.0Y-50.0
X130.0Y-60.0
X130.0Y-70.0
X130.0Y-80.0
X130.0Y-90.0
X130.0Y-100.0
X130.0Y-110.0
X130.0Y-120.0
X130.0Y-130.0
X140.0Y-40.0
X140.0Y-50.0
X140.0Y-60.0
X140.0Y-70.0
X140.0Y-80.0
X140.0Y-90.0
X140.0Y-100.0
X140.0Y-110.0
X140.0Y-120.0
X140.0Y-130.0
X150.0Y-40.0
X150.0Y-50.0
X150.0Y-60.0
X150.0Y-70.0
X150.0Y-80.0
X150.0Y-90.0
X150.0Y-100.0
X150.0Y-110.0
X150.0Y-120.0
X150.0Y-130.0
X160.0Y-40.0
X160.0Y-50.0
X160.0Y-60.0
X160.0Y-70.0
X160.0Y-80.0
X160.0Y-90.0
X160.0Y-100.0
X160.0Y-110.0
X160.0Y-120.0
X160.0Y-130.0
X170.0Y-40.0
X170.0Y-50.0
X170.0Y-60.0
X170.0Y-70.0
X170.0Y-80.0
X170.0Y-90.0
X170.0Y-100.0
X170.0Y-110.0
X170.0Y-120.0
X170.0Y-130.0
X180.0Y-40.0
X180.0Y-50.0
X180.0Y-60.0
X180.0Y-70.0
X180.0Y-80.0
X180.0Y-90.0
X180.0Y-100.0
X180.0Y-110.0
X180.0Y-120.0
X180.0Y-130.0
X190.0Y-40.0
X190.0Y-50.0
X190.0Y-60.0
X190.0Y-70.0
X190.0Y-80.0
X190.0Y-90.0
X190.0Y-100.0
X190.0Y-110.0
X190.0Y-120.0
X190.0Y-130.0
X200.0Y-40.0
X200.0Y-50.0
X200.0Y-60.0
X200.0Y-70.0
X200.0Y-80.0
X200.0Y-90.0
X200.0Y-100.0
X200.0Y-110.0
X200.0Y-120.0
X200.0Y-130.0
X210.0Y-40.0
X210.0Y-50.0
X210.0Y-60.0
X210.0Y-70.0
X210.0Y-80.0
X210.0Y-90.0
X210.0Y-100.0
X210.0Y-110.0
X210.0Y-120.0
X210.0Y-130.0
X220.0Y-40.0
X220.0Y-50.0
X220.0Y-60.0
X220.0Y-70.0
X220.0Y-80.0
X220.0Y-90.0
X220.0Y-100.0
X220.0Y-110.0
X220.0Y-120.0
X220.0Y-130.0
X230.0Y-40.0
X230.0Y-50.0
X230.0Y-60.0
X230.0Y-70.0
X230.0Y-80.0
X230.0Y-90.0
X230.0Y-100.0
X230.0Y-110.0
X230.0Y-120.0
X230.0Y-130.0
X240.0Y-40.0
X240.0Y-50.0
X240.0Y-60.0
X240.0Y-70.0
X240.0Y-80.0
X240.0Y-90.0
X240.0Y-100.0
X240.0Y-110.0
X240.0Y-120.0
X240.0Y-130.0
X250.0Y-40.0
X250.0Y-50.0
X250.0Y-60.0
X250.0Y-70.0
X250.0Y-80.0
X250.0Y-90.0
X250.0Y-100.0
X250.0Y-110.0
X250.0Y-120.0
X250.0Y-130.0
X260.0Y-40.0
X260.0Y-50.0
X260.0Y-60.0
X260.0Y-70.0
X260.0Y-80.0
X260.0Y-90.0
X260.0Y-100.0
X260.0Y-110.0
X260.0Y-120.0
X260.0Y-130.0
T2
X120.0Y-36.0
X122.54Y-36.0
X125.08Y-36.0
X127.62Y-36.0
X130.16Y-36.0
X132.7Y-36.0
X135.24Y-36.0
X137.78Y-36.0
X140.32Y-36.0
X142.86Y-36.0
X145.4Y-36.0
X147.94Y-36.0
X150.48Y-36.0
X153.02Y-36.0
X155.56Y-36.0
X158.1Y-36.0
X245.22Y-36.0
X247.76Y-36.0
X250.3Y-36.0
X252.84Y-36.0
X255.38Y-36.0
X257.92Y-36.0
X260.46Y-36.0
X263.0Y-36.0
T0
M30
