G04 #@! TF.GenerationSoftware,KiCad,Pcbnew,5.1.10*
G04 #@! TF.CreationDate,2021-10-20T12:36:49+02:00*
G04 #@! TF.ProjectId,model_d,6d6f6465-6c5f-4642-9e6b-696361645f70,rev?*
G04 #@! TF.SameCoordinates,Original*
G04 #@! TF.FileFunction,Copper,L1,Top*
G04 #@! TF.FilePolarity,Positive*
%FSLAX46Y46*%
G04 Gerber Fmt 4.6, Leading zero omitted, Abs format (unit mm)*
G04 Created by KiCad (PCBNEW 5.1.10) date 2021-10-20 12:36:49*
%MOMM*%
%LPD*%
G01*
G04 APERTURE LIST*
G04 #@! TA.AperFunction,ComponentPad*
%ADD10O,1.700000X1.700000*%
G04 #@! TD*
G04 #@! TA.AperFunction,ComponentPad*
%ADD11R,1.700000X1.700000*%
G04 #@! TD*
G04 #@! TA.AperFunction,ViaPad*
%ADD12C,0.800000*%
G04 #@! TD*
G04 #@! TA.AperFunction,Conductor*
%ADD13C,0.254000*%
G04 #@! TD*
G04 #@! TA.AperFunction,Conductor*
%ADD14C,0.100000*%
G04 #@! TD*
G04 APERTURE END LIST*
D10*
X186040000Y-36000000D03*
X183500000Y-36000000D03*
X180960000Y-36000000D03*
X178420000Y-36000000D03*
X175880000Y-36000000D03*
X173340000Y-36000000D03*
X170800000Y-36000000D03*
X168260000Y-36000000D03*
X165720000Y-36000000D03*
X163180000Y-36000000D03*
X160640000Y-36000000D03*
X158100000Y-36000000D03*
X155560000Y-36000000D03*
X153020000Y-36000000D03*
X150480000Y-36000000D03*
X147940000Y-36000000D03*
X145400000Y-36000000D03*
X142860000Y-36000000D03*
X140320000Y-36000000D03*
X137780000Y-36000000D03*
X135240000Y-36000000D03*
X132700000Y-36000000D03*
X130160000Y-36000000D03*
X127620000Y-36000000D03*
X125080000Y-36000000D03*
X122540000Y-36000000D03*
D11*
X120000000Y-36000000D03*
D10*
X222433515Y-32428122D03*
X224973515Y-32428122D03*
X227513515Y-32428122D03*
X230053515Y-32428122D03*
X232593515Y-32428122D03*
X235133515Y-32428122D03*
X237673515Y-32428122D03*
X240213515Y-32428122D03*
X242753515Y-32428122D03*
X245293515Y-32428122D03*
X247833515Y-32428122D03*
D11*
X250373515Y-32428122D03*
D12*
X30000000Y-40000000D03*
X30000000Y-50000000D03*
X30000000Y-60000000D03*
X30000000Y-70000000D03*
X30000000Y-80000000D03*
X30000000Y-90000000D03*
X30000000Y-100000000D03*
X30000000Y-110000000D03*
X30000000Y-120000000D03*
X40000000Y-40000000D03*
X40000000Y-50000000D03*
X40000000Y-60000000D03*
X40000000Y-70000000D03*
X40000000Y-80000000D03*
X40000000Y-90000000D03*
X40000000Y-100000000D03*
X40000000Y-110000000D03*
X40000000Y-120000000D03*
X50000000Y-40000000D03*
X50000000Y-50000000D03*
X50000000Y-60000000D03*
X50000000Y-70000000D03*
X50000000Y-80000000D03*
X50000000Y-90000000D03*
X50000000Y-100000000D03*
X50000000Y-110000000D03*
X50000000Y-120000000D03*
X70000000Y-110000000D03*
X80000000Y-120000000D03*
X60000000Y-40000000D03*
X80000000Y-100000000D03*
X60000000Y-110000000D03*
X80000000Y-50000000D03*
X60000000Y-80000000D03*
X60000000Y-100000000D03*
X60000000Y-60000000D03*
X60000000Y-70000000D03*
X80000000Y-70000000D03*
X70000000Y-80000000D03*
X80000000Y-110000000D03*
X80000000Y-40000000D03*
X70000000Y-100000000D03*
X70000000Y-40000000D03*
X70000000Y-120000000D03*
X80000000Y-60000000D03*
X60000000Y-90000000D03*
X70000000Y-70000000D03*
X70000000Y-50000000D03*
X80000000Y-90000000D03*
X60000000Y-50000000D03*
X80000000Y-80000000D03*
X70000000Y-60000000D03*
X70000000Y-90000000D03*
X60000000Y-120000000D03*
X100000000Y-110000000D03*
X110000000Y-120000000D03*
X90000000Y-40000000D03*
X130000000Y-50000000D03*
X140000000Y-60000000D03*
X140000000Y-40000000D03*
X110000000Y-100000000D03*
X120000000Y-50000000D03*
X90000000Y-110000000D03*
X110000000Y-50000000D03*
X140000000Y-80000000D03*
X130000000Y-120000000D03*
X90000000Y-80000000D03*
X140000000Y-110000000D03*
X130000000Y-60000000D03*
X90000000Y-100000000D03*
X130000000Y-90000000D03*
X90000000Y-60000000D03*
X140000000Y-70000000D03*
X90000000Y-70000000D03*
X110000000Y-70000000D03*
X130000000Y-40000000D03*
X130000000Y-100000000D03*
X100000000Y-80000000D03*
X110000000Y-110000000D03*
X140000000Y-100000000D03*
X110000000Y-40000000D03*
X100000000Y-100000000D03*
X100000000Y-40000000D03*
X130000000Y-80000000D03*
X130000000Y-110000000D03*
X130000000Y-70000000D03*
X100000000Y-120000000D03*
X110000000Y-60000000D03*
X90000000Y-90000000D03*
X120000000Y-100000000D03*
X120000000Y-60000000D03*
X100000000Y-70000000D03*
X120000000Y-110000000D03*
X120000000Y-70000000D03*
X100000000Y-50000000D03*
X120000000Y-80000000D03*
X140000000Y-50000000D03*
X120000000Y-40000000D03*
X140000000Y-120000000D03*
X120000000Y-90000000D03*
X140000000Y-90000000D03*
X110000000Y-90000000D03*
X90000000Y-50000000D03*
X110000000Y-80000000D03*
X100000000Y-60000000D03*
X100000000Y-90000000D03*
X90000000Y-120000000D03*
X120000000Y-120000000D03*
X160000000Y-110000000D03*
X230000000Y-120000000D03*
X240000000Y-40000000D03*
X230000000Y-60000000D03*
X170000000Y-120000000D03*
X260000000Y-70000000D03*
X150000000Y-40000000D03*
X240000000Y-100000000D03*
X190000000Y-50000000D03*
X220000000Y-50000000D03*
X250000000Y-100000000D03*
X200000000Y-60000000D03*
X200000000Y-40000000D03*
X170000000Y-100000000D03*
X250000000Y-40000000D03*
X180000000Y-50000000D03*
X150000000Y-110000000D03*
X170000000Y-50000000D03*
X200000000Y-80000000D03*
X190000000Y-120000000D03*
X150000000Y-80000000D03*
X200000000Y-110000000D03*
X250000000Y-50000000D03*
X210000000Y-90000000D03*
X190000000Y-60000000D03*
X210000000Y-70000000D03*
X260000000Y-120000000D03*
X150000000Y-100000000D03*
X190000000Y-90000000D03*
X230000000Y-70000000D03*
X150000000Y-60000000D03*
X240000000Y-70000000D03*
X210000000Y-100000000D03*
X210000000Y-60000000D03*
X240000000Y-60000000D03*
X200000000Y-70000000D03*
X150000000Y-70000000D03*
X170000000Y-70000000D03*
X190000000Y-40000000D03*
X260000000Y-110000000D03*
X220000000Y-70000000D03*
X210000000Y-40000000D03*
X220000000Y-110000000D03*
X220000000Y-90000000D03*
X250000000Y-90000000D03*
X190000000Y-100000000D03*
X160000000Y-80000000D03*
X210000000Y-50000000D03*
X170000000Y-110000000D03*
X200000000Y-100000000D03*
X220000000Y-60000000D03*
X170000000Y-40000000D03*
X160000000Y-100000000D03*
X160000000Y-40000000D03*
X190000000Y-80000000D03*
X190000000Y-110000000D03*
X190000000Y-70000000D03*
X160000000Y-120000000D03*
X170000000Y-60000000D03*
X150000000Y-90000000D03*
X260000000Y-50000000D03*
X230000000Y-80000000D03*
X230000000Y-50000000D03*
X240000000Y-50000000D03*
X220000000Y-80000000D03*
X180000000Y-100000000D03*
X230000000Y-100000000D03*
X260000000Y-40000000D03*
X210000000Y-80000000D03*
X240000000Y-110000000D03*
X240000000Y-80000000D03*
X230000000Y-90000000D03*
X180000000Y-60000000D03*
X160000000Y-70000000D03*
X250000000Y-110000000D03*
X260000000Y-90000000D03*
X180000000Y-110000000D03*
X180000000Y-70000000D03*
X160000000Y-50000000D03*
X220000000Y-100000000D03*
X240000000Y-90000000D03*
X180000000Y-80000000D03*
X200000000Y-50000000D03*
X180000000Y-40000000D03*
X230000000Y-40000000D03*
X210000000Y-110000000D03*
X200000000Y-120000000D03*
X180000000Y-90000000D03*
X200000000Y-90000000D03*
X250000000Y-70000000D03*
X170000000Y-90000000D03*
X260000000Y-100000000D03*
X250000000Y-80000000D03*
X220000000Y-120000000D03*
X240000000Y-120000000D03*
X260000000Y-60000000D03*
X150000000Y-50000000D03*
X220000000Y-40000000D03*
X210000000Y-120000000D03*
X170000000Y-80000000D03*
X160000000Y-60000000D03*
X160000000Y-90000000D03*
X230000000Y-110000000D03*
X260000000Y-80000000D03*
X150000000Y-120000000D03*
X250000000Y-60000000D03*
X180000000Y-120000000D03*
X250000000Y-120000000D03*
X170000000Y-130000000D03*
X110000000Y-130000000D03*
X50000000Y-130000000D03*
X70000000Y-130000000D03*
X140000000Y-130000000D03*
X40000000Y-130000000D03*
X220000000Y-130000000D03*
X260000000Y-130000000D03*
X180000000Y-130000000D03*
X250000000Y-130000000D03*
X240000000Y-130000000D03*
X160000000Y-130000000D03*
X210000000Y-130000000D03*
X230000000Y-130000000D03*
X150000000Y-130000000D03*
X190000000Y-130000000D03*
X80000000Y-130000000D03*
X200000000Y-130000000D03*
X100000000Y-130000000D03*
X120000000Y-130000000D03*
X90000000Y-130000000D03*
X30000000Y-130000000D03*
X60000000Y-130000000D03*
X130000000Y-130000000D03*
D13*
X265840001Y-134840000D02*
X23160000Y-134840000D01*
X23160000Y-36850000D01*
X118511928Y-36850000D01*
X118524188Y-36974482D01*
X118560498Y-37094180D01*
X118619463Y-37204494D01*
X118698815Y-37301185D01*
X118795506Y-37380537D01*
X118905820Y-37439502D01*
X119025518Y-37475812D01*
X119150000Y-37488072D01*
X119714250Y-37485000D01*
X119873000Y-37326250D01*
X119873000Y-36127000D01*
X120127000Y-36127000D01*
X120127000Y-37326250D01*
X120285750Y-37485000D01*
X120850000Y-37488072D01*
X120974482Y-37475812D01*
X121094180Y-37439502D01*
X121204494Y-37380537D01*
X121301185Y-37301185D01*
X121380537Y-37204494D01*
X121439502Y-37094180D01*
X121463966Y-37013534D01*
X121539731Y-37097588D01*
X121773080Y-37271641D01*
X122035901Y-37396825D01*
X122183110Y-37441476D01*
X122413000Y-37320155D01*
X122413000Y-36127000D01*
X120127000Y-36127000D01*
X119873000Y-36127000D01*
X118673750Y-36127000D01*
X118515000Y-36285750D01*
X118511928Y-36850000D01*
X23160000Y-36850000D01*
X23160000Y-35150000D01*
X118511928Y-35150000D01*
X118515000Y-35714250D01*
X118673750Y-35873000D01*
X119873000Y-35873000D01*
X119873000Y-34673750D01*
X120127000Y-34673750D01*
X120127000Y-35873000D01*
X122413000Y-35873000D01*
X122413000Y-34679845D01*
X122667000Y-34679845D01*
X122667000Y-35873000D01*
X122687000Y-35873000D01*
X122687000Y-36127000D01*
X122667000Y-36127000D01*
X122667000Y-37320155D01*
X122896890Y-37441476D01*
X123044099Y-37396825D01*
X123306920Y-37271641D01*
X123540269Y-37097588D01*
X123735178Y-36881355D01*
X123804805Y-36764466D01*
X123926525Y-36946632D01*
X124133368Y-37153475D01*
X124376589Y-37315990D01*
X124646842Y-37427932D01*
X124933740Y-37485000D01*
X125226260Y-37485000D01*
X125513158Y-37427932D01*
X125783411Y-37315990D01*
X126026632Y-37153475D01*
X126233475Y-36946632D01*
X126350000Y-36772240D01*
X126466525Y-36946632D01*
X126673368Y-37153475D01*
X126916589Y-37315990D01*
X127186842Y-37427932D01*
X127473740Y-37485000D01*
X127766260Y-37485000D01*
X128053158Y-37427932D01*
X128323411Y-37315990D01*
X128566632Y-37153475D01*
X128773475Y-36946632D01*
X128890000Y-36772240D01*
X129006525Y-36946632D01*
X129213368Y-37153475D01*
X129456589Y-37315990D01*
X129726842Y-37427932D01*
X130013740Y-37485000D01*
X130306260Y-37485000D01*
X130593158Y-37427932D01*
X130863411Y-37315990D01*
X131106632Y-37153475D01*
X131313475Y-36946632D01*
X131430000Y-36772240D01*
X131546525Y-36946632D01*
X131753368Y-37153475D01*
X131996589Y-37315990D01*
X132266842Y-37427932D01*
X132553740Y-37485000D01*
X132846260Y-37485000D01*
X133133158Y-37427932D01*
X133403411Y-37315990D01*
X133646632Y-37153475D01*
X133853475Y-36946632D01*
X133970000Y-36772240D01*
X134086525Y-36946632D01*
X134293368Y-37153475D01*
X134536589Y-37315990D01*
X134806842Y-37427932D01*
X135093740Y-37485000D01*
X135386260Y-37485000D01*
X135673158Y-37427932D01*
X135943411Y-37315990D01*
X136186632Y-37153475D01*
X136393475Y-36946632D01*
X136510000Y-36772240D01*
X136626525Y-36946632D01*
X136833368Y-37153475D01*
X137076589Y-37315990D01*
X137346842Y-37427932D01*
X137633740Y-37485000D01*
X137926260Y-37485000D01*
X138213158Y-37427932D01*
X138483411Y-37315990D01*
X138726632Y-37153475D01*
X138933475Y-36946632D01*
X139050000Y-36772240D01*
X139166525Y-36946632D01*
X139373368Y-37153475D01*
X139616589Y-37315990D01*
X139886842Y-37427932D01*
X140173740Y-37485000D01*
X140466260Y-37485000D01*
X140753158Y-37427932D01*
X141023411Y-37315990D01*
X141266632Y-37153475D01*
X141473475Y-36946632D01*
X141590000Y-36772240D01*
X141706525Y-36946632D01*
X141913368Y-37153475D01*
X142156589Y-37315990D01*
X142426842Y-37427932D01*
X142713740Y-37485000D01*
X143006260Y-37485000D01*
X143293158Y-37427932D01*
X143563411Y-37315990D01*
X143806632Y-37153475D01*
X144013475Y-36946632D01*
X144130000Y-36772240D01*
X144246525Y-36946632D01*
X144453368Y-37153475D01*
X144696589Y-37315990D01*
X144966842Y-37427932D01*
X145253740Y-37485000D01*
X145546260Y-37485000D01*
X145833158Y-37427932D01*
X146103411Y-37315990D01*
X146346632Y-37153475D01*
X146553475Y-36946632D01*
X146670000Y-36772240D01*
X146786525Y-36946632D01*
X146993368Y-37153475D01*
X147236589Y-37315990D01*
X147506842Y-37427932D01*
X147793740Y-37485000D01*
X148086260Y-37485000D01*
X148373158Y-37427932D01*
X148643411Y-37315990D01*
X148886632Y-37153475D01*
X149093475Y-36946632D01*
X149210000Y-36772240D01*
X149326525Y-36946632D01*
X149533368Y-37153475D01*
X149776589Y-37315990D01*
X150046842Y-37427932D01*
X150333740Y-37485000D01*
X150626260Y-37485000D01*
X150913158Y-37427932D01*
X151183411Y-37315990D01*
X151426632Y-37153475D01*
X151633475Y-36946632D01*
X151750000Y-36772240D01*
X151866525Y-36946632D01*
X152073368Y-37153475D01*
X152316589Y-37315990D01*
X152586842Y-37427932D01*
X152873740Y-37485000D01*
X153166260Y-37485000D01*
X153453158Y-37427932D01*
X153723411Y-37315990D01*
X153966632Y-37153475D01*
X154173475Y-36946632D01*
X154290000Y-36772240D01*
X154406525Y-36946632D01*
X154613368Y-37153475D01*
X154856589Y-37315990D01*
X155126842Y-37427932D01*
X155413740Y-37485000D01*
X155706260Y-37485000D01*
X155993158Y-37427932D01*
X156263411Y-37315990D01*
X156506632Y-37153475D01*
X156713475Y-36946632D01*
X156830000Y-36772240D01*
X156946525Y-36946632D01*
X157153368Y-37153475D01*
X157396589Y-37315990D01*
X157666842Y-37427932D01*
X157953740Y-37485000D01*
X158246260Y-37485000D01*
X158533158Y-37427932D01*
X158803411Y-37315990D01*
X159046632Y-37153475D01*
X159253475Y-36946632D01*
X159370000Y-36772240D01*
X159486525Y-36946632D01*
X159693368Y-37153475D01*
X159936589Y-37315990D01*
X160206842Y-37427932D01*
X160493740Y-37485000D01*
X160786260Y-37485000D01*
X161073158Y-37427932D01*
X161343411Y-37315990D01*
X161586632Y-37153475D01*
X161793475Y-36946632D01*
X161910000Y-36772240D01*
X162026525Y-36946632D01*
X162233368Y-37153475D01*
X162476589Y-37315990D01*
X162746842Y-37427932D01*
X163033740Y-37485000D01*
X163326260Y-37485000D01*
X163613158Y-37427932D01*
X163883411Y-37315990D01*
X164126632Y-37153475D01*
X164333475Y-36946632D01*
X164450000Y-36772240D01*
X164566525Y-36946632D01*
X164773368Y-37153475D01*
X165016589Y-37315990D01*
X165286842Y-37427932D01*
X165573740Y-37485000D01*
X165866260Y-37485000D01*
X166153158Y-37427932D01*
X166423411Y-37315990D01*
X166666632Y-37153475D01*
X166873475Y-36946632D01*
X166990000Y-36772240D01*
X167106525Y-36946632D01*
X167313368Y-37153475D01*
X167556589Y-37315990D01*
X167826842Y-37427932D01*
X168113740Y-37485000D01*
X168406260Y-37485000D01*
X168693158Y-37427932D01*
X168963411Y-37315990D01*
X169206632Y-37153475D01*
X169413475Y-36946632D01*
X169530000Y-36772240D01*
X169646525Y-36946632D01*
X169853368Y-37153475D01*
X170096589Y-37315990D01*
X170366842Y-37427932D01*
X170653740Y-37485000D01*
X170946260Y-37485000D01*
X171233158Y-37427932D01*
X171503411Y-37315990D01*
X171746632Y-37153475D01*
X171953475Y-36946632D01*
X172070000Y-36772240D01*
X172186525Y-36946632D01*
X172393368Y-37153475D01*
X172636589Y-37315990D01*
X172906842Y-37427932D01*
X173193740Y-37485000D01*
X173486260Y-37485000D01*
X173773158Y-37427932D01*
X174043411Y-37315990D01*
X174286632Y-37153475D01*
X174493475Y-36946632D01*
X174610000Y-36772240D01*
X174726525Y-36946632D01*
X174933368Y-37153475D01*
X175176589Y-37315990D01*
X175446842Y-37427932D01*
X175733740Y-37485000D01*
X176026260Y-37485000D01*
X176313158Y-37427932D01*
X176583411Y-37315990D01*
X176826632Y-37153475D01*
X177033475Y-36946632D01*
X177150000Y-36772240D01*
X177266525Y-36946632D01*
X177473368Y-37153475D01*
X177716589Y-37315990D01*
X177986842Y-37427932D01*
X178273740Y-37485000D01*
X178566260Y-37485000D01*
X178853158Y-37427932D01*
X179123411Y-37315990D01*
X179366632Y-37153475D01*
X179573475Y-36946632D01*
X179690000Y-36772240D01*
X179806525Y-36946632D01*
X180013368Y-37153475D01*
X180256589Y-37315990D01*
X180526842Y-37427932D01*
X180813740Y-37485000D01*
X181106260Y-37485000D01*
X181393158Y-37427932D01*
X181663411Y-37315990D01*
X181906632Y-37153475D01*
X182113475Y-36946632D01*
X182235195Y-36764466D01*
X182304822Y-36881355D01*
X182499731Y-37097588D01*
X182733080Y-37271641D01*
X182995901Y-37396825D01*
X183143110Y-37441476D01*
X183373000Y-37320155D01*
X183373000Y-36127000D01*
X183627000Y-36127000D01*
X183627000Y-37320155D01*
X183856890Y-37441476D01*
X184004099Y-37396825D01*
X184266920Y-37271641D01*
X184500269Y-37097588D01*
X184695178Y-36881355D01*
X184770000Y-36755745D01*
X184844822Y-36881355D01*
X185039731Y-37097588D01*
X185273080Y-37271641D01*
X185535901Y-37396825D01*
X185683110Y-37441476D01*
X185913000Y-37320155D01*
X185913000Y-36127000D01*
X186167000Y-36127000D01*
X186167000Y-37320155D01*
X186396890Y-37441476D01*
X186544099Y-37396825D01*
X186806920Y-37271641D01*
X187040269Y-37097588D01*
X187235178Y-36881355D01*
X187384157Y-36631252D01*
X187481481Y-36356891D01*
X187360814Y-36127000D01*
X186167000Y-36127000D01*
X185913000Y-36127000D01*
X183627000Y-36127000D01*
X183373000Y-36127000D01*
X183353000Y-36127000D01*
X183353000Y-35873000D01*
X183373000Y-35873000D01*
X183373000Y-34679845D01*
X183627000Y-34679845D01*
X183627000Y-35873000D01*
X185913000Y-35873000D01*
X185913000Y-34679845D01*
X186167000Y-34679845D01*
X186167000Y-35873000D01*
X187360814Y-35873000D01*
X187481481Y-35643109D01*
X187384157Y-35368748D01*
X187235178Y-35118645D01*
X187040269Y-34902412D01*
X186806920Y-34728359D01*
X186544099Y-34603175D01*
X186396890Y-34558524D01*
X186167000Y-34679845D01*
X185913000Y-34679845D01*
X185683110Y-34558524D01*
X185535901Y-34603175D01*
X185273080Y-34728359D01*
X185039731Y-34902412D01*
X184844822Y-35118645D01*
X184770000Y-35244255D01*
X184695178Y-35118645D01*
X184500269Y-34902412D01*
X184266920Y-34728359D01*
X184004099Y-34603175D01*
X183856890Y-34558524D01*
X183627000Y-34679845D01*
X183373000Y-34679845D01*
X183143110Y-34558524D01*
X182995901Y-34603175D01*
X182733080Y-34728359D01*
X182499731Y-34902412D01*
X182304822Y-35118645D01*
X182235195Y-35235534D01*
X182113475Y-35053368D01*
X181906632Y-34846525D01*
X181663411Y-34684010D01*
X181393158Y-34572068D01*
X181106260Y-34515000D01*
X180813740Y-34515000D01*
X180526842Y-34572068D01*
X180256589Y-34684010D01*
X180013368Y-34846525D01*
X179806525Y-35053368D01*
X179690000Y-35227760D01*
X179573475Y-35053368D01*
X179366632Y-34846525D01*
X179123411Y-34684010D01*
X178853158Y-34572068D01*
X178566260Y-34515000D01*
X178273740Y-34515000D01*
X177986842Y-34572068D01*
X177716589Y-34684010D01*
X177473368Y-34846525D01*
X177266525Y-35053368D01*
X177150000Y-35227760D01*
X177033475Y-35053368D01*
X176826632Y-34846525D01*
X176583411Y-34684010D01*
X176313158Y-34572068D01*
X176026260Y-34515000D01*
X175733740Y-34515000D01*
X175446842Y-34572068D01*
X175176589Y-34684010D01*
X174933368Y-34846525D01*
X174726525Y-35053368D01*
X174610000Y-35227760D01*
X174493475Y-35053368D01*
X174286632Y-34846525D01*
X174043411Y-34684010D01*
X173773158Y-34572068D01*
X173486260Y-34515000D01*
X173193740Y-34515000D01*
X172906842Y-34572068D01*
X172636589Y-34684010D01*
X172393368Y-34846525D01*
X172186525Y-35053368D01*
X172070000Y-35227760D01*
X171953475Y-35053368D01*
X171746632Y-34846525D01*
X171503411Y-34684010D01*
X171233158Y-34572068D01*
X170946260Y-34515000D01*
X170653740Y-34515000D01*
X170366842Y-34572068D01*
X170096589Y-34684010D01*
X169853368Y-34846525D01*
X169646525Y-35053368D01*
X169530000Y-35227760D01*
X169413475Y-35053368D01*
X169206632Y-34846525D01*
X168963411Y-34684010D01*
X168693158Y-34572068D01*
X168406260Y-34515000D01*
X168113740Y-34515000D01*
X167826842Y-34572068D01*
X167556589Y-34684010D01*
X167313368Y-34846525D01*
X167106525Y-35053368D01*
X166990000Y-35227760D01*
X166873475Y-35053368D01*
X166666632Y-34846525D01*
X166423411Y-34684010D01*
X166153158Y-34572068D01*
X165866260Y-34515000D01*
X165573740Y-34515000D01*
X165286842Y-34572068D01*
X165016589Y-34684010D01*
X164773368Y-34846525D01*
X164566525Y-35053368D01*
X164450000Y-35227760D01*
X164333475Y-35053368D01*
X164126632Y-34846525D01*
X163883411Y-34684010D01*
X163613158Y-34572068D01*
X163326260Y-34515000D01*
X163033740Y-34515000D01*
X162746842Y-34572068D01*
X162476589Y-34684010D01*
X162233368Y-34846525D01*
X162026525Y-35053368D01*
X161910000Y-35227760D01*
X161793475Y-35053368D01*
X161586632Y-34846525D01*
X161343411Y-34684010D01*
X161073158Y-34572068D01*
X160786260Y-34515000D01*
X160493740Y-34515000D01*
X160206842Y-34572068D01*
X159936589Y-34684010D01*
X159693368Y-34846525D01*
X159486525Y-35053368D01*
X159370000Y-35227760D01*
X159253475Y-35053368D01*
X159046632Y-34846525D01*
X158803411Y-34684010D01*
X158533158Y-34572068D01*
X158246260Y-34515000D01*
X157953740Y-34515000D01*
X157666842Y-34572068D01*
X157396589Y-34684010D01*
X157153368Y-34846525D01*
X156946525Y-35053368D01*
X156830000Y-35227760D01*
X156713475Y-35053368D01*
X156506632Y-34846525D01*
X156263411Y-34684010D01*
X155993158Y-34572068D01*
X155706260Y-34515000D01*
X155413740Y-34515000D01*
X155126842Y-34572068D01*
X154856589Y-34684010D01*
X154613368Y-34846525D01*
X154406525Y-35053368D01*
X154290000Y-35227760D01*
X154173475Y-35053368D01*
X153966632Y-34846525D01*
X153723411Y-34684010D01*
X153453158Y-34572068D01*
X153166260Y-34515000D01*
X152873740Y-34515000D01*
X152586842Y-34572068D01*
X152316589Y-34684010D01*
X152073368Y-34846525D01*
X151866525Y-35053368D01*
X151750000Y-35227760D01*
X151633475Y-35053368D01*
X151426632Y-34846525D01*
X151183411Y-34684010D01*
X150913158Y-34572068D01*
X150626260Y-34515000D01*
X150333740Y-34515000D01*
X150046842Y-34572068D01*
X149776589Y-34684010D01*
X149533368Y-34846525D01*
X149326525Y-35053368D01*
X149210000Y-35227760D01*
X149093475Y-35053368D01*
X148886632Y-34846525D01*
X148643411Y-34684010D01*
X148373158Y-34572068D01*
X148086260Y-34515000D01*
X147793740Y-34515000D01*
X147506842Y-34572068D01*
X147236589Y-34684010D01*
X146993368Y-34846525D01*
X146786525Y-35053368D01*
X146670000Y-35227760D01*
X146553475Y-35053368D01*
X146346632Y-34846525D01*
X146103411Y-34684010D01*
X145833158Y-34572068D01*
X145546260Y-34515000D01*
X145253740Y-34515000D01*
X144966842Y-34572068D01*
X144696589Y-34684010D01*
X144453368Y-34846525D01*
X144246525Y-35053368D01*
X144130000Y-35227760D01*
X144013475Y-35053368D01*
X143806632Y-34846525D01*
X143563411Y-34684010D01*
X143293158Y-34572068D01*
X143006260Y-34515000D01*
X142713740Y-34515000D01*
X142426842Y-34572068D01*
X142156589Y-34684010D01*
X141913368Y-34846525D01*
X141706525Y-35053368D01*
X141590000Y-35227760D01*
X141473475Y-35053368D01*
X141266632Y-34846525D01*
X141023411Y-34684010D01*
X140753158Y-34572068D01*
X140466260Y-34515000D01*
X140173740Y-34515000D01*
X139886842Y-34572068D01*
X139616589Y-34684010D01*
X139373368Y-34846525D01*
X139166525Y-35053368D01*
X139050000Y-35227760D01*
X138933475Y-35053368D01*
X138726632Y-34846525D01*
X138483411Y-34684010D01*
X138213158Y-34572068D01*
X137926260Y-34515000D01*
X137633740Y-34515000D01*
X137346842Y-34572068D01*
X137076589Y-34684010D01*
X136833368Y-34846525D01*
X136626525Y-35053368D01*
X136510000Y-35227760D01*
X136393475Y-35053368D01*
X136186632Y-34846525D01*
X135943411Y-34684010D01*
X135673158Y-34572068D01*
X135386260Y-34515000D01*
X135093740Y-34515000D01*
X134806842Y-34572068D01*
X134536589Y-34684010D01*
X134293368Y-34846525D01*
X134086525Y-35053368D01*
X133970000Y-35227760D01*
X133853475Y-35053368D01*
X133646632Y-34846525D01*
X133403411Y-34684010D01*
X133133158Y-34572068D01*
X132846260Y-34515000D01*
X132553740Y-34515000D01*
X132266842Y-34572068D01*
X131996589Y-34684010D01*
X131753368Y-34846525D01*
X131546525Y-35053368D01*
X131430000Y-35227760D01*
X131313475Y-35053368D01*
X131106632Y-34846525D01*
X130863411Y-34684010D01*
X130593158Y-34572068D01*
X130306260Y-34515000D01*
X130013740Y-34515000D01*
X129726842Y-34572068D01*
X129456589Y-34684010D01*
X129213368Y-34846525D01*
X129006525Y-35053368D01*
X128890000Y-35227760D01*
X128773475Y-35053368D01*
X128566632Y-34846525D01*
X128323411Y-34684010D01*
X128053158Y-34572068D01*
X127766260Y-34515000D01*
X127473740Y-34515000D01*
X127186842Y-34572068D01*
X126916589Y-34684010D01*
X126673368Y-34846525D01*
X126466525Y-35053368D01*
X126350000Y-35227760D01*
X126233475Y-35053368D01*
X126026632Y-34846525D01*
X125783411Y-34684010D01*
X125513158Y-34572068D01*
X125226260Y-34515000D01*
X124933740Y-34515000D01*
X124646842Y-34572068D01*
X124376589Y-34684010D01*
X124133368Y-34846525D01*
X123926525Y-35053368D01*
X123804805Y-35235534D01*
X123735178Y-35118645D01*
X123540269Y-34902412D01*
X123306920Y-34728359D01*
X123044099Y-34603175D01*
X122896890Y-34558524D01*
X122667000Y-34679845D01*
X122413000Y-34679845D01*
X122183110Y-34558524D01*
X122035901Y-34603175D01*
X121773080Y-34728359D01*
X121539731Y-34902412D01*
X121463966Y-34986466D01*
X121439502Y-34905820D01*
X121380537Y-34795506D01*
X121301185Y-34698815D01*
X121204494Y-34619463D01*
X121094180Y-34560498D01*
X120974482Y-34524188D01*
X120850000Y-34511928D01*
X120285750Y-34515000D01*
X120127000Y-34673750D01*
X119873000Y-34673750D01*
X119714250Y-34515000D01*
X119150000Y-34511928D01*
X119025518Y-34524188D01*
X118905820Y-34560498D01*
X118795506Y-34619463D01*
X118698815Y-34698815D01*
X118619463Y-34795506D01*
X118560498Y-34905820D01*
X118524188Y-35025518D01*
X118511928Y-35150000D01*
X23160000Y-35150000D01*
X23160000Y-32785013D01*
X220992034Y-32785013D01*
X221089358Y-33059374D01*
X221238337Y-33309477D01*
X221433246Y-33525710D01*
X221666595Y-33699763D01*
X221929416Y-33824947D01*
X222076625Y-33869598D01*
X222306515Y-33748277D01*
X222306515Y-32555122D01*
X222560515Y-32555122D01*
X222560515Y-33748277D01*
X222790405Y-33869598D01*
X222937614Y-33824947D01*
X223200435Y-33699763D01*
X223433784Y-33525710D01*
X223628693Y-33309477D01*
X223703515Y-33183867D01*
X223778337Y-33309477D01*
X223973246Y-33525710D01*
X224206595Y-33699763D01*
X224469416Y-33824947D01*
X224616625Y-33869598D01*
X224846515Y-33748277D01*
X224846515Y-32555122D01*
X222560515Y-32555122D01*
X222306515Y-32555122D01*
X221112701Y-32555122D01*
X220992034Y-32785013D01*
X23160000Y-32785013D01*
X23160000Y-32071231D01*
X220992034Y-32071231D01*
X221112701Y-32301122D01*
X222306515Y-32301122D01*
X222306515Y-31107967D01*
X222560515Y-31107967D01*
X222560515Y-32301122D01*
X224846515Y-32301122D01*
X224846515Y-31107967D01*
X225100515Y-31107967D01*
X225100515Y-32301122D01*
X225120515Y-32301122D01*
X225120515Y-32555122D01*
X225100515Y-32555122D01*
X225100515Y-33748277D01*
X225330405Y-33869598D01*
X225477614Y-33824947D01*
X225740435Y-33699763D01*
X225973784Y-33525710D01*
X226168693Y-33309477D01*
X226238320Y-33192588D01*
X226360040Y-33374754D01*
X226566883Y-33581597D01*
X226810104Y-33744112D01*
X227080357Y-33856054D01*
X227367255Y-33913122D01*
X227659775Y-33913122D01*
X227946673Y-33856054D01*
X228216926Y-33744112D01*
X228460147Y-33581597D01*
X228666990Y-33374754D01*
X228783515Y-33200362D01*
X228900040Y-33374754D01*
X229106883Y-33581597D01*
X229350104Y-33744112D01*
X229620357Y-33856054D01*
X229907255Y-33913122D01*
X230199775Y-33913122D01*
X230486673Y-33856054D01*
X230756926Y-33744112D01*
X231000147Y-33581597D01*
X231206990Y-33374754D01*
X231323515Y-33200362D01*
X231440040Y-33374754D01*
X231646883Y-33581597D01*
X231890104Y-33744112D01*
X232160357Y-33856054D01*
X232447255Y-33913122D01*
X232739775Y-33913122D01*
X233026673Y-33856054D01*
X233296926Y-33744112D01*
X233540147Y-33581597D01*
X233746990Y-33374754D01*
X233863515Y-33200362D01*
X233980040Y-33374754D01*
X234186883Y-33581597D01*
X234430104Y-33744112D01*
X234700357Y-33856054D01*
X234987255Y-33913122D01*
X235279775Y-33913122D01*
X235566673Y-33856054D01*
X235836926Y-33744112D01*
X236080147Y-33581597D01*
X236286990Y-33374754D01*
X236403515Y-33200362D01*
X236520040Y-33374754D01*
X236726883Y-33581597D01*
X236970104Y-33744112D01*
X237240357Y-33856054D01*
X237527255Y-33913122D01*
X237819775Y-33913122D01*
X238106673Y-33856054D01*
X238376926Y-33744112D01*
X238620147Y-33581597D01*
X238826990Y-33374754D01*
X238943515Y-33200362D01*
X239060040Y-33374754D01*
X239266883Y-33581597D01*
X239510104Y-33744112D01*
X239780357Y-33856054D01*
X240067255Y-33913122D01*
X240359775Y-33913122D01*
X240646673Y-33856054D01*
X240916926Y-33744112D01*
X241160147Y-33581597D01*
X241366990Y-33374754D01*
X241483515Y-33200362D01*
X241600040Y-33374754D01*
X241806883Y-33581597D01*
X242050104Y-33744112D01*
X242320357Y-33856054D01*
X242607255Y-33913122D01*
X242899775Y-33913122D01*
X243186673Y-33856054D01*
X243456926Y-33744112D01*
X243700147Y-33581597D01*
X243906990Y-33374754D01*
X244023515Y-33200362D01*
X244140040Y-33374754D01*
X244346883Y-33581597D01*
X244590104Y-33744112D01*
X244860357Y-33856054D01*
X245147255Y-33913122D01*
X245439775Y-33913122D01*
X245726673Y-33856054D01*
X245996926Y-33744112D01*
X246240147Y-33581597D01*
X246446990Y-33374754D01*
X246568710Y-33192588D01*
X246638337Y-33309477D01*
X246833246Y-33525710D01*
X247066595Y-33699763D01*
X247329416Y-33824947D01*
X247476625Y-33869598D01*
X247706515Y-33748277D01*
X247706515Y-32555122D01*
X247960515Y-32555122D01*
X247960515Y-33748277D01*
X248190405Y-33869598D01*
X248337614Y-33824947D01*
X248600435Y-33699763D01*
X248833784Y-33525710D01*
X248909549Y-33441656D01*
X248934013Y-33522302D01*
X248992978Y-33632616D01*
X249072330Y-33729307D01*
X249169021Y-33808659D01*
X249279335Y-33867624D01*
X249399033Y-33903934D01*
X249523515Y-33916194D01*
X250087765Y-33913122D01*
X250246515Y-33754372D01*
X250246515Y-32555122D01*
X250500515Y-32555122D01*
X250500515Y-33754372D01*
X250659265Y-33913122D01*
X251223515Y-33916194D01*
X251347997Y-33903934D01*
X251467695Y-33867624D01*
X251578009Y-33808659D01*
X251674700Y-33729307D01*
X251754052Y-33632616D01*
X251813017Y-33522302D01*
X251849327Y-33402604D01*
X251861587Y-33278122D01*
X251858515Y-32713872D01*
X251699765Y-32555122D01*
X250500515Y-32555122D01*
X250246515Y-32555122D01*
X247960515Y-32555122D01*
X247706515Y-32555122D01*
X247686515Y-32555122D01*
X247686515Y-32301122D01*
X247706515Y-32301122D01*
X247706515Y-31107967D01*
X247960515Y-31107967D01*
X247960515Y-32301122D01*
X250246515Y-32301122D01*
X250246515Y-31101872D01*
X250500515Y-31101872D01*
X250500515Y-32301122D01*
X251699765Y-32301122D01*
X251858515Y-32142372D01*
X251861587Y-31578122D01*
X251849327Y-31453640D01*
X251813017Y-31333942D01*
X251754052Y-31223628D01*
X251674700Y-31126937D01*
X251578009Y-31047585D01*
X251467695Y-30988620D01*
X251347997Y-30952310D01*
X251223515Y-30940050D01*
X250659265Y-30943122D01*
X250500515Y-31101872D01*
X250246515Y-31101872D01*
X250087765Y-30943122D01*
X249523515Y-30940050D01*
X249399033Y-30952310D01*
X249279335Y-30988620D01*
X249169021Y-31047585D01*
X249072330Y-31126937D01*
X248992978Y-31223628D01*
X248934013Y-31333942D01*
X248909549Y-31414588D01*
X248833784Y-31330534D01*
X248600435Y-31156481D01*
X248337614Y-31031297D01*
X248190405Y-30986646D01*
X247960515Y-31107967D01*
X247706515Y-31107967D01*
X247476625Y-30986646D01*
X247329416Y-31031297D01*
X247066595Y-31156481D01*
X246833246Y-31330534D01*
X246638337Y-31546767D01*
X246568710Y-31663656D01*
X246446990Y-31481490D01*
X246240147Y-31274647D01*
X245996926Y-31112132D01*
X245726673Y-31000190D01*
X245439775Y-30943122D01*
X245147255Y-30943122D01*
X244860357Y-31000190D01*
X244590104Y-31112132D01*
X244346883Y-31274647D01*
X244140040Y-31481490D01*
X244023515Y-31655882D01*
X243906990Y-31481490D01*
X243700147Y-31274647D01*
X243456926Y-31112132D01*
X243186673Y-31000190D01*
X242899775Y-30943122D01*
X242607255Y-30943122D01*
X242320357Y-31000190D01*
X242050104Y-31112132D01*
X241806883Y-31274647D01*
X241600040Y-31481490D01*
X241483515Y-31655882D01*
X241366990Y-31481490D01*
X241160147Y-31274647D01*
X240916926Y-31112132D01*
X240646673Y-31000190D01*
X240359775Y-30943122D01*
X240067255Y-30943122D01*
X239780357Y-31000190D01*
X239510104Y-31112132D01*
X239266883Y-31274647D01*
X239060040Y-31481490D01*
X238943515Y-31655882D01*
X238826990Y-31481490D01*
X238620147Y-31274647D01*
X238376926Y-31112132D01*
X238106673Y-31000190D01*
X237819775Y-30943122D01*
X237527255Y-30943122D01*
X237240357Y-31000190D01*
X236970104Y-31112132D01*
X236726883Y-31274647D01*
X236520040Y-31481490D01*
X236403515Y-31655882D01*
X236286990Y-31481490D01*
X236080147Y-31274647D01*
X235836926Y-31112132D01*
X235566673Y-31000190D01*
X235279775Y-30943122D01*
X234987255Y-30943122D01*
X234700357Y-31000190D01*
X234430104Y-31112132D01*
X234186883Y-31274647D01*
X233980040Y-31481490D01*
X233863515Y-31655882D01*
X233746990Y-31481490D01*
X233540147Y-31274647D01*
X233296926Y-31112132D01*
X233026673Y-31000190D01*
X232739775Y-30943122D01*
X232447255Y-30943122D01*
X232160357Y-31000190D01*
X231890104Y-31112132D01*
X231646883Y-31274647D01*
X231440040Y-31481490D01*
X231323515Y-31655882D01*
X231206990Y-31481490D01*
X231000147Y-31274647D01*
X230756926Y-31112132D01*
X230486673Y-31000190D01*
X230199775Y-30943122D01*
X229907255Y-30943122D01*
X229620357Y-31000190D01*
X229350104Y-31112132D01*
X229106883Y-31274647D01*
X228900040Y-31481490D01*
X228783515Y-31655882D01*
X228666990Y-31481490D01*
X228460147Y-31274647D01*
X228216926Y-31112132D01*
X227946673Y-31000190D01*
X227659775Y-30943122D01*
X227367255Y-30943122D01*
X227080357Y-31000190D01*
X226810104Y-31112132D01*
X226566883Y-31274647D01*
X226360040Y-31481490D01*
X226238320Y-31663656D01*
X226168693Y-31546767D01*
X225973784Y-31330534D01*
X225740435Y-31156481D01*
X225477614Y-31031297D01*
X225330405Y-30986646D01*
X225100515Y-31107967D01*
X224846515Y-31107967D01*
X224616625Y-30986646D01*
X224469416Y-31031297D01*
X224206595Y-31156481D01*
X223973246Y-31330534D01*
X223778337Y-31546767D01*
X223703515Y-31672377D01*
X223628693Y-31546767D01*
X223433784Y-31330534D01*
X223200435Y-31156481D01*
X222937614Y-31031297D01*
X222790405Y-30986646D01*
X222560515Y-31107967D01*
X222306515Y-31107967D01*
X222076625Y-30986646D01*
X221929416Y-31031297D01*
X221666595Y-31156481D01*
X221433246Y-31330534D01*
X221238337Y-31546767D01*
X221089358Y-31796870D01*
X220992034Y-32071231D01*
X23160000Y-32071231D01*
X23160000Y-30660000D01*
X265840000Y-30660000D01*
X265840001Y-134840000D01*
G04 #@! TA.AperFunction,Conductor*
D14*
G36*
X265840001Y-134840000D02*
G01*
X23160000Y-134840000D01*
X23160000Y-36850000D01*
X118511928Y-36850000D01*
X118524188Y-36974482D01*
X118560498Y-37094180D01*
X118619463Y-37204494D01*
X118698815Y-37301185D01*
X118795506Y-37380537D01*
X118905820Y-37439502D01*
X119025518Y-37475812D01*
X119150000Y-37488072D01*
X119714250Y-37485000D01*
X119873000Y-37326250D01*
X119873000Y-36127000D01*
X120127000Y-36127000D01*
X120127000Y-37326250D01*
X120285750Y-37485000D01*
X120850000Y-37488072D01*
X120974482Y-37475812D01*
X121094180Y-37439502D01*
X121204494Y-37380537D01*
X121301185Y-37301185D01*
X121380537Y-37204494D01*
X121439502Y-37094180D01*
X121463966Y-37013534D01*
X121539731Y-37097588D01*
X121773080Y-37271641D01*
X122035901Y-37396825D01*
X122183110Y-37441476D01*
X122413000Y-37320155D01*
X122413000Y-36127000D01*
X120127000Y-36127000D01*
X119873000Y-36127000D01*
X118673750Y-36127000D01*
X118515000Y-36285750D01*
X118511928Y-36850000D01*
X23160000Y-36850000D01*
X23160000Y-35150000D01*
X118511928Y-35150000D01*
X118515000Y-35714250D01*
X118673750Y-35873000D01*
X119873000Y-35873000D01*
X119873000Y-34673750D01*
X120127000Y-34673750D01*
X120127000Y-35873000D01*
X122413000Y-35873000D01*
X122413000Y-34679845D01*
X122667000Y-34679845D01*
X122667000Y-35873000D01*
X122687000Y-35873000D01*
X122687000Y-36127000D01*
X122667000Y-36127000D01*
X122667000Y-37320155D01*
X122896890Y-37441476D01*
X123044099Y-37396825D01*
X123306920Y-37271641D01*
X123540269Y-37097588D01*
X123735178Y-36881355D01*
X123804805Y-36764466D01*
X123926525Y-36946632D01*
X124133368Y-37153475D01*
X124376589Y-37315990D01*
X124646842Y-37427932D01*
X124933740Y-37485000D01*
X125226260Y-37485000D01*
X125513158Y-37427932D01*
X125783411Y-37315990D01*
X126026632Y-37153475D01*
X126233475Y-36946632D01*
X126350000Y-36772240D01*
X126466525Y-36946632D01*
X126673368Y-37153475D01*
X126916589Y-37315990D01*
X127186842Y-37427932D01*
X127473740Y-37485000D01*
X127766260Y-37485000D01*
X128053158Y-37427932D01*
X128323411Y-37315990D01*
X128566632Y-37153475D01*
X128773475Y-36946632D01*
X128890000Y-36772240D01*
X129006525Y-36946632D01*
X129213368Y-37153475D01*
X129456589Y-37315990D01*
X129726842Y-37427932D01*
X130013740Y-37485000D01*
X130306260Y-37485000D01*
X130593158Y-37427932D01*
X130863411Y-37315990D01*
X131106632Y-37153475D01*
X131313475Y-36946632D01*
X131430000Y-36772240D01*
X131546525Y-36946632D01*
X131753368Y-37153475D01*
X131996589Y-37315990D01*
X132266842Y-37427932D01*
X132553740Y-37485000D01*
X132846260Y-37485000D01*
X133133158Y-37427932D01*
X133403411Y-37315990D01*
X133646632Y-37153475D01*
X133853475Y-36946632D01*
X133970000Y-36772240D01*
X134086525Y-36946632D01*
X134293368Y-37153475D01*
X134536589Y-37315990D01*
X134806842Y-37427932D01*
X135093740Y-37485000D01*
X135386260Y-37485000D01*
X135673158Y-37427932D01*
X135943411Y-37315990D01*
X136186632Y-37153475D01*
X136393475Y-36946632D01*
X136510000Y-36772240D01*
X136626525Y-36946632D01*
X136833368Y-37153475D01*
X137076589Y-37315990D01*
X137346842Y-37427932D01*
X137633740Y-37485000D01*
X137926260Y-37485000D01*
X138213158Y-37427932D01*
X138483411Y-37315990D01*
X138726632Y-37153475D01*
X138933475Y-36946632D01*
X139050000Y-36772240D01*
X139166525Y-36946632D01*
X139373368Y-37153475D01*
X139616589Y-37315990D01*
X139886842Y-37427932D01*
X140173740Y-37485000D01*
X140466260Y-37485000D01*
X140753158Y-37427932D01*
X141023411Y-37315990D01*
X141266632Y-37153475D01*
X141473475Y-36946632D01*
X141590000Y-36772240D01*
X141706525Y-36946632D01*
X141913368Y-37153475D01*
X142156589Y-37315990D01*
X142426842Y-37427932D01*
X142713740Y-37485000D01*
X143006260Y-37485000D01*
X143293158Y-37427932D01*
X143563411Y-37315990D01*
X143806632Y-37153475D01*
X144013475Y-36946632D01*
X144130000Y-36772240D01*
X144246525Y-36946632D01*
X144453368Y-37153475D01*
X144696589Y-37315990D01*
X144966842Y-37427932D01*
X145253740Y-37485000D01*
X145546260Y-37485000D01*
X145833158Y-37427932D01*
X146103411Y-37315990D01*
X146346632Y-37153475D01*
X146553475Y-36946632D01*
X146670000Y-36772240D01*
X146786525Y-36946632D01*
X146993368Y-37153475D01*
X147236589Y-37315990D01*
X147506842Y-37427932D01*
X147793740Y-37485000D01*
X148086260Y-37485000D01*
X148373158Y-37427932D01*
X148643411Y-37315990D01*
X148886632Y-37153475D01*
X149093475Y-36946632D01*
X149210000Y-36772240D01*
X149326525Y-36946632D01*
X149533368Y-37153475D01*
X149776589Y-37315990D01*
X150046842Y-37427932D01*
X150333740Y-37485000D01*
X150626260Y-37485000D01*
X150913158Y-37427932D01*
X151183411Y-37315990D01*
X151426632Y-37153475D01*
X151633475Y-36946632D01*
X151750000Y-36772240D01*
X151866525Y-36946632D01*
X152073368Y-37153475D01*
X152316589Y-37315990D01*
X152586842Y-37427932D01*
X152873740Y-37485000D01*
X153166260Y-37485000D01*
X153453158Y-37427932D01*
X153723411Y-37315990D01*
X153966632Y-37153475D01*
X154173475Y-36946632D01*
X154290000Y-36772240D01*
X154406525Y-36946632D01*
X154613368Y-37153475D01*
X154856589Y-37315990D01*
X155126842Y-37427932D01*
X155413740Y-37485000D01*
X155706260Y-37485000D01*
X155993158Y-37427932D01*
X156263411Y-37315990D01*
X156506632Y-37153475D01*
X156713475Y-36946632D01*
X156830000Y-36772240D01*
X156946525Y-36946632D01*
X157153368Y-37153475D01*
X157396589Y-37315990D01*
X157666842Y-37427932D01*
X157953740Y-37485000D01*
X158246260Y-37485000D01*
X158533158Y-37427932D01*
X158803411Y-37315990D01*
X159046632Y-37153475D01*
X159253475Y-36946632D01*
X159370000Y-36772240D01*
X159486525Y-36946632D01*
X159693368Y-37153475D01*
X159936589Y-37315990D01*
X160206842Y-37427932D01*
X160493740Y-37485000D01*
X160786260Y-37485000D01*
X161073158Y-37427932D01*
X161343411Y-37315990D01*
X161586632Y-37153475D01*
X161793475Y-36946632D01*
X161910000Y-36772240D01*
X162026525Y-36946632D01*
X162233368Y-37153475D01*
X162476589Y-37315990D01*
X162746842Y-37427932D01*
X163033740Y-37485000D01*
X163326260Y-37485000D01*
X163613158Y-37427932D01*
X163883411Y-37315990D01*
X164126632Y-37153475D01*
X164333475Y-36946632D01*
X164450000Y-36772240D01*
X164566525Y-36946632D01*
X164773368Y-37153475D01*
X165016589Y-37315990D01*
X165286842Y-37427932D01*
X165573740Y-37485000D01*
X165866260Y-37485000D01*
X166153158Y-37427932D01*
X166423411Y-37315990D01*
X166666632Y-37153475D01*
X166873475Y-36946632D01*
X166990000Y-36772240D01*
X167106525Y-36946632D01*
X167313368Y-37153475D01*
X167556589Y-37315990D01*
X167826842Y-37427932D01*
X168113740Y-37485000D01*
X168406260Y-37485000D01*
X168693158Y-37427932D01*
X168963411Y-37315990D01*
X169206632Y-37153475D01*
X169413475Y-36946632D01*
X169530000Y-36772240D01*
X169646525Y-36946632D01*
X169853368Y-37153475D01*
X170096589Y-37315990D01*
X170366842Y-37427932D01*
X170653740Y-37485000D01*
X170946260Y-37485000D01*
X171233158Y-37427932D01*
X171503411Y-37315990D01*
X171746632Y-37153475D01*
X171953475Y-36946632D01*
X172070000Y-36772240D01*
X172186525Y-36946632D01*
X172393368Y-37153475D01*
X172636589Y-37315990D01*
X172906842Y-37427932D01*
X173193740Y-37485000D01*
X173486260Y-37485000D01*
X173773158Y-37427932D01*
X174043411Y-37315990D01*
X174286632Y-37153475D01*
X174493475Y-36946632D01*
X174610000Y-36772240D01*
X174726525Y-36946632D01*
X174933368Y-37153475D01*
X175176589Y-37315990D01*
X175446842Y-37427932D01*
X175733740Y-37485000D01*
X176026260Y-37485000D01*
X176313158Y-37427932D01*
X176583411Y-37315990D01*
X176826632Y-37153475D01*
X177033475Y-36946632D01*
X177150000Y-36772240D01*
X177266525Y-36946632D01*
X177473368Y-37153475D01*
X177716589Y-37315990D01*
X177986842Y-37427932D01*
X178273740Y-37485000D01*
X178566260Y-37485000D01*
X178853158Y-37427932D01*
X179123411Y-37315990D01*
X179366632Y-37153475D01*
X179573475Y-36946632D01*
X179690000Y-36772240D01*
X179806525Y-36946632D01*
X180013368Y-37153475D01*
X180256589Y-37315990D01*
X180526842Y-37427932D01*
X180813740Y-37485000D01*
X181106260Y-37485000D01*
X181393158Y-37427932D01*
X181663411Y-37315990D01*
X181906632Y-37153475D01*
X182113475Y-36946632D01*
X182235195Y-36764466D01*
X182304822Y-36881355D01*
X182499731Y-37097588D01*
X182733080Y-37271641D01*
X182995901Y-37396825D01*
X183143110Y-37441476D01*
X183373000Y-37320155D01*
X183373000Y-36127000D01*
X183627000Y-36127000D01*
X183627000Y-37320155D01*
X183856890Y-37441476D01*
X184004099Y-37396825D01*
X184266920Y-37271641D01*
X184500269Y-37097588D01*
X184695178Y-36881355D01*
X184770000Y-36755745D01*
X184844822Y-36881355D01*
X185039731Y-37097588D01*
X185273080Y-37271641D01*
X185535901Y-37396825D01*
X185683110Y-37441476D01*
X185913000Y-37320155D01*
X185913000Y-36127000D01*
X186167000Y-36127000D01*
X186167000Y-37320155D01*
X186396890Y-37441476D01*
X186544099Y-37396825D01*
X186806920Y-37271641D01*
X187040269Y-37097588D01*
X187235178Y-36881355D01*
X187384157Y-36631252D01*
X187481481Y-36356891D01*
X187360814Y-36127000D01*
X186167000Y-36127000D01*
X185913000Y-36127000D01*
X183627000Y-36127000D01*
X183373000Y-36127000D01*
X183353000Y-36127000D01*
X183353000Y-35873000D01*
X183373000Y-35873000D01*
X183373000Y-34679845D01*
X183627000Y-34679845D01*
X183627000Y-35873000D01*
X185913000Y-35873000D01*
X185913000Y-34679845D01*
X186167000Y-34679845D01*
X186167000Y-35873000D01*
X187360814Y-35873000D01*
X187481481Y-35643109D01*
X187384157Y-35368748D01*
X187235178Y-35118645D01*
X187040269Y-34902412D01*
X186806920Y-34728359D01*
X186544099Y-34603175D01*
X186396890Y-34558524D01*
X186167000Y-34679845D01*
X185913000Y-34679845D01*
X185683110Y-34558524D01*
X185535901Y-34603175D01*
X185273080Y-34728359D01*
X185039731Y-34902412D01*
X184844822Y-35118645D01*
X184770000Y-35244255D01*
X184695178Y-35118645D01*
X184500269Y-34902412D01*
X184266920Y-34728359D01*
X184004099Y-34603175D01*
X183856890Y-34558524D01*
X183627000Y-34679845D01*
X183373000Y-34679845D01*
X183143110Y-34558524D01*
X182995901Y-34603175D01*
X182733080Y-34728359D01*
X182499731Y-34902412D01*
X182304822Y-35118645D01*
X182235195Y-35235534D01*
X182113475Y-35053368D01*
X181906632Y-34846525D01*
X181663411Y-34684010D01*
X181393158Y-34572068D01*
X181106260Y-34515000D01*
X180813740Y-34515000D01*
X180526842Y-34572068D01*
X180256589Y-34684010D01*
X180013368Y-34846525D01*
X179806525Y-35053368D01*
X179690000Y-35227760D01*
X179573475Y-35053368D01*
X179366632Y-34846525D01*
X179123411Y-34684010D01*
X178853158Y-34572068D01*
X178566260Y-34515000D01*
X178273740Y-34515000D01*
X177986842Y-34572068D01*
X177716589Y-34684010D01*
X177473368Y-34846525D01*
X177266525Y-35053368D01*
X177150000Y-35227760D01*
X177033475Y-35053368D01*
X176826632Y-34846525D01*
X176583411Y-34684010D01*
X176313158Y-34572068D01*
X176026260Y-34515000D01*
X175733740Y-34515000D01*
X175446842Y-34572068D01*
X175176589Y-34684010D01*
X174933368Y-34846525D01*
X174726525Y-35053368D01*
X174610000Y-35227760D01*
X174493475Y-35053368D01*
X174286632Y-34846525D01*
X174043411Y-34684010D01*
X173773158Y-34572068D01*
X173486260Y-34515000D01*
X173193740Y-34515000D01*
X172906842Y-34572068D01*
X172636589Y-34684010D01*
X172393368Y-34846525D01*
X172186525Y-35053368D01*
X172070000Y-35227760D01*
X171953475Y-35053368D01*
X171746632Y-34846525D01*
X171503411Y-34684010D01*
X171233158Y-34572068D01*
X170946260Y-34515000D01*
X170653740Y-34515000D01*
X170366842Y-34572068D01*
X170096589Y-34684010D01*
X169853368Y-34846525D01*
X169646525Y-35053368D01*
X169530000Y-35227760D01*
X169413475Y-35053368D01*
X169206632Y-34846525D01*
X168963411Y-34684010D01*
X168693158Y-34572068D01*
X168406260Y-34515000D01*
X168113740Y-34515000D01*
X167826842Y-34572068D01*
X167556589Y-34684010D01*
X167313368Y-34846525D01*
X167106525Y-35053368D01*
X166990000Y-35227760D01*
X166873475Y-35053368D01*
X166666632Y-34846525D01*
X166423411Y-34684010D01*
X166153158Y-34572068D01*
X165866260Y-34515000D01*
X165573740Y-34515000D01*
X165286842Y-34572068D01*
X165016589Y-34684010D01*
X164773368Y-34846525D01*
X164566525Y-35053368D01*
X164450000Y-35227760D01*
X164333475Y-35053368D01*
X164126632Y-34846525D01*
X163883411Y-34684010D01*
X163613158Y-34572068D01*
X163326260Y-34515000D01*
X163033740Y-34515000D01*
X162746842Y-34572068D01*
X162476589Y-34684010D01*
X162233368Y-34846525D01*
X162026525Y-35053368D01*
X161910000Y-35227760D01*
X161793475Y-35053368D01*
X161586632Y-34846525D01*
X161343411Y-34684010D01*
X161073158Y-34572068D01*
X160786260Y-34515000D01*
X160493740Y-34515000D01*
X160206842Y-34572068D01*
X159936589Y-34684010D01*
X159693368Y-34846525D01*
X159486525Y-35053368D01*
X159370000Y-35227760D01*
X159253475Y-35053368D01*
X159046632Y-34846525D01*
X158803411Y-34684010D01*
X158533158Y-34572068D01*
X158246260Y-34515000D01*
X157953740Y-34515000D01*
X157666842Y-34572068D01*
X157396589Y-34684010D01*
X157153368Y-34846525D01*
X156946525Y-35053368D01*
X156830000Y-35227760D01*
X156713475Y-35053368D01*
X156506632Y-34846525D01*
X156263411Y-34684010D01*
X155993158Y-34572068D01*
X155706260Y-34515000D01*
X155413740Y-34515000D01*
X155126842Y-34572068D01*
X154856589Y-34684010D01*
X154613368Y-34846525D01*
X154406525Y-35053368D01*
X154290000Y-35227760D01*
X154173475Y-35053368D01*
X153966632Y-34846525D01*
X153723411Y-34684010D01*
X153453158Y-34572068D01*
X153166260Y-34515000D01*
X152873740Y-34515000D01*
X152586842Y-34572068D01*
X152316589Y-34684010D01*
X152073368Y-34846525D01*
X151866525Y-35053368D01*
X151750000Y-35227760D01*
X151633475Y-35053368D01*
X151426632Y-34846525D01*
X151183411Y-34684010D01*
X150913158Y-34572068D01*
X150626260Y-34515000D01*
X150333740Y-34515000D01*
X150046842Y-34572068D01*
X149776589Y-34684010D01*
X149533368Y-34846525D01*
X149326525Y-35053368D01*
X149210000Y-35227760D01*
X149093475Y-35053368D01*
X148886632Y-34846525D01*
X148643411Y-34684010D01*
X148373158Y-34572068D01*
X148086260Y-34515000D01*
X147793740Y-34515000D01*
X147506842Y-34572068D01*
X147236589Y-34684010D01*
X146993368Y-34846525D01*
X146786525Y-35053368D01*
X146670000Y-35227760D01*
X146553475Y-35053368D01*
X146346632Y-34846525D01*
X146103411Y-34684010D01*
X145833158Y-34572068D01*
X145546260Y-34515000D01*
X145253740Y-34515000D01*
X144966842Y-34572068D01*
X144696589Y-34684010D01*
X144453368Y-34846525D01*
X144246525Y-35053368D01*
X144130000Y-35227760D01*
X144013475Y-35053368D01*
X143806632Y-34846525D01*
X143563411Y-34684010D01*
X143293158Y-34572068D01*
X143006260Y-34515000D01*
X142713740Y-34515000D01*
X142426842Y-34572068D01*
X142156589Y-34684010D01*
X141913368Y-34846525D01*
X141706525Y-35053368D01*
X141590000Y-35227760D01*
X141473475Y-35053368D01*
X141266632Y-34846525D01*
X141023411Y-34684010D01*
X140753158Y-34572068D01*
X140466260Y-34515000D01*
X140173740Y-34515000D01*
X139886842Y-34572068D01*
X139616589Y-34684010D01*
X139373368Y-34846525D01*
X139166525Y-35053368D01*
X139050000Y-35227760D01*
X138933475Y-35053368D01*
X138726632Y-34846525D01*
X138483411Y-34684010D01*
X138213158Y-34572068D01*
X137926260Y-34515000D01*
X137633740Y-34515000D01*
X137346842Y-34572068D01*
X137076589Y-34684010D01*
X136833368Y-34846525D01*
X136626525Y-35053368D01*
X136510000Y-35227760D01*
X136393475Y-35053368D01*
X136186632Y-34846525D01*
X135943411Y-34684010D01*
X135673158Y-34572068D01*
X135386260Y-34515000D01*
X135093740Y-34515000D01*
X134806842Y-34572068D01*
X134536589Y-34684010D01*
X134293368Y-34846525D01*
X134086525Y-35053368D01*
X133970000Y-35227760D01*
X133853475Y-35053368D01*
X133646632Y-34846525D01*
X133403411Y-34684010D01*
X133133158Y-34572068D01*
X132846260Y-34515000D01*
X132553740Y-34515000D01*
X132266842Y-34572068D01*
X131996589Y-34684010D01*
X131753368Y-34846525D01*
X131546525Y-35053368D01*
X131430000Y-35227760D01*
X131313475Y-35053368D01*
X131106632Y-34846525D01*
X130863411Y-34684010D01*
X130593158Y-34572068D01*
X130306260Y-34515000D01*
X130013740Y-34515000D01*
X129726842Y-34572068D01*
X129456589Y-34684010D01*
X129213368Y-34846525D01*
X129006525Y-35053368D01*
X128890000Y-35227760D01*
X128773475Y-35053368D01*
X128566632Y-34846525D01*
X128323411Y-34684010D01*
X128053158Y-34572068D01*
X127766260Y-34515000D01*
X127473740Y-34515000D01*
X127186842Y-34572068D01*
X126916589Y-34684010D01*
X126673368Y-34846525D01*
X126466525Y-35053368D01*
X126350000Y-35227760D01*
X126233475Y-35053368D01*
X126026632Y-34846525D01*
X125783411Y-34684010D01*
X125513158Y-34572068D01*
X125226260Y-34515000D01*
X124933740Y-34515000D01*
X124646842Y-34572068D01*
X124376589Y-34684010D01*
X124133368Y-34846525D01*
X123926525Y-35053368D01*
X123804805Y-35235534D01*
X123735178Y-35118645D01*
X123540269Y-34902412D01*
X123306920Y-34728359D01*
X123044099Y-34603175D01*
X122896890Y-34558524D01*
X122667000Y-34679845D01*
X122413000Y-34679845D01*
X122183110Y-34558524D01*
X122035901Y-34603175D01*
X121773080Y-34728359D01*
X121539731Y-34902412D01*
X121463966Y-34986466D01*
X121439502Y-34905820D01*
X121380537Y-34795506D01*
X121301185Y-34698815D01*
X121204494Y-34619463D01*
X121094180Y-34560498D01*
X120974482Y-34524188D01*
X120850000Y-34511928D01*
X120285750Y-34515000D01*
X120127000Y-34673750D01*
X119873000Y-34673750D01*
X119714250Y-34515000D01*
X119150000Y-34511928D01*
X119025518Y-34524188D01*
X118905820Y-34560498D01*
X118795506Y-34619463D01*
X118698815Y-34698815D01*
X118619463Y-34795506D01*
X118560498Y-34905820D01*
X118524188Y-35025518D01*
X118511928Y-35150000D01*
X23160000Y-35150000D01*
X23160000Y-32785013D01*
X220992034Y-32785013D01*
X221089358Y-33059374D01*
X221238337Y-33309477D01*
X221433246Y-33525710D01*
X221666595Y-33699763D01*
X221929416Y-33824947D01*
X222076625Y-33869598D01*
X222306515Y-33748277D01*
X222306515Y-32555122D01*
X222560515Y-32555122D01*
X222560515Y-33748277D01*
X222790405Y-33869598D01*
X222937614Y-33824947D01*
X223200435Y-33699763D01*
X223433784Y-33525710D01*
X223628693Y-33309477D01*
X223703515Y-33183867D01*
X223778337Y-33309477D01*
X223973246Y-33525710D01*
X224206595Y-33699763D01*
X224469416Y-33824947D01*
X224616625Y-33869598D01*
X224846515Y-33748277D01*
X224846515Y-32555122D01*
X222560515Y-32555122D01*
X222306515Y-32555122D01*
X221112701Y-32555122D01*
X220992034Y-32785013D01*
X23160000Y-32785013D01*
X23160000Y-32071231D01*
X220992034Y-32071231D01*
X221112701Y-32301122D01*
X222306515Y-32301122D01*
X222306515Y-31107967D01*
X222560515Y-31107967D01*
X222560515Y-32301122D01*
X224846515Y-32301122D01*
X224846515Y-31107967D01*
X225100515Y-31107967D01*
X225100515Y-32301122D01*
X225120515Y-32301122D01*
X225120515Y-32555122D01*
X225100515Y-32555122D01*
X225100515Y-33748277D01*
X225330405Y-33869598D01*
X225477614Y-33824947D01*
X225740435Y-33699763D01*
X225973784Y-33525710D01*
X226168693Y-33309477D01*
X226238320Y-33192588D01*
X226360040Y-33374754D01*
X226566883Y-33581597D01*
X226810104Y-33744112D01*
X227080357Y-33856054D01*
X227367255Y-33913122D01*
X227659775Y-33913122D01*
X227946673Y-33856054D01*
X228216926Y-33744112D01*
X228460147Y-33581597D01*
X228666990Y-33374754D01*
X228783515Y-33200362D01*
X228900040Y-33374754D01*
X229106883Y-33581597D01*
X229350104Y-33744112D01*
X229620357Y-33856054D01*
X229907255Y-33913122D01*
X230199775Y-33913122D01*
X230486673Y-33856054D01*
X230756926Y-33744112D01*
X231000147Y-33581597D01*
X231206990Y-33374754D01*
X231323515Y-33200362D01*
X231440040Y-33374754D01*
X231646883Y-33581597D01*
X231890104Y-33744112D01*
X232160357Y-33856054D01*
X232447255Y-33913122D01*
X232739775Y-33913122D01*
X233026673Y-33856054D01*
X233296926Y-33744112D01*
X233540147Y-33581597D01*
X233746990Y-33374754D01*
X233863515Y-33200362D01*
X233980040Y-33374754D01*
X234186883Y-33581597D01*
X234430104Y-33744112D01*
X234700357Y-33856054D01*
X234987255Y-33913122D01*
X235279775Y-33913122D01*
X235566673Y-33856054D01*
X235836926Y-33744112D01*
X236080147Y-33581597D01*
X236286990Y-33374754D01*
X236403515Y-33200362D01*
X236520040Y-33374754D01*
X236726883Y-33581597D01*
X236970104Y-33744112D01*
X237240357Y-33856054D01*
X237527255Y-33913122D01*
X237819775Y-33913122D01*
X238106673Y-33856054D01*
X238376926Y-33744112D01*
X238620147Y-33581597D01*
X238826990Y-33374754D01*
X238943515Y-33200362D01*
X239060040Y-33374754D01*
X239266883Y-33581597D01*
X239510104Y-33744112D01*
X239780357Y-33856054D01*
X240067255Y-33913122D01*
X240359775Y-33913122D01*
X240646673Y-33856054D01*
X240916926Y-33744112D01*
X241160147Y-33581597D01*
X241366990Y-33374754D01*
X241483515Y-33200362D01*
X241600040Y-33374754D01*
X241806883Y-33581597D01*
X242050104Y-33744112D01*
X242320357Y-33856054D01*
X242607255Y-33913122D01*
X242899775Y-33913122D01*
X243186673Y-33856054D01*
X243456926Y-33744112D01*
X243700147Y-33581597D01*
X243906990Y-33374754D01*
X244023515Y-33200362D01*
X244140040Y-33374754D01*
X244346883Y-33581597D01*
X244590104Y-33744112D01*
X244860357Y-33856054D01*
X245147255Y-33913122D01*
X245439775Y-33913122D01*
X245726673Y-33856054D01*
X245996926Y-33744112D01*
X246240147Y-33581597D01*
X246446990Y-33374754D01*
X246568710Y-33192588D01*
X246638337Y-33309477D01*
X246833246Y-33525710D01*
X247066595Y-33699763D01*
X247329416Y-33824947D01*
X247476625Y-33869598D01*
X247706515Y-33748277D01*
X247706515Y-32555122D01*
X247960515Y-32555122D01*
X247960515Y-33748277D01*
X248190405Y-33869598D01*
X248337614Y-33824947D01*
X248600435Y-33699763D01*
X248833784Y-33525710D01*
X248909549Y-33441656D01*
X248934013Y-33522302D01*
X248992978Y-33632616D01*
X249072330Y-33729307D01*
X249169021Y-33808659D01*
X249279335Y-33867624D01*
X249399033Y-33903934D01*
X249523515Y-33916194D01*
X250087765Y-33913122D01*
X250246515Y-33754372D01*
X250246515Y-32555122D01*
X250500515Y-32555122D01*
X250500515Y-33754372D01*
X250659265Y-33913122D01*
X251223515Y-33916194D01*
X251347997Y-33903934D01*
X251467695Y-33867624D01*
X251578009Y-33808659D01*
X251674700Y-33729307D01*
X251754052Y-33632616D01*
X251813017Y-33522302D01*
X251849327Y-33402604D01*
X251861587Y-33278122D01*
X251858515Y-32713872D01*
X251699765Y-32555122D01*
X250500515Y-32555122D01*
X250246515Y-32555122D01*
X247960515Y-32555122D01*
X247706515Y-32555122D01*
X247686515Y-32555122D01*
X247686515Y-32301122D01*
X247706515Y-32301122D01*
X247706515Y-31107967D01*
X247960515Y-31107967D01*
X247960515Y-32301122D01*
X250246515Y-32301122D01*
X250246515Y-31101872D01*
X250500515Y-31101872D01*
X250500515Y-32301122D01*
X251699765Y-32301122D01*
X251858515Y-32142372D01*
X251861587Y-31578122D01*
X251849327Y-31453640D01*
X251813017Y-31333942D01*
X251754052Y-31223628D01*
X251674700Y-31126937D01*
X251578009Y-31047585D01*
X251467695Y-30988620D01*
X251347997Y-30952310D01*
X251223515Y-30940050D01*
X250659265Y-30943122D01*
X250500515Y-31101872D01*
X250246515Y-31101872D01*
X250087765Y-30943122D01*
X249523515Y-30940050D01*
X249399033Y-30952310D01*
X249279335Y-30988620D01*
X249169021Y-31047585D01*
X249072330Y-31126937D01*
X248992978Y-31223628D01*
X248934013Y-31333942D01*
X248909549Y-31414588D01*
X248833784Y-31330534D01*
X248600435Y-31156481D01*
X248337614Y-31031297D01*
X248190405Y-30986646D01*
X247960515Y-31107967D01*
X247706515Y-31107967D01*
X247476625Y-30986646D01*
X247329416Y-31031297D01*
X247066595Y-31156481D01*
X246833246Y-31330534D01*
X246638337Y-31546767D01*
X246568710Y-31663656D01*
X246446990Y-31481490D01*
X246240147Y-31274647D01*
X245996926Y-31112132D01*
X245726673Y-31000190D01*
X245439775Y-30943122D01*
X245147255Y-30943122D01*
X244860357Y-31000190D01*
X244590104Y-31112132D01*
X244346883Y-31274647D01*
X244140040Y-31481490D01*
X244023515Y-31655882D01*
X243906990Y-31481490D01*
X243700147Y-31274647D01*
X243456926Y-31112132D01*
X243186673Y-31000190D01*
X242899775Y-30943122D01*
X242607255Y-30943122D01*
X242320357Y-31000190D01*
X242050104Y-31112132D01*
X241806883Y-31274647D01*
X241600040Y-31481490D01*
X241483515Y-31655882D01*
X241366990Y-31481490D01*
X241160147Y-31274647D01*
X240916926Y-31112132D01*
X240646673Y-31000190D01*
X240359775Y-30943122D01*
X240067255Y-30943122D01*
X239780357Y-31000190D01*
X239510104Y-31112132D01*
X239266883Y-31274647D01*
X239060040Y-31481490D01*
X238943515Y-31655882D01*
X238826990Y-31481490D01*
X238620147Y-31274647D01*
X238376926Y-31112132D01*
X238106673Y-31000190D01*
X237819775Y-30943122D01*
X237527255Y-30943122D01*
X237240357Y-31000190D01*
X236970104Y-31112132D01*
X236726883Y-31274647D01*
X236520040Y-31481490D01*
X236403515Y-31655882D01*
X236286990Y-31481490D01*
X236080147Y-31274647D01*
X235836926Y-31112132D01*
X235566673Y-31000190D01*
X235279775Y-30943122D01*
X234987255Y-30943122D01*
X234700357Y-31000190D01*
X234430104Y-31112132D01*
X234186883Y-31274647D01*
X233980040Y-31481490D01*
X233863515Y-31655882D01*
X233746990Y-31481490D01*
X233540147Y-31274647D01*
X233296926Y-31112132D01*
X233026673Y-31000190D01*
X232739775Y-30943122D01*
X232447255Y-30943122D01*
X232160357Y-31000190D01*
X231890104Y-31112132D01*
X231646883Y-31274647D01*
X231440040Y-31481490D01*
X231323515Y-31655882D01*
X231206990Y-31481490D01*
X231000147Y-31274647D01*
X230756926Y-31112132D01*
X230486673Y-31000190D01*
X230199775Y-30943122D01*
X229907255Y-30943122D01*
X229620357Y-31000190D01*
X229350104Y-31112132D01*
X229106883Y-31274647D01*
X228900040Y-31481490D01*
X228783515Y-31655882D01*
X228666990Y-31481490D01*
X228460147Y-31274647D01*
X228216926Y-31112132D01*
X227946673Y-31000190D01*
X227659775Y-30943122D01*
X227367255Y-30943122D01*
X227080357Y-31000190D01*
X226810104Y-31112132D01*
X226566883Y-31274647D01*
X226360040Y-31481490D01*
X226238320Y-31663656D01*
X226168693Y-31546767D01*
X225973784Y-31330534D01*
X225740435Y-31156481D01*
X225477614Y-31031297D01*
X225330405Y-30986646D01*
X225100515Y-31107967D01*
X224846515Y-31107967D01*
X224616625Y-30986646D01*
X224469416Y-31031297D01*
X224206595Y-31156481D01*
X223973246Y-31330534D01*
X223778337Y-31546767D01*
X223703515Y-31672377D01*
X223628693Y-31546767D01*
X223433784Y-31330534D01*
X223200435Y-31156481D01*
X222937614Y-31031297D01*
X222790405Y-30986646D01*
X222560515Y-31107967D01*
X222306515Y-31107967D01*
X222076625Y-30986646D01*
X221929416Y-31031297D01*
X221666595Y-31156481D01*
X221433246Y-31330534D01*
X221238337Y-31546767D01*
X221089358Y-31796870D01*
X220992034Y-32071231D01*
X23160000Y-32071231D01*
X23160000Y-30660000D01*
X265840000Y-30660000D01*
X265840001Y-134840000D01*
G37*
G04 #@! TD.AperFunction*
M02*
