G04 #@! TF.GenerationSoftware,KiCad,Pcbnew,5.1.10*
G04 #@! TF.CreationDate,2021-12-29T16:07:41+01:00*
G04 #@! TF.ProjectId,model_d,6d6f6465-6c5f-4642-9e6b-696361645f70,rev?*
G04 #@! TF.SameCoordinates,Original*
G04 #@! TF.FileFunction,Copper,L1,Top*
G04 #@! TF.FilePolarity,Positive*
%FSLAX46Y46*%
G04 Gerber Fmt 4.6, Leading zero omitted, Abs format (unit mm)*
G04 Created by KiCad (PCBNEW 5.1.10) date 2021-12-29 16:07:41*
%MOMM*%
%LPD*%
G01*
G04 APERTURE LIST*
G04 #@! TA.AperFunction,EtchedComponent*
%ADD10C,0.100000*%
G04 #@! TD*
G04 #@! TA.AperFunction,ComponentPad*
%ADD11O,1.700000X1.700000*%
G04 #@! TD*
G04 #@! TA.AperFunction,ComponentPad*
%ADD12R,1.700000X1.700000*%
G04 #@! TD*
G04 #@! TA.AperFunction,ConnectorPad*
%ADD13R,6.300000X13.000000*%
G04 #@! TD*
G04 #@! TA.AperFunction,Conductor*
%ADD14C,0.700000*%
G04 #@! TD*
G04 #@! TA.AperFunction,Conductor*
%ADD15C,0.254000*%
G04 #@! TD*
G04 #@! TA.AperFunction,Conductor*
%ADD16C,0.100000*%
G04 #@! TD*
G04 APERTURE END LIST*
D10*
G36*
X39000000Y-66500000D02*
G01*
X32700000Y-66500000D01*
X32700000Y-53500000D01*
X39000000Y-53500000D01*
X39000000Y-66500000D01*
G37*
X39000000Y-66500000D02*
X32700000Y-66500000D01*
X32700000Y-53500000D01*
X39000000Y-53500000D01*
X39000000Y-66500000D01*
G36*
X39000000Y-87500000D02*
G01*
X32700000Y-87500000D01*
X32700000Y-74500000D01*
X39000000Y-74500000D01*
X39000000Y-87500000D01*
G37*
X39000000Y-87500000D02*
X32700000Y-87500000D01*
X32700000Y-74500000D01*
X39000000Y-74500000D01*
X39000000Y-87500000D01*
G36*
X39000000Y-108500000D02*
G01*
X32700000Y-108500000D01*
X32700000Y-95500000D01*
X39000000Y-95500000D01*
X39000000Y-108500000D01*
G37*
X39000000Y-108500000D02*
X32700000Y-108500000D01*
X32700000Y-95500000D01*
X39000000Y-95500000D01*
X39000000Y-108500000D01*
G36*
X39000000Y-129500000D02*
G01*
X32700000Y-129500000D01*
X32700000Y-116500000D01*
X39000000Y-116500000D01*
X39000000Y-129500000D01*
G37*
X39000000Y-129500000D02*
X32700000Y-129500000D01*
X32700000Y-116500000D01*
X39000000Y-116500000D01*
X39000000Y-129500000D01*
G36*
X58000000Y-66500000D02*
G01*
X51700000Y-66500000D01*
X51700000Y-53500000D01*
X58000000Y-53500000D01*
X58000000Y-66500000D01*
G37*
X58000000Y-66500000D02*
X51700000Y-66500000D01*
X51700000Y-53500000D01*
X58000000Y-53500000D01*
X58000000Y-66500000D01*
G36*
X58000000Y-87500000D02*
G01*
X51700000Y-87500000D01*
X51700000Y-74500000D01*
X58000000Y-74500000D01*
X58000000Y-87500000D01*
G37*
X58000000Y-87500000D02*
X51700000Y-87500000D01*
X51700000Y-74500000D01*
X58000000Y-74500000D01*
X58000000Y-87500000D01*
G36*
X58000000Y-108500000D02*
G01*
X51700000Y-108500000D01*
X51700000Y-95500000D01*
X58000000Y-95500000D01*
X58000000Y-108500000D01*
G37*
X58000000Y-108500000D02*
X51700000Y-108500000D01*
X51700000Y-95500000D01*
X58000000Y-95500000D01*
X58000000Y-108500000D01*
G36*
X58000000Y-129500000D02*
G01*
X51700000Y-129500000D01*
X51700000Y-116500000D01*
X58000000Y-116500000D01*
X58000000Y-129500000D01*
G37*
X58000000Y-129500000D02*
X51700000Y-129500000D01*
X51700000Y-116500000D01*
X58000000Y-116500000D01*
X58000000Y-129500000D01*
G36*
X77000000Y-66500000D02*
G01*
X70700000Y-66500000D01*
X70700000Y-53500000D01*
X77000000Y-53500000D01*
X77000000Y-66500000D01*
G37*
X77000000Y-66500000D02*
X70700000Y-66500000D01*
X70700000Y-53500000D01*
X77000000Y-53500000D01*
X77000000Y-66500000D01*
G36*
X77000000Y-87500000D02*
G01*
X70700000Y-87500000D01*
X70700000Y-74500000D01*
X77000000Y-74500000D01*
X77000000Y-87500000D01*
G37*
X77000000Y-87500000D02*
X70700000Y-87500000D01*
X70700000Y-74500000D01*
X77000000Y-74500000D01*
X77000000Y-87500000D01*
G36*
X77000000Y-108500000D02*
G01*
X70700000Y-108500000D01*
X70700000Y-95500000D01*
X77000000Y-95500000D01*
X77000000Y-108500000D01*
G37*
X77000000Y-108500000D02*
X70700000Y-108500000D01*
X70700000Y-95500000D01*
X77000000Y-95500000D01*
X77000000Y-108500000D01*
G36*
X77000000Y-129500000D02*
G01*
X70700000Y-129500000D01*
X70700000Y-116500000D01*
X77000000Y-116500000D01*
X77000000Y-129500000D01*
G37*
X77000000Y-129500000D02*
X70700000Y-129500000D01*
X70700000Y-116500000D01*
X77000000Y-116500000D01*
X77000000Y-129500000D01*
G36*
X96000000Y-66500000D02*
G01*
X89700000Y-66500000D01*
X89700000Y-53500000D01*
X96000000Y-53500000D01*
X96000000Y-66500000D01*
G37*
X96000000Y-66500000D02*
X89700000Y-66500000D01*
X89700000Y-53500000D01*
X96000000Y-53500000D01*
X96000000Y-66500000D01*
G36*
X96000000Y-87500000D02*
G01*
X89700000Y-87500000D01*
X89700000Y-74500000D01*
X96000000Y-74500000D01*
X96000000Y-87500000D01*
G37*
X96000000Y-87500000D02*
X89700000Y-87500000D01*
X89700000Y-74500000D01*
X96000000Y-74500000D01*
X96000000Y-87500000D01*
G36*
X96000000Y-108500000D02*
G01*
X89700000Y-108500000D01*
X89700000Y-95500000D01*
X96000000Y-95500000D01*
X96000000Y-108500000D01*
G37*
X96000000Y-108500000D02*
X89700000Y-108500000D01*
X89700000Y-95500000D01*
X96000000Y-95500000D01*
X96000000Y-108500000D01*
G36*
X96000000Y-129500000D02*
G01*
X89700000Y-129500000D01*
X89700000Y-116500000D01*
X96000000Y-116500000D01*
X96000000Y-129500000D01*
G37*
X96000000Y-129500000D02*
X89700000Y-129500000D01*
X89700000Y-116500000D01*
X96000000Y-116500000D01*
X96000000Y-129500000D01*
G36*
X115000000Y-66500000D02*
G01*
X108700000Y-66500000D01*
X108700000Y-53500000D01*
X115000000Y-53500000D01*
X115000000Y-66500000D01*
G37*
X115000000Y-66500000D02*
X108700000Y-66500000D01*
X108700000Y-53500000D01*
X115000000Y-53500000D01*
X115000000Y-66500000D01*
G36*
X115000000Y-87500000D02*
G01*
X108700000Y-87500000D01*
X108700000Y-74500000D01*
X115000000Y-74500000D01*
X115000000Y-87500000D01*
G37*
X115000000Y-87500000D02*
X108700000Y-87500000D01*
X108700000Y-74500000D01*
X115000000Y-74500000D01*
X115000000Y-87500000D01*
G36*
X115000000Y-108500000D02*
G01*
X108700000Y-108500000D01*
X108700000Y-95500000D01*
X115000000Y-95500000D01*
X115000000Y-108500000D01*
G37*
X115000000Y-108500000D02*
X108700000Y-108500000D01*
X108700000Y-95500000D01*
X115000000Y-95500000D01*
X115000000Y-108500000D01*
G36*
X115000000Y-129500000D02*
G01*
X108700000Y-129500000D01*
X108700000Y-116500000D01*
X115000000Y-116500000D01*
X115000000Y-129500000D01*
G37*
X115000000Y-129500000D02*
X108700000Y-129500000D01*
X108700000Y-116500000D01*
X115000000Y-116500000D01*
X115000000Y-129500000D01*
G36*
X134000000Y-66500000D02*
G01*
X127700000Y-66500000D01*
X127700000Y-53500000D01*
X134000000Y-53500000D01*
X134000000Y-66500000D01*
G37*
X134000000Y-66500000D02*
X127700000Y-66500000D01*
X127700000Y-53500000D01*
X134000000Y-53500000D01*
X134000000Y-66500000D01*
G36*
X134000000Y-87500000D02*
G01*
X127700000Y-87500000D01*
X127700000Y-74500000D01*
X134000000Y-74500000D01*
X134000000Y-87500000D01*
G37*
X134000000Y-87500000D02*
X127700000Y-87500000D01*
X127700000Y-74500000D01*
X134000000Y-74500000D01*
X134000000Y-87500000D01*
G36*
X134000000Y-108500000D02*
G01*
X127700000Y-108500000D01*
X127700000Y-95500000D01*
X134000000Y-95500000D01*
X134000000Y-108500000D01*
G37*
X134000000Y-108500000D02*
X127700000Y-108500000D01*
X127700000Y-95500000D01*
X134000000Y-95500000D01*
X134000000Y-108500000D01*
G36*
X134000000Y-129500000D02*
G01*
X127700000Y-129500000D01*
X127700000Y-116500000D01*
X134000000Y-116500000D01*
X134000000Y-129500000D01*
G37*
X134000000Y-129500000D02*
X127700000Y-129500000D01*
X127700000Y-116500000D01*
X134000000Y-116500000D01*
X134000000Y-129500000D01*
G36*
X153000000Y-66500000D02*
G01*
X146700000Y-66500000D01*
X146700000Y-53500000D01*
X153000000Y-53500000D01*
X153000000Y-66500000D01*
G37*
X153000000Y-66500000D02*
X146700000Y-66500000D01*
X146700000Y-53500000D01*
X153000000Y-53500000D01*
X153000000Y-66500000D01*
G36*
X153000000Y-87500000D02*
G01*
X146700000Y-87500000D01*
X146700000Y-74500000D01*
X153000000Y-74500000D01*
X153000000Y-87500000D01*
G37*
X153000000Y-87500000D02*
X146700000Y-87500000D01*
X146700000Y-74500000D01*
X153000000Y-74500000D01*
X153000000Y-87500000D01*
G36*
X153000000Y-108500000D02*
G01*
X146700000Y-108500000D01*
X146700000Y-95500000D01*
X153000000Y-95500000D01*
X153000000Y-108500000D01*
G37*
X153000000Y-108500000D02*
X146700000Y-108500000D01*
X146700000Y-95500000D01*
X153000000Y-95500000D01*
X153000000Y-108500000D01*
G36*
X153000000Y-129500000D02*
G01*
X146700000Y-129500000D01*
X146700000Y-116500000D01*
X153000000Y-116500000D01*
X153000000Y-129500000D01*
G37*
X153000000Y-129500000D02*
X146700000Y-129500000D01*
X146700000Y-116500000D01*
X153000000Y-116500000D01*
X153000000Y-129500000D01*
G36*
X172000000Y-66500000D02*
G01*
X165700000Y-66500000D01*
X165700000Y-53500000D01*
X172000000Y-53500000D01*
X172000000Y-66500000D01*
G37*
X172000000Y-66500000D02*
X165700000Y-66500000D01*
X165700000Y-53500000D01*
X172000000Y-53500000D01*
X172000000Y-66500000D01*
G36*
X172000000Y-87500000D02*
G01*
X165700000Y-87500000D01*
X165700000Y-74500000D01*
X172000000Y-74500000D01*
X172000000Y-87500000D01*
G37*
X172000000Y-87500000D02*
X165700000Y-87500000D01*
X165700000Y-74500000D01*
X172000000Y-74500000D01*
X172000000Y-87500000D01*
G36*
X172000000Y-108500000D02*
G01*
X165700000Y-108500000D01*
X165700000Y-95500000D01*
X172000000Y-95500000D01*
X172000000Y-108500000D01*
G37*
X172000000Y-108500000D02*
X165700000Y-108500000D01*
X165700000Y-95500000D01*
X172000000Y-95500000D01*
X172000000Y-108500000D01*
G36*
X172000000Y-129500000D02*
G01*
X165700000Y-129500000D01*
X165700000Y-116500000D01*
X172000000Y-116500000D01*
X172000000Y-129500000D01*
G37*
X172000000Y-129500000D02*
X165700000Y-129500000D01*
X165700000Y-116500000D01*
X172000000Y-116500000D01*
X172000000Y-129500000D01*
G36*
X191000000Y-66500000D02*
G01*
X184700000Y-66500000D01*
X184700000Y-53500000D01*
X191000000Y-53500000D01*
X191000000Y-66500000D01*
G37*
X191000000Y-66500000D02*
X184700000Y-66500000D01*
X184700000Y-53500000D01*
X191000000Y-53500000D01*
X191000000Y-66500000D01*
G36*
X191000000Y-87500000D02*
G01*
X184700000Y-87500000D01*
X184700000Y-74500000D01*
X191000000Y-74500000D01*
X191000000Y-87500000D01*
G37*
X191000000Y-87500000D02*
X184700000Y-87500000D01*
X184700000Y-74500000D01*
X191000000Y-74500000D01*
X191000000Y-87500000D01*
G36*
X191000000Y-108500000D02*
G01*
X184700000Y-108500000D01*
X184700000Y-95500000D01*
X191000000Y-95500000D01*
X191000000Y-108500000D01*
G37*
X191000000Y-108500000D02*
X184700000Y-108500000D01*
X184700000Y-95500000D01*
X191000000Y-95500000D01*
X191000000Y-108500000D01*
G36*
X191000000Y-129500000D02*
G01*
X184700000Y-129500000D01*
X184700000Y-116500000D01*
X191000000Y-116500000D01*
X191000000Y-129500000D01*
G37*
X191000000Y-129500000D02*
X184700000Y-129500000D01*
X184700000Y-116500000D01*
X191000000Y-116500000D01*
X191000000Y-129500000D01*
G36*
X210000000Y-66500000D02*
G01*
X203700000Y-66500000D01*
X203700000Y-53500000D01*
X210000000Y-53500000D01*
X210000000Y-66500000D01*
G37*
X210000000Y-66500000D02*
X203700000Y-66500000D01*
X203700000Y-53500000D01*
X210000000Y-53500000D01*
X210000000Y-66500000D01*
G36*
X210000000Y-87500000D02*
G01*
X203700000Y-87500000D01*
X203700000Y-74500000D01*
X210000000Y-74500000D01*
X210000000Y-87500000D01*
G37*
X210000000Y-87500000D02*
X203700000Y-87500000D01*
X203700000Y-74500000D01*
X210000000Y-74500000D01*
X210000000Y-87500000D01*
G36*
X210000000Y-108500000D02*
G01*
X203700000Y-108500000D01*
X203700000Y-95500000D01*
X210000000Y-95500000D01*
X210000000Y-108500000D01*
G37*
X210000000Y-108500000D02*
X203700000Y-108500000D01*
X203700000Y-95500000D01*
X210000000Y-95500000D01*
X210000000Y-108500000D01*
G36*
X210000000Y-129500000D02*
G01*
X203700000Y-129500000D01*
X203700000Y-116500000D01*
X210000000Y-116500000D01*
X210000000Y-129500000D01*
G37*
X210000000Y-129500000D02*
X203700000Y-129500000D01*
X203700000Y-116500000D01*
X210000000Y-116500000D01*
X210000000Y-129500000D01*
G36*
X229000000Y-66500000D02*
G01*
X222700000Y-66500000D01*
X222700000Y-53500000D01*
X229000000Y-53500000D01*
X229000000Y-66500000D01*
G37*
X229000000Y-66500000D02*
X222700000Y-66500000D01*
X222700000Y-53500000D01*
X229000000Y-53500000D01*
X229000000Y-66500000D01*
G36*
X229000000Y-87500000D02*
G01*
X222700000Y-87500000D01*
X222700000Y-74500000D01*
X229000000Y-74500000D01*
X229000000Y-87500000D01*
G37*
X229000000Y-87500000D02*
X222700000Y-87500000D01*
X222700000Y-74500000D01*
X229000000Y-74500000D01*
X229000000Y-87500000D01*
G36*
X229000000Y-108500000D02*
G01*
X222700000Y-108500000D01*
X222700000Y-95500000D01*
X229000000Y-95500000D01*
X229000000Y-108500000D01*
G37*
X229000000Y-108500000D02*
X222700000Y-108500000D01*
X222700000Y-95500000D01*
X229000000Y-95500000D01*
X229000000Y-108500000D01*
G36*
X229000000Y-129500000D02*
G01*
X222700000Y-129500000D01*
X222700000Y-116500000D01*
X229000000Y-116500000D01*
X229000000Y-129500000D01*
G37*
X229000000Y-129500000D02*
X222700000Y-129500000D01*
X222700000Y-116500000D01*
X229000000Y-116500000D01*
X229000000Y-129500000D01*
G36*
X248000000Y-66500000D02*
G01*
X241700000Y-66500000D01*
X241700000Y-53500000D01*
X248000000Y-53500000D01*
X248000000Y-66500000D01*
G37*
X248000000Y-66500000D02*
X241700000Y-66500000D01*
X241700000Y-53500000D01*
X248000000Y-53500000D01*
X248000000Y-66500000D01*
G36*
X248000000Y-87500000D02*
G01*
X241700000Y-87500000D01*
X241700000Y-74500000D01*
X248000000Y-74500000D01*
X248000000Y-87500000D01*
G37*
X248000000Y-87500000D02*
X241700000Y-87500000D01*
X241700000Y-74500000D01*
X248000000Y-74500000D01*
X248000000Y-87500000D01*
G36*
X248000000Y-108500000D02*
G01*
X241700000Y-108500000D01*
X241700000Y-95500000D01*
X248000000Y-95500000D01*
X248000000Y-108500000D01*
G37*
X248000000Y-108500000D02*
X241700000Y-108500000D01*
X241700000Y-95500000D01*
X248000000Y-95500000D01*
X248000000Y-108500000D01*
G36*
X248000000Y-129500000D02*
G01*
X241700000Y-129500000D01*
X241700000Y-116500000D01*
X248000000Y-116500000D01*
X248000000Y-129500000D01*
G37*
X248000000Y-129500000D02*
X241700000Y-129500000D01*
X241700000Y-116500000D01*
X248000000Y-116500000D01*
X248000000Y-129500000D01*
D11*
X245220000Y-36000000D03*
X247760000Y-36000000D03*
X250300000Y-36000000D03*
X252840000Y-36000000D03*
X255380000Y-36000000D03*
X257920000Y-36000000D03*
X260460000Y-36000000D03*
D12*
X263000000Y-36000000D03*
D11*
X158100000Y-36000000D03*
X155560000Y-36000000D03*
X153020000Y-36000000D03*
X150480000Y-36000000D03*
X147940000Y-36000000D03*
X145400000Y-36000000D03*
X142860000Y-36000000D03*
X140320000Y-36000000D03*
X137780000Y-36000000D03*
X135240000Y-36000000D03*
X132700000Y-36000000D03*
X130160000Y-36000000D03*
X127620000Y-36000000D03*
X125080000Y-36000000D03*
X122540000Y-36000000D03*
D12*
X120000000Y-36000000D03*
D13*
X44150000Y-60000000D03*
X44150000Y-81000000D03*
X44150000Y-102000000D03*
X44150000Y-123000000D03*
X63150000Y-60000000D03*
X63150000Y-81000000D03*
X63150000Y-102000000D03*
X63150000Y-123000000D03*
X82150000Y-60000000D03*
X82150000Y-81000000D03*
X82150000Y-102000000D03*
X82150000Y-123000000D03*
X101150000Y-60000000D03*
X101150000Y-81000000D03*
X101150000Y-102000000D03*
X101150000Y-123000000D03*
X120150000Y-60000000D03*
X120150000Y-81000000D03*
X120150000Y-102000000D03*
X120150000Y-123000000D03*
X139150000Y-60000000D03*
X139150000Y-81000000D03*
X139150000Y-102000000D03*
X139150000Y-123000000D03*
X158150000Y-60000000D03*
X158150000Y-81000000D03*
X158150000Y-102000000D03*
X158150000Y-123000000D03*
X177150000Y-60000000D03*
X177150000Y-81000000D03*
X177150000Y-102000000D03*
X177150000Y-123000000D03*
X196150000Y-60000000D03*
X196150000Y-81000000D03*
X196150000Y-102000000D03*
X196150000Y-123000000D03*
X215150000Y-60000000D03*
X215150000Y-81000000D03*
X215150000Y-102000000D03*
X215150000Y-123000000D03*
X234150000Y-60000000D03*
X234150000Y-81000000D03*
X234150000Y-102000000D03*
X234150000Y-123000000D03*
X253150000Y-60000000D03*
X253150000Y-81000000D03*
X253150000Y-102000000D03*
X253150000Y-123000000D03*
D14*
X253150000Y-123000000D02*
X253150000Y-112500000D01*
X253150000Y-112500000D02*
X30000000Y-112500000D01*
X234150000Y-123000000D02*
X234150000Y-112500000D01*
X215150000Y-123000000D02*
X215150000Y-112500000D01*
X196150000Y-123000000D02*
X196150000Y-112500000D01*
X177150000Y-123000000D02*
X177150000Y-112500000D01*
X158150000Y-123000000D02*
X158150000Y-112500000D01*
X139150000Y-123000000D02*
X139150000Y-112500000D01*
X120150000Y-123000000D02*
X120150000Y-112500000D01*
X101150000Y-123000000D02*
X101150000Y-112500000D01*
X82150000Y-123000000D02*
X82150000Y-112500000D01*
X63150000Y-123000000D02*
X63150000Y-112500000D01*
X44150000Y-123000000D02*
X44150000Y-112500000D01*
X257920000Y-38145000D02*
X257920000Y-36000000D01*
X261500000Y-110000000D02*
X261500000Y-41725000D01*
X259000000Y-112500000D02*
X261500000Y-110000000D01*
X261500000Y-41725000D02*
X257920000Y-38145000D01*
X253150000Y-112500000D02*
X259000000Y-112500000D01*
X253150000Y-102000000D02*
X253150000Y-91500000D01*
X253150000Y-91500000D02*
X30000000Y-91500000D01*
X234150000Y-102000000D02*
X234150000Y-91500000D01*
X215150000Y-102000000D02*
X215150000Y-91500000D01*
X196150000Y-102000000D02*
X196150000Y-91500000D01*
X177150000Y-102000000D02*
X177150000Y-91500000D01*
X158150000Y-102000000D02*
X158150000Y-91500000D01*
X139150000Y-102000000D02*
X139150000Y-91500000D01*
X120150000Y-102000000D02*
X120150000Y-91500000D01*
X101150000Y-102000000D02*
X101150000Y-91500000D01*
X82150000Y-102000000D02*
X82150000Y-91500000D01*
X63150000Y-102000000D02*
X63150000Y-91500000D01*
X44150000Y-102000000D02*
X44150000Y-91500000D01*
X260000000Y-42700000D02*
X255380000Y-38080000D01*
X257000000Y-91500000D02*
X260000000Y-88500000D01*
X255380000Y-38080000D02*
X255380000Y-36000000D01*
X260000000Y-88500000D02*
X260000000Y-42700000D01*
X253150000Y-91500000D02*
X257000000Y-91500000D01*
X253150000Y-81000000D02*
X253150000Y-70500000D01*
X234150000Y-81000000D02*
X234150000Y-70650000D01*
X253150000Y-70500000D02*
X234000000Y-70500000D01*
X215150000Y-81000000D02*
X215150000Y-70650000D01*
X215000000Y-70500000D02*
X30000000Y-70500000D01*
X234000000Y-70500000D02*
X215000000Y-70500000D01*
X196150000Y-81000000D02*
X196150000Y-70500000D01*
X177150000Y-81000000D02*
X177150000Y-70500000D01*
X158150000Y-81000000D02*
X158150000Y-70500000D01*
X139150000Y-81000000D02*
X139150000Y-70500000D01*
X120150000Y-81000000D02*
X120150000Y-70500000D01*
X101150000Y-81000000D02*
X101150000Y-70500000D01*
X82150000Y-81000000D02*
X82150000Y-70500000D01*
X63150000Y-81000000D02*
X63150000Y-70500000D01*
X44150000Y-81000000D02*
X44150000Y-70500000D01*
X253150000Y-70500000D02*
X257500000Y-70500000D01*
X257500000Y-70500000D02*
X258500000Y-69500000D01*
X252840000Y-38365000D02*
X252840000Y-36000000D01*
X258475000Y-44000000D02*
X252840000Y-38365000D01*
X258475000Y-46750000D02*
X258475000Y-44000000D01*
X258500000Y-46775000D02*
X258475000Y-46750000D01*
X258500000Y-69500000D02*
X258500000Y-46775000D01*
X44150000Y-60000000D02*
X44150000Y-47850000D01*
X253150000Y-60000000D02*
X253150000Y-47850000D01*
X234150000Y-60000000D02*
X234150000Y-47850000D01*
X234150000Y-47850000D02*
X253150000Y-47850000D01*
X215150000Y-60000000D02*
X215150000Y-47850000D01*
X215150000Y-47850000D02*
X234150000Y-47850000D01*
X196150000Y-60000000D02*
X196150000Y-47850000D01*
X196150000Y-47850000D02*
X215150000Y-47850000D01*
X177150000Y-48050000D02*
X177350000Y-47850000D01*
X177150000Y-60000000D02*
X177150000Y-48050000D01*
X177350000Y-47850000D02*
X196150000Y-47850000D01*
X158150000Y-60000000D02*
X158150000Y-47850000D01*
X158150000Y-47850000D02*
X177350000Y-47850000D01*
X139150000Y-60000000D02*
X139150000Y-47850000D01*
X139150000Y-47850000D02*
X158150000Y-47850000D01*
X120150000Y-60000000D02*
X120150000Y-47850000D01*
X120150000Y-47850000D02*
X139150000Y-47850000D01*
X101150000Y-60000000D02*
X101150000Y-47850000D01*
X101150000Y-47850000D02*
X120150000Y-47850000D01*
X82150000Y-60000000D02*
X82150000Y-47850000D01*
X82150000Y-47850000D02*
X101150000Y-47850000D01*
X63150000Y-60000000D02*
X63150000Y-47850000D01*
X63150000Y-47850000D02*
X82150000Y-47850000D01*
X44150000Y-47850000D02*
X63150000Y-47850000D01*
X44150000Y-47850000D02*
X30000000Y-47850000D01*
X250300000Y-40000000D02*
X250300000Y-36000000D01*
X253150000Y-42850000D02*
X250300000Y-40000000D01*
X253150000Y-47850000D02*
X253150000Y-42850000D01*
D15*
X234373000Y-46373000D02*
X28500000Y-46373000D01*
X28475224Y-46375440D01*
X28451399Y-46382667D01*
X28429443Y-46394403D01*
X28410197Y-46410197D01*
X28394403Y-46429443D01*
X28382667Y-46451399D01*
X28375440Y-46475224D01*
X28373000Y-46500000D01*
X28373000Y-117873000D01*
X23627000Y-117873000D01*
X23627000Y-36850000D01*
X118017547Y-36850000D01*
X118039307Y-37070931D01*
X118103750Y-37283371D01*
X118208400Y-37479157D01*
X118349235Y-37650765D01*
X118520843Y-37791600D01*
X118716629Y-37896250D01*
X118929069Y-37960693D01*
X119150000Y-37982453D01*
X119591250Y-37977000D01*
X119873000Y-37695250D01*
X119873000Y-36127000D01*
X120127000Y-36127000D01*
X120127000Y-37695250D01*
X120408750Y-37977000D01*
X120850000Y-37982453D01*
X121070931Y-37960693D01*
X121283371Y-37896250D01*
X121479157Y-37791600D01*
X121571948Y-37715448D01*
X121829352Y-37844863D01*
X122105931Y-37928760D01*
X122413000Y-37690486D01*
X122413000Y-36127000D01*
X120127000Y-36127000D01*
X119873000Y-36127000D01*
X118304750Y-36127000D01*
X118023000Y-36408750D01*
X118017547Y-36850000D01*
X23627000Y-36850000D01*
X23627000Y-35150000D01*
X118017547Y-35150000D01*
X118023000Y-35591250D01*
X118304750Y-35873000D01*
X119873000Y-35873000D01*
X119873000Y-34304750D01*
X120127000Y-34304750D01*
X120127000Y-35873000D01*
X122413000Y-35873000D01*
X122413000Y-34309514D01*
X122667000Y-34309514D01*
X122667000Y-35873000D01*
X122687000Y-35873000D01*
X122687000Y-36127000D01*
X122667000Y-36127000D01*
X122667000Y-37690486D01*
X122974069Y-37928760D01*
X123250648Y-37844863D01*
X123596908Y-37670774D01*
X123902552Y-37432478D01*
X124139762Y-37157747D01*
X124376589Y-37315990D01*
X124646842Y-37427932D01*
X124933740Y-37485000D01*
X125226260Y-37485000D01*
X125513158Y-37427932D01*
X125783411Y-37315990D01*
X126026632Y-37153475D01*
X126233475Y-36946632D01*
X126350000Y-36772240D01*
X126466525Y-36946632D01*
X126673368Y-37153475D01*
X126916589Y-37315990D01*
X127186842Y-37427932D01*
X127473740Y-37485000D01*
X127766260Y-37485000D01*
X128053158Y-37427932D01*
X128323411Y-37315990D01*
X128566632Y-37153475D01*
X128773475Y-36946632D01*
X128890000Y-36772240D01*
X129006525Y-36946632D01*
X129213368Y-37153475D01*
X129456589Y-37315990D01*
X129726842Y-37427932D01*
X130013740Y-37485000D01*
X130306260Y-37485000D01*
X130593158Y-37427932D01*
X130863411Y-37315990D01*
X131106632Y-37153475D01*
X131313475Y-36946632D01*
X131430000Y-36772240D01*
X131546525Y-36946632D01*
X131753368Y-37153475D01*
X131996589Y-37315990D01*
X132266842Y-37427932D01*
X132553740Y-37485000D01*
X132846260Y-37485000D01*
X133133158Y-37427932D01*
X133403411Y-37315990D01*
X133646632Y-37153475D01*
X133853475Y-36946632D01*
X133970000Y-36772240D01*
X134086525Y-36946632D01*
X134293368Y-37153475D01*
X134536589Y-37315990D01*
X134806842Y-37427932D01*
X135093740Y-37485000D01*
X135386260Y-37485000D01*
X135673158Y-37427932D01*
X135943411Y-37315990D01*
X136186632Y-37153475D01*
X136393475Y-36946632D01*
X136510000Y-36772240D01*
X136626525Y-36946632D01*
X136833368Y-37153475D01*
X137076589Y-37315990D01*
X137346842Y-37427932D01*
X137633740Y-37485000D01*
X137926260Y-37485000D01*
X138213158Y-37427932D01*
X138483411Y-37315990D01*
X138726632Y-37153475D01*
X138933475Y-36946632D01*
X139050000Y-36772240D01*
X139166525Y-36946632D01*
X139373368Y-37153475D01*
X139616589Y-37315990D01*
X139886842Y-37427932D01*
X140173740Y-37485000D01*
X140466260Y-37485000D01*
X140753158Y-37427932D01*
X141023411Y-37315990D01*
X141266632Y-37153475D01*
X141473475Y-36946632D01*
X141590000Y-36772240D01*
X141706525Y-36946632D01*
X141913368Y-37153475D01*
X142156589Y-37315990D01*
X142426842Y-37427932D01*
X142713740Y-37485000D01*
X143006260Y-37485000D01*
X143293158Y-37427932D01*
X143563411Y-37315990D01*
X143806632Y-37153475D01*
X144013475Y-36946632D01*
X144130000Y-36772240D01*
X144246525Y-36946632D01*
X144453368Y-37153475D01*
X144696589Y-37315990D01*
X144966842Y-37427932D01*
X145253740Y-37485000D01*
X145546260Y-37485000D01*
X145833158Y-37427932D01*
X146103411Y-37315990D01*
X146346632Y-37153475D01*
X146553475Y-36946632D01*
X146670000Y-36772240D01*
X146786525Y-36946632D01*
X146993368Y-37153475D01*
X147236589Y-37315990D01*
X147506842Y-37427932D01*
X147793740Y-37485000D01*
X148086260Y-37485000D01*
X148373158Y-37427932D01*
X148643411Y-37315990D01*
X148886632Y-37153475D01*
X149093475Y-36946632D01*
X149210000Y-36772240D01*
X149326525Y-36946632D01*
X149533368Y-37153475D01*
X149776589Y-37315990D01*
X150046842Y-37427932D01*
X150333740Y-37485000D01*
X150626260Y-37485000D01*
X150913158Y-37427932D01*
X151183411Y-37315990D01*
X151426632Y-37153475D01*
X151633475Y-36946632D01*
X151750000Y-36772240D01*
X151866525Y-36946632D01*
X152073368Y-37153475D01*
X152316589Y-37315990D01*
X152586842Y-37427932D01*
X152873740Y-37485000D01*
X153166260Y-37485000D01*
X153453158Y-37427932D01*
X153723411Y-37315990D01*
X153960238Y-37157747D01*
X154197448Y-37432478D01*
X154503092Y-37670774D01*
X154849352Y-37844863D01*
X155125931Y-37928760D01*
X155433000Y-37690486D01*
X155433000Y-36127000D01*
X155687000Y-36127000D01*
X155687000Y-37690486D01*
X155994069Y-37928760D01*
X156270648Y-37844863D01*
X156616908Y-37670774D01*
X156830000Y-37504636D01*
X157043092Y-37670774D01*
X157389352Y-37844863D01*
X157665931Y-37928760D01*
X157973000Y-37690486D01*
X157973000Y-36127000D01*
X158227000Y-36127000D01*
X158227000Y-37690486D01*
X158534069Y-37928760D01*
X158810648Y-37844863D01*
X159156908Y-37670774D01*
X159462552Y-37432478D01*
X159715834Y-37139133D01*
X159907020Y-36802011D01*
X160028763Y-36434069D01*
X159791170Y-36127000D01*
X158227000Y-36127000D01*
X157973000Y-36127000D01*
X155687000Y-36127000D01*
X155433000Y-36127000D01*
X155413000Y-36127000D01*
X155413000Y-35873000D01*
X155433000Y-35873000D01*
X155433000Y-34309514D01*
X155687000Y-34309514D01*
X155687000Y-35873000D01*
X157973000Y-35873000D01*
X157973000Y-34309514D01*
X158227000Y-34309514D01*
X158227000Y-35873000D01*
X159791170Y-35873000D01*
X160028763Y-35565931D01*
X159907020Y-35197989D01*
X159715834Y-34860867D01*
X159462552Y-34567522D01*
X159156908Y-34329226D01*
X158810648Y-34155137D01*
X158534069Y-34071240D01*
X158227000Y-34309514D01*
X157973000Y-34309514D01*
X157665931Y-34071240D01*
X157389352Y-34155137D01*
X157043092Y-34329226D01*
X156830000Y-34495364D01*
X156616908Y-34329226D01*
X156270648Y-34155137D01*
X155994069Y-34071240D01*
X155687000Y-34309514D01*
X155433000Y-34309514D01*
X155125931Y-34071240D01*
X154849352Y-34155137D01*
X154503092Y-34329226D01*
X154197448Y-34567522D01*
X153960238Y-34842253D01*
X153723411Y-34684010D01*
X153453158Y-34572068D01*
X153166260Y-34515000D01*
X152873740Y-34515000D01*
X152586842Y-34572068D01*
X152316589Y-34684010D01*
X152073368Y-34846525D01*
X151866525Y-35053368D01*
X151750000Y-35227760D01*
X151633475Y-35053368D01*
X151426632Y-34846525D01*
X151183411Y-34684010D01*
X150913158Y-34572068D01*
X150626260Y-34515000D01*
X150333740Y-34515000D01*
X150046842Y-34572068D01*
X149776589Y-34684010D01*
X149533368Y-34846525D01*
X149326525Y-35053368D01*
X149210000Y-35227760D01*
X149093475Y-35053368D01*
X148886632Y-34846525D01*
X148643411Y-34684010D01*
X148373158Y-34572068D01*
X148086260Y-34515000D01*
X147793740Y-34515000D01*
X147506842Y-34572068D01*
X147236589Y-34684010D01*
X146993368Y-34846525D01*
X146786525Y-35053368D01*
X146670000Y-35227760D01*
X146553475Y-35053368D01*
X146346632Y-34846525D01*
X146103411Y-34684010D01*
X145833158Y-34572068D01*
X145546260Y-34515000D01*
X145253740Y-34515000D01*
X144966842Y-34572068D01*
X144696589Y-34684010D01*
X144453368Y-34846525D01*
X144246525Y-35053368D01*
X144130000Y-35227760D01*
X144013475Y-35053368D01*
X143806632Y-34846525D01*
X143563411Y-34684010D01*
X143293158Y-34572068D01*
X143006260Y-34515000D01*
X142713740Y-34515000D01*
X142426842Y-34572068D01*
X142156589Y-34684010D01*
X141913368Y-34846525D01*
X141706525Y-35053368D01*
X141590000Y-35227760D01*
X141473475Y-35053368D01*
X141266632Y-34846525D01*
X141023411Y-34684010D01*
X140753158Y-34572068D01*
X140466260Y-34515000D01*
X140173740Y-34515000D01*
X139886842Y-34572068D01*
X139616589Y-34684010D01*
X139373368Y-34846525D01*
X139166525Y-35053368D01*
X139050000Y-35227760D01*
X138933475Y-35053368D01*
X138726632Y-34846525D01*
X138483411Y-34684010D01*
X138213158Y-34572068D01*
X137926260Y-34515000D01*
X137633740Y-34515000D01*
X137346842Y-34572068D01*
X137076589Y-34684010D01*
X136833368Y-34846525D01*
X136626525Y-35053368D01*
X136510000Y-35227760D01*
X136393475Y-35053368D01*
X136186632Y-34846525D01*
X135943411Y-34684010D01*
X135673158Y-34572068D01*
X135386260Y-34515000D01*
X135093740Y-34515000D01*
X134806842Y-34572068D01*
X134536589Y-34684010D01*
X134293368Y-34846525D01*
X134086525Y-35053368D01*
X133970000Y-35227760D01*
X133853475Y-35053368D01*
X133646632Y-34846525D01*
X133403411Y-34684010D01*
X133133158Y-34572068D01*
X132846260Y-34515000D01*
X132553740Y-34515000D01*
X132266842Y-34572068D01*
X131996589Y-34684010D01*
X131753368Y-34846525D01*
X131546525Y-35053368D01*
X131430000Y-35227760D01*
X131313475Y-35053368D01*
X131106632Y-34846525D01*
X130863411Y-34684010D01*
X130593158Y-34572068D01*
X130306260Y-34515000D01*
X130013740Y-34515000D01*
X129726842Y-34572068D01*
X129456589Y-34684010D01*
X129213368Y-34846525D01*
X129006525Y-35053368D01*
X128890000Y-35227760D01*
X128773475Y-35053368D01*
X128566632Y-34846525D01*
X128323411Y-34684010D01*
X128053158Y-34572068D01*
X127766260Y-34515000D01*
X127473740Y-34515000D01*
X127186842Y-34572068D01*
X126916589Y-34684010D01*
X126673368Y-34846525D01*
X126466525Y-35053368D01*
X126350000Y-35227760D01*
X126233475Y-35053368D01*
X126026632Y-34846525D01*
X125783411Y-34684010D01*
X125513158Y-34572068D01*
X125226260Y-34515000D01*
X124933740Y-34515000D01*
X124646842Y-34572068D01*
X124376589Y-34684010D01*
X124139762Y-34842253D01*
X123902552Y-34567522D01*
X123596908Y-34329226D01*
X123250648Y-34155137D01*
X122974069Y-34071240D01*
X122667000Y-34309514D01*
X122413000Y-34309514D01*
X122105931Y-34071240D01*
X121829352Y-34155137D01*
X121571948Y-34284552D01*
X121479157Y-34208400D01*
X121283371Y-34103750D01*
X121070931Y-34039307D01*
X120850000Y-34017547D01*
X120408750Y-34023000D01*
X120127000Y-34304750D01*
X119873000Y-34304750D01*
X119591250Y-34023000D01*
X119150000Y-34017547D01*
X118929069Y-34039307D01*
X118716629Y-34103750D01*
X118520843Y-34208400D01*
X118349235Y-34349235D01*
X118208400Y-34520843D01*
X118103750Y-34716629D01*
X118039307Y-34929069D01*
X118017547Y-35150000D01*
X23627000Y-35150000D01*
X23627000Y-29779872D01*
X24265000Y-29779872D01*
X24265000Y-30220128D01*
X24350890Y-30651925D01*
X24519369Y-31058669D01*
X24763962Y-31424729D01*
X25075271Y-31736038D01*
X25441331Y-31980631D01*
X25848075Y-32149110D01*
X26279872Y-32235000D01*
X26720128Y-32235000D01*
X27151925Y-32149110D01*
X27558669Y-31980631D01*
X27924729Y-31736038D01*
X28236038Y-31424729D01*
X28480631Y-31058669D01*
X28649110Y-30651925D01*
X28735000Y-30220128D01*
X28735000Y-29779872D01*
X63595000Y-29779872D01*
X63595000Y-30220128D01*
X63680890Y-30651925D01*
X63849369Y-31058669D01*
X64093962Y-31424729D01*
X64405271Y-31736038D01*
X64771331Y-31980631D01*
X65178075Y-32149110D01*
X65609872Y-32235000D01*
X66050128Y-32235000D01*
X66481925Y-32149110D01*
X66888669Y-31980631D01*
X67254729Y-31736038D01*
X67566038Y-31424729D01*
X67810631Y-31058669D01*
X67979110Y-30651925D01*
X68065000Y-30220128D01*
X68065000Y-29779872D01*
X102925000Y-29779872D01*
X102925000Y-30220128D01*
X103010890Y-30651925D01*
X103179369Y-31058669D01*
X103423962Y-31424729D01*
X103735271Y-31736038D01*
X104101331Y-31980631D01*
X104508075Y-32149110D01*
X104939872Y-32235000D01*
X105380128Y-32235000D01*
X105811925Y-32149110D01*
X106218669Y-31980631D01*
X106584729Y-31736038D01*
X106896038Y-31424729D01*
X107140631Y-31058669D01*
X107309110Y-30651925D01*
X107395000Y-30220128D01*
X107395000Y-29779872D01*
X142255000Y-29779872D01*
X142255000Y-30220128D01*
X142340890Y-30651925D01*
X142509369Y-31058669D01*
X142753962Y-31424729D01*
X143065271Y-31736038D01*
X143431331Y-31980631D01*
X143838075Y-32149110D01*
X144269872Y-32235000D01*
X144710128Y-32235000D01*
X145141925Y-32149110D01*
X145548669Y-31980631D01*
X145914729Y-31736038D01*
X146226038Y-31424729D01*
X146470631Y-31058669D01*
X146639110Y-30651925D01*
X146725000Y-30220128D01*
X146725000Y-29779872D01*
X181585000Y-29779872D01*
X181585000Y-30220128D01*
X181670890Y-30651925D01*
X181839369Y-31058669D01*
X182083962Y-31424729D01*
X182395271Y-31736038D01*
X182761331Y-31980631D01*
X183168075Y-32149110D01*
X183599872Y-32235000D01*
X184040128Y-32235000D01*
X184471925Y-32149110D01*
X184878669Y-31980631D01*
X185244729Y-31736038D01*
X185556038Y-31424729D01*
X185800631Y-31058669D01*
X185969110Y-30651925D01*
X186055000Y-30220128D01*
X186055000Y-29779872D01*
X220915000Y-29779872D01*
X220915000Y-30220128D01*
X221000890Y-30651925D01*
X221169369Y-31058669D01*
X221413962Y-31424729D01*
X221725271Y-31736038D01*
X222091331Y-31980631D01*
X222498075Y-32149110D01*
X222929872Y-32235000D01*
X223370128Y-32235000D01*
X223801925Y-32149110D01*
X224208669Y-31980631D01*
X224574729Y-31736038D01*
X224886038Y-31424729D01*
X225130631Y-31058669D01*
X225299110Y-30651925D01*
X225385000Y-30220128D01*
X225385000Y-29779872D01*
X225299110Y-29348075D01*
X225130631Y-28941331D01*
X224886038Y-28575271D01*
X224574729Y-28263962D01*
X224208669Y-28019369D01*
X223801925Y-27850890D01*
X223370128Y-27765000D01*
X222929872Y-27765000D01*
X222498075Y-27850890D01*
X222091331Y-28019369D01*
X221725271Y-28263962D01*
X221413962Y-28575271D01*
X221169369Y-28941331D01*
X221000890Y-29348075D01*
X220915000Y-29779872D01*
X186055000Y-29779872D01*
X185969110Y-29348075D01*
X185800631Y-28941331D01*
X185556038Y-28575271D01*
X185244729Y-28263962D01*
X184878669Y-28019369D01*
X184471925Y-27850890D01*
X184040128Y-27765000D01*
X183599872Y-27765000D01*
X183168075Y-27850890D01*
X182761331Y-28019369D01*
X182395271Y-28263962D01*
X182083962Y-28575271D01*
X181839369Y-28941331D01*
X181670890Y-29348075D01*
X181585000Y-29779872D01*
X146725000Y-29779872D01*
X146639110Y-29348075D01*
X146470631Y-28941331D01*
X146226038Y-28575271D01*
X145914729Y-28263962D01*
X145548669Y-28019369D01*
X145141925Y-27850890D01*
X144710128Y-27765000D01*
X144269872Y-27765000D01*
X143838075Y-27850890D01*
X143431331Y-28019369D01*
X143065271Y-28263962D01*
X142753962Y-28575271D01*
X142509369Y-28941331D01*
X142340890Y-29348075D01*
X142255000Y-29779872D01*
X107395000Y-29779872D01*
X107309110Y-29348075D01*
X107140631Y-28941331D01*
X106896038Y-28575271D01*
X106584729Y-28263962D01*
X106218669Y-28019369D01*
X105811925Y-27850890D01*
X105380128Y-27765000D01*
X104939872Y-27765000D01*
X104508075Y-27850890D01*
X104101331Y-28019369D01*
X103735271Y-28263962D01*
X103423962Y-28575271D01*
X103179369Y-28941331D01*
X103010890Y-29348075D01*
X102925000Y-29779872D01*
X68065000Y-29779872D01*
X67979110Y-29348075D01*
X67810631Y-28941331D01*
X67566038Y-28575271D01*
X67254729Y-28263962D01*
X66888669Y-28019369D01*
X66481925Y-27850890D01*
X66050128Y-27765000D01*
X65609872Y-27765000D01*
X65178075Y-27850890D01*
X64771331Y-28019369D01*
X64405271Y-28263962D01*
X64093962Y-28575271D01*
X63849369Y-28941331D01*
X63680890Y-29348075D01*
X63595000Y-29779872D01*
X28735000Y-29779872D01*
X28649110Y-29348075D01*
X28480631Y-28941331D01*
X28236038Y-28575271D01*
X27924729Y-28263962D01*
X27558669Y-28019369D01*
X27151925Y-27850890D01*
X26720128Y-27765000D01*
X26279872Y-27765000D01*
X25848075Y-27850890D01*
X25441331Y-28019369D01*
X25075271Y-28263962D01*
X24763962Y-28575271D01*
X24519369Y-28941331D01*
X24350890Y-29348075D01*
X24265000Y-29779872D01*
X23627000Y-29779872D01*
X23627000Y-27627000D01*
X234373000Y-27627000D01*
X234373000Y-46373000D01*
G04 #@! TA.AperFunction,Conductor*
D16*
G36*
X234373000Y-46373000D02*
G01*
X28500000Y-46373000D01*
X28475224Y-46375440D01*
X28451399Y-46382667D01*
X28429443Y-46394403D01*
X28410197Y-46410197D01*
X28394403Y-46429443D01*
X28382667Y-46451399D01*
X28375440Y-46475224D01*
X28373000Y-46500000D01*
X28373000Y-117873000D01*
X23627000Y-117873000D01*
X23627000Y-36850000D01*
X118017547Y-36850000D01*
X118039307Y-37070931D01*
X118103750Y-37283371D01*
X118208400Y-37479157D01*
X118349235Y-37650765D01*
X118520843Y-37791600D01*
X118716629Y-37896250D01*
X118929069Y-37960693D01*
X119150000Y-37982453D01*
X119591250Y-37977000D01*
X119873000Y-37695250D01*
X119873000Y-36127000D01*
X120127000Y-36127000D01*
X120127000Y-37695250D01*
X120408750Y-37977000D01*
X120850000Y-37982453D01*
X121070931Y-37960693D01*
X121283371Y-37896250D01*
X121479157Y-37791600D01*
X121571948Y-37715448D01*
X121829352Y-37844863D01*
X122105931Y-37928760D01*
X122413000Y-37690486D01*
X122413000Y-36127000D01*
X120127000Y-36127000D01*
X119873000Y-36127000D01*
X118304750Y-36127000D01*
X118023000Y-36408750D01*
X118017547Y-36850000D01*
X23627000Y-36850000D01*
X23627000Y-35150000D01*
X118017547Y-35150000D01*
X118023000Y-35591250D01*
X118304750Y-35873000D01*
X119873000Y-35873000D01*
X119873000Y-34304750D01*
X120127000Y-34304750D01*
X120127000Y-35873000D01*
X122413000Y-35873000D01*
X122413000Y-34309514D01*
X122667000Y-34309514D01*
X122667000Y-35873000D01*
X122687000Y-35873000D01*
X122687000Y-36127000D01*
X122667000Y-36127000D01*
X122667000Y-37690486D01*
X122974069Y-37928760D01*
X123250648Y-37844863D01*
X123596908Y-37670774D01*
X123902552Y-37432478D01*
X124139762Y-37157747D01*
X124376589Y-37315990D01*
X124646842Y-37427932D01*
X124933740Y-37485000D01*
X125226260Y-37485000D01*
X125513158Y-37427932D01*
X125783411Y-37315990D01*
X126026632Y-37153475D01*
X126233475Y-36946632D01*
X126350000Y-36772240D01*
X126466525Y-36946632D01*
X126673368Y-37153475D01*
X126916589Y-37315990D01*
X127186842Y-37427932D01*
X127473740Y-37485000D01*
X127766260Y-37485000D01*
X128053158Y-37427932D01*
X128323411Y-37315990D01*
X128566632Y-37153475D01*
X128773475Y-36946632D01*
X128890000Y-36772240D01*
X129006525Y-36946632D01*
X129213368Y-37153475D01*
X129456589Y-37315990D01*
X129726842Y-37427932D01*
X130013740Y-37485000D01*
X130306260Y-37485000D01*
X130593158Y-37427932D01*
X130863411Y-37315990D01*
X131106632Y-37153475D01*
X131313475Y-36946632D01*
X131430000Y-36772240D01*
X131546525Y-36946632D01*
X131753368Y-37153475D01*
X131996589Y-37315990D01*
X132266842Y-37427932D01*
X132553740Y-37485000D01*
X132846260Y-37485000D01*
X133133158Y-37427932D01*
X133403411Y-37315990D01*
X133646632Y-37153475D01*
X133853475Y-36946632D01*
X133970000Y-36772240D01*
X134086525Y-36946632D01*
X134293368Y-37153475D01*
X134536589Y-37315990D01*
X134806842Y-37427932D01*
X135093740Y-37485000D01*
X135386260Y-37485000D01*
X135673158Y-37427932D01*
X135943411Y-37315990D01*
X136186632Y-37153475D01*
X136393475Y-36946632D01*
X136510000Y-36772240D01*
X136626525Y-36946632D01*
X136833368Y-37153475D01*
X137076589Y-37315990D01*
X137346842Y-37427932D01*
X137633740Y-37485000D01*
X137926260Y-37485000D01*
X138213158Y-37427932D01*
X138483411Y-37315990D01*
X138726632Y-37153475D01*
X138933475Y-36946632D01*
X139050000Y-36772240D01*
X139166525Y-36946632D01*
X139373368Y-37153475D01*
X139616589Y-37315990D01*
X139886842Y-37427932D01*
X140173740Y-37485000D01*
X140466260Y-37485000D01*
X140753158Y-37427932D01*
X141023411Y-37315990D01*
X141266632Y-37153475D01*
X141473475Y-36946632D01*
X141590000Y-36772240D01*
X141706525Y-36946632D01*
X141913368Y-37153475D01*
X142156589Y-37315990D01*
X142426842Y-37427932D01*
X142713740Y-37485000D01*
X143006260Y-37485000D01*
X143293158Y-37427932D01*
X143563411Y-37315990D01*
X143806632Y-37153475D01*
X144013475Y-36946632D01*
X144130000Y-36772240D01*
X144246525Y-36946632D01*
X144453368Y-37153475D01*
X144696589Y-37315990D01*
X144966842Y-37427932D01*
X145253740Y-37485000D01*
X145546260Y-37485000D01*
X145833158Y-37427932D01*
X146103411Y-37315990D01*
X146346632Y-37153475D01*
X146553475Y-36946632D01*
X146670000Y-36772240D01*
X146786525Y-36946632D01*
X146993368Y-37153475D01*
X147236589Y-37315990D01*
X147506842Y-37427932D01*
X147793740Y-37485000D01*
X148086260Y-37485000D01*
X148373158Y-37427932D01*
X148643411Y-37315990D01*
X148886632Y-37153475D01*
X149093475Y-36946632D01*
X149210000Y-36772240D01*
X149326525Y-36946632D01*
X149533368Y-37153475D01*
X149776589Y-37315990D01*
X150046842Y-37427932D01*
X150333740Y-37485000D01*
X150626260Y-37485000D01*
X150913158Y-37427932D01*
X151183411Y-37315990D01*
X151426632Y-37153475D01*
X151633475Y-36946632D01*
X151750000Y-36772240D01*
X151866525Y-36946632D01*
X152073368Y-37153475D01*
X152316589Y-37315990D01*
X152586842Y-37427932D01*
X152873740Y-37485000D01*
X153166260Y-37485000D01*
X153453158Y-37427932D01*
X153723411Y-37315990D01*
X153960238Y-37157747D01*
X154197448Y-37432478D01*
X154503092Y-37670774D01*
X154849352Y-37844863D01*
X155125931Y-37928760D01*
X155433000Y-37690486D01*
X155433000Y-36127000D01*
X155687000Y-36127000D01*
X155687000Y-37690486D01*
X155994069Y-37928760D01*
X156270648Y-37844863D01*
X156616908Y-37670774D01*
X156830000Y-37504636D01*
X157043092Y-37670774D01*
X157389352Y-37844863D01*
X157665931Y-37928760D01*
X157973000Y-37690486D01*
X157973000Y-36127000D01*
X158227000Y-36127000D01*
X158227000Y-37690486D01*
X158534069Y-37928760D01*
X158810648Y-37844863D01*
X159156908Y-37670774D01*
X159462552Y-37432478D01*
X159715834Y-37139133D01*
X159907020Y-36802011D01*
X160028763Y-36434069D01*
X159791170Y-36127000D01*
X158227000Y-36127000D01*
X157973000Y-36127000D01*
X155687000Y-36127000D01*
X155433000Y-36127000D01*
X155413000Y-36127000D01*
X155413000Y-35873000D01*
X155433000Y-35873000D01*
X155433000Y-34309514D01*
X155687000Y-34309514D01*
X155687000Y-35873000D01*
X157973000Y-35873000D01*
X157973000Y-34309514D01*
X158227000Y-34309514D01*
X158227000Y-35873000D01*
X159791170Y-35873000D01*
X160028763Y-35565931D01*
X159907020Y-35197989D01*
X159715834Y-34860867D01*
X159462552Y-34567522D01*
X159156908Y-34329226D01*
X158810648Y-34155137D01*
X158534069Y-34071240D01*
X158227000Y-34309514D01*
X157973000Y-34309514D01*
X157665931Y-34071240D01*
X157389352Y-34155137D01*
X157043092Y-34329226D01*
X156830000Y-34495364D01*
X156616908Y-34329226D01*
X156270648Y-34155137D01*
X155994069Y-34071240D01*
X155687000Y-34309514D01*
X155433000Y-34309514D01*
X155125931Y-34071240D01*
X154849352Y-34155137D01*
X154503092Y-34329226D01*
X154197448Y-34567522D01*
X153960238Y-34842253D01*
X153723411Y-34684010D01*
X153453158Y-34572068D01*
X153166260Y-34515000D01*
X152873740Y-34515000D01*
X152586842Y-34572068D01*
X152316589Y-34684010D01*
X152073368Y-34846525D01*
X151866525Y-35053368D01*
X151750000Y-35227760D01*
X151633475Y-35053368D01*
X151426632Y-34846525D01*
X151183411Y-34684010D01*
X150913158Y-34572068D01*
X150626260Y-34515000D01*
X150333740Y-34515000D01*
X150046842Y-34572068D01*
X149776589Y-34684010D01*
X149533368Y-34846525D01*
X149326525Y-35053368D01*
X149210000Y-35227760D01*
X149093475Y-35053368D01*
X148886632Y-34846525D01*
X148643411Y-34684010D01*
X148373158Y-34572068D01*
X148086260Y-34515000D01*
X147793740Y-34515000D01*
X147506842Y-34572068D01*
X147236589Y-34684010D01*
X146993368Y-34846525D01*
X146786525Y-35053368D01*
X146670000Y-35227760D01*
X146553475Y-35053368D01*
X146346632Y-34846525D01*
X146103411Y-34684010D01*
X145833158Y-34572068D01*
X145546260Y-34515000D01*
X145253740Y-34515000D01*
X144966842Y-34572068D01*
X144696589Y-34684010D01*
X144453368Y-34846525D01*
X144246525Y-35053368D01*
X144130000Y-35227760D01*
X144013475Y-35053368D01*
X143806632Y-34846525D01*
X143563411Y-34684010D01*
X143293158Y-34572068D01*
X143006260Y-34515000D01*
X142713740Y-34515000D01*
X142426842Y-34572068D01*
X142156589Y-34684010D01*
X141913368Y-34846525D01*
X141706525Y-35053368D01*
X141590000Y-35227760D01*
X141473475Y-35053368D01*
X141266632Y-34846525D01*
X141023411Y-34684010D01*
X140753158Y-34572068D01*
X140466260Y-34515000D01*
X140173740Y-34515000D01*
X139886842Y-34572068D01*
X139616589Y-34684010D01*
X139373368Y-34846525D01*
X139166525Y-35053368D01*
X139050000Y-35227760D01*
X138933475Y-35053368D01*
X138726632Y-34846525D01*
X138483411Y-34684010D01*
X138213158Y-34572068D01*
X137926260Y-34515000D01*
X137633740Y-34515000D01*
X137346842Y-34572068D01*
X137076589Y-34684010D01*
X136833368Y-34846525D01*
X136626525Y-35053368D01*
X136510000Y-35227760D01*
X136393475Y-35053368D01*
X136186632Y-34846525D01*
X135943411Y-34684010D01*
X135673158Y-34572068D01*
X135386260Y-34515000D01*
X135093740Y-34515000D01*
X134806842Y-34572068D01*
X134536589Y-34684010D01*
X134293368Y-34846525D01*
X134086525Y-35053368D01*
X133970000Y-35227760D01*
X133853475Y-35053368D01*
X133646632Y-34846525D01*
X133403411Y-34684010D01*
X133133158Y-34572068D01*
X132846260Y-34515000D01*
X132553740Y-34515000D01*
X132266842Y-34572068D01*
X131996589Y-34684010D01*
X131753368Y-34846525D01*
X131546525Y-35053368D01*
X131430000Y-35227760D01*
X131313475Y-35053368D01*
X131106632Y-34846525D01*
X130863411Y-34684010D01*
X130593158Y-34572068D01*
X130306260Y-34515000D01*
X130013740Y-34515000D01*
X129726842Y-34572068D01*
X129456589Y-34684010D01*
X129213368Y-34846525D01*
X129006525Y-35053368D01*
X128890000Y-35227760D01*
X128773475Y-35053368D01*
X128566632Y-34846525D01*
X128323411Y-34684010D01*
X128053158Y-34572068D01*
X127766260Y-34515000D01*
X127473740Y-34515000D01*
X127186842Y-34572068D01*
X126916589Y-34684010D01*
X126673368Y-34846525D01*
X126466525Y-35053368D01*
X126350000Y-35227760D01*
X126233475Y-35053368D01*
X126026632Y-34846525D01*
X125783411Y-34684010D01*
X125513158Y-34572068D01*
X125226260Y-34515000D01*
X124933740Y-34515000D01*
X124646842Y-34572068D01*
X124376589Y-34684010D01*
X124139762Y-34842253D01*
X123902552Y-34567522D01*
X123596908Y-34329226D01*
X123250648Y-34155137D01*
X122974069Y-34071240D01*
X122667000Y-34309514D01*
X122413000Y-34309514D01*
X122105931Y-34071240D01*
X121829352Y-34155137D01*
X121571948Y-34284552D01*
X121479157Y-34208400D01*
X121283371Y-34103750D01*
X121070931Y-34039307D01*
X120850000Y-34017547D01*
X120408750Y-34023000D01*
X120127000Y-34304750D01*
X119873000Y-34304750D01*
X119591250Y-34023000D01*
X119150000Y-34017547D01*
X118929069Y-34039307D01*
X118716629Y-34103750D01*
X118520843Y-34208400D01*
X118349235Y-34349235D01*
X118208400Y-34520843D01*
X118103750Y-34716629D01*
X118039307Y-34929069D01*
X118017547Y-35150000D01*
X23627000Y-35150000D01*
X23627000Y-29779872D01*
X24265000Y-29779872D01*
X24265000Y-30220128D01*
X24350890Y-30651925D01*
X24519369Y-31058669D01*
X24763962Y-31424729D01*
X25075271Y-31736038D01*
X25441331Y-31980631D01*
X25848075Y-32149110D01*
X26279872Y-32235000D01*
X26720128Y-32235000D01*
X27151925Y-32149110D01*
X27558669Y-31980631D01*
X27924729Y-31736038D01*
X28236038Y-31424729D01*
X28480631Y-31058669D01*
X28649110Y-30651925D01*
X28735000Y-30220128D01*
X28735000Y-29779872D01*
X63595000Y-29779872D01*
X63595000Y-30220128D01*
X63680890Y-30651925D01*
X63849369Y-31058669D01*
X64093962Y-31424729D01*
X64405271Y-31736038D01*
X64771331Y-31980631D01*
X65178075Y-32149110D01*
X65609872Y-32235000D01*
X66050128Y-32235000D01*
X66481925Y-32149110D01*
X66888669Y-31980631D01*
X67254729Y-31736038D01*
X67566038Y-31424729D01*
X67810631Y-31058669D01*
X67979110Y-30651925D01*
X68065000Y-30220128D01*
X68065000Y-29779872D01*
X102925000Y-29779872D01*
X102925000Y-30220128D01*
X103010890Y-30651925D01*
X103179369Y-31058669D01*
X103423962Y-31424729D01*
X103735271Y-31736038D01*
X104101331Y-31980631D01*
X104508075Y-32149110D01*
X104939872Y-32235000D01*
X105380128Y-32235000D01*
X105811925Y-32149110D01*
X106218669Y-31980631D01*
X106584729Y-31736038D01*
X106896038Y-31424729D01*
X107140631Y-31058669D01*
X107309110Y-30651925D01*
X107395000Y-30220128D01*
X107395000Y-29779872D01*
X142255000Y-29779872D01*
X142255000Y-30220128D01*
X142340890Y-30651925D01*
X142509369Y-31058669D01*
X142753962Y-31424729D01*
X143065271Y-31736038D01*
X143431331Y-31980631D01*
X143838075Y-32149110D01*
X144269872Y-32235000D01*
X144710128Y-32235000D01*
X145141925Y-32149110D01*
X145548669Y-31980631D01*
X145914729Y-31736038D01*
X146226038Y-31424729D01*
X146470631Y-31058669D01*
X146639110Y-30651925D01*
X146725000Y-30220128D01*
X146725000Y-29779872D01*
X181585000Y-29779872D01*
X181585000Y-30220128D01*
X181670890Y-30651925D01*
X181839369Y-31058669D01*
X182083962Y-31424729D01*
X182395271Y-31736038D01*
X182761331Y-31980631D01*
X183168075Y-32149110D01*
X183599872Y-32235000D01*
X184040128Y-32235000D01*
X184471925Y-32149110D01*
X184878669Y-31980631D01*
X185244729Y-31736038D01*
X185556038Y-31424729D01*
X185800631Y-31058669D01*
X185969110Y-30651925D01*
X186055000Y-30220128D01*
X186055000Y-29779872D01*
X220915000Y-29779872D01*
X220915000Y-30220128D01*
X221000890Y-30651925D01*
X221169369Y-31058669D01*
X221413962Y-31424729D01*
X221725271Y-31736038D01*
X222091331Y-31980631D01*
X222498075Y-32149110D01*
X222929872Y-32235000D01*
X223370128Y-32235000D01*
X223801925Y-32149110D01*
X224208669Y-31980631D01*
X224574729Y-31736038D01*
X224886038Y-31424729D01*
X225130631Y-31058669D01*
X225299110Y-30651925D01*
X225385000Y-30220128D01*
X225385000Y-29779872D01*
X225299110Y-29348075D01*
X225130631Y-28941331D01*
X224886038Y-28575271D01*
X224574729Y-28263962D01*
X224208669Y-28019369D01*
X223801925Y-27850890D01*
X223370128Y-27765000D01*
X222929872Y-27765000D01*
X222498075Y-27850890D01*
X222091331Y-28019369D01*
X221725271Y-28263962D01*
X221413962Y-28575271D01*
X221169369Y-28941331D01*
X221000890Y-29348075D01*
X220915000Y-29779872D01*
X186055000Y-29779872D01*
X185969110Y-29348075D01*
X185800631Y-28941331D01*
X185556038Y-28575271D01*
X185244729Y-28263962D01*
X184878669Y-28019369D01*
X184471925Y-27850890D01*
X184040128Y-27765000D01*
X183599872Y-27765000D01*
X183168075Y-27850890D01*
X182761331Y-28019369D01*
X182395271Y-28263962D01*
X182083962Y-28575271D01*
X181839369Y-28941331D01*
X181670890Y-29348075D01*
X181585000Y-29779872D01*
X146725000Y-29779872D01*
X146639110Y-29348075D01*
X146470631Y-28941331D01*
X146226038Y-28575271D01*
X145914729Y-28263962D01*
X145548669Y-28019369D01*
X145141925Y-27850890D01*
X144710128Y-27765000D01*
X144269872Y-27765000D01*
X143838075Y-27850890D01*
X143431331Y-28019369D01*
X143065271Y-28263962D01*
X142753962Y-28575271D01*
X142509369Y-28941331D01*
X142340890Y-29348075D01*
X142255000Y-29779872D01*
X107395000Y-29779872D01*
X107309110Y-29348075D01*
X107140631Y-28941331D01*
X106896038Y-28575271D01*
X106584729Y-28263962D01*
X106218669Y-28019369D01*
X105811925Y-27850890D01*
X105380128Y-27765000D01*
X104939872Y-27765000D01*
X104508075Y-27850890D01*
X104101331Y-28019369D01*
X103735271Y-28263962D01*
X103423962Y-28575271D01*
X103179369Y-28941331D01*
X103010890Y-29348075D01*
X102925000Y-29779872D01*
X68065000Y-29779872D01*
X67979110Y-29348075D01*
X67810631Y-28941331D01*
X67566038Y-28575271D01*
X67254729Y-28263962D01*
X66888669Y-28019369D01*
X66481925Y-27850890D01*
X66050128Y-27765000D01*
X65609872Y-27765000D01*
X65178075Y-27850890D01*
X64771331Y-28019369D01*
X64405271Y-28263962D01*
X64093962Y-28575271D01*
X63849369Y-28941331D01*
X63680890Y-29348075D01*
X63595000Y-29779872D01*
X28735000Y-29779872D01*
X28649110Y-29348075D01*
X28480631Y-28941331D01*
X28236038Y-28575271D01*
X27924729Y-28263962D01*
X27558669Y-28019369D01*
X27151925Y-27850890D01*
X26720128Y-27765000D01*
X26279872Y-27765000D01*
X25848075Y-27850890D01*
X25441331Y-28019369D01*
X25075271Y-28263962D01*
X24763962Y-28575271D01*
X24519369Y-28941331D01*
X24350890Y-29348075D01*
X24265000Y-29779872D01*
X23627000Y-29779872D01*
X23627000Y-27627000D01*
X234373000Y-27627000D01*
X234373000Y-46373000D01*
G37*
G04 #@! TD.AperFunction*
M02*
