%FSLAX45Y45*%
G04 Gerber Fmt 4.5, Leading zero omitted, Abs format (unit mm)*
G04 Created by KiCad (PCBNEW 5.1.10) date 2021-10-20 11:40:05*
%MOMM*%
%LPD*%
G01*
G04 APERTURE LIST*
%TA.AperFunction,Profile*%
%ADD10C,0.050000*%
%TD*%
%ADD11C,0.200000*%
%ADD12C,0.300000*%
G04 APERTURE END LIST*
D10*
X2250000Y-3000000D02*
X26650000Y-3000000D01*
X2250000Y-13550000D02*
X2250000Y-3000000D01*
X26650000Y-13550000D02*
X2250000Y-13550000D01*
X26650000Y-3000000D02*
X26650000Y-13550000D01*
D11*
X11950000Y-3550000D02*
X12050000Y-3650000D01*
X12050000Y-3550000D02*
X11950000Y-3650000D01*
X12204000Y-3550000D02*
X12304000Y-3650000D01*
X12304000Y-3550000D02*
X12204000Y-3650000D01*
X12458000Y-3550000D02*
X12558000Y-3650000D01*
X12558000Y-3550000D02*
X12458000Y-3650000D01*
X12712000Y-3550000D02*
X12812000Y-3650000D01*
X12812000Y-3550000D02*
X12712000Y-3650000D01*
X12966000Y-3550000D02*
X13066000Y-3650000D01*
X13066000Y-3550000D02*
X12966000Y-3650000D01*
X13220000Y-3550000D02*
X13320000Y-3650000D01*
X13320000Y-3550000D02*
X13220000Y-3650000D01*
X13474000Y-3550000D02*
X13574000Y-3650000D01*
X13574000Y-3550000D02*
X13474000Y-3650000D01*
X13728000Y-3550000D02*
X13828000Y-3650000D01*
X13828000Y-3550000D02*
X13728000Y-3650000D01*
X13982000Y-3550000D02*
X14082000Y-3650000D01*
X14082000Y-3550000D02*
X13982000Y-3650000D01*
X14236000Y-3550000D02*
X14336000Y-3650000D01*
X14336000Y-3550000D02*
X14236000Y-3650000D01*
X14490000Y-3550000D02*
X14590000Y-3650000D01*
X14590000Y-3550000D02*
X14490000Y-3650000D01*
X14744000Y-3550000D02*
X14844000Y-3650000D01*
X14844000Y-3550000D02*
X14744000Y-3650000D01*
X14998000Y-3550000D02*
X15098000Y-3650000D01*
X15098000Y-3550000D02*
X14998000Y-3650000D01*
X15252000Y-3550000D02*
X15352000Y-3650000D01*
X15352000Y-3550000D02*
X15252000Y-3650000D01*
X15506000Y-3550000D02*
X15606000Y-3650000D01*
X15606000Y-3550000D02*
X15506000Y-3650000D01*
X15760000Y-3550000D02*
X15860000Y-3650000D01*
X15860000Y-3550000D02*
X15760000Y-3650000D01*
X16014000Y-3550000D02*
X16114000Y-3650000D01*
X16114000Y-3550000D02*
X16014000Y-3650000D01*
X16268000Y-3550000D02*
X16368000Y-3650000D01*
X16368000Y-3550000D02*
X16268000Y-3650000D01*
X16522000Y-3550000D02*
X16622000Y-3650000D01*
X16622000Y-3550000D02*
X16522000Y-3650000D01*
X16776000Y-3550000D02*
X16876000Y-3650000D01*
X16876000Y-3550000D02*
X16776000Y-3650000D01*
X17030000Y-3550000D02*
X17130000Y-3650000D01*
X17130000Y-3550000D02*
X17030000Y-3650000D01*
X17284000Y-3550000D02*
X17384000Y-3650000D01*
X17384000Y-3550000D02*
X17284000Y-3650000D01*
X17538000Y-3550000D02*
X17638000Y-3650000D01*
X17638000Y-3550000D02*
X17538000Y-3650000D01*
X17792000Y-3550000D02*
X17892000Y-3650000D01*
X17892000Y-3550000D02*
X17792000Y-3650000D01*
X18046000Y-3550000D02*
X18146000Y-3650000D01*
X18146000Y-3550000D02*
X18046000Y-3650000D01*
X18300000Y-3550000D02*
X18400000Y-3650000D01*
X18400000Y-3550000D02*
X18300000Y-3650000D01*
X18554000Y-3550000D02*
X18654000Y-3650000D01*
X18654000Y-3550000D02*
X18554000Y-3650000D01*
X22193352Y-3192812D02*
X22293352Y-3292812D01*
X22293352Y-3192812D02*
X22193352Y-3292812D01*
X22447351Y-3192812D02*
X22547351Y-3292812D01*
X22547351Y-3192812D02*
X22447351Y-3292812D01*
X22701351Y-3192812D02*
X22801351Y-3292812D01*
X22801351Y-3192812D02*
X22701351Y-3292812D01*
X22955351Y-3192812D02*
X23055351Y-3292812D01*
X23055351Y-3192812D02*
X22955351Y-3292812D01*
X23209351Y-3192812D02*
X23309351Y-3292812D01*
X23309351Y-3192812D02*
X23209351Y-3292812D01*
X23463351Y-3192812D02*
X23563351Y-3292812D01*
X23563351Y-3192812D02*
X23463351Y-3292812D01*
X23717351Y-3192812D02*
X23817351Y-3292812D01*
X23817351Y-3192812D02*
X23717351Y-3292812D01*
X23971351Y-3192812D02*
X24071351Y-3292812D01*
X24071351Y-3192812D02*
X23971351Y-3292812D01*
X24225351Y-3192812D02*
X24325351Y-3292812D01*
X24325351Y-3192812D02*
X24225351Y-3292812D01*
X24479351Y-3192812D02*
X24579351Y-3292812D01*
X24579351Y-3192812D02*
X24479351Y-3292812D01*
X24733351Y-3192812D02*
X24833351Y-3292812D01*
X24833351Y-3192812D02*
X24733351Y-3292812D01*
X24987351Y-3192812D02*
X25087351Y-3292812D01*
X25087351Y-3192812D02*
X24987351Y-3292812D01*
D12*
X2533928Y-14018214D02*
X2533928Y-13718214D01*
X2605357Y-13718214D01*
X2648214Y-13732500D01*
X2676786Y-13761071D01*
X2691071Y-13789643D01*
X2705357Y-13846786D01*
X2705357Y-13889643D01*
X2691071Y-13946786D01*
X2676786Y-13975357D01*
X2648214Y-14003929D01*
X2605357Y-14018214D01*
X2533928Y-14018214D01*
X2833928Y-14018214D02*
X2833928Y-13818214D01*
X2833928Y-13875357D02*
X2848214Y-13846786D01*
X2862500Y-13832500D01*
X2891071Y-13818214D01*
X2919643Y-13818214D01*
X3019643Y-14018214D02*
X3019643Y-13818214D01*
X3019643Y-13718214D02*
X3005357Y-13732500D01*
X3019643Y-13746786D01*
X3033928Y-13732500D01*
X3019643Y-13718214D01*
X3019643Y-13746786D01*
X3205357Y-14018214D02*
X3176786Y-14003929D01*
X3162500Y-13975357D01*
X3162500Y-13718214D01*
X3362500Y-14018214D02*
X3333928Y-14003929D01*
X3319643Y-13975357D01*
X3319643Y-13718214D01*
X3705357Y-14018214D02*
X3705357Y-13718214D01*
X3805357Y-13932500D01*
X3905357Y-13718214D01*
X3905357Y-14018214D01*
X4176786Y-14018214D02*
X4176786Y-13861071D01*
X4162500Y-13832500D01*
X4133928Y-13818214D01*
X4076786Y-13818214D01*
X4048214Y-13832500D01*
X4176786Y-14003929D02*
X4148214Y-14018214D01*
X4076786Y-14018214D01*
X4048214Y-14003929D01*
X4033928Y-13975357D01*
X4033928Y-13946786D01*
X4048214Y-13918214D01*
X4076786Y-13903929D01*
X4148214Y-13903929D01*
X4176786Y-13889643D01*
X4319643Y-13818214D02*
X4319643Y-14118214D01*
X4319643Y-13832500D02*
X4348214Y-13818214D01*
X4405357Y-13818214D01*
X4433928Y-13832500D01*
X4448214Y-13846786D01*
X4462500Y-13875357D01*
X4462500Y-13961071D01*
X4448214Y-13989643D01*
X4433928Y-14003929D01*
X4405357Y-14018214D01*
X4348214Y-14018214D01*
X4319643Y-14003929D01*
X4591071Y-13989643D02*
X4605357Y-14003929D01*
X4591071Y-14018214D01*
X4576786Y-14003929D01*
X4591071Y-13989643D01*
X4591071Y-14018214D01*
X4591071Y-13832500D02*
X4605357Y-13846786D01*
X4591071Y-13861071D01*
X4576786Y-13846786D01*
X4591071Y-13832500D01*
X4591071Y-13861071D01*
X2147500Y-14462500D02*
X2247500Y-14562500D01*
X2247500Y-14462500D02*
X2147500Y-14562500D01*
X2691071Y-14648214D02*
X2519643Y-14648214D01*
X2605357Y-14648214D02*
X2605357Y-14348214D01*
X2576786Y-14391071D01*
X2548214Y-14419643D01*
X2519643Y-14433929D01*
X2819643Y-14619643D02*
X2833928Y-14633929D01*
X2819643Y-14648214D01*
X2805357Y-14633929D01*
X2819643Y-14619643D01*
X2819643Y-14648214D01*
X3019643Y-14348214D02*
X3048214Y-14348214D01*
X3076786Y-14362500D01*
X3091071Y-14376786D01*
X3105357Y-14405357D01*
X3119643Y-14462500D01*
X3119643Y-14533929D01*
X3105357Y-14591071D01*
X3091071Y-14619643D01*
X3076786Y-14633929D01*
X3048214Y-14648214D01*
X3019643Y-14648214D01*
X2991071Y-14633929D01*
X2976786Y-14619643D01*
X2962500Y-14591071D01*
X2948214Y-14533929D01*
X2948214Y-14462500D01*
X2962500Y-14405357D01*
X2976786Y-14376786D01*
X2991071Y-14362500D01*
X3019643Y-14348214D01*
X3305357Y-14348214D02*
X3333928Y-14348214D01*
X3362500Y-14362500D01*
X3376786Y-14376786D01*
X3391071Y-14405357D01*
X3405357Y-14462500D01*
X3405357Y-14533929D01*
X3391071Y-14591071D01*
X3376786Y-14619643D01*
X3362500Y-14633929D01*
X3333928Y-14648214D01*
X3305357Y-14648214D01*
X3276786Y-14633929D01*
X3262500Y-14619643D01*
X3248214Y-14591071D01*
X3233928Y-14533929D01*
X3233928Y-14462500D01*
X3248214Y-14405357D01*
X3262500Y-14376786D01*
X3276786Y-14362500D01*
X3305357Y-14348214D01*
X3591071Y-14348214D02*
X3619643Y-14348214D01*
X3648214Y-14362500D01*
X3662500Y-14376786D01*
X3676786Y-14405357D01*
X3691071Y-14462500D01*
X3691071Y-14533929D01*
X3676786Y-14591071D01*
X3662500Y-14619643D01*
X3648214Y-14633929D01*
X3619643Y-14648214D01*
X3591071Y-14648214D01*
X3562500Y-14633929D01*
X3548214Y-14619643D01*
X3533928Y-14591071D01*
X3519643Y-14533929D01*
X3519643Y-14462500D01*
X3533928Y-14405357D01*
X3548214Y-14376786D01*
X3562500Y-14362500D01*
X3591071Y-14348214D01*
X3819643Y-14648214D02*
X3819643Y-14448214D01*
X3819643Y-14476786D02*
X3833928Y-14462500D01*
X3862500Y-14448214D01*
X3905357Y-14448214D01*
X3933928Y-14462500D01*
X3948214Y-14491071D01*
X3948214Y-14648214D01*
X3948214Y-14491071D02*
X3962500Y-14462500D01*
X3991071Y-14448214D01*
X4033928Y-14448214D01*
X4062500Y-14462500D01*
X4076786Y-14491071D01*
X4076786Y-14648214D01*
X4219643Y-14648214D02*
X4219643Y-14448214D01*
X4219643Y-14476786D02*
X4233928Y-14462500D01*
X4262500Y-14448214D01*
X4305357Y-14448214D01*
X4333928Y-14462500D01*
X4348214Y-14491071D01*
X4348214Y-14648214D01*
X4348214Y-14491071D02*
X4362500Y-14462500D01*
X4391071Y-14448214D01*
X4433928Y-14448214D01*
X4462500Y-14462500D01*
X4476786Y-14491071D01*
X4476786Y-14648214D01*
X5062500Y-14333929D02*
X4805357Y-14719643D01*
X5448214Y-14348214D02*
X5476786Y-14348214D01*
X5505357Y-14362500D01*
X5519643Y-14376786D01*
X5533928Y-14405357D01*
X5548214Y-14462500D01*
X5548214Y-14533929D01*
X5533928Y-14591071D01*
X5519643Y-14619643D01*
X5505357Y-14633929D01*
X5476786Y-14648214D01*
X5448214Y-14648214D01*
X5419643Y-14633929D01*
X5405357Y-14619643D01*
X5391071Y-14591071D01*
X5376786Y-14533929D01*
X5376786Y-14462500D01*
X5391071Y-14405357D01*
X5405357Y-14376786D01*
X5419643Y-14362500D01*
X5448214Y-14348214D01*
X5676786Y-14619643D02*
X5691071Y-14633929D01*
X5676786Y-14648214D01*
X5662500Y-14633929D01*
X5676786Y-14619643D01*
X5676786Y-14648214D01*
X5876786Y-14348214D02*
X5905357Y-14348214D01*
X5933928Y-14362500D01*
X5948214Y-14376786D01*
X5962500Y-14405357D01*
X5976786Y-14462500D01*
X5976786Y-14533929D01*
X5962500Y-14591071D01*
X5948214Y-14619643D01*
X5933928Y-14633929D01*
X5905357Y-14648214D01*
X5876786Y-14648214D01*
X5848214Y-14633929D01*
X5833928Y-14619643D01*
X5819643Y-14591071D01*
X5805357Y-14533929D01*
X5805357Y-14462500D01*
X5819643Y-14405357D01*
X5833928Y-14376786D01*
X5848214Y-14362500D01*
X5876786Y-14348214D01*
X6076786Y-14348214D02*
X6262500Y-14348214D01*
X6162500Y-14462500D01*
X6205357Y-14462500D01*
X6233928Y-14476786D01*
X6248214Y-14491071D01*
X6262500Y-14519643D01*
X6262500Y-14591071D01*
X6248214Y-14619643D01*
X6233928Y-14633929D01*
X6205357Y-14648214D01*
X6119643Y-14648214D01*
X6091071Y-14633929D01*
X6076786Y-14619643D01*
X6405357Y-14648214D02*
X6462500Y-14648214D01*
X6491071Y-14633929D01*
X6505357Y-14619643D01*
X6533928Y-14576786D01*
X6548214Y-14519643D01*
X6548214Y-14405357D01*
X6533928Y-14376786D01*
X6519643Y-14362500D01*
X6491071Y-14348214D01*
X6433928Y-14348214D01*
X6405357Y-14362500D01*
X6391071Y-14376786D01*
X6376786Y-14405357D01*
X6376786Y-14476786D01*
X6391071Y-14505357D01*
X6405357Y-14519643D01*
X6433928Y-14533929D01*
X6491071Y-14533929D01*
X6519643Y-14519643D01*
X6533928Y-14505357D01*
X6548214Y-14476786D01*
X6805357Y-14448214D02*
X6805357Y-14648214D01*
X6733928Y-14333929D02*
X6662500Y-14548214D01*
X6848214Y-14548214D01*
X6948214Y-14348214D02*
X6948214Y-14405357D01*
X7062500Y-14348214D02*
X7062500Y-14405357D01*
X7505357Y-14762500D02*
X7491071Y-14748214D01*
X7462500Y-14705357D01*
X7448214Y-14676786D01*
X7433928Y-14633929D01*
X7419643Y-14562500D01*
X7419643Y-14505357D01*
X7433928Y-14433929D01*
X7448214Y-14391071D01*
X7462500Y-14362500D01*
X7491071Y-14319643D01*
X7505357Y-14305357D01*
X7591071Y-14348214D02*
X7776786Y-14348214D01*
X7676786Y-14462500D01*
X7719643Y-14462500D01*
X7748214Y-14476786D01*
X7762500Y-14491071D01*
X7776786Y-14519643D01*
X7776786Y-14591071D01*
X7762500Y-14619643D01*
X7748214Y-14633929D01*
X7719643Y-14648214D01*
X7633928Y-14648214D01*
X7605357Y-14633929D01*
X7591071Y-14619643D01*
X7919643Y-14648214D02*
X7976786Y-14648214D01*
X8005357Y-14633929D01*
X8019643Y-14619643D01*
X8048214Y-14576786D01*
X8062500Y-14519643D01*
X8062500Y-14405357D01*
X8048214Y-14376786D01*
X8033928Y-14362500D01*
X8005357Y-14348214D01*
X7948214Y-14348214D01*
X7919643Y-14362500D01*
X7905357Y-14376786D01*
X7891071Y-14405357D01*
X7891071Y-14476786D01*
X7905357Y-14505357D01*
X7919643Y-14519643D01*
X7948214Y-14533929D01*
X8005357Y-14533929D01*
X8033928Y-14519643D01*
X8048214Y-14505357D01*
X8062500Y-14476786D01*
X8419643Y-14648214D02*
X8419643Y-14348214D01*
X8548214Y-14648214D02*
X8548214Y-14491071D01*
X8533928Y-14462500D01*
X8505357Y-14448214D01*
X8462500Y-14448214D01*
X8433928Y-14462500D01*
X8419643Y-14476786D01*
X8733928Y-14648214D02*
X8705357Y-14633929D01*
X8691071Y-14619643D01*
X8676786Y-14591071D01*
X8676786Y-14505357D01*
X8691071Y-14476786D01*
X8705357Y-14462500D01*
X8733928Y-14448214D01*
X8776786Y-14448214D01*
X8805357Y-14462500D01*
X8819643Y-14476786D01*
X8833928Y-14505357D01*
X8833928Y-14591071D01*
X8819643Y-14619643D01*
X8805357Y-14633929D01*
X8776786Y-14648214D01*
X8733928Y-14648214D01*
X9005357Y-14648214D02*
X8976786Y-14633929D01*
X8962500Y-14605357D01*
X8962500Y-14348214D01*
X9233928Y-14633929D02*
X9205357Y-14648214D01*
X9148214Y-14648214D01*
X9119643Y-14633929D01*
X9105357Y-14605357D01*
X9105357Y-14491071D01*
X9119643Y-14462500D01*
X9148214Y-14448214D01*
X9205357Y-14448214D01*
X9233928Y-14462500D01*
X9248214Y-14491071D01*
X9248214Y-14519643D01*
X9105357Y-14548214D01*
X9362500Y-14633929D02*
X9391071Y-14648214D01*
X9448214Y-14648214D01*
X9476786Y-14633929D01*
X9491071Y-14605357D01*
X9491071Y-14591071D01*
X9476786Y-14562500D01*
X9448214Y-14548214D01*
X9405357Y-14548214D01*
X9376786Y-14533929D01*
X9362500Y-14505357D01*
X9362500Y-14491071D01*
X9376786Y-14462500D01*
X9405357Y-14448214D01*
X9448214Y-14448214D01*
X9476786Y-14462500D01*
X9591071Y-14762500D02*
X9605357Y-14748214D01*
X9633928Y-14705357D01*
X9648214Y-14676786D01*
X9662500Y-14633929D01*
X9676786Y-14562500D01*
X9676786Y-14505357D01*
X9662500Y-14433929D01*
X9648214Y-14391071D01*
X9633928Y-14362500D01*
X9605357Y-14319643D01*
X9591071Y-14305357D01*
M02*
