M48
; DRILL file {KiCad 5.1.10} date Wed Dec 29 16:07:39 2021
; FORMAT={-:-/ absolute / metric / decimal}
; #@! TF.CreationDate,2021-12-29T16:07:39+01:00
; #@! TF.GenerationSoftware,Kicad,Pcbnew,5.1.10
; #@! TF.FileFunction,Plated,1,2,PTH
FMAT,2
METRIC
T1C1.000
%
G90
G05
T1
X120.0Y-36.0
X122.54Y-36.0
X125.08Y-36.0
X127.62Y-36.0
X130.16Y-36.0
X132.7Y-36.0
X135.24Y-36.0
X137.78Y-36.0
X140.32Y-36.0
X142.86Y-36.0
X145.4Y-36.0
X147.94Y-36.0
X150.48Y-36.0
X153.02Y-36.0
X155.56Y-36.0
X158.1Y-36.0
X245.22Y-36.0
X247.76Y-36.0
X250.3Y-36.0
X252.84Y-36.0
X255.38Y-36.0
X257.92Y-36.0
X260.46Y-36.0
X263.0Y-36.0
T0
M30
