M48
; DRILL file {KiCad 5.1.10} date Wed Oct 20 11:40:07 2021
; FORMAT={-:-/ absolute / metric / decimal}
; #@! TF.CreationDate,2021-10-20T11:40:07+02:00
; #@! TF.GenerationSoftware,Kicad,Pcbnew,5.1.10
; #@! TF.FileFunction,Plated,1,2,PTH
FMAT,2
METRIC
T1C1.000
%
G90
G05
T1
X120.0Y-36.0
X122.54Y-36.0
X125.08Y-36.0
X127.62Y-36.0
X130.16Y-36.0
X132.7Y-36.0
X135.24Y-36.0
X137.78Y-36.0
X140.32Y-36.0
X142.86Y-36.0
X145.4Y-36.0
X147.94Y-36.0
X150.48Y-36.0
X153.02Y-36.0
X155.56Y-36.0
X158.1Y-36.0
X160.64Y-36.0
X163.18Y-36.0
X165.72Y-36.0
X168.26Y-36.0
X170.8Y-36.0
X173.34Y-36.0
X175.88Y-36.0
X178.42Y-36.0
X180.96Y-36.0
X183.5Y-36.0
X186.04Y-36.0
X222.434Y-32.428
X224.974Y-32.428
X227.514Y-32.428
X230.054Y-32.428
X232.594Y-32.428
X235.134Y-32.428
X237.674Y-32.428
X240.214Y-32.428
X242.754Y-32.428
X245.294Y-32.428
X247.834Y-32.428
X250.374Y-32.428
T0
M30
