%FSLAX45Y45*%
G04 Gerber Fmt 4.5, Leading zero omitted, Abs format (unit mm)*
G04 Created by KiCad (PCBNEW 5.1.10) date 2021-10-20 11:40:05*
%MOMM*%
%LPD*%
G01*
G04 APERTURE LIST*
%TA.AperFunction,Profile*%
%ADD10C,0.050000*%
%TD*%
%ADD11C,0.200000*%
%ADD12C,0.300000*%
G04 APERTURE END LIST*
D10*
X2250000Y-3000000D02*
X26650000Y-3000000D01*
X2250000Y-13550000D02*
X2250000Y-3000000D01*
X26650000Y-13550000D02*
X2250000Y-13550000D01*
X26650000Y-3000000D02*
X26650000Y-13550000D01*
D11*
D12*
X2533928Y-14018214D02*
X2533928Y-13718214D01*
X2605357Y-13718214D01*
X2648214Y-13732500D01*
X2676786Y-13761071D01*
X2691071Y-13789643D01*
X2705357Y-13846786D01*
X2705357Y-13889643D01*
X2691071Y-13946786D01*
X2676786Y-13975357D01*
X2648214Y-14003929D01*
X2605357Y-14018214D01*
X2533928Y-14018214D01*
X2833928Y-14018214D02*
X2833928Y-13818214D01*
X2833928Y-13875357D02*
X2848214Y-13846786D01*
X2862500Y-13832500D01*
X2891071Y-13818214D01*
X2919643Y-13818214D01*
X3019643Y-14018214D02*
X3019643Y-13818214D01*
X3019643Y-13718214D02*
X3005357Y-13732500D01*
X3019643Y-13746786D01*
X3033928Y-13732500D01*
X3019643Y-13718214D01*
X3019643Y-13746786D01*
X3205357Y-14018214D02*
X3176786Y-14003929D01*
X3162500Y-13975357D01*
X3162500Y-13718214D01*
X3362500Y-14018214D02*
X3333928Y-14003929D01*
X3319643Y-13975357D01*
X3319643Y-13718214D01*
X3705357Y-14018214D02*
X3705357Y-13718214D01*
X3805357Y-13932500D01*
X3905357Y-13718214D01*
X3905357Y-14018214D01*
X4176786Y-14018214D02*
X4176786Y-13861071D01*
X4162500Y-13832500D01*
X4133928Y-13818214D01*
X4076786Y-13818214D01*
X4048214Y-13832500D01*
X4176786Y-14003929D02*
X4148214Y-14018214D01*
X4076786Y-14018214D01*
X4048214Y-14003929D01*
X4033928Y-13975357D01*
X4033928Y-13946786D01*
X4048214Y-13918214D01*
X4076786Y-13903929D01*
X4148214Y-13903929D01*
X4176786Y-13889643D01*
X4319643Y-13818214D02*
X4319643Y-14118214D01*
X4319643Y-13832500D02*
X4348214Y-13818214D01*
X4405357Y-13818214D01*
X4433928Y-13832500D01*
X4448214Y-13846786D01*
X4462500Y-13875357D01*
X4462500Y-13961071D01*
X4448214Y-13989643D01*
X4433928Y-14003929D01*
X4405357Y-14018214D01*
X4348214Y-14018214D01*
X4319643Y-14003929D01*
X4591071Y-13989643D02*
X4605357Y-14003929D01*
X4591071Y-14018214D01*
X4576786Y-14003929D01*
X4591071Y-13989643D01*
X4591071Y-14018214D01*
X4591071Y-13832500D02*
X4605357Y-13846786D01*
X4591071Y-13861071D01*
X4576786Y-13846786D01*
X4591071Y-13832500D01*
X4591071Y-13861071D01*
M02*
